<?xml version="1.0" standalone="no"?>
<!DOCTYPE svg PUBLIC "-//W3C//DTD SVG 20010904//EN"
 "http://www.w3.org/TR/2001/REC-SVG-20010904/DTD/svg10.dtd">
<svg version="1.0" xmlns="http://www.w3.org/2000/svg"
 width="718.000000pt" height="718.000000pt" viewBox="0 0 718.000000 718.000000"
 preserveAspectRatio="xMidYMid meet">
<metadata>
Created by potrace 1.14, written by Peter Selinger 2001-2017
</metadata>
<g transform="translate(0.000000,718.000000) scale(0.100000,-0.100000)"
fill="#000000" stroke="none">
<path d="M3368 7115 c-2 -2 -44 -7 -93 -10 -49 -4 -92 -8 -95 -10 -3 -2 -34
-6 -70 -10 -51 -5 -238 -39 -330 -60 -119 -27 -315 -86 -395 -120 -16 -7 -73
-29 -125 -50 -562 -224 -1099 -638 -1464 -1130 -33 -44 -72 -96 -86 -115 -25
-33 -115 -178 -174 -280 -37 -63 -152 -301 -186 -385 -57 -141 -131 -365 -155
-475 -2 -8 -11 -46 -19 -85 -19 -81 -22 -99 -36 -180 -6 -33 -13 -73 -16 -90
-37 -201 -40 -785 -4 -947 5 -24 4 -41 -4 -49 -8 -9 -8 -10 0 -6 8 4 14 -10
18 -41 6 -44 10 -68 20 -124 7 -39 46 -200 65 -273 26 -96 114 -349 124 -353
4 -2 7 -10 7 -18 0 -8 9 -33 21 -55 11 -23 18 -48 14 -57 -3 -9 -3 -13 2 -9 7
8 82 -137 83 -160 0 -7 5 -13 10 -13 6 0 10 -4 10 -9 0 -6 16 -37 36 -71 19
-33 32 -65 28 -72 -4 -6 -3 -9 2 -6 7 5 56 -65 177 -256 6 -11 20 -29 29 -40
10 -10 30 -38 45 -60 16 -22 35 -48 43 -57 8 -9 26 -30 40 -46 14 -17 48 -56
75 -88 28 -32 49 -62 48 -66 -2 -5 1 -8 5 -6 13 3 222 -210 214 -219 -4 -4 -2
-4 4 -1 11 6 22 -1 89 -61 25 -23 125 -102 173 -137 8 -5 24 -20 37 -31 13
-12 26 -20 28 -18 2 2 15 -6 29 -18 14 -13 34 -28 44 -35 11 -6 18 -16 16 -23
-1 -6 2 -9 7 -5 13 7 71 -22 71 -35 0 -6 3 -9 8 -8 9 3 84 -42 94 -56 4 -6 8
-8 8 -4 0 4 22 -6 49 -22 26 -17 52 -30 58 -30 5 0 18 -8 29 -17 10 -10 24
-18 29 -18 14 -1 129 -58 136 -68 3 -5 10 -9 15 -8 21 1 53 -12 49 -19 -3 -4
1 -8 8 -7 34 1 48 -4 41 -15 -4 -6 -3 -8 3 -5 6 4 51 -8 100 -27 48 -19 107
-40 131 -47 23 -7 42 -16 42 -21 0 -5 3 -7 8 -4 4 2 55 -9 112 -26 58 -16 114
-32 125 -34 11 -2 38 -8 60 -13 22 -5 56 -12 75 -15 57 -9 94 -16 117 -21 12
-3 41 -7 65 -10 24 -3 63 -8 88 -11 133 -18 576 -34 597 -21 4 3 51 8 103 11
52 3 106 8 120 11 14 3 44 6 65 9 22 2 56 7 75 10 19 4 51 8 70 11 19 2 35 4
35 5 0 1 11 3 25 6 14 2 59 12 100 21 41 9 82 17 90 18 8 1 25 7 37 13 12 7
28 12 37 12 8 0 62 16 120 35 59 20 111 33 118 29 7 -4 8 -3 4 4 -4 7 -2 13 3
13 6 1 14 2 19 4 8 2 7 2 141 56 51 22 98 36 105 32 6 -3 7 -2 3 2 -10 11 111
67 127 58 6 -3 8 -2 3 2 -9 11 92 67 106 58 5 -3 7 -1 3 5 -6 10 30 28 47 24
5 -1 6 1 3 6 -2 4 21 23 52 40 77 44 90 52 141 90 25 18 51 30 58 27 8 -2 12
-1 8 4 -3 5 25 30 61 57 72 50 196 150 230 185 13 13 27 18 35 14 7 -5 10 -4
6 2 -7 12 95 113 114 113 7 0 10 2 7 5 -5 5 56 73 190 213 17 19 32 36 32 38
0 5 38 51 70 83 13 15 23 27 21 29 -2 2 9 17 23 33 14 16 26 32 26 35 0 4 10
15 22 25 11 11 18 19 14 19 -4 0 11 24 32 52 21 29 47 67 57 85 10 18 23 29
28 26 6 -3 7 -1 3 5 -3 6 9 35 27 64 19 29 37 63 41 76 4 12 11 22 15 22 4 0
13 16 21 35 8 19 17 35 22 35 4 0 8 3 7 8 -3 18 14 51 24 45 5 -3 8 -2 4 3 -3
5 4 27 14 49 36 73 109 244 109 255 0 5 4 18 10 28 10 17 31 72 32 82 0 3 6
20 13 37 8 18 11 33 8 33 -3 0 -1 6 4 13 9 10 19 40 24 72 1 6 6 21 11 35 5
14 11 32 13 40 2 8 17 72 34 142 17 70 31 136 31 148 0 14 4 19 13 14 9 -5 9
-4 0 6 -7 8 -8 22 -2 43 5 18 9 44 9 59 0 16 3 28 8 28 4 0 7 17 8 38 1 80 8
152 14 152 8 0 5 567 -4 625 -3 22 -10 81 -17 130 -6 50 -13 99 -15 110 -3 11
-7 36 -10 55 -7 46 -12 69 -19 100 -4 14 -8 34 -10 45 -1 11 -11 49 -20 85 -9
36 -18 70 -19 75 -2 10 -46 151 -71 230 -77 236 -266 605 -431 842 -49 70
-168 226 -194 254 -8 8 -34 38 -56 65 -132 156 -411 409 -578 523 -28 19 -52
38 -54 43 -2 4 -7 8 -11 8 -5 0 -43 23 -86 51 -343 227 -809 414 -1225 494
-14 3 -34 7 -45 9 -18 3 -70 12 -135 21 -14 2 -52 7 -85 11 -33 3 -73 8 -90
11 -37 5 -533 12 -537 8z"/>
<path d="M3180 126 c0 -2 8 -10 18 -17 15 -13 16 -12 3 4 -13 16 -21 21 -21
13z"/>
</g>
</svg>
