<svg xmlns="http://www.w3.org/2000/svg" xmlns:xlink="http://www.w3.org/1999/xlink" width="1509" height="890" viewBox="0 0 1509 890">
  <defs>
    <clipPath id="clip-path">
      <rect id="Rectangle_153" data-name="Rectangle 153" width="1509" height="890" transform="translate(0 -0.271)" fill="#fff" stroke="#707070" stroke-width="1"/>
    </clipPath>
    <clipPath id="clip-path-2">
      <path id="path22" d="M1681,425.644h-22V-575.874h22V425.644m-1655,0H0V-575.874H26V425.644" transform="translate(0 575.874)"/>
    </clipPath>
    <clipPath id="clip-path-3">
      <path id="path112" d="M966.463,425.644h-956V-575.874h413c16.508,19.009,35.323,37.106,57,52.229,171.376,119.562,445.575,81.449,627,190.591,83.678,50.339,139.034,130.7,150,215.331s-23.089,171.851-92,235.49c-65.613,60.588-163.2,104.584-191,182.344-9.865,27.579-9.421,56.478-9,85.216.193,13.39.373,26.836,1,40.317" transform="translate(-10.463 575.874)"/>
    </clipPath>
    <clipPath id="clip-path-4">
      <path id="path294" d="M1541.266,282.655h-1448c-32.425,0-59-21.2-59-47.648V-499.867c0-26.453,26.575-47.648,59-47.648h1448c32.424,0,59,21.2,59,47.648V235.007c0,26.45-26.576,47.648-59,47.648" transform="translate(-34.266 547.515)"/>
    </clipPath>
  </defs>
  <g id="Mask_Group_7" data-name="Mask Group 7" transform="translate(0 0.271)" clip-path="url(#clip-path)">
    <g id="g10" transform="translate(44.174 41.234)">
      <g id="g12">
        <g id="g290" transform="translate(0)">
          <g id="g292" clip-path="url(#clip-path-4)">
            <path id="path298" d="M1067.266-40.156c-32.721-34.527-70.644-68.382-120-85.216-56.029-19.113-121.989-14.734-174-40.317-59.409-29.221-83.365-87.95-117-137.445-67.469-99.286-192.749-173.053-331-186.009-103.417-9.693-211.748,16.395-291,70.555V175.175c0,26.45,26.575,47.648,59,47.648h954a290.7,290.7,0,0,0,65-123.7c5.607-22.93,8.6-45.966,2-68.723-7.567-26.123-26.873-49.32-47-70.555" transform="translate(-34.266 607.347)" fill="#c8e6de"/>
            <path id="path300" d="M470.408-73.437c-7.614-12.981-10.463-28.227-18-41.234a21.853,21.853,0,0,0-8-8.247c-5.823-3.258-12.949-2.435-20-2.749-18.342-.82-35.839-10.394-44-23.824-15.519-25.545.587-62.135-26-80.635-13.009-9.049-34.62-9.6-48-.916s-17.881,26.111-10,38.485c4.187,6.575,11.842,11.314,17,17.41,8.525,10.075,11.868,22.8,9,34.819-3.094,12.951-12.72,26.486-6,38.485,8.13,14.514,34.8,16.665,43,31.154,8.805,15.557-9.734,36.513,4,49.48,3.475,3.278,9.128,5.6,14,7.33,21.4,7.587,49.053,11.14,65-2.749,4.629-4.029,7.9-9.2,13-12.828,13.009-9.247,45.63,1.947,49-8.247,3.353-10.144-29.024-27.246-34-35.736" transform="translate(361.591 877.951)" fill="#84ce9d"/>
            <path id="path302" d="M415.2-340.169c4.15-17.206-4.771-35.332-22-45.815s-41.973-12.736-61-4.581c-15.515-33.094-37.249-69.046-79-78.8-29.991-7.007-63.9,2.526-84,21.991-15.428,14.941-23.9,35.5-22,54.978-13.587-6.7-28.244-13.478-44-11.912-22.715,2.257-38.284,25.475-28,42.15-7.925-3.735-18.22-3.187-25,1.833s-4.791,12.445-1,19.242c106.942,0,213.745.916,321,.916,2.571,0,44.737,1.082,45,0" transform="translate(-17.195 627.888)" fill="#fff"/>
            <path id="path304" d="M667.961-357.048c-1.92-14.027-14.429-26.184-31-30.238s-34.63-.983-50,5.5c-6.97-27.245-23.011-54.962-52-69.639s-73.047-12.149-92,11c-5.934-14.729-31.623-18.269-47-9.163s-21.233,26.648-21,42.15c-11.13-6.564-27.439-6.043-39,0-14.894,7.78-29.506,31.293-17,44.9,10.823,11.776,36.987,6.3,52,5.5,38.8-2.072,78.129,0,117,0h180" transform="translate(394.04 640.185)" fill="#c8e6de"/>
            <path id="path306" d="M797.971-129.808h-671V-434.937h671v305.129" transform="translate(108.028 667.677)" fill="#f9f8da"/>
            <path id="path308" d="M772.279-381.406h-639v-43.066h639v43.066" transform="translate(117.72 678.288)" fill="#eae8c3"/>
            <path id="path310" d="M155.461-412.024c0,3.633-3.547,7.33-8,7.33s-8-3.7-8-7.33,3.55-6.414,8-6.414,8,2.781,8,6.414" transform="translate(126.538 685.082)" fill="#4bae9a"/>
            <path id="path312" d="M165.516-412.024c0,3.633-3.547,7.33-8,7.33s-8-3.7-8-7.33,3.547-6.414,8-6.414,8,2.781,8,6.414" transform="translate(142.485 685.082)" fill="#fff"/>
            <path id="path314" d="M176.57-412.024c0,3.633-3.547,7.33-8,7.33s-8-3.7-8-7.33,3.547-6.414,8-6.414,8,2.781,8,6.414" transform="translate(158.43 685.082)" fill="#86cfbe"/>
            <path id="path316" d="M426.193-280.968h-289V-394.59h289v113.621" transform="translate(122.806 710.714)" fill="#dee1cc"/>
            <path id="path318" d="M405.469-280.968h-145V-394.59h145v113.621" transform="translate(312.531 710.714)" fill="#eae8c3"/>
            <path id="path320" d="M469.742-280.968h-144V-394.59h144v113.621" transform="translate(411.256 710.714)" fill="#dee1cc"/>
            <path id="path322" d="M758.193-322.721h-621V-327.3h621v4.582" transform="translate(122.806 781.789)" fill="#eae8c3"/>
            <path id="path324" d="M758.193-314.365h-621v-4.581h621v4.581" transform="translate(122.806 790.842)" fill="#dee1cc"/>
            <path id="path326" d="M758.193-305.092h-621v-5.5h621v5.5" transform="translate(122.806 799.895)" fill="#eae8c3"/>
            <path id="path328" d="M93.266-7.134h564c-4.44-22.341-12.661-44.373-26-64.141-19.25-28.536-50.75-52.049-89-61.392-60.249-14.721-130.85,13.688-154,61.392-5.509-51.494-14.019-106.505-54-146.608-30.052-30.143-75.968-48.827-123-54.978s-95.469-.417-141,11a232.053,232.053,0,0,0-36,11.912V-54.782c0,26.45,26.575,47.648,59,47.648" transform="translate(-34.266 837.303)" fill="#42b093"/>
            <path id="path330" d="M394.332-75.03c7.405-5.587,16.469-10.219,23-16.493,13.11-12.591,16.336-29.955,22-45.815s17.139-33.427,37-36.652c16.71-2.716,36.283,5.5,50-2.749,4.848-2.909,7.409-7.484,10-11.912,9.554-16.328,14.311-34.126,24-50.4s26.243-31.316,48-34.819c18.993-3.055,39.741,4.018,50,17.41s9.7,31.4-2,43.983c-6.97,7.5-16.908,13.444-26,19.242-20.646,13.171-39.229,33.11-34,54.062,4.494,18.018,26.3,33.659,20,51.313-7.247,20.321-42.473,22.1-64,33.9C522.3-37.486,519.191-.4,491.332,18.433c-25.029,16.914-85.621,19.4-109-.916-27.714-24.091-14.564-72.5,12-92.547" transform="translate(474.667 837.393)" fill="#4bae9a"/>
            <path id="path332" d="M220.76,18.722c3.11-22.674,30.6-41.511,27-64.141-3.063-19.284-26.473-30.4-41-45.815-28.531-30.275-15.138-80.742,26-98.961,7.068-3.129,14.762-5.018,21-9.163,31.817-21.158,1.8-66.613,21-96.212,9.341-14.4,31.386-22.319,51-19.242s34.875,16.786,37,32.987c2.945,22.454-17.533,45.163-10,66.89,10.991,31.7,72.325,36.733,82,68.723,7.672,25.357-23.2,51.031-14,76.053,2.426,6.6,6.84,12.329,11,18.326,37.363,53.8-4.631,114.084-71,133.78-47.116,13.984-146.886-13.052-140-63.225" transform="translate(206.24 794.037)" fill="#38958c"/>
            <path id="path334" d="M339.588-154.816c-1.252,8.457-.964,17.18-2,25.656-2.355,19.27-13.99,37.877-9,56.811h71a15.7,15.7,0,0,1,4-11.912c1.9-2.185,4.316-4.116,6-6.414,1-1.373,1.315-3.082,2-4.582,5.685-12.448,11.319-24.2,17-36.652a11.041,11.041,0,0,1,5,8.247,33.933,33.933,0,0,1-1,9.163c-2.756,13.917-2.675,28.065-2,42.15,1.1.025,1.9-.025,3,0h57c3.559-21.725,15.639-42.15,23-63.225,6.713-19.229,8.368-38.743,6-58.643-.128-1.082-.035-2.917-1-3.665a5.552,5.552,0,0,0-3-.916c-41.263-4.6-83.407-9.3-125-4.582-12.712,1.442-29.5,3.215-37,12.828-7.574,9.706-12.344,24.535-14,35.736" transform="translate(414.412 911.682)" fill="#142833"/>
            <path id="path336" d="M335.285-249.23c-.793,5.562-3.259,11.562,0,16.493,4.075,6.167,16.17,7.131,19,13.745.614,1.439.113,3.244,1,4.582s3.425,2.655,5,1.833c.7-.363.639-1.222,1-1.833,6.7-11.421,6.762-24.923,6-37.568-.273-4.552-.85-9.776-5-12.828-4.669-3.44-19.208-5.889-25-3.665-3.229,1.238-3.395,3.712-3,6.414.634,4.395,1.638,8.329,1,12.828" transform="translate(423.714 843.91)" fill="#e0684e"/>
            <path id="path338" d="M412.939-229.155c.31,3.325.414,7.564,4,9.163,4.433,1.973,10.331-1.183,15-2.749a25.447,25.447,0,0,1,14-.916c1.359.311,2.7,1.365,4,.916,1.771-.6-.209-3.024,0-4.582,1.511-11.256,2.477-22.268-2-32.987a13.76,13.76,0,0,0-3-4.582c-2.938-2.78-7.53-3.148-12-2.749-6.68.6-20.635,4.08-23,10.079-1.349,3.418.663,10.087,1,13.745.466,5.006,1.538,9.652,2,14.661" transform="translate(540.06 844.909)" fill="#e0684e"/>
            <path id="path340" d="M340.475-281.587a86.966,86.966,0,0,0-15-.916c-2.53.146-4.476.677-7,.916-1.778.168-4.389-.017-5,1.833-1.076,3.25,4.848,2.333,7,2.749a41.4,41.4,0,0,1,8,2.749c-1.012-.424-5.775.765-7,.916-2.331.289-4.655-.206-7,0-4.868.427-9.1.842-14,.916-4.713.071-9.294.256-14,0-1.306-.072-12.739-3.41-12-.916.121.4-.4.663,0,.916a87.746,87.746,0,0,0,21,9.163,117.858,117.858,0,0,0,29,4.582c10.725.311,22.392-1.156,32,2.749,10.688,4.348,16.029,13.556,22,21.991a197.528,197.528,0,0,0,42,43.066c3.745,2.843,7.909,6.029,13,6.414,7.439.564,14.485-5.029,16-11s-1.2-12.162-5-17.41c-11.642-16.113-32.221-24.857-50-35.736-18.035-11.039-29.879-30.2-54-32.987" transform="translate(332.525 829.536)" fill="#ef9976"/>
            <path id="path342" d="M359.529-284.686c-3.981,1.932-8.156,3.434-11,6.414-3,3.146-4.735,7.148-6,11a367.3,367.3,0,0,0-12,48.564c-.547,2.975-.473,6.931,2,9.163,1.791,1.615,4.382,1.395,7,1.833,6.164,1.029,11.836,2.636,18,3.665,2.105.352,4.435.636,6,1.833a8.832,8.832,0,0,1,3,5.5c3.934,22-7.192,43.795-9,65.974-.982,12.059,1.315,24.174-3,35.736-2.915,7.808-8.423,15.675-9,23.824-.1,1.508-.972,2.38,0,3.665.938,1.238,3.438,2.047,5,2.749a178.624,178.624,0,0,0,36,11.912c8.107,1.767,18.616,3.416,24-1.833.3,2.983.7,5.264,1,8.247a247.8,247.8,0,0,0,96-12.828c4.032-1.382,8.293-3.125,10-6.414a11.528,11.528,0,0,0,1-5.5c.165-32.568.831-64.557,1-97.128.061-11.881.22-24.073,3-35.736,4.156.179.962,7.432,5,8.247a4.713,4.713,0,0,0,2,0c14.7-2.956,29.294-6.207,44-9.163-.253-2.436-1.87-4.152-3-6.414-9.885-19.768,2.752-44.582-10-63.225-14.746-21.568-53.767-22.715-75-40.317-2.648-2.2-4.687-4.933-8-6.414-5.7-2.546-12.647-1.12-19,0-15.819,2.793-30.676,5.849-45,11.912-18.363,7.769-36.214,16.123-54,24.74" transform="translate(418.471 786.819)" fill="#fff"/>
            <path id="path344" d="M364.793-295.154c-.415.861-1.243,1.846-1,2.749s1.163,1.208,2,1.833c7.422,5.515,16.048,11.771,26,12.828,13.268,1.409,25.222-6.424,34-14.661,1.825-1.712,3.339-3.293,4-5.5s.409-5.283-2-6.414c-.935-.44-2.312-.237-3-.916a5.131,5.131,0,0,1-1-2.749c-.908-9.993-2.093-19.326-3-29.322-4.517-.127-8.255,2.518-12,4.582-10.182,5.611-22.424,6.086-33,11-11.322,5.254-6.614,17.436-11,26.573" transform="translate(470.208 770.715)" fill="#e0684e"/>
            <path id="path346" d="M356.57-343.786c1.225,6.25,5.194,12.073,4,18.326-.789,4.164-3.666,7.71-4,11.912s4.145,9.686,9,8.247c2.7,10.139,9.139,19.1,19,25.656a34,34,0,0,0,12,5.5c12.347,2.469,26.019-4.594,32-13.745s6.373-19.877,7-30.238c1.65-.171,3.344-.746,5-.916,4.487-4.288.774-11.716-6-12.828-.263-6.734-.169-13.829-3-20.159a26.319,26.319,0,0,0-16-14.661c-5.189-1.585-11.488-1.381-17-.916-15.768,1.332-45.505,5.958-42,23.824" transform="translate(458.429 738.712)" fill="#ef9976"/>
            <path id="path348" d="M362.5-311.793c.735.446,2.153,1.2,3,.916.641-.217.744-1.3,1-1.833,3.266-6.8,4.176-13.994,2-21.075-1.471-4.794-3.838-10.77,1-13.745a12.539,12.539,0,0,1,6-1.833c8.495-.5,16.937.4,25-1.833,3.873-1.076,8.076-2.713,12-3.665a13.063,13.063,0,0,1,11,1.833,12.32,12.32,0,0,1,4,6.414c2.632,8.146,5.372,15.678,8,23.824.418,1.285,1.721,3.572,3,2.749-1.164-4.857,4.36-8.978,6-13.745.8-2.345.334-4.909,0-7.33-2.156-15.59-17.034-30.359-36-32.987-6.1-.842-11.847-.509-18,0-8.782.729-18.459,1.573-25,6.414-5.738,4.244-8.414,11.226-10,17.41a65.768,65.768,0,0,0-2,22.908c.742,7.6,1.595,11.127,9,15.577" transform="translate(454.499 731.459)" fill="#1d4962"/>
            <path id="path350" d="M426.855-169.113c3.691,20.693,7.646,42.764-4,61.392-2.841,4.555-6.217,9.168-9,13.745-7.014,11.545-8.389,24.7-9,37.568,2.942,1.3,6.877-1.095,8-3.665s.74-5.528,1-8.247,1.8-5.608,5-6.414a2.621,2.621,0,0,1,2,0,4.82,4.82,0,0,1,2,2.749c2.419,10.262-4.631,20.835-16,25.656-1.323.848,1.323,2.837,3,2.749a43.505,43.505,0,0,0,31-15.577,34.823,34.823,0,0,0,7-29.322c-1.188-5.556-3.6-11.267-1-16.493.9-1.8,1.995-3.731,3-5.5a27.912,27.912,0,0,0,3-10.079c2.426-18.717,7.953-36.319,11-54.978s4.566-38.419-4-55.894a38.926,38.926,0,0,1-3-10.079,24.462,24.462,0,0,0-5-10.079c-2.092-2.606-6.195-3.407-10-3.665-23.993-1.635-21.378,19.9-21,32.987.513,17.8,2.859,35.53,6,53.146" transform="translate(533.145 858.172)" fill="#ef9976"/>
            <path id="path352" d="M145.082-77.106a10.241,10.241,0,0,0,6,.916h68c-1.268-10.042-1.3-21.115,4-30.238a22.043,22.043,0,0,0,2-4.582c1.414-4.109.215-9.884,4-12.828,2.011,1.75,2.76,4.942,3,7.33a112.753,112.753,0,0,1-2,34.819c-.358,1.714-.972,3.951,0,5.5h75c1.906-10.488,2.091-21.58,4-32.071,5.394-29.664,11.259-59.011,8-88.881-.111-1.016-.258-2.842-1-3.665-1.812-2.006-6.089-.757-9,0-11.784,3.06-24.649,3.206-37,3.665-22.87.856-45.238,2.57-68,4.582-11.116.982-21.9,1.637-33,2.749-6.872.688-22.689.318-27,5.5-4.011,4.819-1.885,16.391-2,21.991-.2,9.55-.321,19.769,0,29.322s1.16,18.878,2,28.405c.341,3.864-.542,25.571,3,27.489" transform="translate(126.918 915.523)" fill="#102631"/>
            <path id="path354" d="M158.344-297a48.467,48.467,0,0,0-11,6.414c-4.4,3.536-7.318,8.287-10,12.828-8.862,15.012-18.139,29.886-27,44.9-1.226,2.075-2.157,5.228-1,7.33,1.1,2.006,3.435,2.061,6,2.749,10.457,2.793,21.54,6.367,32,9.163a24.291,24.291,0,0,0,10,.916c3.3-.542,5.579-2.793,5-5.5,4.419,14.451-1.922,29.639,3,43.982,5.377,15.67,23.721,28.912,20,44.9-1.042,4.475-3.313,8.488-5,12.828-5.593,14.429,1.634,29.776,1,44.9-.3,7.2-2.044,15.153,3,21.075,3.549,4.164,9.16,6.5,15,8.247,35.342,10.554,75.154,17.1,110,5.5a188.548,188.548,0,0,0,32-14.661c13.44-7.5,27.769-17,29-30.238.628-6.74-2.688-13.482-4-20.159-1.687-8.586-.622-16.963-1-25.656-.752-17.264-6.956-34.534-12-51.313s-8.407-33.928-2-50.4c1.454,2.917,4.545,5.016,8,6.414a143.6,143.6,0,0,0,39-28.405c1.292-1.3,3.054-2.908,3-4.582-.047-1.4-1.042-2.512-2-3.665-3.07-3.685-5.93-7.308-9-11-4.254-5.108-9.182-9.894-14-14.661a121.266,121.266,0,0,0-46-28.405,167.634,167.634,0,0,0-17-4.582c-28.321-6.539-55.311-5.121-84-1.833-25.106,2.879-48.917,13.044-71,22.908" transform="translate(79.656 786.305)" fill="#ea5f5a"/>
            <path id="path356" d="M153.295-297.967a215.847,215.847,0,0,0,26,14.661c4.17,2.02,9.459,4.142,14,2.749,3.07-.944,5.175-3.277,7-5.5,3.444-4.186,6.308-9.209,9-13.745,1.322-2.232,2.787-3.943,3-6.414.206-2.386-1.231-5.021-2-7.33-1.855-5.587-3.144-10.91-5-16.493-.226-.68-.319-1.4-1-1.833a8.113,8.113,0,0,0-3-.916c-11.649-.482-38.062-5.07-46,4.582-4.1,4.981-6.767,27.065-2,30.238" transform="translate(143.705 774.444)" fill="#e98969"/>
            <path id="path358" d="M151.926-325.312a6.3,6.3,0,0,1-2,4.582,27.453,27.453,0,0,1-3,2.749c-3.917,3.143-1.942,9.042,3,11a13.657,13.657,0,0,1,5,2.749c1.65,1.657,1.186,4.284,1,6.414-.725,8.424,8.052,14.748,16,20.159,5.141,3.506,10.307,7.149,17,7.33,9.281.253,17.073-6.08,23-11.912,4.251-4.178,8.473-7.8,11-12.828,2.952-5.865,3.72-12.9,4-19.242.459-10.5.541-20.655,1-31.154.2-4.577.357-10.073-3-13.745-2.135-2.342-5.7-3.453-9-4.582-15.05-5.152-36.964-4.3-50,4.582-10.2,6.952-13.8,23.8-14,33.9" transform="translate(135.074 739.48)" fill="#f2a88d"/>
            <path id="path360" d="M154.857-292.6c-3.907-5.612-12.163-9.556-15-15.577-1.66-3.528-1.035-7.3-2-11-1.793-6.894-9.387-13.675-6-20.159,1.669-3.187,5.311-4.647,8-7.33,2.895-2.887,4.578-6.917,7-10.079,5.7-7.453,15.584-12.231,25-16.493a47.432,47.432,0,0,1,14-3.665c3.7-.413,7.373-.193,11-.916,7-1.4,11.787-7.366,19-7.33,7.685.036,13.851,6.851,21,9.163,5.182,1.673,11.046,1.378,15,4.581,4.045,3.275,4.028,7.949,7,11.912,4.892,6.525,17.971,8.9,19,16.493.6,4.434-4.207,8.414-5,12.828-1.188,6.6,6.16,13.5,2,19.242-1.235,1.706-3.931,2.8-5,4.582-1.872,3.121-.153,6.675-1,10.079-1.818,7.323-12.874,9.446-22,10.079.52-9.511,1.477-18.891,2-28.405a17.754,17.754,0,0,0-1-8.247c-1.71-4.122-5.9-7.294-10-10.079-4.922-3.344-10.6-6.563-17-6.414-3.681.088-7.434,1.076-11,1.833-5.391,1.142-10.875.966-16,2.749s-9.338,6.87-7,11c.766,1.362,1.8,2.176,2,3.665.439,3.228-4.937,5.255-8,7.33-5.189,3.512-1.093,14.294,0,21.075-4.487-2.221-7.614-8.313-12-6.414-9.277,9.665,11.225,8.532,8,17.41-3.573,9.844-20.06-9.13-22-11.912" transform="translate(114.141 720.509)" fill="#194455"/>
            <path id="path362" d="M97.457-218.727c11.226-1.018,21.713-8.847,33-9.163s23.45-3.227,31-10.079c4.588-4.167,7.624-9.407,10-14.661,2.143-4.733,4.287-9.622,4-14.661-.25-4.409-25.9-7.883-30-8.247-9.262-.826-15.131-.518-22,4.582-14.769,10.967-27.506,32.109-26,52.229" transform="translate(62.543 836.315)" fill="#cd39ef"/>
            <path id="path364" d="M151.385-228.334c6.689-.462,13.542-.336,20-1.833,8.012-1.858,14.907-6.518,22-10.079,25.623-12.874,55.48-18.75,80-32.987,5.769-3.349,11.9-7.146,18-10.079,7.135-3.44,14.153-5.151,22-7.33,1.886,1.318,1.569,3.01,0,4.582a18.668,18.668,0,0,1-6,3.665,46.213,46.213,0,0,0-18,12.828c-1.319,1.585-3.057,3.585-3,5.5s2.655,3.728,5,3.665c3.168-.088,5.411,2.344,7,4.582a17.736,17.736,0,0,1,3,7.33c.6,3.583.656,7.638-1,11a9.038,9.038,0,0,1-10,4.581c-.293-1.42-.71-2.245-1-3.665-2.291,1.28-4.709,2.386-7,3.665a21.784,21.784,0,0,1-9,2.749c-3.293.264-6.467-1-7-3.665-.462-2.315-4.254-3.445-7-2.749s-5.277,2.917-8,3.665c-7.469,2.067-15.855-2.725-23,0a17.44,17.44,0,0,0-6,3.665c-12.961,12.043-27.166,24.356-41,35.736-9.338,7.684-19.826,15.244-33,16.493-6.9.65-14.015-.13-20,2.749-4.4,2.122-7.98,6.293-13,5.5-2.92-.462-5.242-2.625-7-4.582-7.819-8.7-14.59-26.8-8-37.568,7.5-12.269,36.209-16.383,51-17.41" transform="translate(62.615 820.265)" fill="#f2a88d"/>
            <path id="path366" d="M238.945-228.306c11.912,10.268,28.778,19.006,46,17.41a174.283,174.283,0,0,0-2-35.736c-.513-3.338-1.05-7.115-3-10.079a34.968,34.968,0,0,0-8-8.247c-7.324-5.611-14.3-11.57-20-18.326-1.744-2.064-3.3-4.29-6-5.5-5.88-2.628-13.575.454-19,3.665-9.308,5.51-24.96,16.123-18,26.573,7.037,10.565,19.872,21.506,30,30.238" transform="translate(231.054 822.069)" fill="#e98969"/>
            <path id="path368" d="M234.246-208.852c6.336-8.686,16.93-15.859,20-25.656,1.393-4.436.865-9.165,1-13.745.87-29.689,17.532-57.905,38-82.467a3.057,3.057,0,0,1,2-.916c2.122-.4,2.331,1.909,2,3.665-1.39,7.387-5.537,14.55-10,21.075-1.5,2.2-3.051,4.529-1,6.414,3.509,3.225,11.191-1.159,15,1.833,3.229,2.535-.631,7.121,2,10.079.752.848,2.032,1.15,3,1.833,3.009,2.122,4.17,5.99,5,9.163a6.862,6.862,0,0,1,0,3.665c-.975,4.216-6.795,5.795-12,6.414.82,5.13-2.021,10.538-7,13.745-3.067,1.976-7.02,3.668-9,6.414-2.044,2.832-1.553,5.907-1,9.163,4.025,23.632-.5,48.068-13,69.639-.911,1.574-1.411,3.426-3,4.582-10.256,7.447-27.653-.514-33-8.247-7.753-11.215-7.016-25.671,1-36.652" transform="translate(261.752 776.96)" fill="#f2a88d"/>
            <path id="path370" d="M118.043-322.951c-3.219,3.481-8.26,6.05-12,9.163-5.167,4.3-7.444,10.588-6,16.493.286,1.17,1.182,1.761,2,2.749,2.542,3.058,7.47,3.6,12,3.665a251.671,251.671,0,0,0,27-.916,2.894,2.894,0,0,0,2-.916c.321-.385.026-.451,0-.916-.248-4.458-2.591-8.819-5-12.828a53.892,53.892,0,0,0-8-10.079c-2.052-2.086-3.774-4.457-6-6.414-2.64-2.323-3.644-2.546-6,0" transform="translate(65.956 784.767)" fill="#1e495a"/>
            <path id="path372" d="M127.852-172.8a80.915,80.915,0,0,0,62-20.159,5.125,5.125,0,0,0,2-2.749,8.7,8.7,0,0,0,0-4.582c-4.33-11.867-15.614-16.925-26-20.159-21.776-6.778-44.791-8.831-67-4.582-10.843,2.07-39.21,14.868-24,31.154,12.61,13.5,36.8,19.506,53,21.075" transform="translate(21.147 888.431)" fill="#db7b61"/>
            <path id="path374" d="M194.74-212.271c11.245-.341,22.821-.792,34-1.833,3.558-.33,7.01-.691,10,.916,4.432,2.383,4.967,7.58,5,11.912.208,26.065,13.868,50.9,14,76.969.1,20.439-8.029,40.177-11,60.476a25.68,25.68,0,0,1-4,.916h-77a66.509,66.509,0,0,1,1-23.824c1.19-5.064,2.756-9.509,3-14.661s-1.423-11.108-6-14.661c-1.825-1.417-4.063-2.229-6-.916a5.566,5.566,0,0,0-2,2.749c-2.272,7.238-2.588,14.533-2,21.991a119.757,119.757,0,0,0,6,29.322h-94c-.961-19.908-9.637-38.757-11-58.643-1.094-15.978,2.932-32.525,9-47.648,4.914-12.238,9.458-29.447,20-39.4,9.774-9.23,32.1-4.13,45-3.665,22.1.8,43.891.672,66,0" transform="translate(-3.741 902.247)" fill="#35484f"/>
            <path id="path376" d="M69.6-282.469c-7,3.077-14.371,7.06-18,12.828-3.539,5.631-2.478,12.013-2,18.326.707,9.338,1.275,18.151,2,27.489.643,8.27,1.276,16.759,4,24.74,4.49,13.158,14.62,25.751,15,39.4.117,4.2-.835,8.684,0,12.828a11.709,11.709,0,0,0,9,9.163c2.857.614,6.193.165,9,.916,5.345,1.431,7.447,6.422,7,11s-2.86,9.157-3,13.745c13.088-11.36,31.9-17.982,51-17.41,8.521.256,17.691,2.1,26,3.665,9.8,1.847,19.33,3.236,29,5.5a332.155,332.155,0,0,1,68,23.824c-.783-8.361-2.214-16.377-3-24.74-.425-4.56-1.191-9.468-5-12.828-1.948-1.717-4.443-3.2-5-5.5-.946-3.883,5.306-6.331,10-7.33,8.141-1.734,15.859-3.764,24-5.5,2.233-.476,4.333-.528,6-1.833a9.717,9.717,0,0,0,3-3.665c7.935-18.12-2.14-38.171-8-56.811-8.448-26.868-8.028-55.729-23-80.635-2.011-3.344-3.491-9.474-8-10.079-8.167-1.1-8.24.465-21-1.833-22.519-4.057-45.946.487-69,.916-16.039.294-30.588,4.2-46,7.33a259.967,259.967,0,0,0-52,16.493" transform="translate(-11.602 801.097)" fill="#ffbe49"/>
            <path id="path378" d="M77.031-278.049c23.239,12.618,52.6,17.163,80,12.828a186.552,186.552,0,0,0,23-5.5c12.152-3.534,24.425-7.72,35-13.745a279.408,279.408,0,0,0-61-3.665c-5.021.217-10.968.521-14-2.749-2.093-2.262-2.731-5.426-3-8.247-.937-9.872-22.978-40.476-37-26.573-5.925,5.876-2.853,17.689-5,24.74a39.354,39.354,0,0,1-18,22.908" transform="translate(30.967 780.182)" fill="#db7b61"/>
            <path id="path380" d="M78.367-316.409c-3.119,3.977-1.8,10.189,3,12.828,2.3,1.266,5.427,1.8,7,3.665,1.8,2.136.937,4.738,1,7.33.231,9.186,10.38,16.3,20,21.075a60.18,60.18,0,0,0,16,5.5c5.729,1.051,12.388,1.131,17-1.833a22.672,22.672,0,0,0,6-6.414c13.875-19.79,15.331-44.095,16-66.89.086-2.909.316-5.544-1-8.247-2.633-5.4-10.1-7.7-17-9.163-10.771-2.279-22.515-3.041-33,0s-19.881,9.613-23,18.326c-2.879,8.036-.239,16.79-3,24.74-2.651-.611-6.2-1.6-9-.916" transform="translate(30.633 746.155)" fill="#f39c81"/>
            <path id="path382" d="M130.609-339.5c-7.239,6.869-10.871,15.73-12,24.74-.269,2.144-.266,3.995-2,6.414-.813,1.137-.405,2.042-2,1.833-6.794-.894-7.522,1.152-7,6.414.447,4.5,5.947,5.731,8,8.247,8.278,10.13,11.838,19.719,11,31.154-.858,11.683-8.546,22.158-14,32.987s-8.236,24.318,0,33.9c-3.842-.928-6.619-4.1-6-7.33-6.092,10.5,6.428,21.384,7,32.987.521,10.59-9.538,20.955-6,31.154-7.525-2.884-12.19-9.712-12-16.493-8.81-.382-17.945-4.245-21-11-2.036-4.5-1.594-9.878-2-14.661s-2.676-9.878-8-11.912a22.313,22.313,0,0,1-4-1.833c-2.549-1.637-2.066-4.832-1-7.33s2.585-4.7,3-7.33c.36-2.273-.609-4.144-1-6.414-1.409-8.152,2.6-16.074,6-23.824-2.077,2.482-3.923,4.848-6,7.33,4.263-5.757,1-13.482,2-20.159,1.313-8.771,9.2-16.027,11-24.74,1.179-5.694.214-10.8-1-16.493-3.109-14.553-.7-31.574,13-41.234a61.784,61.784,0,0,0,9-7.33c4.171-4.288,5.781-9.858,9-14.661,5.649-8.427,17.33-12.479,29-13.745,9.835-1.065,20.179-.955,29,2.749,8.223,3.451,16.792,11.316,16,19.242-9.372,2.025-15.478-2.146-24-2.749-8.881-.627-18.489,4.853-24,10.079" transform="translate(3.389 737.175)" fill="#1e495a"/>
            <path id="path384" d="M121.625-334.785c.108,12.329-2.742,25.377-5,37.568-.893,4.83-1.105,8.912-2,13.745-1.186,6.41-2.421,13.455-6,19.242-2.232,3.611-5.663,6.961-6,11,10.629.6,21.368,1.23,32,1.833a11.554,11.554,0,0,1,4,.916,3.021,3.021,0,0,0,2,0c.519-.124.747-.525,1-.916,3.458-5.32-.777-11.471-2-17.41-1.171-5.7.751-11.672,0-17.41-.8-6.143-4.913-12.2-4-18.326,1.378,2.705,2.623,5.541,4,8.247-.211-5.986-3.793-11.5-5-17.41-.582-2.857-.043-5.352,0-8.247.083-5.551-.084-10.943,0-16.493.066-4.329-.081-8.791-2-12.828-1.909-4.013-6.255-7.311-11-9.163-3.408-1.329-12.457-3.484-14,.916-1.346,3.825,6.6,6.9,9,9.163,4.618,4.357,4.951,10.068,5,15.577" transform="translate(70.373 744.372)" fill="#1e495a"/>
            <path id="path386" d="M152.77-226.589a33.208,33.208,0,0,0,9-1.833,22.828,22.828,0,0,0,6-3.665,174.64,174.64,0,0,0,14-11.912c3.787-3.611,7.979-8.359,6-12.828-.564-1.28-2.01-2.306-2-3.665.015-1.9,2.135-3.439,4-4.582a149.974,149.974,0,0,1,25-11.912,3.538,3.538,0,0,1,0,4.582c-1.009,1.384-2.4,1.8-4,2.749-2.888,1.72-6.113,3.778-9,5.5-2.3,1.373-5.289,3.183-5,5.5.266,2.13,3.394,3.423,6,3.665s5.4-.644,8-.916c10.1-1.068,20.392,3.584,25,11-.563,1.693-3.178.933-5,0-6.457-3.308-14.531-5.842-22-4.582-1.572.267-2.954,1.695-2,2.749.215.237,2.531-.069,3,0a28.515,28.515,0,0,1,3,.916c2.193.542,6.016,2.732,8,3.665,3.981,1.869,6.352,3.354,9,6.414a20.341,20.341,0,0,1,3,4.582,14.469,14.469,0,0,1,1,2.749c.256.947.255.8-1,.916a4.755,4.755,0,0,1-2,0,17.11,17.11,0,0,1-5-1.833c-2.318-1.58-4-3.409-7-3.665a40.994,40.994,0,0,1,5,3.665c.7.572,7.067,4.923,4,5.5-1.424.27-3.627-.6-5-.916a18.935,18.935,0,0,1-5-1.833c-3.461-1.786-7.107-4.342-11-5.5a16.148,16.148,0,0,0-6-.916c-10.112,1.205-12.821,14.829-23,15.577-1.866.14-4.126.008-6,0a28.7,28.7,0,0,0-8,.916c-15.755,4.125-31.782,7.4-48,10.079a19.819,19.819,0,0,1-4,0c-1.431-.121-2.74-1.268-4-1.833-6.783-3.036-14.568-5.47-20-10.079-7.588-6.434,7.123-6.387,12-6.414,17.826-.1,35.237-.6,53-1.833" transform="translate(44.23 835.013)" fill="#f39c81"/>
            <path id="path388" d="M199.16-43.825c-33.439-56.2-32.5-124.741,2-180.512,45.419,19.121,71.591,61.9,74,103.542,1.754,30.38-7.858,60.059-22,87.965-18.791,37.081-36.477,18.457-54-11" transform="translate(180.838 891.405)" fill="#42b093"/>
            <path id="path390" d="M211.16-76.361c8.36-29.7,17.856-60.673,40-85.216,14.152-15.684,32.354-28.156,51-40.317,20.174-13.166,40.816-26.254,61-39.4,8.333,47.569,2.15,97.656-23,141.111-19.2,33.16-49.581,62.306-88,81.551-14.918,7.475-39.373,22.447-52,8.247-11.113-12.5,7.3-52.8,11-65.974" transform="translate(214.839 873.544)" fill="#5fbba4"/>
            <path id="path392" d="M162.449-45.022c-33.113-14.1-66.49-28.548-90-52.229-15.027-15.136-25.284-33.521-35-51.313-10.511-19.251-20.509-38.465-31-57.727,58.526,5.449,115.818,23.225,161,54.062,34.477,23.53,60.885,55.529,74,90.714,5.095,13.664,17.034,35.776-3,42.15-17.63,5.611-61.315-19.4-76-25.656" transform="translate(-77.451 910.927)" fill="#5fbba4"/>
            <path id="path394" d="M111.539-53.587c-19.966-17.358-40.137-35.328-50-57.727-6.3-14.319-7.452-29.741-9-44.9-1.674-16.4-3.341-33.075-5-49.48,41.439,16.311,78.416,41.075,102,73.3,18,24.6,27.435,53.767,26,82.467-.556,11.146.785,29.742-16,30.238-14.771.432-39.145-26.208-48-33.9" transform="translate(-14.54 911.246)" fill="#84ce9d"/>
          </g>
        </g>
      </g>
    </g>
  </g>
</svg>
