<svg xmlns="http://www.w3.org/2000/svg" xmlns:xlink="http://www.w3.org/1999/xlink" width="100" height="100" viewBox="0 0 100 100">
  <defs>
    <clipPath id="clip-path">
      <rect id="Rectangle_194" data-name="Rectangle 194" width="100" height="100" transform="translate(0 0)" fill="#fff"/>
    </clipPath>
    <radialGradient id="radial-gradient" cx="0.329" cy="0.224" r="0.781" gradientTransform="translate(-0.01 0.01) scale(0.973 0.968)" gradientUnits="objectBoundingBox">
      <stop offset="0" stop-color="#442f55" stop-opacity="0.98"/>
      <stop offset="1" stop-color="#12002c"/>
    </radialGradient>
  </defs>
  <g id="Mask_Group_47" data-name="Mask Group 47" clip-path="url(#clip-path)">
    <g id="after-effects-cc" transform="translate(0 1.25)">
      <path id="Path_791" data-name="Path 791" d="M12.5,78.391h91.667v89.167H12.5Z" transform="translate(-8.333 -74.225)" fill="url(#radial-gradient)"/>
      <path id="Path_792" data-name="Path 792" d="M4.167,70.058H95.833v89.167H4.167ZM0,163.392H100v-97.5H0Zm70.75-50.5a18.433,18.433,0,0,0,3.083-.083c0-.292.083-.5.083-.708,0-2.25-1.083-6.417-5.417-6.417-4,0-5.708,3.5-6.125,7.208H70.75ZM62.292,118.6c.083,5.625,2.75,9.417,9.083,9.417a16.307,16.307,0,0,0,6.792-1.292c.292-.125.5-.083.5.292v5.208a.882.882,0,0,1-.417.833,18.894,18.894,0,0,1-8.375,1.583c-11,0-15.125-8.125-15.125-17.167,0-9.833,5.083-17.875,14.042-17.875,9.083,0,12.25,7.625,12.25,13.833a21.07,21.07,0,0,1-.333,4.417.62.62,0,0,1-.542.542,60.319,60.319,0,0,1-6.958.291H62.292Zm-22.333-4.25c-1.167-4.625-4-14.708-5.042-19.583h-.083c-.875,4.875-3.167,13.125-4.875,19.583ZM28.25,121.1l-3.292,12.458c-.083.333-.208.458-.625.458H18.208c-.417,0-.5-.125-.417-.625L29.625,92.016a12.772,12.772,0,0,0,.417-3.417c0-.292.125-.417.333-.417h8.75c.292,0,.417.083.5.417l13.25,44.875c.083.333,0,.542-.333.542H45.667a.564.564,0,0,1-.625-.416l-3.417-12.5H28.25Z" transform="translate(0 -65.891)" fill="#d8a1ff"/>
    </g>
  </g>
</svg>
