<svg xmlns="http://www.w3.org/2000/svg" xmlns:xlink="http://www.w3.org/1999/xlink" width="100" height="100" viewBox="0 0 100 100">
  <defs>
    <clipPath id="clip-path">
      <rect id="Rectangle_194" data-name="Rectangle 194" width="100" height="100" fill="#fff"/>
    </clipPath>
  </defs>
  <g id="Mask_Group_52" data-name="Mask Group 52" clip-path="url(#clip-path)">
    <g id="g1865" transform="translate(0 20.101)">
      <path id="path1857" d="M38.115,22.816a10.063,10.063,0,0,0,.366,2.96,17.8,17.8,0,0,0,1.064,2.395,1.447,1.447,0,0,1,.233.765,1.317,1.317,0,0,1-.632,1l-2.1,1.4a1.6,1.6,0,0,1-.865.3,1.53,1.53,0,0,1-1-.466,10.29,10.29,0,0,1-1.2-1.563c-.333-.565-.665-1.2-1.031-1.962a12.286,12.286,0,0,1-9.778,4.59,9.113,9.113,0,0,1-6.652-2.395,8.544,8.544,0,0,1-2.461-6.386A8.562,8.562,0,0,1,17.1,16.6,12.1,12.1,0,0,1,25.244,14a26.333,26.333,0,0,1,3.525.266c1.231.166,2.494.432,3.825.732V12.572c0-2.528-.532-4.29-1.563-5.321-1.064-1.031-2.86-1.53-5.421-1.53a15.132,15.132,0,0,0-3.592.432,26.5,26.5,0,0,0-3.592,1.131,9.543,9.543,0,0,1-1.164.432,2.04,2.04,0,0,1-.532.1c-.466,0-.7-.333-.7-1.031V5.155a2.1,2.1,0,0,1,.233-1.164,2.49,2.49,0,0,1,.931-.7,19.148,19.148,0,0,1,4.191-1.5,20.164,20.164,0,0,1,5.188-.632c3.958,0,6.851.9,8.714,2.694,1.829,1.8,2.76,4.523,2.76,8.182V22.816Zm-13.5,5.055a10.779,10.779,0,0,0,3.426-.6,7.411,7.411,0,0,0,3.16-2.129,5.279,5.279,0,0,0,1.131-2.129,11.94,11.94,0,0,0,.333-2.894v-1.4a27.775,27.775,0,0,0-3.06-.565,25.061,25.061,0,0,0-3.126-.2,7.667,7.667,0,0,0-4.956,1.33,4.636,4.636,0,0,0-1.63,3.825,4.643,4.643,0,0,0,1.231,3.525,4.612,4.612,0,0,0,3.492,1.231Zm26.707,3.592a1.857,1.857,0,0,1-1.264-.333,2.711,2.711,0,0,1-.7-1.3L41.54,4.124a5.826,5.826,0,0,1-.3-1.33.73.73,0,0,1,.8-.831H45.3a1.844,1.844,0,0,1,1.3.333,2.721,2.721,0,0,1,.665,1.3l5.588,22.017L58.037,3.592a2.333,2.333,0,0,1,.632-1.3A2.288,2.288,0,0,1,60,1.962H62.66a2,2,0,0,1,1.33.333,2.241,2.241,0,0,1,.632,1.3l5.255,22.283L75.631,3.592a2.852,2.852,0,0,1,.665-1.3,2.17,2.17,0,0,1,1.3-.333h3.093a.739.739,0,0,1,.831.831,3.317,3.317,0,0,1-.067.532,4.732,4.732,0,0,1-.233.831L73.2,29.867a2.55,2.55,0,0,1-.7,1.3,2.128,2.128,0,0,1-1.264.333H68.38a2,2,0,0,1-1.33-.333,2.358,2.358,0,0,1-.632-1.33L61.263,8.381,56.141,29.8a2.6,2.6,0,0,1-.632,1.33,2.061,2.061,0,0,1-1.33.333Zm42.738.9a22.009,22.009,0,0,1-5.122-.6,15.13,15.13,0,0,1-3.825-1.33,2.4,2.4,0,0,1-1.031-.931,2.348,2.348,0,0,1-.2-.931v-1.7c0-.7.266-1.031.765-1.031a1.883,1.883,0,0,1,.6.1c.2.067.5.2.831.333a18.091,18.091,0,0,0,3.658,1.164,19.973,19.973,0,0,0,3.958.4,8.974,8.974,0,0,0,4.856-1.1,3.582,3.582,0,0,0,1.729-3.16,3.239,3.239,0,0,0-.9-2.328,8.345,8.345,0,0,0-3.359-1.729l-4.823-1.5a10.144,10.144,0,0,1-5.321-3.392,7.924,7.924,0,0,1-1.663-4.823,7.4,7.4,0,0,1,.9-3.692A8.552,8.552,0,0,1,87.5,3.392a10.556,10.556,0,0,1,3.459-1.729A14.5,14.5,0,0,1,95.154,1.1a16.7,16.7,0,0,1,2.228.133c.765.1,1.463.233,2.162.366.665.166,1.3.333,1.9.532a7.259,7.259,0,0,1,1.4.6,2.876,2.876,0,0,1,1,.831,1.792,1.792,0,0,1,.3,1.1V6.219c0,.7-.266,1.064-.765,1.064a3.46,3.46,0,0,1-1.264-.4,15.215,15.215,0,0,0-6.386-1.3,8.584,8.584,0,0,0-4.423.931,3.212,3.212,0,0,0-1.563,2.96,3.141,3.141,0,0,0,1,2.361,9.934,9.934,0,0,0,3.658,1.829l4.723,1.5a10.116,10.116,0,0,1,5.155,3.193,7.526,7.526,0,0,1,1.53,4.656,8.55,8.55,0,0,1-.865,3.858A8.945,8.945,0,0,1,102.5,29.8a10.721,10.721,0,0,1-3.692,1.863,15.815,15.815,0,0,1-4.756.7Z" transform="translate(-9.934 -1.098)" fill="#252f3e"/>
      <g id="g1863" transform="translate(0 37.281)">
        <path id="path1859" d="M92.073,127.044c-10.942,8.082-26.84,12.372-40.509,12.372A73.286,73.286,0,0,1,2.107,120.559c-1.031-.931-.1-2.2,1.131-1.463a99.739,99.739,0,0,0,49.489,13.137,98.758,98.758,0,0,0,37.749-7.716C92.306,123.685,93.869,125.714,92.073,127.044Z" transform="translate(-1.664 -116.898)" fill="#f90" fill-rule="evenodd"/>
        <path id="path1861" d="M259.145,117.9c-1.4-1.8-9.246-.865-12.8-.432-1.064.133-1.231-.8-.266-1.5,6.253-4.39,16.53-3.126,17.727-1.663,1.2,1.5-.333,11.774-6.186,16.7-.9.765-1.763.366-1.364-.632C257.582,127.077,260.542,119.661,259.145,117.9Z" transform="translate(-164.18 -112.94)" fill="#f90" fill-rule="evenodd"/>
      </g>
    </g>
  </g>
</svg>
