<svg xmlns="http://www.w3.org/2000/svg" xmlns:xlink="http://www.w3.org/1999/xlink" width="100" height="100" viewBox="0 0 100 100">
  <defs>
    <clipPath id="clip-path">
      <rect id="Rectangle_194" data-name="Rectangle 194" width="100" height="100" fill="#fff"/>
    </clipPath>
  </defs>
  <g id="Mask_Group_54" data-name="Mask Group 54" clip-path="url(#clip-path)">
    <g id="layer1" transform="translate(14.576)">
      <g id="g3013" transform="translate(0)">
        <path id="polygon2989" d="M114.577,58.957l-6.454,72.3L79.11,139.3l-28.932-8.032L43.73,58.957Z" transform="translate(-43.73 -39.305)" fill="#264de4"/>
        <path id="polygon2991" d="M173.443,138.483,178.959,76.7H150v68.287Z" transform="translate(-114.577 -51.13)" fill="#2965f1"/>
        <path id="polygon2993" d="M88.072,157.158l.795,8.869h19.848v-8.869Z" transform="translate(-73.292 -104.772)" fill="#ebebeb"/>
        <path id="polygon2995" d="M105.52,103.3H83.28l.806,8.869H105.52Z" transform="translate(-70.097 -68.869)" fill="#ebebeb"/>
        <path id="polygon2997" d="M111.1,216.028V206.8l-.039.01-9.878-2.667-.631-7.074h-8.9L92.888,211l18.168,5.044Z" transform="translate(-75.674 -131.38)" fill="#ebebeb"/>
        <path id="path2999" d="M93.75,0h10.742V4.492h-6.25V8.984h6.25v4.492H93.75Z" transform="translate(-77.077)"/>
        <path id="path3001" d="M132.422,0h10.742V3.906h-6.25v.781h6.25v8.984H132.422V9.57h6.25V8.789h-6.25Z" transform="translate(-102.858)"/>
        <path id="path3003" d="M171.094,0h10.742V3.906h-6.25v.781h6.25v8.984H171.094V9.57h6.25V8.789h-6.25Z" transform="translate(-128.639)"/>
        <path id="polygon3005" d="M160.829,130.124l-1.029,11.5-9.892,2.67v9.227l18.182-5.039.133-1.5,2.084-23.35.216-2.382,1.6-17.952H149.908v8.869h12.5l-.807,9.082H149.908v8.869Z" transform="translate(-114.515 -68.869)" fill="#fff"/>
      </g>
    </g>
  </g>
</svg>
