<svg xmlns="http://www.w3.org/2000/svg" xmlns:xlink="http://www.w3.org/1999/xlink" width="50" height="50" viewBox="0 0 50 50">
  <defs>
    <clipPath id="clip-path">
      <rect id="Rectangle_201" data-name="Rectangle 201" width="50" height="50" transform="translate(-20442 -5760)" fill="#fff"/>
    </clipPath>
    <linearGradient id="linear-gradient" x1="0.829" y1="0.916" x2="0.13" y2="0.033" gradientUnits="objectBoundingBox">
      <stop offset="0" stop-color="#3b5998"/>
      <stop offset="1" stop-color="#369"/>
    </linearGradient>
  </defs>
  <g id="Mask_Group_65" data-name="Mask Group 65" transform="translate(20442 5760)" clip-path="url(#clip-path)">
    <path id="iconfinder_570631_facebook_fb_social_social_network_icon" data-name="iconfinder_570631_facebook_fb_social_social network_icon" d="M25.713.713a25,25,0,0,0,0,50c.179,0,.357,0,.535-.007V34.224H20.711V27.3h5.537V23.15c0-5.7,3.218-9.689,8.305-9.689H40.09v6.921H37.321q-4.148,0-4.153,4.153V27.3H40.09l-1.384,6.921H33.169V49.582A25,25,0,0,0,25.713.713Z" transform="translate(-20442.713 -5760.713)" fill="url(#linear-gradient)"/>
  </g>
</svg>
