<svg xmlns="http://www.w3.org/2000/svg" xmlns:xlink="http://www.w3.org/1999/xlink" width="100" height="100" viewBox="0 0 100 100">
  <defs>
    <clipPath id="clip-path">
      <rect id="Rectangle_194" data-name="Rectangle 194" width="100" height="100" fill="#fff"/>
    </clipPath>
  </defs>
  <g id="Mask_Group_51" data-name="Mask Group 51" clip-path="url(#clip-path)">
    <g id="firebase-ar21" transform="translate(0 33.743)">
      <g id="Group_94" data-name="Group 94" transform="translate(0 0)">
        <path id="Path_808" data-name="Path 808" d="M0,26.244l.2-.276L9.508,8.3l.02-.187L5.423.4A.762.762,0,0,0,4,.644Z" transform="translate(0 0)" fill="#ffc24a"/>
        <path id="Path_809" data-name="Path 809" d="M.349,26.275l.149-.29L9.71,8.5,5.617.761A.692.692,0,0,0,4.3,1Z" transform="translate(-0.232 -0.241)" fill="#ffa712"/>
        <g id="Group_92" data-name="Group 92" transform="translate(0.116 0.121)">
          <path id="Path_810" data-name="Path 810" d="M.349,26.275l.149-.29L9.71,8.5,5.617.761A.692.692,0,0,0,4.3,1Z" transform="translate(-0.349 -0.362)"/>
        </g>
        <path id="Path_811" data-name="Path 811" d="M31.515,23.075l3.056-3.13L31.515,14.11a.788.788,0,0,0-1.388,0l-1.633,3.116v.265Z" transform="translate(-18.996 -9.13)" fill="#f4bd62"/>
        <path id="Path_812" data-name="Path 812" d="M31.52,23.18l2.971-3.043L31.52,14.48a.684.684,0,0,0-1.247-.056l-1.642,3.162-.049.162Z" transform="translate(-19.055 -9.365)" fill="#ffa50e"/>
        <g id="Group_93" data-name="Group 93" transform="translate(9.527 4.683)">
          <path id="Path_813" data-name="Path 813" d="M31.52,23.18l2.971-3.043L31.52,14.48a.684.684,0,0,0-1.247-.056l-1.642,3.162-.049.162Z" transform="translate(-28.582 -14.048)"/>
        </g>
        <path id="Path_814" data-name="Path 814" d="M9.507,24.233,0,42.4l.089-.09.324-.132,11.914-11.87.151-.411Z" transform="translate(0 -16.155)" fill="#f6820c"/>
        <path id="Path_815" data-name="Path 815" d="M12.9,45.495l10.783-6.014L20.606,20.516a.737.737,0,0,0-1.249-.4L0,39.508l10.721,5.986a2.238,2.238,0,0,0,2.18,0" transform="translate(0 -13.265)" fill="#fde068"/>
        <path id="Path_816" data-name="Path 816" d="M23.829,39.613l-3.056-18.82a.647.647,0,0,0-1.122-.41L.362,39.654l10.6,5.926a2.221,2.221,0,0,0,2.164,0Z" transform="translate(-0.241 -13.447)" fill="#fcca3f"/>
        <path id="Path_817" data-name="Path 817" d="M12.9,84.161a2.237,2.237,0,0,1-2.18,0L.086,78.26,0,78.352l10.721,5.986a2.237,2.237,0,0,0,2.18,0l10.783-6.014-.026-.162Z" transform="translate(0 -52.108)" fill="#eeab37"/>
      </g>
      <path id="Path_818" data-name="Path 818" d="M128.646,89.049h-1.835V74.766h8.328v1.755h-6.492v4.688h5.865v1.717h-5.865Zm9.719-12.228a1.3,1.3,0,1,1,.38-.917,1.25,1.25,0,0,1-.38.917Zm0,12.228H136.53V79.274h1.835Zm3.961,0H140.49V79.274h1.755v1.6h.079a2.5,2.5,0,0,1,1.147-1.316,3.262,3.262,0,0,1,1.686-.519,3.476,3.476,0,0,1,1.378.24l-.7,1.717a2.562,2.562,0,0,0-.977-.14,2.4,2.4,0,0,0-1.765.788,2.836,2.836,0,0,0-.768,2.064V89.05Zm9.035.308a4.711,4.711,0,0,1-3.6-1.476,5.235,5.235,0,0,1-1.388-3.73,5.418,5.418,0,0,1,1.337-3.67,4.374,4.374,0,0,1,3.441-1.536,4.527,4.527,0,0,1,3.481,1.417,5.365,5.365,0,0,1,1.306,3.791l-.021.339h-7.711a3.322,3.322,0,0,0,.987,2.334,2.992,2.992,0,0,0,2.125.857,2.633,2.633,0,0,0,2.673-1.676l1.645.679a4.314,4.314,0,0,1-1.576,1.905,4.58,4.58,0,0,1-2.694.768Zm2.632-6.374a2.613,2.613,0,0,0-.768-1.6,2.742,2.742,0,0,0-2.1-.758,2.636,2.636,0,0,0-1.765.637,3.262,3.262,0,0,0-1.028,1.717h5.655Zm8.6,6.374a4.145,4.145,0,0,1-2-.479,3.5,3.5,0,0,1-1.337-1.2h-.069v1.357h-1.755V74.766h1.835v4.508l-.08,1.357h.08a3.351,3.351,0,0,1,1.337-1.2,4.189,4.189,0,0,1,2-.479,4.282,4.282,0,0,1,3.271,1.5,5.316,5.316,0,0,1,1.378,3.7,5.243,5.243,0,0,1-1.378,3.7,4.338,4.338,0,0,1-3.271,1.5Zm-.308-1.676a2.921,2.921,0,0,0,2.194-.966,4.04,4.04,0,0,0,0-5.126,2.919,2.919,0,0,0-2.194-.966,2.889,2.889,0,0,0-2.2.956,4.1,4.1,0,0,0,0,5.147,2.925,2.925,0,0,0,2.2.958Zm9.78,1.676a3.924,3.924,0,0,1-2.6-.9,3.17,3.17,0,0,1,.188-4.868,5.019,5.019,0,0,1,3.053-.908,5.254,5.254,0,0,1,2.652.6V83a2.181,2.181,0,0,0-.738-1.725,2.653,2.653,0,0,0-1.816-.648,2.8,2.8,0,0,0-1.447.38,1.953,1.953,0,0,0-.887,1.037l-1.676-.718a3.786,3.786,0,0,1,1.337-1.624,4.286,4.286,0,0,1,2.632-.748,4.519,4.519,0,0,1,3.112,1.1,3.916,3.916,0,0,1,1.237,3.091v5.9h-1.745V87.692h-.08a3.6,3.6,0,0,1-3.212,1.676Zm.308-1.676a2.988,2.988,0,0,0,2.064-.848,2.633,2.633,0,0,0,.927-2,3.616,3.616,0,0,0-2.334-.637,3.036,3.036,0,0,0-2.015.579,1.737,1.737,0,0,0-.679,1.357,1.3,1.3,0,0,0,.619,1.137,2.466,2.466,0,0,0,1.417.419Zm10.075,1.676a4.406,4.406,0,0,1-2.7-.8,4.719,4.719,0,0,1-1.566-1.995l1.645-.679a2.691,2.691,0,0,0,2.652,1.835,2.414,2.414,0,0,0,1.406-.38,1.163,1.163,0,0,0,.549-1q0-.956-1.337-1.3l-1.974-.479a4.7,4.7,0,0,1-1.776-.908,2.15,2.15,0,0,1-.835-1.794,2.469,2.469,0,0,1,1.147-2.1,4.926,4.926,0,0,1,5.038-.22,3.325,3.325,0,0,1,1.457,1.686l-1.6.658a2.167,2.167,0,0,0-2.234-1.3,2.522,2.522,0,0,0-1.378.339,1.042,1.042,0,0,0-.558.917q0,.837,1.3,1.137l1.935.459a3.666,3.666,0,0,1,2.036,1.1,2.639,2.639,0,0,1,.658,1.755,2.72,2.72,0,0,1-1.077,2.194,4.249,4.249,0,0,1-2.773.878Zm9.774,0a4.709,4.709,0,0,1-3.6-1.476,5.239,5.239,0,0,1-1.388-3.73,5.418,5.418,0,0,1,1.337-3.67,4.374,4.374,0,0,1,3.441-1.536,4.527,4.527,0,0,1,3.481,1.417,5.365,5.365,0,0,1,1.306,3.791v.339h-7.711a3.313,3.313,0,0,0,.987,2.334,2.992,2.992,0,0,0,2.124.857,2.633,2.633,0,0,0,2.673-1.676l1.645.679a4.314,4.314,0,0,1-1.576,1.905,4.58,4.58,0,0,1-2.694.768Zm2.632-6.374a2.612,2.612,0,0,0-.768-1.6,2.742,2.742,0,0,0-2.1-.758,2.632,2.632,0,0,0-1.765.638,3.266,3.266,0,0,0-1.028,1.717h5.655Z" transform="translate(-96.797 -65.589)" fill="#63666a"/>
    </g>
  </g>
</svg>
