<svg xmlns="http://www.w3.org/2000/svg" xmlns:xlink="http://www.w3.org/1999/xlink" width="100" height="100" viewBox="0 0 100 100">
  <defs>
    <clipPath id="clip-path">
      <rect id="Rectangle_194" data-name="Rectangle 194" width="100" height="100" fill="#fff"/>
    </clipPath>
    <clipPath id="clip-path-2">
      <path id="Path_825" data-name="Path 825" d="M115.422,52.056,88.559,78.945l26.863,26.889h-30.7L57.852,78.945,84.725,52.056ZM84.725,5.979,34.832,55.9,50.185,71.264,115.422,5.979Z" transform="translate(-34.832 -5.979)"/>
    </clipPath>
    <linearGradient id="linear-gradient" x1="0.197" y1="1.193" x2="0.699" y2="0.448" gradientUnits="objectBoundingBox">
      <stop offset="0" stop-color="#1a237e" stop-opacity="0.4"/>
      <stop offset="1" stop-color="#1a237e" stop-opacity="0"/>
    </linearGradient>
    <radialGradient id="radial-gradient" cx="0.028" cy="0.068" r="1.223" gradientTransform="matrix(1.238, 0, 0, -1, -2.189, -5.539)" gradientUnits="objectBoundingBox">
      <stop offset="0" stop-color="#fff" stop-opacity="0.102"/>
      <stop offset="1" stop-color="#fff" stop-opacity="0"/>
    </radialGradient>
  </defs>
  <g id="Mask_Group_56" data-name="Mask Group 56" clip-path="url(#clip-path)">
    <g id="flutterio-icon" transform="translate(9.604 0.298)">
      <g id="Group_95" data-name="Group 95" transform="translate(0 0)" clip-path="url(#clip-path-2)">
        <path id="Path_824" data-name="Path 824" d="M104.063,171.3l15.344,15.362,42.216-42.251h-30.7Z" transform="translate(-81.033 -98.334)" fill="#39cefd"/>
      </g>
      <g id="Group_96" data-name="Group 96" transform="translate(0 0)" clip-path="url(#clip-path-2)">
        <path id="Path_826" data-name="Path 826" d="M84.725,5.979h30.7L50.185,71.264,34.832,55.9Z" transform="translate(-34.832 -5.979)" fill="#39cefd"/>
      </g>
      <g id="Group_97" data-name="Group 97" transform="translate(0 0)" clip-path="url(#clip-path-2)">
        <path id="Path_828" data-name="Path 828" d="M150.188,240.557l11.52,11.517h30.7l-26.863-26.879Z" transform="translate(-111.814 -152.229)" fill="#03569b"/>
      </g>
      <g id="Group_98" data-name="Group 98" transform="translate(0 0)" clip-path="url(#clip-path-2)">
        <path id="Path_830" data-name="Path 830" d="M172.958,232.665l-7.417-7.47-15.353,15.362Z" transform="translate(-111.814 -152.229)" fill="url(#linear-gradient)"/>
      </g>
      <g id="Group_99" data-name="Group 99" transform="translate(0 0)" clip-path="url(#clip-path-2)">
        <path id="Path_832" data-name="Path 832" d="M104.058,194.387l15.354-15.363,15.355,15.363-15.355,15.363Z" transform="translate(-81.03 -121.425)" fill="#16b9fd"/>
      </g>
      <path id="Path_834" data-name="Path 834" d="M115.422,52.056,88.559,78.945l26.863,26.889h-30.7L57.852,78.945,84.725,52.056ZM84.725,5.979,34.832,55.9,50.185,71.264,115.422,5.979Z" transform="translate(-34.832 -5.979)" fill="url(#radial-gradient)"/>
    </g>
  </g>
</svg>
