<svg xmlns="http://www.w3.org/2000/svg" xmlns:xlink="http://www.w3.org/1999/xlink" width="153" height="142" viewBox="0 0 153 142">
  <defs>
    <clipPath id="clip-path">
      <rect id="Rectangle_194" data-name="Rectangle 194" width="153" height="142" fill="#fff"/>
    </clipPath>
  </defs>
  <g id="Mask_Group_53" data-name="Mask Group 53" clip-path="url(#clip-path)">
    <g id="g730" transform="translate(0 59.889)">
      <g id="g710">
        <path id="path702" d="M21.308,5.835h.866l2.469-2.288.121-.972A11.722,11.722,0,0,0,9.1,3.48,10.074,10.074,0,0,0,6.706,7.594a1.436,1.436,0,0,1,.866-.047l4.939-.755s.251-.386.382-.362a6.513,6.513,0,0,1,8.432-.594Z" transform="translate(-3.28 0)" fill="#ea4335"/>
        <path id="path704" d="M37.845,10.468a10.221,10.221,0,0,0-3.353-5.01L31.027,8.669A5.55,5.55,0,0,1,33.288,13.2v.571a2.979,2.979,0,0,1,3.085,2.859,2.979,2.979,0,0,1-3.085,2.859h-6.17l-.616.578V23.5l.616.571h6.17c4.431.032,8.051-3.271,8.085-7.377A7.3,7.3,0,0,0,37.845,10.468Z" transform="translate(-12.963 -2.874)" fill="#4285f4"/>
        <path id="path706" d="M10.976,39.308h6.17V34.731h-6.17A3.278,3.278,0,0,1,9.7,34.474l-.866.25L6.349,37.012l-.217.8a8.387,8.387,0,0,0,4.843,1.493Z" transform="translate(-2.999 -18.153)" fill="#34a853"/>
        <path id="path708" d="M7.976,13.326c-4.432.024-8,3.373-7.976,7.48a7.258,7.258,0,0,0,3.133,5.849L6.711,23.34a2.779,2.779,0,0,1-1.542-3.782A3.189,3.189,0,0,1,9.25,18.129a2.989,2.989,0,0,1,1.542,1.429l3.578-3.316a8.243,8.243,0,0,0-6.394-2.916Z" transform="translate(0 -7.017)" fill="#fbbc05"/>
      </g>
      <g id="g728" transform="translate(36.719 3.095)">
        <g id="g714">
          <path id="path712" d="M79.993,21.4a8.219,8.219,0,0,1-5.718-2.176,6.912,6.912,0,0,1,0-10.472,8.211,8.211,0,0,1,5.718-2.216,7.988,7.988,0,0,1,5.485,2.048l-1.542,1.454A5.8,5.8,0,0,0,79.993,8.6,5.715,5.715,0,0,0,75.92,10.2a5.129,5.129,0,0,0,0,7.58,6.148,6.148,0,0,0,8.111.089,4.125,4.125,0,0,0,1.187-2.5h-5.2V13.317h7.357a6.169,6.169,0,0,1,.087,1.253,6.165,6.165,0,0,1-1.9,4.738A7.691,7.691,0,0,1,79.993,21.4ZM97.1,20.037a5.611,5.611,0,0,1-7.34,0,4.411,4.411,0,0,1-1.5-3.412,4.417,4.417,0,0,1,1.5-3.412,5.622,5.622,0,0,1,7.34,0,4.417,4.417,0,0,1,1.5,3.412,4.415,4.415,0,0,1-1.508,3.412Zm-5.72-1.34a2.965,2.965,0,0,0,3.968.12c.044-.04.089-.079.13-.12a2.92,2.92,0,0,0,0-4.152,3.014,3.014,0,0,0-4.032-.079c-.029.025-.058.052-.085.079a2.91,2.91,0,0,0,.009,4.152Zm17,1.34a5.611,5.611,0,0,1-7.34,0,4.411,4.411,0,0,1-1.5-3.412,4.417,4.417,0,0,1,1.5-3.412,5.611,5.611,0,0,1,7.34,0,4.417,4.417,0,0,1,1.5,3.412A4.405,4.405,0,0,1,108.379,20.037Zm-5.718-1.34a2.965,2.965,0,0,0,3.968.12c.044-.04.089-.079.13-.12a2.92,2.92,0,0,0,0-4.152,3.012,3.012,0,0,0-4.03-.079c-.029.025-.058.052-.085.079a2.91,2.91,0,0,0,.009,4.152ZM115.8,25.69a4.792,4.792,0,0,1-2.886-.852,5.008,5.008,0,0,1-1.682-1.976L113.2,22.1a3.111,3.111,0,0,0,.979,1.2,2.6,2.6,0,0,0,1.62.506,2.718,2.718,0,0,0,2.019-.722,2.8,2.8,0,0,0,.72-2.088V20.3h-.078a3.431,3.431,0,0,1-2.712,1.084,4.885,4.885,0,0,1-3.465-1.4,4.587,4.587,0,0,1,0-6.753,4.873,4.873,0,0,1,3.465-1.4,3.981,3.981,0,0,1,1.595.329,3.2,3.2,0,0,1,1.127.763h.078v-.763H120.7V20.71a4.765,4.765,0,0,1-1.378,3.735A5.074,5.074,0,0,1,115.8,25.69Zm.157-6.167a2.614,2.614,0,0,0,1.958-.8,2.84,2.84,0,0,0,.788-2.056,2.9,2.9,0,0,0-.788-2.1,2.609,2.609,0,0,0-1.958-.8,2.786,2.786,0,0,0-2.028.8,2.816,2.816,0,0,0-.866,2.08,2.876,2.876,0,0,0,2.894,2.875Zm8.57-12.446V21.113h-2.261V7.078Zm6.2,14.325a5.124,5.124,0,0,1-3.648-1.373,4.475,4.475,0,0,1-1.465-3.4,4.527,4.527,0,0,1,1.412-3.437,4.843,4.843,0,0,1,3.465-1.342,4.68,4.68,0,0,1,1.733.313,4.125,4.125,0,0,1,1.325.8,5.189,5.189,0,0,1,1.378,1.911l.234.547-6.931,2.642a2.624,2.624,0,0,0,2.5,1.446,3.014,3.014,0,0,0,2.539-1.324L135,19.267a5.535,5.535,0,0,1-1.664,1.462A5,5,0,0,1,130.727,21.4Zm-2.894-4.923,4.61-1.775a1.519,1.519,0,0,0-.72-.73,2.5,2.5,0,0,0-1.187-.281,2.777,2.777,0,0,0-1.862.763A2.445,2.445,0,0,0,127.833,16.48Z" transform="translate(-71.874 -6.538)" fill="#5f6368"/>
        </g>
        <g id="g726" transform="translate(67.871 1.322)">
          <path id="path716" d="M211.991,22.873a6.915,6.915,0,0,1-7.262-6.5c0-.089,0-.179,0-.267A6.864,6.864,0,0,1,211.7,9.335c.1,0,.193,0,.288,0a6.7,6.7,0,0,1,5.138,2.119l-1.248,1.124A4.873,4.873,0,0,0,212,10.93a5.529,5.529,0,0,0-3.856,1.429,4.825,4.825,0,0,0-1.569,3.742,4.819,4.819,0,0,0,1.569,3.742A5.522,5.522,0,0,0,212,21.272a5.692,5.692,0,0,0,4.332-1.879l1.248,1.157a6.792,6.792,0,0,1-2.4,1.694A7.8,7.8,0,0,1,211.991,22.873Z" transform="translate(-204.728 -9.331)" fill="#5f6368"/>
          <path id="path718" d="M234.729,22.9h-1.794V9.931h1.794Z" transform="translate(-218.525 -9.647)" fill="#5f6368"/>
          <path id="path720" d="M240.852,19.336a5.3,5.3,0,0,1,7.071,0,4.513,4.513,0,0,1,1.387,3.373,4.513,4.513,0,0,1-1.387,3.373,5.3,5.3,0,0,1-7.071,0,4.513,4.513,0,0,1-1.386-3.373A4.507,4.507,0,0,1,240.852,19.336Zm1.334,5.7a3.2,3.2,0,0,0,4.275.109c.041-.035.08-.073.118-.109a3.083,3.083,0,0,0,.928-2.328,3.07,3.07,0,0,0-.928-2.328,3.2,3.2,0,0,0-4.275-.109c-.041.035-.08.073-.118.109a3.083,3.083,0,0,0-.928,2.328,3.078,3.078,0,0,0,.936,2.32Z" transform="translate(-221.718 -13.888)" fill="#5f6368"/>
          <path id="path722" d="M270.068,27.465h-1.733V26.237h-.051a3.251,3.251,0,0,1-1.265,1.108,3.748,3.748,0,0,1-1.777.441,3.513,3.513,0,0,1-2.72-1.011,3.825,3.825,0,0,1-.928-2.714V18.6h1.794v5.155q0,2.482,2.365,2.481a2.27,2.27,0,0,0,1.82-.8,2.885,2.885,0,0,0,.7-1.919V18.6h1.794v8.865Z" transform="translate(-232.539 -14.212)" fill="#5f6368"/>
          <path id="path724" d="M285.754,23.189a4.358,4.358,0,0,1-3.206-1.358,4.618,4.618,0,0,1-1.344-3.365,4.618,4.618,0,0,1,1.344-3.365,4.526,4.526,0,0,1,5.164-.925,3.232,3.232,0,0,1,1.3,1.084h.078l-.078-1.228v-4.1h1.794V22.9h-1.733V21.672h-.078a3.232,3.232,0,0,1-1.3,1.084A4.323,4.323,0,0,1,285.754,23.189Zm.3-1.517a2.967,2.967,0,0,0,2.157-.868,3.108,3.108,0,0,0,.866-2.337,3.039,3.039,0,0,0-5-2.518c-.068.057-.133.119-.194.18a3.072,3.072,0,0,0-.866,2.328,3.072,3.072,0,0,0,.866,2.328,2.961,2.961,0,0,0,2.174.887Z" transform="translate(-242.133 -9.647)" fill="#5f6368"/>
        </g>
      </g>
    </g>
  </g>
</svg>
