<svg xmlns="http://www.w3.org/2000/svg" xmlns:xlink="http://www.w3.org/1999/xlink" width="1000" height="800" viewBox="0 0 1000 800">
  <defs>
    <clipPath id="clip-path">
      <rect id="Rectangle_4210" data-name="Rectangle 4210" width="1000" height="800" transform="translate(-18786 -21636)" fill="#fff"/>
    </clipPath>
  </defs>
  <g id="Mask_Group_147" data-name="Mask Group 147" transform="translate(18786 21636)" clip-path="url(#clip-path)">
    <g id="g10" transform="translate(-18786 -21636)">
      <g id="g12" transform="translate(0)">
        <path id="path18" d="M2760.678-1775.624s-15.048,38.253-25.177,54.415-19.775,31.611-27.852,76.463-6.7,49.357-8.91,60.942-16.6,58.52-16.687,67.126-29.088,57.6-36.52,80.536-20.59,55.687-19.848,72.363l3.307-.98s2.692-38.885,25.621-78.184,19.65-46.718,45.691-66.91,42.853-75.955,42.853-75.955,26.488-60.574,25.257-92.069,5.8-59.887-7.734-97.749" transform="translate(-1872.785 2005.159)" fill="#256653"/>
        <path id="path20" d="M2684.14-1942.074s-.875,25.131-7.818,40.058-12.922,24-14.181,40.147-5.62,57.79-24.98,78.123-21.829,81.238-36.566,99.662-16.66,31.673-13.94,63.275,11.965,75.4-9.409,132.565l-4.833-14.22s15.291-47.029,11.59-74.569-16.583-69.148-11.869-89.1-12.82-23.854-2.26-54.038,6.22-40.671,20.6-66.768c0,0,1.474-1.221,5.251-23.3s34.243-62.55,48.283-76.36,34.267-35.943,40.136-55.47" transform="translate(-1831.491 2112.768)" fill="#256653"/>
        <path id="path22" d="M2654.182-1590.1s-16.812,33.61-17.051,55.24,1.769,39.229-6.737,68.847,8.377,48.348,3.508,64.7-5.239,35.717-5.094,50.4-19.255,63.28-22.21,87.883.823,24.688.823,24.688,3.218-32.484,7.683-43.225,18.04-47.778,21.213-62.106,11.766-23.524,19.181-47.788,17.959-44.705,17.156-79.14,11.06-70.774-18.471-119.5" transform="translate(-1858.71 1885.217)" fill="#3c8f7c"/>
        <path id="path24" d="M2642.922-960.452s7.838-42.65,40.9-46.911,52.481,3.375,75.833-27.785,36.919-80.611,44.378-89.123c0,0-11.734-7.051-31.24,14.244s-33.213,37.452-44.507,49.847-20.462,4.318-32.387,12.49c-9.995,6.848-22.916,26.649-28.607,37.018a45.791,45.791,0,0,1-6.56,9.172c-2.288,2.47-5.017,5.5-6.765,7.721-3.5,4.454-13.6,33.483-13.6,33.483l2.556-.155" transform="translate(-1883.042 1584.78)" fill="#3c8f7c"/>
        <path id="path26" d="M2458.944-1100.3s11.655-52.162,3.848-77.689-32.233-44.413-31.252-60.448,16.668-59.373,3.879-91.635c0,0-4.86,28.78-9.652,35.18s-37.691,32.22-31.857,66.321,37.811,42.066,45.688,52.105,18.512,10.025,18.577,16.7,2.143,30.942-1.389,54.89l2.158,4.577" transform="translate(-1710.719 1717.11)" fill="#3c8f7c"/>
        <path id="path28" d="M2619.677-1303.318l16.369-55.051s9.615-44.281,15.186-81.2,2.951-150.528,2.951-150.528-16.813,33.61-17.051,55.24,1.769,39.229-6.737,68.847,8.376,48.348,3.507,64.7-5.239,35.717-5.094,50.4-19.255,63.281-22.21,87.884c-1.614,13.48-1.214,19.594-.521,22.37-2.624-21.521,13.6-62.658,13.6-62.658" transform="translate(-1858.712 1885.217)" fill="#327f6b"/>
        <path id="path30" d="M2724.628-1033.628c-14.6,3.4-27.655,2.244-44.989,17.307a159.669,159.669,0,0,0-27.526,31.15s-7.791,16.256-11.012,24.829c-.464,1.311-.735,2.093-.735,2.093l2.556-.156s7.838-42.65,40.9-46.911,52.481,3.375,75.833-27.785,36.919-80.611,44.378-89.123c0,0-24.837,22.563-40.188,42.533s-24.608,42.655-39.212,46.063" transform="translate(-1883.042 1582.732)" fill="#327f6b"/>
        <path id="path32" d="M2425.767-1294.9c-4.8,6.406-37.691,32.22-31.857,66.321s37.811,42.066,45.687,52.105,18.512,10.025,18.577,16.7,2.143,30.942-1.39,54.89l.944,2c1.724-9.346,4.118-23.58,4.9-34.388,1.272-17.548-1.163-24.815-6-39.031s-34.852-43.178-42.376-58.4,14.507-40.676,19.4-52.963,1.764-42.41,1.764-42.41-4.86,28.78-9.651,35.18" transform="translate(-1710.719 1717.11)" fill="#327f6b"/>
        <path id="path34" d="M2629.067-801.574l5.139-14.5c3.989-10.666,14.189-15.757,22.788-11.373,21.672,11.043,31.089,41.783,21.043,68.663l-7.347,19.65c-3.217,8.606-2.1,18.08,2.244,24.754,3.94,6.066,4.582,14.5,1.849,21.808l-3.872,10.36c-4.193,11.213-12.352,19.522-22.028,22.949-5.659,2-10.657,6.961-13.3,14.031l-5.482,14.668c-6.062,16.214-21.575,23.957-34.65,17.3l-7.459-3.8c-13.075-6.664-18.759-25.211-12.7-41.43,9.8-19.39,9.021-33.86,5.546-43.678a67.831,67.831,0,0,1,.481-45.818l.775-2.074c5.829-15.6,17.095-27.248,30.5-32.234,5.922-2.2,12.094-7.579,16.465-19.268" transform="translate(-1835.979 1393.178)" fill="#50bfa5"/>
        <path id="path36" d="M2452.874-455.286c10.516-15.921,68.179-101.2,105.776-115.418,41.505-15.686,2.386,46.624,2.386,46.624s73.625-94,100.646-85.527c24.765,7.767,0,66.033,0,66.033s27.894-32.267,61.72-32.267c32.919,0-23,114.429-26.02,120.556H2452.874" transform="translate(-1752.313 1251.676)" fill="#96d9c9"/>
        <path id="path38" d="M3032.255-752.4c-30.082,54.858-52.037,115.8-64.586,180.532l-2.063-.646c12.5-63.384,34.307-124.214,64.335-179.01,6.98-12.731,14.516-27.841,27.586-32.809.25-.094.348.354.106.457-11.937,5.25-18.848,19.569-25.379,31.475" transform="translate(-2109.816 1364.29)" fill="#3c8f7c"/>
        <path id="path40" d="M2996.366-443.331c33.618-53.373,74.48-102.707,123.075-145.607.488-.429,1.142.561.653,1-46.086,41.364-86.86,90.207-121.172,145.4l-2.556-.8" transform="translate(-2131.262 1238.029)" fill="#3c8f7c"/>
        <path id="path42" d="M3189.594-810.563c.774,1.329,3.737,4.8,4.61,9.351a22.355,22.355,0,0,1,.146,9.544,21.513,21.513,0,0,0,4.573-9.233c1.478-5.5.444-13.136-1.4-15.662-3.172-5.717-8.719-6.3-9.8-3.525-1.144,2.752.307,6.5,1.864,9.525" transform="translate(-2264.406 1388.442)" fill="#3c8f7c"/>
        <path id="path44" d="M3181.54-673.247c-1.122-.928-4.036-4.459-7.92-5.566a14.27,14.27,0,0,0-8.17-.358c-.093.259,3.063-3.936,8-5.152,4.739-1.616,11.254-.259,13.381,1.937,4.833,3.818,5.22,10.3,2.826,11.505-2.381,1.277-5.558-.485-8.118-2.366" transform="translate(-2249.154 1300.086)" fill="#3c8f7c"/>
        <path id="path46" d="M3145.669-612.541c-1.123-.928-4.033-4.459-7.916-5.562a14.246,14.246,0,0,0-8.17-.363c-.1.259,3.064-3.935,8-5.152,4.744-1.616,11.259-.259,13.385,1.937,4.833,3.818,5.221,10.3,2.826,11.505-2.381,1.282-5.562-.485-8.121-2.366" transform="translate(-2224.145 1260.84)" fill="#3c8f7c"/>
        <path id="path48" d="M3273.629-471.723c-1.123-.933-4.032-4.463-7.92-5.566a14.23,14.23,0,0,0-8.167-.363c-.1.259,3.062-3.936,8-5.152,4.739-1.617,11.255-.259,13.383,1.937,4.832,3.818,5.219,10.3,2.825,11.505-2.382,1.282-5.558-.485-8.117-2.361" transform="translate(-2313.365 1169.803)" fill="#3c8f7c"/>
        <path id="path50" d="M3338.993-529.317c-1.122-.929-4.036-4.459-7.919-5.567a14.227,14.227,0,0,0-8.171-.358c-.1.259,3.064-3.936,8-5.156,4.739-1.612,11.254-.255,13.381,1.937,4.832,3.818,5.22,10.3,2.826,11.51-2.382,1.277-5.559-.486-8.118-2.366" transform="translate(-2358.938 1207.037)" fill="#3c8f7c"/>
        <path id="path52" d="M3137.055-742.061c.946,1.169,4.34,4.049,5.813,8.39a22.109,22.109,0,0,1,1.433,9.394,22.7,22.7,0,0,0,3.271-9.959c.714-5.707-1.336-13.051-3.491-15.209-3.908-5.062-9.463-4.61-10.154-1.678-.754,2.932,1.184,6.363,3.128,9.064" transform="translate(-2227.061 1344.222)" fill="#3c8f7c"/>
        <path id="path54" d="M3080.165-677.139c1.344.834,6.042,2.343,8.4,6.448,2.672,3.648,3.011,9.893,2.834,9.766-.25.269,3.346-6.023,3.189-12.759.334-6.726-3.088-13.895-6.1-15.219-5.583-3.69-12.727-.4-13.314,3.224-.674,3.648,2.192,6.5,4.989,8.541" transform="translate(-2186.143 1303.635)" fill="#3c8f7c"/>
        <path id="path56" d="M3022.2-573.917c1.444.556,6.289,1.122,9.208,4.7,3.161,3.073,4.4,9.162,4.2,9.073-.209.311,2.431-6.594,1.308-13.2-.641-6.7-5.046-13.093-8.21-13.81-6.036-2.536-12.6,2.107-12.659,5.793-.142,3.728,3.1,5.986,6.152,7.442" transform="translate(-2144.983 1237.275)" fill="#3c8f7c"/>
        <path id="path58" d="M3191.938-495.354c1.053.768,4.8,2.3,6.52,5.8a15.473,15.473,0,0,1,1.828,8.13c-.218.2,3.015-4.676,3.217-10.162.6-5.448-1.832-11.51-4.222-12.792-4.364-3.37-10.334-1.169-10.989,1.739-.726,2.922,1.466,5.439,3.646,7.282" transform="translate(-2264.983 1184.39)" fill="#3c8f7c"/>
        <path id="path60" d="M3264.776-778.929c-.629-.608-2.219-2.847-4.477-3.7a8.44,8.44,0,0,0-4.82-.627,10.063,10.063,0,0,1,4.926-2.639c2.866-.716,6.668.42,7.844,1.829,2.715,2.5,2.7,6.358,1.238,6.947-1.453.636-3.27-.57-4.711-1.81" transform="translate(-2311.928 1365.437)" fill="#3c8f7c"/>
        <path id="path62" d="M3259.948-820.512c.028.957.572,3.79-.227,6.4a11.8,11.8,0,0,1-2.515,4.845,10.031,10.031,0,0,0,4.795-2.946c2.237-2.211,3.787-6.424,3.549-8.371-.04-4.039-2.664-6.382-3.956-5.387-1.319.957-1.61,3.37-1.646,5.462" transform="translate(-2313.13 1391.353)" fill="#3c8f7c"/>
        <path id="path64" d="M3401.722-579.565c-.629-.6-2.219-2.842-4.477-3.7a8.5,8.5,0,0,0-4.819-.632,10.12,10.12,0,0,1,4.926-2.639c2.865-.712,6.668.424,7.843,1.829,2.717,2.507,2.7,6.363,1.239,6.952-1.453.636-3.27-.57-4.712-1.815" transform="translate(-2407.414 1236.546)" fill="#3c8f7c"/>
        <path id="path66" d="M3394.614-621.911c.1.948.84,3.724.226,6.4a12.174,12.174,0,0,1-2.167,5.067,10.351,10.351,0,0,0,4.576-3.389c2.067-2.423,3.318-6.763,2.947-8.682-.322-4.025-3.1-6.108-4.323-5-1.247,1.084-1.364,3.516-1.259,5.6" transform="translate(-2407.585 1263.093)" fill="#3c8f7c"/>
        <path id="path68" d="M3130.687-322.829c-30.715,3.931-59.322,19.763-86.865,35.2-18.568,10.412-17.632,13.376-21.414,14.927-.614.25-1.228-.528-.929-1.216,1.453-3.365,5.272-5.642,7.924-7.579a99.921,99.921,0,0,1,9.6-6.1c7.011-3.973,14.2-7.546,21.345-11.17,14.535-7.376,29.31-14.314,44.665-19.009a136.607,136.607,0,0,1,25.657-5.34c.163-.019.182.269.021.292" transform="translate(-2148.719 1066.11)" fill="#3c8f7c"/>
        <path id="path70" d="M3285.4-370.885c.2,1.475,1.515,5.745.7,9.964a19.281,19.281,0,0,1-3.1,8.069,16.494,16.494,0,0,0,6.952-5.637c3.1-3.931,4.807-10.8,4.121-13.767-.726-6.254-5.179-9.295-7.02-7.466-1.89,1.782-1.937,5.585-1.655,8.837" transform="translate(-2331.111 1103.043)" fill="#3c8f7c"/>
        <path id="path72" d="M3196.01-338.88c.2,1.47,1.514,5.741.7,9.964a19.17,19.17,0,0,1-3.1,8.065,16.49,16.49,0,0,0,6.952-5.632c3.1-3.931,4.81-10.807,4.125-13.772-.73-6.255-5.183-9.295-7.024-7.466-1.885,1.782-1.938,5.59-1.655,8.842" transform="translate(-2268.787 1082.354)" fill="#3c8f7c"/>
        <path id="path74" d="M3105.2-298.4c.2,1.47,1.51,5.741.7,9.964a19.243,19.243,0,0,1-3.1,8.064,16.46,16.46,0,0,0,6.95-5.632c3.1-3.931,4.809-10.807,4.122-13.772-.727-6.25-5.183-9.295-7.02-7.466-1.888,1.782-1.937,5.59-1.655,8.842" transform="translate(-2205.467 1056.184)" fill="#3c8f7c"/>
        <path id="path76" d="M3293.687-293.208c-.557-1.216-1.63-5.218-4.242-7.8a13.561,13.561,0,0,0-6.145-3.926,13.209,13.209,0,0,1,7.815-.377c4.161.877,8.711,4.826,9.624,7.461,2.449,5.081.621,10.223-1.607,10.077-2.24-.08-4.1-2.856-5.445-5.434" transform="translate(-2331.324 1054.89)" fill="#3c8f7c"/>
        <path id="path78" d="M3200.714-260.3c-.553-1.216-1.63-5.218-4.242-7.8a13.563,13.563,0,0,0-6.145-3.926,13.219,13.219,0,0,1,7.82-.377c4.162.877,8.706,4.826,9.619,7.461,2.451,5.081.622,10.223-1.606,10.077-2.241-.08-4.1-2.856-5.446-5.434" transform="translate(-2266.5 1033.615)" fill="#3c8f7c"/>
        <path id="path80" d="M3370.34-317.307c-.484-.679-1.614-3.026-3.548-4.242a8.052,8.052,0,0,0-4.3-1.518,8.824,8.824,0,0,1,4.865-1.442c2.713-.09,6.014,1.687,6.886,3.2,2.116,2.814,1.55,6.325.134,6.575-1.418.3-2.9-1.159-4.037-2.573" transform="translate(-2386.544 1067.012)" fill="#3c8f7c"/>
        <path id="path82" d="M3368.225-356.526c-.113.872-.021,3.563-1.123,5.783a10.068,10.068,0,0,1-2.987,3.917,8.715,8.715,0,0,0,4.792-1.739c2.354-1.579,4.372-5.114,4.436-6.933.541-3.69-1.512-6.339-2.832-5.684-1.341.613-1.95,2.757-2.285,4.657" transform="translate(-2387.673 1090.781)" fill="#3c8f7c"/>
        <path id="path84" d="M586.638-1319.6c-36.093-37.579-54.651-91.541-63.864-130.2a444.7,444.7,0,0,1-11.472-75.789l-1.962-.142a447.839,447.839,0,0,0,11.539,76.322c9.3,39.035,28.052,93.554,64.593,131.594l1.167-1.786" transform="translate(-397.184 1843.6)" fill="#3c8f7c"/>
        <path id="path86" d="M491.046-1594.805c1.779,9.662.29,18.792-3.5,25.381-5.947-5.114-10.624-13.3-12.4-22.963s-.289-18.792,3.5-25.381c5.947,5.109,10.624,13.3,12.4,22.963" transform="translate(-372.818 1903.103)" fill="#3c8f7c"/>
        <path id="path88" d="M445.493-1492.631a41.27,41.27,0,0,1,10.558,24.174c-6.826.358-14.337-2.875-20.556-9.629a41.286,41.286,0,0,1-10.558-24.175c6.826-.363,14.337,2.875,20.555,9.63" transform="translate(-338.334 1828.446)" fill="#3c8f7c"/>
        <path id="path90" d="M435.178-1396.007c7.728,2.833,14.066,9.116,17.817,16.746-5.609,4.209-13.122,5.416-20.85,2.588s-14.066-9.115-17.817-16.751c5.609-4.2,13.122-5.415,20.85-2.583" transform="translate(-330.937 1760.728)" fill="#3c8f7c"/>
        <path id="path92" d="M483.724-1296.625c6.121,2.258,11.016,8.022,13.788,15.3-4.641,4.553-10.718,6.278-16.84,4.025s-11.016-8.022-13.788-15.3c4.641-4.552,10.719-6.278,16.84-4.025" transform="translate(-367.582 1696.12)" fill="#3c8f7c"/>
        <path id="path94" d="M541.456-1448.835c4.817-5.666,11.2-8.078,17.374-7.3.343,7.631-1.912,15.365-6.73,21.031s-11.2,8.074-17.374,7.3c-.342-7.631,1.912-15.37,6.73-21.031" transform="translate(-414.861 1798.699)" fill="#3c8f7c"/>
        <path id="path96" d="M559.9-1378.335c4.818-5.665,11.2-8.078,17.374-7.305.342,7.635-1.912,15.37-6.729,21.031s-11.2,8.078-17.374,7.305c-.342-7.636,1.912-15.37,6.729-21.031" transform="translate(-427.722 1753.123)" fill="#3c8f7c"/>
        <path id="path98" d="M433.316-955.706c-33.33-5.67-61.853-28.728-79.912-47.072a257.253,257.253,0,0,1-31.576-38.913l-1.187.8A259.281,259.281,0,0,0,352.43-1001.7c18.234,18.528,47.053,41.816,80.8,47.562l.09-1.565" transform="translate(-265.613 1530.667)" fill="#50bfa5"/>
        <path id="path100" d="M287.922-1077.135a24.948,24.948,0,0,1,6.3,16.322,21.756,21.756,0,0,1-14.757-7.791,24.962,24.962,0,0,1-6.3-16.327,21.764,21.764,0,0,1,14.757,7.8" transform="translate(-232.51 1558.622)" fill="#50bfa5"/>
        <path id="path102" d="M295.715-1004.294a22.551,22.551,0,0,1,14.081,9.318,17.8,17.8,0,0,1-15.113,3.615,22.558,22.558,0,0,1-14.081-9.323,17.812,17.812,0,0,1,15.113-3.61" transform="translate(-237.696 1506.736)" fill="#50bfa5"/>
        <path id="path104" d="M330.341-954.146a19.218,19.218,0,0,1,15.861,1.753,18.159,18.159,0,0,1-11.271,10.845A19.219,19.219,0,0,1,319.07-943.3a18.159,18.159,0,0,1,11.271-10.845" transform="translate(-264.518 1474.696)" fill="#50bfa5"/>
        <path id="path106" d="M397.4-911.382c4.3-1.433,9.039-.273,13.044,2.715-1.2,4.727-4.168,8.456-8.467,9.884s-9.039.273-13.044-2.715c1.2-4.728,4.167-8.451,8.467-9.884" transform="translate(-313.23 1446.817)" fill="#50bfa5"/>
        <path id="path108" d="M382.373-1027.13a17.153,17.153,0,0,1,7.7-12.028,21.844,21.844,0,0,1,3,15.238,17.164,17.164,0,0,1-7.7,12.028,21.84,21.84,0,0,1-3-15.238" transform="translate(-308.438 1529.03)" fill="#50bfa5"/>
        <path id="path110" d="M420.148-993.231a17.174,17.174,0,0,1,7.7-12.033,21.861,21.861,0,0,1,3,15.243,17.165,17.165,0,0,1-7.7,12.028,21.848,21.848,0,0,1-3-15.238" transform="translate(-334.777 1507.117)" fill="#50bfa5"/>
        <path id="path112" d="M381.086-523.5c-38.447,17.043-80.769,8.041-109.5-2.512A257.346,257.346,0,0,1,217.8-553.332l-.852,1.9A258.742,258.742,0,0,0,271.1-523.907c29.016,10.661,71.773,19.749,110.7,2.493l-.712-2.088" transform="translate(-193.314 1214.941)" fill="#96d9c9"/>
        <path id="path114" d="M158.638-583A30.077,30.077,0,0,1,173.8-566.462c-5.632,3.361-12.776,3.865-19.755.7A30.076,30.076,0,0,1,138.882-582.3c5.632-3.36,12.776-3.865,19.755-.7" transform="translate(-138.882 1235.49)" fill="#96d9c9"/>
        <path id="path116" d="M216.352-510.715a21.455,21.455,0,0,1,19.827,1.777A25.686,25.686,0,0,1,221.946-493.2a21.469,21.469,0,0,1-19.827-1.777,25.689,25.689,0,0,1,14.232-15.742" transform="translate(-182.974 1188.449)" fill="#96d9c9"/>
        <path id="path118" d="M292.616-474.563c4.837-6.325,11.384-9.478,17.806-9.337a33.081,33.081,0,0,1-6.4,22.3c-4.838,6.325-11.384,9.478-17.807,9.337a33.092,33.092,0,0,1,6.4-22.3" transform="translate(-241.551 1170.056)" fill="#96d9c9"/>
        <path id="path120" d="M374.36-448.621c4.837-6.321,11.384-9.474,17.806-9.332a33.1,33.1,0,0,1-6.4,22.3c-4.838,6.32-11.384,9.474-17.807,9.337a33.1,33.1,0,0,1,6.4-22.3" transform="translate(-298.547 1153.282)" fill="#96d9c9"/>
        <path id="path122" d="M299.1-554.386a35.461,35.461,0,0,1-5.7-21.346c5.607.764,11.339,4.567,15.6,11.038a35.46,35.46,0,0,1,5.7,21.346c-5.606-.764-11.338-4.567-15.595-11.039" transform="translate(-246.572 1229.423)" fill="#96d9c9"/>
        <path id="path124" d="M383.43-527.666a35.455,35.455,0,0,1-5.985-21.266c5.6.65,11.377,4.341,15.714,10.737a35.466,35.466,0,0,1,5.985,21.271c-5.6-.651-11.377-4.341-15.714-10.741" transform="translate(-305.193 1212.097)" fill="#96d9c9"/>
        <path id="path126" d="M495.025-436.654a10.372,10.372,0,0,1,6.043-6.679,14.792,14.792,0,0,1,.354,10.185,10.373,10.373,0,0,1-6.043,6.679,14.793,14.793,0,0,1-.354-10.185" transform="translate(-386.688 1143.826)" fill="#96d9c9"/>
        <path id="path128" d="M475.107-909.989s48.985-226.209,32.741-248.936c-22.449-31.414-40.967,72.792-42.784,63.94-17.16-83.585-21.731-190.534-77.086-201.851-31.467-6.439,7.269,79.527,4.938,102.778s-59.038-53.944-93.5-94.383-52.257-14.838-30.484,36.014c21.054,49.173,89.165,102.909,75.125,109.286s-99.274-57.129-109.712-29.981c-12.8,33.285,115.058,78.58,103.019,86.06s-73.148-17.152-71.478,8.3,83.815,24.5,82.411,35.7c-2.273,18.127-56.6-22.907-58.992,2.178-2.443,25.654,71.477,20.974,70.2,40.986-.736,11.5-16.6-5.849-18.934,10.082-5.329,36.316,92.117,80.559,92.117,80.559l42.42-.735" transform="translate(-204.817 1703.089)" fill="#3c8f7c"/>
        <path id="path130" d="M713.908-399.953s-46.619-83.458-69.052-99.214c-23.9-16.789-5.705,33.478-5.705,33.478s-48.846-67.867-62.425-54.08-1.254,29.76-1.254,29.76-43.853-15.172-51.735,3.62c-12.111,28.883,60.086,52.831,60.086,52.831s-30.993-.386-25.291,19.112c8.6,29.406,155.375,14.493,155.375,14.493" transform="translate(-406.268 1194.434)" fill="#50bfa5"/>
        <path id="path132" d="M526.892-488.174c7.882-18.792,51.734-3.62,51.734-3.62s-12.325-15.969,1.254-29.76,52.653,27.488,52.653,27.488-4.1-34.039,25.329-4.053c21.016,21.417,59.2,96.381,59.2,96.381l-190.17-86.437" transform="translate(-409.422 1196.219)" fill="#96d9c9"/>
        <path id="path134" d="M843.467-1335.237l2.092-1.668c-37.956-67.117-49.542-146.8-52.578-201.836-3.294-59.717,2.489-104.106,2.547-104.545l-2.593-.881c-.06.447-5.886,45.129-2.579,105.2,3.055,55.5,14.749,135.893,53.11,203.726" transform="translate(-592.415 1920.171)" fill="#96d9c9"/>
        <path id="path136" d="M785.97-1737.355c.083,13.48-3.923,24.627-10.319,31.314-6.5-9.643-10.65-22.661-10.733-36.141s3.924-24.632,10.319-31.32c6.5,9.643,10.65,22.661,10.733,36.146" transform="translate(-575.385 2003.785)" fill="#96d9c9"/>
        <path id="path138" d="M710.1-1627.316c6.469,11.92,9.125,25.306,8.079,36.792-8.881-2.95-17.821-10.93-24.29-22.85s-9.125-25.306-8.079-36.8c8.881,2.951,17.821,10.93,24.29,22.855" transform="translate(-520.071 1924.053)" fill="#96d9c9"/>
        <path id="path140" d="M669.047-1498.038c9.312,7.56,16.043,18.928,19.131,30.754-8.189,2.668-18.149.481-27.462-7.084s-16.043-18.928-19.132-30.754c8.19-2.668,18.15-.481,27.462,7.084" transform="translate(-489.392 1830.982)" fill="#96d9c9"/>
        <path id="path142" d="M745.719-1309.193a24.113,24.113,0,0,1,8.731,12.241c-3.334,1.451-7.527.919-11.589-1.914a24.108,24.108,0,0,1-8.731-12.24c3.334-1.452,7.527-.92,11.589,1.913" transform="translate(-553.919 1705.351)" fill="#96d9c9"/>
        <path id="path144" d="M756.623-1242.948a24.128,24.128,0,0,1,8.731,12.245c-3.335,1.447-7.528.914-11.589-1.913a24.1,24.1,0,0,1-8.731-12.245c3.334-1.447,7.528-.914,11.589,1.914" transform="translate(-561.522 1662.522)" fill="#96d9c9"/>
        <path id="path146" d="M807.624-1513.136c7.5-4.963,16.279-4.911,24.062-.806-1.3,10.119-5.979,19.07-13.482,24.033s-16.279,4.911-24.062.811c1.3-10.119,5.979-19.07,13.482-24.038" transform="translate(-595.762 1837.921)" fill="#96d9c9"/>
        <path id="path148" d="M812.572-1413.336c7.5-4.963,16.279-4.911,24.062-.805-1.3,10.114-5.979,19.07-13.482,24.032s-16.279,4.912-24.062.806c1.3-10.119,5.979-19.07,13.482-24.033" transform="translate(-599.212 1773.4)" fill="#96d9c9"/>
        <path id="path150" d="M818.5-1268.075a14.972,14.972,0,0,1,15.662-.523c-.85,6.585-3.891,12.411-8.776,15.644a14.97,14.97,0,0,1-15.661.523c.849-6.584,3.892-12.41,8.775-15.643" transform="translate(-606.625 1678.628)" fill="#96d9c9"/>
        <path id="path152" d="M2578.163-777.52c4.408.839,4.15,1.678,4.715,1.767.67.1,8.63-4.562,8.63-4.562s23.547-13.569,24.794-14.356l16.994-24.966,13.1,7.056s-19.113,26.541-20.324,27.709-34.966,14.993-37.9,16.327c0,0-2.963,3.158-4.876,5.067s-4.477,2.663-5.086,3.1a19.576,19.576,0,0,1-5.191,2.126c-2.571.655-.428-1.386-.428-1.386s4.553-2.244,4.327-2.649c-.173-.316-2.591,1.089-5.429,1.848-.73.193-1.454.387-2.115.552-1.744.438-2.506-.726-.758-1.537a15.423,15.423,0,0,1,2.437-.919,13.188,13.188,0,0,0,2.237-1.027,17.887,17.887,0,0,0,2.3-1.075c-.072-.071.121-.424-.662-.245a37.333,37.333,0,0,1-4.238,1.386c-.8.109-2.447.448-2.447.448s-2.923.325-2.943-.151c-.039-1.046,1.757-1.626,2.862-1.6a10.077,10.077,0,0,1,2.442-.712s3.388-1.565,3.189-2.149c-.077-.231-2.126.127-4.3.3-2.3.184-3.968.184-4.093-.339-.193-.825,1.64-1.136,1.64-1.136s1.613-.273,2.143-.415c.618-.165,2.438-.834,2.438-.834s6.232-2.672,6.007-3.205-1.256-1.664-1.7-1.659-1.223.514-1.664.518-1.384-.1-1.449-.745,2.374-1.979,2.374-1.979a6.024,6.024,0,0,1,2.975-.552" transform="translate(-1830.7 1387.11)" fill="#f8a492"/>
        <path id="path154" d="M2750.833-827.5s4.242,4.5,6.007,5.977c1.465,1.23,8.61,5.251,8.61,5.251s7.1-12.707,10.213-19.079c3.771-7.735,6.382-19.23,5.49-19.542a11.3,11.3,0,0,0-9.119.292c-11,5.892-21.2,27.1-21.2,27.1" transform="translate(-1960.065 1410.431)" fill="#355389"/>
        <path id="path156" d="M2610.656-685.523c-1.89.349-3.819-.071-4.655-2.088-.185,2.394,2.919,3.582,4.655,2.088" transform="translate(-1859.075 1301.754)" fill="#fe875e"/>
        <path id="path158" d="M730.684-990.368a51.581,51.581,0,0,0-3.491-21.6,15.338,15.338,0,0,0-13.922-9.3c-17.406-.028-19.62,26.941-30.7,37.344-3.385,3.177-7.17,5.764-10.373,9.2-11.83,12.655-6.5,36.085,4.361,47.185,7.538,7.7,19.385,12.075,28.675,6.052,4.85-3.139,8.531-8.361,11.154-14.088,3.723-8.121,6.122-17.491,8.77-26.149,2.818-9.214,5.179-18.806,5.527-28.643" transform="translate(-506.062 1517.461)" fill="#13375b"/>
        <path id="path160" d="M861.16-867.168c-5.437-19.258-12.614-18.957-12.614-18.957l5.8,41.006c3.358-1.07,7.729-3.455,11.083-4.562-1.112-6.09-2.928-12.745-4.267-17.487" transform="translate(-633.695 1430.096)" fill="#f7cc7f"/>
        <path id="path162" d="M901.993-736.081l-19.877-17.7s-2-16.52-4.677-31.174c-3.354,1.1-6.381,4.176-9.739,5.246l5.054,32.823,26.052,15.7,7.358,11.039,1.674-11.335-5.846-4.591" transform="translate(-647.051 1364.688)" fill="#f48c7f"/>
        <path id="path164" d="M1088.745-1115.794a30.532,30.532,0,0,1,16.97,5.222,17.526,17.526,0,0,0,2.051,1.155c15.275,7.324,31.987-6.24,31.987-25.522v-94.817h-81.206c-16.514,0-28.131-19.518-21.858-37.348a23.135,23.135,0,0,1,.989-2.4,45.263,45.263,0,0,0,4.473-19.815c0-22.836-16.308-41.227-36.068-40.157-17.881.966-32.281,18.118-32.781,39.012A45.508,45.508,0,0,0,977.521-1270a23.864,23.864,0,0,1,.977,2.432c6.223,18.127-5.581,37.81-22.305,37.81H875.684V-1013.7c0,50.964,35.384,92.276,79.032,92.276h185.036v-94.5c0-19.376-16.764-33.026-32.136-25.725a17.312,17.312,0,0,0-2.059,1.145,30.386,30.386,0,0,1-18.682,5.062c-17.535-1.084-31.7-17.722-32.523-38.2-.932-23.09,14.823-42.15,34.392-42.15" transform="translate(-652.618 1716.749)" fill="#f47458"/>
        <path id="path166" d="M1730.877-992.247a44.8,44.8,0,0,1,5.259-19.551,23.083,23.083,0,0,0,1.083-2.338c6.979-17.472-3.843-37.6-20.337-38.5l-81.12-4.43-3.79,94.718c-.771,19.258-18.012,31.895-32.976,23.745a18.065,18.065,0,0,1-2-1.263,30.9,30.9,0,0,0-16.744-6.142c-19.538-1.065-36.031,17.1-36.04,40.19-.008,20.9,13.991,38.5,31.845,40.058a30.114,30.114,0,0,0,17.7-3.968,18.024,18.024,0,0,1,2.131-1.023c15.8-6.415,32.083,8.272,31.3,27.78l-3.762,93.9,184.834,10.091c43.6,2.38,80.6-36.961,82.639-87.869l8.638-215.816-80.847-4.411c-16.574-.906-29.035,18.009-23.509,36.278a24.477,24.477,0,0,0,.884,2.456,45.909,45.909,0,0,1,3.459,22.025c-1.748,20.4-16.64,36.141-34.2,36.151-19.8.01-35.369-19.259-34.453-42.08" transform="translate(-1118.747 1540.607)" fill="#f7cc7f"/>
        <path id="path168" d="M1015.553-1760.453a45.644,45.644,0,0,1-3.613,20.05,22.88,22.88,0,0,0-.884,2.451c-5.5,18.179,6.943,36.99,23.433,36.019l81.1-4.76-4.077-94.7c-.828-19.254,15.279-33.785,30.848-27.365a16.585,16.585,0,0,1,2.1,1.032,30.192,30.192,0,0,0,17.176,4.223c19.533-1.15,34.445-21.092,32.535-44.079-1.723-20.8-17.115-36.735-35.014-36.269a30.808,30.808,0,0,0-17.293,5.948,17.793,17.793,0,0,1-2.034,1.263c-15.19,8.163-32.616-4.61-33.456-24.113l-4.045-93.883-184.8,10.85c-43.593,2.559-77.156,45.9-74.964,96.8l9.293,215.778,80.835-4.746c16.572-.971,27.406-21.21,20.389-38.767a22.688,22.688,0,0,0-1.085-2.343,45.141,45.141,0,0,1-5.265-21.53c.046-20.5,13.565-37.852,31.038-39.846,19.7-2.248,36.8,15.168,37.781,37.989" transform="translate(-629.455 2159.68)" fill="#50bfa5"/>
        <path id="path170" d="M1845.02-1798.912a30.531,30.531,0,0,1-16.974-5.222,16.888,16.888,0,0,0-2.051-1.155c-15.27-7.324-31.986,6.241-31.986,25.523v94.816h81.209c16.51,0,28.126,19.518,21.854,37.353a22.448,22.448,0,0,1-.989,2.4,45.267,45.267,0,0,0-4.473,19.814c0,22.836,16.308,41.228,36.072,40.157,17.878-.966,32.282-18.118,32.778-39.012a45.477,45.477,0,0,0-4.218-20.464,23.686,23.686,0,0,1-.977-2.432c-6.225-18.127,5.578-37.81,22.306-37.81h80.507V-1901c0-50.964-35.385-92.276-79.033-92.276H1794.009v94.5c0,19.376,16.768,33.026,32.136,25.725a17.216,17.216,0,0,0,2.063-1.15,30.405,30.405,0,0,1,18.682-5.058c17.531,1.084,31.692,17.717,32.519,38.2.937,23.09-14.822,42.15-34.388,42.15" transform="translate(-1292.919 2145.873)" fill="#184655"/>
        <path id="path172" d="M685.2-259.879s-1.226,9.954-3.336,13.164a25.314,25.314,0,0,0-2.851,4.393c-1.322,3.031-.591,7.546.384,10.034.5,1.277-.035,1.273,1.1,1.687,3.374,1.216,6.964-.834,8.4-4.619a26.782,26.782,0,0,0,1.648-8.479c.36-9.04,2.762-13.635,2.762-13.635L685.2-259.88" transform="translate(-514.988 1025.223)" fill="#f7a491"/>
        <path id="path174" d="M819.795-247s.757,11.222.143,14.87c-.329,1.956-2.162,5.976-1.321,7.815a4.612,4.612,0,0,0,1.8,2.3l21.787.415c1.187.019.4-.872-.554-1.7-1.567-1.348-2.831-2.239-7.833-5.072-.327-.184-1.515-1.07-1.943-1.376a16.1,16.1,0,0,1-3.117-3.219c-1.564-2.041-1.7-11.925-1.7-11.925L819.795-247" transform="translate(-612.674 1016.896)" fill="#f7a491"/>
        <path id="path176" d="M831.331-674.224s2.743,18.221.942,30.17-10.448,122.7-10.448,122.7l-9.608.632s-2.014-46.261-1.653-52.694,3.211-17.2,3.211-17.2l-.957-37.353,12.125-49.07,6.387,2.814" transform="translate(-607.182 1294.918)" fill="#355389"/>
        <path id="path178" d="M724.037-687.491s-7.566,13.329-9.367,24.358,1.322,44.922-2.143,59.378c-1.876,7.819-8.986,19.9-10.066,30.014s-5.321,36.589-5.321,36.589l9.6,2.229,22.32-66.136,17.508-59.778,4.485-30.787-27.02,4.134" transform="translate(-528.127 1304.348)" fill="#466eb6"/>
        <path id="path180" d="M772.261-894.5s-10.017-.745-13.98,4.308,8.791,45.045,9.512,51.478-3.673,23.538-3.673,23.538,23.531,5.543,30.257.334c0,0,.72-46.265,0-50.861s-6.726-23.284-8.167-25.122-13.948-3.676-13.948-3.676" transform="translate(-570.227 1435.529)" fill="#f7cc7f"/>
        <path id="path182" d="M808.765-939.213s-.052.344-.145.928c-.447,2.819-2.167,12.17-3.329,14.739-1.4,3.111,4.807,13.013,10.785,11.807,1.78-.363-1.5-9.1-1.346-10.03.3-1.772.711-4.19,1.131-6.669.237-1.4.476-2.818.7-4.152.64-3.79,1.161-6.886,1.161-6.886l-8.958.264" transform="translate(-603.396 1464.585)" fill="#f7a491"/>
        <path id="path184" d="M816.123-938.284c.093-.584.145-.928.145-.928l8.958-.264s-.522,3.1-1.161,6.886c-.223,1.324-.462,2.738-.7,4.129a8,8,0,0,1-4.277-2.512,13.514,13.514,0,0,1-3.24-5.637c.11-.665.2-1.235.271-1.673" transform="translate(-610.899 1464.585)" fill="#f47458"/>
        <path id="path186" d="M814.525-1006.2a7.46,7.46,0,0,0-6.869,3.436c-2.646,4.006-5.5,16.393,1.075,23.128s13.071-.891,14.034-8.974,1.338-17.882-8.24-17.59" transform="translate(-603.127 1507.738)" fill="#f7a491"/>
        <path id="path188" d="M862.488-964.793c-.785,1.786-2.1,2.776-2.942,2.21s-.885-2.474-.1-4.261,2.1-2.771,2.942-2.206.885,2.47.1,4.256" transform="translate(-640.904 1483.807)" fill="#f7a491"/>
        <path id="path190" d="M805.9-1010.119s-5.641,11.778-9.676,12.325-4.565,6.8-4.565,6.8,1.442-14.422,5.437-17.2a12.946,12.946,0,0,1,8.8-1.923" transform="translate(-594.033 1510.337)" fill="#13375b"/>
        <path id="path192" d="M687.851-205.159c-5.234,1.117-8.717-2.465-10.529-5.147-1.331,3.035-1.98,7.57-1,10.068.862,2.2,3.38,2.135,5.364,2.225,2.1.09,3.719-1.273,4.76-3.412a22.211,22.211,0,0,0,1.407-3.733" transform="translate(-513.283 993.174)" fill="#f47458"/>
        <path id="path194" d="M831.759-199.243a17.06,17.06,0,0,1-12.4-.57c-.614,2.036-1.429,4.6-1,6.066.529,1.805,1.282,2.215,1.947,2.234,5.263.165,19.279.382,23.292.443a.782.782,0,0,0,.509-1.258c-1-1.39-11.918-6.608-12.348-6.914" transform="translate(-612.563 986.39)" fill="#f47458"/>
        <path id="path196" d="M800.514-972.729c.328,2.093-.332,4.011-1.474,4.284s-2.334-1.2-2.662-3.29.332-4.011,1.474-4.284,2.334,1.2,2.663,3.29" transform="translate(-597.262 1488.232)" fill="#f7a491"/>
        <path id="path198" d="M832-946.158l5.093.269a2.4,2.4,0,0,1-2.447,2.21A2.435,2.435,0,0,1,832-946.158" transform="translate(-622.16 1468.905)" fill="#fff"/>
        <path id="path200" d="M2252.625-2287.649c.638.029,2.375.708,4.917,6.315,3.246,7.165,7.989,28.8,7.989,28.8l-14.161,6.156-1.82-4.516-3-34.765s5.9-2,6.07-1.989" transform="translate(-1608.457 2336.185)" fill="#dd513a"/>
        <path id="path202" d="M2146.947-2296.473c4.052.005,14.067,1.387,18.718,3.121,0,0,3.419,34.279-3.077,60.329-1.448,5.832,1.2,24.17,1.2,24.17l-41.957-.645s4.973-44.338,3.1-51.5-1.918-32.121-1.918-32.121.287-.051,9.427-1.9a81.839,81.839,0,0,1,14.5-1.452" transform="translate(-1521.496 2341.888)" fill="#f47458"/>
        <path id="path204" d="M2161.171-1868.607s.929,12.509,2.637,15.973-.089,9.351-.178,10.162-3.593,1.96-9.164,1.268-5.481-2.192-5.03-4.619,3.411-5.543,3.593-7.853-1.706-10.619-1.706-10.619l9.848-4.312" transform="translate(-1540.61 2065.272)" fill="#f7a491"/>
        <path id="path206" d="M2157.409-2079.212s28.963-1.876,35.434,2.7-4.6,27.017-4.6,27.017-20.151-1.084-59.625,1.578c-9.349.627-10.157-28.458-8.409-30.867s37.2-.424,37.2-.424" transform="translate(-1519.848 2201.926)" fill="#e0973f"/>
        <path id="path208" d="M2152.987-1809.643c-5.736-.711-5.025-4-4.566-6.5.291-1.565,1.937-3.408,2.918-5.147a9.212,9.212,0,0,0,3.835,2.177c2.588.891,6.132-.876,8.392-1.979a37.524,37.524,0,0,1,.763,8.635c-.089.834-5.611,3.53-11.342,2.813" transform="translate(-1539.824 2034.681)" fill="#dd513a"/>
        <path id="path210" d="M2124.1-2054.4c1.158,10.224,6.887,61.122,6.887,61.122l-13.292,1.923s-16.349-66.434-15.509-76.595,6.955-11.015,6.955-11.015,11.9-2.5,14.959,24.565" transform="translate(-1507.777 2201.31)" fill="#f7cc7f"/>
        <path id="path212" d="M2109.165-2276.317c3.92-1.715,5.842,39.554,6.37,56.541,6.947.782,19.057,0,22.068-.259,1.421-.124,4.691-1.523,6.1-1.736a12.092,12.092,0,0,1,3.467-.193c.258.052,7.5,3.512,8.118,4.271.771.938,2.846,3.309,2.495,4.335s-3.993-2.855-3.993-2.855l-1.78-1.169c2.216,2.526,6.443,5.859,5.837,7.071-.6,1.182-4.408-2.2-7.128-4.5,2.332,2.456,5.228,6.858,4.562,7.541-.6.618-3.9-4.477-7.416-5.943-1.3-.542-2.608.961-3.633,1.145a6.348,6.348,0,0,1-2.661.17l-3.811-1.258c-1.3.136-1.332,1.031-2.643,1.357-1.523.377-4.021.777-5.959,1.329-11.169,3.187-14.891,4.667-18.311,4.667-10.354-.01-10.955-66.453-1.683-70.516" transform="translate(-1508.1 2328.892)" fill="#f7a491"/>
        <path id="path214" d="M2098.981-2244.615c-.734-17.4-.625-38.848,7.73-42.5,3.294-1.448,9.107,7.234,8.062,42.857-4.461.429-11.008.777-15.792-.354" transform="translate(-1505.364 2335.939)" fill="#dd513a"/>
        <path id="path216" d="M2293.044-1838.344s-1.163,4.346.917,7.216,10.7,5.689,11.84,7.245a4.8,4.8,0,0,1,1.044,2.879l-24.223-.778.266-8.545,1.115-6.137,9.042-1.881" transform="translate(-1633.604 2045.707)" fill="#f7a491"/>
        <path id="path218" d="M2292.352-1815.076s-6.226,2.941-9.233,1.2-2.914-2.225-3.785-1.574-1.179,8.658-1.179,8.658l27.236.934c1.9-.052,2.853-1.683,1.315-3.078a21.613,21.613,0,0,0-2.971-2.06c-2.132-1.428-11.383-4.082-11.383-4.082" transform="translate(-1630.49 2031.084)" fill="#dd513a"/>
        <path id="path220" d="M2293.2-2069.923c1.873-4.6,6.131-10.591,13.624-6.985,7.145,3.44,9.062,11.9,6.809,20.555s-17.1,59.562-17.615,66.561l-11.852.094s2.157-40.308,2.685-50.05c.508-9.374,3.107-22.214,6.35-30.174" transform="translate(-1634.682 2200.653)" fill="#f7cc7f"/>
        <path id="path222" d="M2199.885-2187.756H2160.27a2.618,2.618,0,0,0-2.389,1.876l-12.2,34.854h-21.842a1.21,1.21,0,0,0-1.1,1.3,1.209,1.209,0,0,0,1.1,1.292H2186a4.359,4.359,0,0,0,3.957-3l12.283-32.049c.768-2-.484-4.266-2.357-4.266" transform="translate(-1522.128 2271.604)"/>
        <path id="path224" d="M2297.214-2136.516c-.267,1.566-1.434,2.612-2.6,2.338s-1.9-1.768-1.635-3.332,1.438-2.611,2.608-2.337,1.9,1.768,1.631,3.331" transform="translate(-1640.785 2240.657)" fill="#fff"/>
        <path id="path226" d="M2185.1-2421.4a28.625,28.625,0,0,1-3.5-1.64,16.134,16.134,0,0,0-4-1.758c-2.212-.4-6.01-.131-8.109,2.521-2.611,3.313-7.253.6-6.317,17.935,1.058,19.621,10.4,17.467,10.628,17.132s8.333-12.552,8.333-12.552,2.833,7.24,2.833,6.977,14.471-22.978.133-28.615" transform="translate(-1550.237 2424.951)" fill="#0e2e35"/>
        <path id="path228" d="M2190.349-2334.285l.808,7.009s1.808,10.1-.517,12.046-9.886-12.334-9.886-12.334l.8-17.764,8.8,11.043" transform="translate(-1562.577 2373.475)" fill="#f7a491"/>
        <path id="path230" d="M2182.541-2339.573a18.769,18.769,0,0,0,9.74,11.231l-.686-5.943-8.8-11.043-.258,5.755" transform="translate(-1563.823 2373.475)" fill="#f47458"/>
        <path id="path232" d="M2187.492-2400.233c4.925-.924,9.344,3.7,9.221,9.454a82.173,82.173,0,0,1-.675,8.993c-1.069,8.093-5.8,15.218-8.925,14.583s-11-7.617-9.611-19.131c.856-7.112,4.823-12.924,9.99-13.9" transform="translate(-1560.198 2409.045)" fill="#f7a491"/>
        <path id="path234" d="M2174.573-2363.611c-.263,1.782-1.486,3.017-2.73,2.766s-2.034-1.9-1.768-3.681,1.481-3.017,2.725-2.766,2.035,1.9,1.773,3.681" transform="translate(-1555.096 2387.694)" fill="#f7a491"/>
        <path id="path236" d="M2176.443-2393.558s3.782,1.1,5.183-1.739,6.422-8.965,12.8-6.429-5.611-6.175-6.12-6.175-6.632-.051-6.632-.051-4.719,4.533-4.888,5.033-1.534,5.924-1.534,5.924l1.195,3.437" transform="translate(-1558.738 2413.96)" fill="#0e2e35"/>
        <path id="path238" d="M2201.988-2333.713l6.878,1.532a3.134,3.134,0,0,1-3.7,2.456,3.527,3.527,0,0,1-3.181-3.988" transform="translate(-1577.364 2365.964)" fill="#fff"/>
        <path id="path240" d="M1817.689-760.369a9.049,9.049,0,0,0,.747,2.121c2.156,4.586,7.161,11.128,7.161,11.128l3.875-10.185s-.634-3.2-1.728-7.772c-3.737,1.141-7.3,1.8-10.055,4.709" transform="translate(-1309.43 1351.836)" fill="#f8a492"/>
        <path id="path242" d="M1819.052-841.872s-21.6,10.859-22.294,10.652c-.448-.136-8.856-16.567-8.949-32.022-.041-7.136,6.309-15.724,13.39-14.022,3.568.853,3.512,2.012,8.788,10.963s9.066,24.429,9.066,24.429" transform="translate(-1288.596 1424.506)" fill="#13375b"/>
        <path id="path244" d="M1948.56-226.039l-.513,9.921c-.189,1.258-.932,4.365-.932,5.51,0,4.294,17.462-3.648,13.551-5.552-.355-.17-2.213-1.471-2.33-2.932-.178-2.253-.633-6.811-.633-6.811l-9.144-.137" transform="translate(-1399.673 1003.345)" fill="#f7a491"/>
        <path id="path246" d="M1959.2-198.521a59.156,59.156,0,0,1-6.2,1.64c-2.1.33-4.869-2.437-6.354-1.687-1.635.82-1.57,8.22-1.57,8.22s21.983,2.107,28.167-.071c2.451-.867-5.663-5.043-14.043-8.1" transform="translate(-1398.25 985.669)" fill="#dd513a"/>
        <path id="path248" d="M1830.574-226.039l-.517,9.921c-.186,1.258-.928,4.365-.928,5.51,0,4.294,17.462-3.648,13.546-5.552-.351-.17-2.757-2.446-2.874-3.907-.181-2.248-.084-5.835-.084-5.835l-9.143-.137" transform="translate(-1317.407 1003.345)" fill="#f7a491"/>
        <path id="path250" d="M1840.916-198.521a59.141,59.141,0,0,1-6.2,1.64c-2.1.33-4.869-2.437-6.354-1.687-1.635.82-1.7,8.22-1.7,8.22s22.084,2.456,28.3-.071c2.41-.985-5.663-5.043-14.043-8.1" transform="translate(-1315.687 985.669)" fill="#dd513a"/>
        <path id="path252" d="M1851.529-878.421l15.38-25.159c.064-.217.206-.669.419-1.358.775-2.5,2.386-7.692,3.791-12.858l.012-.057c.444-1.805,1.376-4.953,2.281-8,1-3.389,2.252-7.593,2.3-8.31-.037-.123-.109-.344-.207-.636a66.116,66.116,0,0,1-1.6-7.546c-.169-1.126-.343-3.87.808-3.87,1.8,0,.944,2.738,1.776,4.445a49.94,49.94,0,0,0,1.247-5.7l.3-5.35c.056-.4-.311-3.351.957-3.351h.061c1.135.1,1.11,3.233,1.583,8.541.149-.613.3-1.348.412-2.022a22.784,22.784,0,0,1,.383-2.8c-.226-1.48-.093-3.813,1.255-3.592.674.108.618,3.365.618,3.365,0,.443-.044,3.883-.024,4.567.137-1.155.678-6.08,1.735-6.08.876,0,.949,1.324.929,2.375-.008.617-.561,5.953-.589,6.575.412-.811.9-5.51,1.312-5.51,1.707,0,1.09,6.683.46,8.423a9.4,9.4,0,0,0-.194.933,18.3,18.3,0,0,1-1.465,4.972c-1.074,2.145-2.556,5.557-2.782,6.08-.166,1.065-.682,4.9-1.328,9.719-.278,2.06-.581,4.322-.9,6.665l-.017,0c-.06.509-.379,2.121-1.6,8.168-1.663,8.277-1.836,8.635-1.909,8.785-.723,1.494-17.305,27.785-18.011,28.906l-.416.66-6.983-10.977" transform="translate(-1333.025 1475.378)" fill="#f7a491"/>
        <path id="path254" d="M1938.022-909.287s-1.247-3.729-3.467-3.738a2.245,2.245,0,0,1,2.3.462c1.065.985,1.163,3.276,1.163,3.276" transform="translate(-1390.915 1447.574)" fill="#f47458"/>
        <path id="path256" d="M1834.7-924.139l-1.982,14.616s7.544,7.074,11.94,5.58c3.69-1.249,1.163-6.881,1.163-6.881s-1.966-7.805-1.365-11.9-9.756-1.418-9.756-1.418" transform="translate(-1319.908 1455.224)" fill="#f7a491"/>
        <path id="path258" d="M1839.8-919.717a27.5,27.5,0,0,0,8.537,2.814,22.725,22.725,0,0,1-.2-5.812c.278-1.885-1.78-2.333-4.073-2.267-3.008.3-5.684.848-5.684.848l-.384,2.809a6.425,6.425,0,0,0,1.805,1.607" transform="translate(-1323.589 1455.218)" fill="#fe875e"/>
        <path id="path260" d="M1807.762-984.649c-.311,0,2.983,16.332,8.081,19.14s12.7,1.348,14.121-3.054c1.578-4.864-4.174-21.525-11.343-23.642s-10.858,7.555-10.858,7.555" transform="translate(-1302.495 1498.87)" fill="#f7a491"/>
        <path id="path262" d="M1799.345-1014.141a18.25,18.25,0,0,0-6.567,8.475c-1.91,1.061-4.223,3.346-5.333,9.521a13.464,13.464,0,0,0,8.63,15.191c5.143,1.758,5.938,5.731,5.938,5.731l.586-4.275a17.883,17.883,0,0,0-2.866-5.59c-1.72-1.861.815-4.576,1.038-6.792.173-1.706-.9-5.02-.67-7.82,0,0,2.858-5.057,5.676-6.306,4.8-2.13-1.207-11.651-6.431-8.135" transform="translate(-1288.18 1513.354)" fill="#13375b"/>
        <path id="path264" d="M1825.251-946.719c.666,1.885.391,3.761-.609,4.185s-2.354-.764-3.02-2.649-.4-3.761.609-4.185,2.354.763,3.02,2.649" transform="translate(-1311.918 1471.035)" fill="#f7a491"/>
        <path id="path266" d="M1897.155-763.563l29.666-5.647s-3.375-9.921-4.582-9.921-22.432,10.822-22.432,10.822l-1.687,3.955-.965.792" transform="translate(-1364.838 1360.922)" fill="#f8a492"/>
        <path id="path268" d="M1835.32-670.8s-2.958,16.7-1.755,29.373,1.3,57.658,1.3,57.658l-4.606,71.99,10.919.278s12.95-71.958,12.708-70.11,4.343-50.663,4.343-50.663l-15.436-40.11-7.476,1.584" transform="translate(-1318.197 1291.909)" fill="#184655"/>
        <path id="path270" d="M1854.845-680.282s-1.93,15.04.48,21.639,20.688,71.326,20.93,76.6,6.317,63.61,6.317,63.61l12.7-.415,2.749-64.854-5.752-81.511-5.583-20.611-31.837,5.543" transform="translate(-1334.828 1300.599)" fill="#13375b"/>
        <path id="path272" d="M1832.716-889.873s3.132,2.4,6.051,2.121,7.052-3.422,7.052-3.422l-.578-2.272s-7.553-1.287-7.742-1.145-4.783,4.718-4.783,4.718" transform="translate(-1319.908 1435.573)" fill="#f7a491"/>
        <path id="path274" d="M1942.942-802.934s11.222,12.368,16.288,10.256,7.161-9.327-5.2-19.885c-11.061-9.45-11.089,9.629-11.089,9.629" transform="translate(-1396.763 1384.234)" fill="#f8a492"/>
        <path id="path276" d="M1849.572-833.172c-1.668-10.586-13.75-43.537-14.714-49.607-.468-2.951-6.987-3.017-13.191-2.63-6.556.405-13.071,1.372-13.071,1.372s-5.8,1.117-8.356,3.907-3.232,10.52.437,25.188c2.9,11.581,6.491,17.939,8.271,26.371.359,2.828.667,5.618,1.078,8.88.649,12.613-.009,29.27-.009,29.27s31.6,7.654,43.415-3.959c0,0-2.151-27.94-3.858-38.79" transform="translate(-1295.788 1429.739)" fill="#355389"/>
        <path id="path278" d="M1913.252-855.167s-12.4,11.948-13.12,11.948c-.464,0-17.692-14.8-21.669-26.95-2.2-6.721,2.415-14.239,7.678-14.215,3.653.019,5.276,1.117,12.51,8.239s14.6,20.979,14.6,20.979" transform="translate(-1351.415 1428.969)" fill="#466eb6"/>
        <path id="path280" d="M1264.274-2339.209c2.031-5.708,4.1-11.43,9.369-14.319,4.266-2.337,8.723-1.457,12.514,1.871,10.742,9.427,1.38,19.82,13.608,37.7,3.8,5.557,8.4,10.043,10.673,16.552,3.185,9.116-.61,13.49-6.693,17.855-29.1,20.889-44.353-21.993-43.805-31.805.408-7.3,3.027-24.179,4.335-27.856" transform="translate(-920.529 2379.624)" fill="#13375b"/>
        <path id="path282" d="M1173.484-2129.472c1.227-.227,4.206-2.72,5.258-2.945.815-.175,2.578-.486,3.33-.618.92-4.016,5.594-25.891,6.118-32.3.568-6.948,4.775-37,4.775-37l10.9,2.314s-4.524,23.124-5.776,34.332c-1.074,9.628-10.123,31.282-11.273,33.568,0,.052,0,.108-.006.165-.175,3.4-1.577,2.266-1.577,2.266l-2.278.68s-8.063.9-8.589,1.13-2.1-1.357-.876-1.583" transform="translate(-859.94 2281.035)" fill="#f7a491"/>
        <path id="path284" d="M1242.434-2252.035c-7.7,3.049-12.082,27.5-12.082,27.5s12.084,3.936,15.18,1.872c0,0,3.514-18.188,4.773-17.552l-7.872-11.816" transform="translate(-899.91 2313.16)" fill="#6a97ce"/>
        <path id="path286" d="M1025.9-1876.7a109.334,109.334,0,0,0-3.69,15.092c-.053.41.439,2.38.393,2.8-4.731,7.531-11.53,9.181-17.358,9.662,2.97-3.384,7.332-6.594,7.541-7.668a153.231,153.231,0,0,0,3.01-19.838c3.625,1.96,6.084.405,10.1-.052" transform="translate(-742.954 2070.505)" fill="#f7a491"/>
        <path id="path288" d="M1112.941-2106.383l10.409,34.233s-16.727,3.676-22.981,5.015-41.193,3.121-42.078,3.846c-.657.537-7.874,27.793-11.1,42.82-3.657.942-9.918-.188-13.249-1.527,1.8-21.507,8.3-55.574,10.381-59.283,3.39-6.038,68.617-25.1,68.617-25.1" transform="translate(-762.964 2218.996)" fill="#256653"/>
        <path id="path290" d="M1124.025-1834.246a111.849,111.849,0,0,0-1.2,15.629c.013.415.813,2.244.835,2.668-3.438,8.437-9.852,11.543-15.5,13.292,2.375-3.978,6.144-8.083,6.177-9.182a155.326,155.326,0,0,0-.227-20.145c3.875,1.126,6.042-.933,9.915-2.262" transform="translate(-814.711 2043.057)" fill="#f7a491"/>
        <path id="path292" d="M1185.4-2101.354l4.041,8.05c6.144,12.259,1.433,28.03-9.909,33.168-.061.028-.122.056-.181.084-5.927,2.682-39.962,12.08-40.715,12.985-.56.669-3.275,29.024-4.03,44.493-3.442,1.72-9.773,1.984-13.26,1.395-1.684-21.516-.767-56.4.682-60.5,2.36-6.674,63.372-39.672,63.372-39.672" transform="translate(-823.276 2215.744)" fill="#327f6b"/>
        <path id="path294" d="M1113.391-1789.614c.907-1.168,4.233,5.265,5.064,6.637a3.48,3.48,0,0,1,.557,2.945c-.295.636-17.838,12.688-22.117,13.546a1.946,1.946,0,0,1-1.281-.4c-1.672-1.73,6.024-14.493,9.48-16.167,2.234-1.084,4.219-1.311,8.3-6.566" transform="translate(-805.801 2014.294)" fill="#13375b"/>
        <path id="path296" d="M1010.512-1833.512c1.078-.947,3.314,6.1,3.91,7.626a3.523,3.523,0,0,1,.074,3.021c-.392.561-19.559,8.559-23.9,8.465a2.057,2.057,0,0,1-1.194-.674c-1.366-2.06,8.243-12.914,11.906-13.8,2.368-.575,4.354-.358,9.2-4.633" transform="translate(-731.816 2042.638)" fill="#13375b"/>
        <path id="path298" d="M1259.718-2253.18h0a2.537,2.537,0,0,1-.776-.188c-1.43-.3-4.558-.736-6.991.461-2.96,1.456-7.547,15.083-7.274,29.063.11,2.14.221,4.053.316,5.387.747,10.562,3.342,30.381,3.482,30.49,3.531,2.654,24.83-7.635,26.3-9.893s2.329-29.718,3.04-31.083l1.4-23.879c-2.471-.857-15.705-.391-19.492-.358" transform="translate(-909.89 2314.235)" fill="#9bc1f9"/>
        <path id="path300" d="M1297.578-2285.01s-1.372,8.281-1.1,11.552-1.046,13.8-6.969,13.828-1.125-13.385-.567-16.585.69-13.112.69-13.112l7.943,4.318" transform="translate(-939.116 2337.27)" fill="#f7a491"/>
        <path id="path302" d="M1296.26-2284.356c.093-2.715.123-4.972.123-4.972l7.943,4.318s-.281,1.7-.562,3.851a6.5,6.5,0,0,1-7.5-3.2" transform="translate(-945.864 2337.27)" fill="#f47458"/>
        <path id="path304" d="M1300.292-2343.779a11.193,11.193,0,0,1,4.178,6.277c1.122,4.3-.153,15.385-8.059,18.062s-11.331-6.1-9.7-12.966,5.17-15.559,13.584-11.373" transform="translate(-938.928 2373.178)" fill="#f7a491"/>
        <path id="path306" d="M1284.3-2323.6c.155,1.843,1.026,3.252,1.946,3.148s1.54-1.687,1.385-3.53-1.026-3.252-1.946-3.148-1.539,1.687-1.385,3.53" transform="translate(-937.508 2361.714)" fill="#f7a491"/>
        <path id="path308" d="M1329.427-2343.366s1.432,12.368,4.859,14.6,1.991,7.72,1.991,7.72,3.108-12.744.4-16.835a14.866,14.866,0,0,0-7.249-5.487" transform="translate(-968.99 2372.205)" fill="#13375b"/>
        <path id="path310" d="M1337.172-2300.471c-.928,1.613-.924,3.512.008,4.243s2.442.024,3.37-1.588.929-3.512-.008-4.247-2.442-.019-3.371,1.593" transform="translate(-973.906 2345.688)" fill="#f7a491"/>
        <path id="path312" d="M1300.624-2295.087l5.572,1.635a2.54,2.54,0,0,1-3.138,1.834,2.959,2.959,0,0,1-2.434-3.469" transform="translate(-948.876 2340.993)" fill="#fff"/>
        <path id="path314" d="M1392.1-2001.69c.266-.014,24.022-1.409,24.022-1.409s-9.858,8.271-10.059,8.271-7.852-3.525-8.187-3.525-5.776-3.337-5.776-3.337" transform="translate(-1012.69 2152.221)" fill="#50bfa5"/>
        <path id="path316" d="M2953.905-224.893l.473,9.747c.174,1.235.856,4.289.856,5.411,0,4.218-16.029-3.582-12.437-5.448.323-.17,2.026-1.452,2.135-2.885.166-2.215.582-6.688.582-6.688l8.392-.137" transform="translate(-2093.546 1002.604)" fill="#f7a491"/>
        <path id="path318" d="M2912.868-197.624a51.612,51.612,0,0,0,5.688,1.612c1.929.321,4.469-2.394,5.833-1.659,1.5.806,1.441,8.074,1.441,8.074s-20.179,2.069-25.854-.071c-2.249-.848,5.2-4.954,12.893-7.956" transform="translate(-2063.77 985.087)" fill="#f7cc7f"/>
        <path id="path320" d="M3042.066-226.319l.476,9.747c.17,1.235.852,4.289.852,5.411,0,4.218-16.029-3.582-12.437-5.449.327-.17,2.535-2.4,2.64-3.841.166-2.211.081-5.731.081-5.731l8.388-.137" transform="translate(-2155.015 1003.526)" fill="#f7a491"/>
        <path id="path322" d="M3001.611-199.288a50.42,50.42,0,0,0,5.692,1.612c1.925.325,4.469-2.39,5.829-1.659,1.5.811,1.562,8.079,1.562,8.079s-20.038.961-25.976-.071c-2.333-.405,5.2-4.954,12.893-7.961" transform="translate(-2125.63 986.162)" fill="#f7cc7f"/>
        <path id="path324" d="M3004.721-666.309s2.716,16.412,1.606,28.859-1.189,56.649-1.189,56.649l5.105,70.7-10.907.3s-11.884-70.694-11.665-68.88-3.985-49.777-3.985-49.777l14.168-39.408,6.866,1.555" transform="translate(-2122.422 1288.987)" fill="#355389"/>
        <path id="path326" d="M2968.156-693.438s12.309,15.134,7.73,31.663c-1.841,6.641-18.989,70.077-19.21,75.262s-5.8,62.493-5.8,62.493l-11.653-.41-2.522-63.719,3.33-85.852,7.076-14.479,21.052-4.958" transform="translate(-2089.66 1305.521)" fill="#466eb6"/>
        <path id="path328" d="M2792.75-869.53c4.034-5.25,12.8-12.721,12.8-12.721s5.227-5.208,7.354-6.066c3.137-1.263,8.505-4.628,16.275,9.116,5.556,9.836,40.629,60.763,46.386,62.474l-37.6,21c-1.03-10.03-19.609-28.982-22.282-32.517-5.978-7.9-26.751-36.316-22.937-41.288" transform="translate(-1988.968 1432.349)" fill="#f47458"/>
        <path id="path330" d="M2786.078-893.157l11.71,8s.332,11.675-3.5,14.706c-3.213,2.545-5.656-3.563-5.656-3.563s-4.354-7.046-7.665-9.238,5.11-9.907,5.11-9.907" transform="translate(-1980.54 1434.64)" fill="#f7a491"/>
        <path id="path332" d="M2788.041-888.02a31.457,31.457,0,0,1-3.04,8.856,20.134,20.134,0,0,0-4.033-4.086c-1.526-1.013-.552-3.2.933-5.265,2.1-2.555,4.177-4.643,4.177-4.643l2.249,1.536a14.119,14.119,0,0,1-.287,3.6" transform="translate(-1980.541 1434.64)" fill="#f47458"/>
        <path id="path334" d="M2749.856-951.008c.2-.282,9.826,13.711,8.639,20.272s-7.008,12.551-11.052,10.906c-4.474-1.824-12.793-18.3-9.81-26.3s12.223-4.883,12.223-4.883" transform="translate(-1950.421 1472.426)" fill="#f7a491"/>
        <path id="path336" d="M2732.942-966.8c4.2-2.729,11.044-3.511,16.158-.382,6.29,3.841,7.723,13.518,5.752,19.418s.287,9.233.287,9.233l-3.338-2.272a20.312,20.312,0,0,1-2.2-6.382c-.255-2.833-3.79-2.328-5.514-3.615-1.333-.99-3.028-4.2-5.179-5.868,0,0-5.413-.773-8.078.971-4.541,2.974-3.895-7.2,2.116-11.1" transform="translate(-1944.047 1483.81)" fill="#13375b"/>
        <path id="path338" d="M2790.377-917.338c-.033,2.1.82,3.813,1.9,3.837s1.977-1.664,2.01-3.766-.819-3.818-1.9-3.836-1.978,1.664-2.01,3.766" transform="translate(-1987.636 1452.707)" fill="#f7a491"/>
        <path id="path340" d="M2757.807-887.082l5.1-4.449a3.671,3.671,0,0,1-.844,4.44c-2.676,2.479-4.254.009-4.254.009" transform="translate(-1964.928 1433.589)" fill="#fff"/>
        <path id="path342" d="M2681.8-750.146c1.276-2.178,1.833-5.321,3.6-7.72a16.619,16.619,0,0,1,2.608-2.616c8.493-5.8,30.614-20.757,31.474-21.917,1.021-1.376,16.118-30.665,16.118-30.665l-13.559-3.587-13.252,27.323c-1.106,1.023-22.141,19.178-22.141,19.178s-4.183,3.813-6.471,5.6a17.1,17.1,0,0,1-3.253,1.7,19.776,19.776,0,0,0-4.061,2.356c-.553.57-1.66,1.782-2.317,2.521s-1.453,1.579-1.76,2.022a4.753,4.753,0,0,1-1.2.886.972.972,0,0,0,.129,1.692,3.017,3.017,0,0,0,2.05-.551c1.527-.839,3.387-3.092,3.484-2.819s-1.792,5.109-1.978,5.679-2.354,6.2-2.466,7.456.536,1.546,1.02,1.089c.417-.4,3.9-7.918,3.9-7.918s.448-.957.622-.41-2.983,7.386-3.294,8.508-.06,2.041.828,1.65c1.082-.481,4.064-8.017,4.064-8.017s.387-.938.654-.613-2.5,6.089-2.535,6.754.484,1.32,1.231.764c.876-.655,3.492-7.409,3.492-7.409s.323-.448.424-.132-1.958,5.425-1.8,6.17c.129.627.614.5.614.5,1.078,0,2.494-5.293,3.77-7.47" transform="translate(-1901.724 1385.178)" fill="#f8a492"/>
        <path id="path344" d="M2840.851-845.359a72.577,72.577,0,0,1-7.246-3.158c-1.9-1.013-10.172-5.821-10.172-5.821s3.568-17.571,5.978-23.892c8.854-23.185,18.908-7.192,20.273-3.464,3.055,8.333-8.833,36.335-8.833,36.335" transform="translate(-2010.685 1432.946)" fill="#355389"/>
        <path id="path346" d="M1862.142-941.205l4.2-3.672a3.027,3.027,0,0,1-.695,3.662c-2.2,2.046-3.508.01-3.508.01" transform="translate(-1340.425 1468.076)" fill="#fff"/>
        <path id="path350" d="M1383.732-2133.63c-.1-.3-.323-.3-.548-.311a47.771,47.771,0,0,1-6.592-.575,4.147,4.147,0,0,1-1.062-.316,2.379,2.379,0,0,0-1.824-.076,3.216,3.216,0,0,1-1.013.123c-1.106,0-4.271-1.263-5.893-1.593a1.029,1.029,0,0,1-.759-.83c-1.6-7.38-5.026-23.938-5.47-29.387-.569-6.961-4.687-38.361-4.687-38.361l-11.02,3.591s4.533,23.174,5.788,34.412c.969,8.677,8.4,27.091,10.726,32.385,1.135,3.94,3.689,4.053,4.278,4.138a1.316,1.316,0,0,1,.876.547,6.43,6.43,0,0,0,1.388,1.41,3.568,3.568,0,0,1,.949,1.1c.468.8.888,1.63,1.3,2.469.275.551.562.73.969.6.437-.142.646-.519.637-1.14a5.778,5.778,0,0,0-.657-2.536,1.553,1.553,0,0,1,.084-1.834,5.676,5.676,0,0,1,.827-1.075,1.33,1.33,0,0,1,1.131-.48,15.707,15.707,0,0,0,2.4.523l.666.16.363.09c.056.014,1.231.165,1.63.165.323.006.844.029,1.288.053a6.254,6.254,0,0,0,1.284-.222,1.438,1.438,0,0,0,1.03-.481.479.479,0,0,0,.173-.48.424.424,0,0,0-.359-.316,14.389,14.389,0,0,1-1.618-.316c.408,0,1.679-.038,2.087-.047a1.813,1.813,0,0,0,1.4-.721c.15-.188.323-.373.222-.67" transform="translate(-979.753 2282.722)" fill="#f7a491"/>
        <path id="path352" d="M1336.112-2251.434c5.437-1.154,9.927,27.262,9.927,27.262s-12.086,3.936-15.182,1.872c0,0-3.514-18.189-4.773-17.552l10.029-11.582" transform="translate(-966.658 2312.795)" fill="#9bc1f9"/>
        <path id="path354" d="M807.733-838.8c.36-1.207-4.656-2.177-4.923-3.394s6.333-1.315,6.569-2.385c.436-1.97-7.234-.415-7.083-1.339s7.993-2.979,7.145-4.562-7.94,3.125-8.155,2.055,6.933-3.686,6.805-6.042c-.068-1.259-11.731,6.273-13.084,5.59s1.455-6.594.378-7.475-4.168,12.019-4.911,12.448-16.5,10.93-22.105,12.6c-.681-2.192-2.152-5.147-2.753-7.221-3.146,2.611-5.481,3.926-8.728,6.306,2.352,6.881,5.7,14.418,7.339,15.285,4.989,2.63,24.286-16.058,28.138-19.254s6.061-2.163,8.668-3.177,6.34,1.768,6.7.565" transform="translate(-569.787 1410.875)" fill="#f7a491"/>
        <path id="path356" d="M746.242-850.827s-4.319-22.27-3.57-28.732S750-892.04,754.555-889.811s6.623,33.327,6.623,33.327l-14.936,5.656" transform="translate(-559.814 1432.782)" fill="#f7cc7f"/>
      </g>
    </g>
  </g>
</svg>
