<svg xmlns="http://www.w3.org/2000/svg" xmlns:xlink="http://www.w3.org/1999/xlink" width="1000" height="800" viewBox="0 0 1000 800">
  <defs>
    <clipPath id="clip-path">
      <rect id="Rectangle_4209" data-name="Rectangle 4209" width="1000" height="800" transform="translate(-12759 -14946)" fill="#fff"/>
    </clipPath>
    <clipPath id="clip-path-2">
      <path id="Path_5321" data-name="Path 5321" d="M436.658,317.415c0,68.127-44.84,123.355-100.154,123.355S236.35,385.543,236.35,317.415,281.19,194.06,336.5,194.06,436.658,249.288,436.658,317.415Z" transform="translate(-236.35 -194.06)" fill="none"/>
    </clipPath>
  </defs>
  <g id="Mask_Group_146" data-name="Mask Group 146" transform="translate(12759 14946)" clip-path="url(#clip-path)">
    <g id="Layer_2" data-name="Layer 2" transform="translate(-12759 -14946)">
      <g id="Layer_1" data-name="Layer 1" transform="translate(0 0)">
        <path id="Path_5305" data-name="Path 5305" d="M814.81,684.629l-610.373,6.5c-7.409,0-13.376-9.636-13.376-21.708V267.537c0-12.073,5.967-23.088,13.376-24.561L814.81,116.9c11.965-2.475,21.737,8.067,21.737,23.56V656.327c0,15.511-9.772,28.17-21.737,28.34Z" transform="translate(6.886 38.048)" fill="#12212c"/>
        <path id="Path_5306" data-name="Path 5306" d="M812.336,688.448,194.83,695.042c-7.486,0-13.53-9.768-13.53-21.973V266.482c0-12.205,6.044-23.352,13.53-24.9L812.336,114.03c12.1-2.494,22,8.162,22,23.844V659.824c0,15.682-9.894,28.491-22,28.623Z" transform="translate(1.674 35.495)" fill="#12212c"/>
        <path id="Path_5307" data-name="Path 5307" d="M807.86,684.629l-610.373,6.5c-7.409,0-13.376-9.636-13.376-21.708V267.537c0-12.073,5.967-23.088,13.376-24.561L807.86,116.9c11.965-2.475,21.736,8.067,21.736,23.56V656.327c0,15.511-9.771,28.17-21.736,28.34Z" transform="translate(3.175 38.048)" fill="#b3c7ce"/>
        <path id="Path_5308" data-name="Path 5308" d="M197.486,189.291c-7.409,1.53-13.376,12.545-13.376,24.561V615.792c0,12.073,5.967,21.8,13.376,21.709h6.228c20.709-153.037,43.581-305.866,54.364-460.66l-60.592,12.507Z" transform="translate(3.175 91.676)" fill="#d0dfe3"/>
        <path id="Path_5309" data-name="Path 5309" d="M436.658,317.415c0,68.127-44.84,123.355-100.154,123.355S236.35,385.543,236.35,317.415,281.19,194.06,336.5,194.06,436.658,249.288,436.658,317.415Z" transform="translate(31.07 106.991)" fill="#fff"/>
        <path id="Path_5310" data-name="Path 5310" d="M391.265,208.12c18.009,31.817,13.591,78.9,1.81,114.362-14.711,42.283-49.088,66.429-85,70.473A100.742,100.742,0,0,1,250,380.2c23.641,37.759,62.837,55.348,100.659,45.171s67.49-46.3,76.19-92.761-5.126-94.939-35.507-124.491Z" transform="translate(38.359 119.495)" fill="#d0dfe3"/>
        <path id="Path_5311" data-name="Path 5311" d="M329.151,195.449c-42.737,0-77.5,54.9-77.5,122.411s34.76,122.411,77.5,122.411,77.512-54.923,77.512-122.411S371.9,195.449,329.151,195.449Zm0,246.711c-43.581,0-79.031-55.773-79.031-124.3s35.45-124.3,79.031-124.3S408.2,249.315,408.2,317.86,372.747,442.16,329.151,442.16Z" transform="translate(38.423 106.546)" fill="#b3c7ce"/>
        <path id="Path_5312" data-name="Path 5312" d="M322.076,195.449c-31.523,0-57.172,54.9-57.172,122.411s25.648,122.411,57.172,122.411,57.187-54.923,57.187-122.411S353.614,195.449,322.076,195.449Zm0,246.711c-32.367,0-58.706-55.773-58.706-124.3s26.339-124.3,58.706-124.3S380.8,249.315,380.8,317.86,354.458,442.16,322.076,442.16Z" transform="translate(45.498 106.546)" fill="#b3c7ce"/>
        <path id="Path_5313" data-name="Path 5313" d="M314.456,195.449c-19.451,0-35.282,54.9-35.282,122.411S295,440.271,314.456,440.271s35.282-54.923,35.282-122.411S333.907,195.449,314.456,195.449Zm0,246.711c-20.295,0-36.816-55.773-36.816-124.3s16.521-124.3,36.816-124.3,36.816,55.755,36.816,124.3S334.751,442.16,314.456,442.16Z" transform="translate(53.118 106.546)" fill="#b3c7ce"/>
        <path id="Path_5314" data-name="Path 5314" d="M307.247,195.449c-7.026,0-14.573,49.123-14.573,122.411s7.547,122.411,14.573,122.411S321.82,391.148,321.82,317.86,314.288,195.449,307.247,195.449Zm0,246.711c-10.078,0-16.107-63.2-16.107-124.3s6.029-124.3,16.107-124.3,16.107,63.2,16.107,124.3S317.341,442.16,307.247,442.16Z" transform="translate(60.327 106.546)" fill="#b3c7ce"/>
        <g id="Group_4054" data-name="Group 4054" transform="translate(267.42 301.051)" clip-path="url(#clip-path-2)">
          <path id="Path_5315" data-name="Path 5315" d="M236.728,276.462l-.6-1.719c66.369-34.289,140.4-38.829,209.205-12.829l-.46,1.889c-68.459-25.854-142.109-21.341-208.147,12.753Z" transform="translate(-236.468 -148.534)" fill="#b3c7ce"/>
          <path id="Path_5316" data-name="Path 5316" d="M235.352,267.51l-.782-1.625c58.429-42.661,132.015-53.261,196.841-28.34l-.445,1.795C366.539,214.589,293.414,225.113,235.352,267.51Z" transform="translate(-237.301 -167.185)" fill="#b3c7ce"/>
          <path id="Path_5317" data-name="Path 5317" d="M243.834,242.367l-.844-1.568c48.566-39.166,112.871-49.236,167.834-26.319l-.491,1.776C355.8,193.584,292,203.541,243.834,242.367Z" transform="translate(-232.804 -186.669)" fill="#b3c7ce"/>
          <path id="Path_5318" data-name="Path 5318" d="M444.7,294.527c-67.351-25.75-139.358-26.577-207.088-2.381l-.43-1.889c68-24.286,140.284-23.458,207.9,2.381l-.445,1.889Z" transform="translate(-235.907 -124.183)" fill="#b3c7ce"/>
          <path id="Path_5319" data-name="Path 5319" d="M418.461,310.773a397.111,397.111,0,0,0-169.736-1.323l-.245-1.889a398.024,398.024,0,0,1,170.273,1.323l-.276,1.889Z" transform="translate(-229.873 -100.734)" fill="#b3c7ce"/>
          <path id="Path_5320" data-name="Path 5320" d="M336.071,321.413a413.94,413.94,0,0,1-79.721-7.775l.2-1.9a410.694,410.694,0,0,0,136.372,3.779l.169,1.889a409.885,409.885,0,0,1-57.049,3.987Z" transform="translate(-225.67 -89.402)" fill="#b3c7ce"/>
        </g>
        <path id="Path_5322" data-name="Path 5322" d="M758.176,117.33l-230.1,47.517L276.32,690.255,758.176,685.1c11.965-.113,21.737-12.791,21.737-28.34V140.89C779.913,125.4,770.141,114.855,758.176,117.33Z" transform="translate(52.414 38.43)" fill="#a4b1b6"/>
        <path id="Path_5323" data-name="Path 5323" d="M484.919,222.62H484.6L400.043,237a3.477,3.477,0,0,0-2.332,3.458v57.19a2.662,2.662,0,0,0,.581,1.881,1.693,1.693,0,0,0,1.551.632L484.4,288.1a3.479,3.479,0,0,0,2.531-3.552V225.189a2.782,2.782,0,0,0-.551-1.823,1.814,1.814,0,0,0-1.459-.746Zm-85.4,79.485a3.2,3.2,0,0,1-2.466-1.324,4.868,4.868,0,0,1-.955-3.1V240.493c0-2.636,1.543-4.887,3.652-5.328l84.552-14.378a3.077,3.077,0,0,1,2.884,1.015,4.836,4.836,0,0,1,1.2,3.387v59.4c-.069,2.721-1.7,5-3.881,5.422l-84.553,12.073Z" transform="translate(116.374 130.709)" fill="#d0dfe3"/>
        <path id="Path_5324" data-name="Path 5324" d="M421.284,291.7H419.75V225.76h1.534V291.7Z" transform="translate(129.003 135.183)" fill="#d0dfe3"/>
        <path id="Path_5325" data-name="Path 5325" d="M402.809,244.494l-.2-1.87,81.317-13.093.2,1.871-81.317,13.093Z" transform="translate(119.851 138.536)" fill="#d0dfe3"/>
        <path id="Path_5326" data-name="Path 5326" d="M403.07,257.014l-.2-1.889,81.317-13.074.2,1.87L403.07,257.014Z" transform="translate(119.989 149.67)" fill="#d0dfe3"/>
        <path id="Path_5327" data-name="Path 5327" d="M593.789,247.281H593.5L467.48,258.447c-2.13.262-3.753,2.465-3.758,5.1l-.092,83.358a5.073,5.073,0,0,0,1.043,3.212,3.077,3.077,0,0,0,2.408,1.228h.184l126.017-7.765c2.257-.167,4.029-2.448,4.065-5.233l.107-86.57a5.138,5.138,0,0,0-1.043-3.212,3.411,3.411,0,0,0-2.623-1.3ZM467.082,353.254a4.493,4.493,0,0,1-3.5-1.776,7.2,7.2,0,0,1-1.534-4.553l.092-83.358c.017-3.616,2.248-6.633,5.17-6.991L593.344,245.41a4.614,4.614,0,0,1,3.942,1.673,7.13,7.13,0,0,1,1.657,4.713l-.107,86.589c-.05,3.782-2.457,6.877-5.522,7.1l-126.278,7.765Z" transform="translate(151.591 152.639)" fill="#d0dfe3"/>
        <path id="Path_5328" data-name="Path 5328" d="M397.494,157.7c-5.522,31.665,9.94,89.933,21.476,119.029s14.68,33.838,18.561,65.863c2.5,20.783,11.091,40.923,20.755,58.211,11.689,20.953,25.142,32.478,45.759,33.234s43.657-8.105,60.01,7.387c12.057,11.336,40.405-4.194,53.183,5.989,19.558,15.568,24.176,44.891,45.145,57.4,25.633,15.266,33,55.528,51.634,82.054,8.421,12,20.218,23.957,18.914,39.676-.813,10.07-7.21,18.383-14.634,22.672s-15.77,5.4-23.946,6.273c-103.928,11.336-208.515,6.5-312.765,1.719q2.178-259.728-14.956-519.041a14.746,14.746,0,0,0,16.153.113l14.711,19.309Z" transform="translate(100.638 57.276)" fill="#12212c"/>
        <path id="Path_5329" data-name="Path 5329" d="M244.246,363.031c-5.308,3.665-5.277,12.867-7.869,19.63-6.78,17.7-31.462,17.93-35.282,36.937-2.224,11,4.341,22.672,1.534,33.536-1.534,5.8-5.384,10.07-8.529,14.756-8.861,13.424-12.174,31.144-8.974,47.989q139.716-.34,279.186,12.356L450.505,307.881c-.445-6.934-.951-14.17-3.866-20.122s-9.02-10.165-14.3-7.69c2.071,11.336-5.752,22.389-14.68,25.979s-18.623,1.795-27.98.586-19.374-1.644-27.5,4.194c-7.67,5.555-12.272,15.757-17.273,24.92s-11.612,18.383-20.494,19.782c-13.806,2.154-26.952-15.266-40.006-9.579-8.483,3.684-13.606,16.267-22.55,17.382-5.937.756-12.395-3.892-17.595-.3Z" transform="translate(3.079 182.841)" fill="#fffdf6"/>
        <path id="Path_5330" data-name="Path 5330" d="M457.5,317.977c10.738,17.835,31.876,24.731,48.321,15.719,8.836-4.837,16.49-13.7,26.078-14.926,4.249-.548,8.514.472,12.778.831,10.906.926,21.721-2.494,32.628-3.25,16.291-1.115,32.413,3.779,48.244,8.54,11.49,3.5,23.562,7.368,32.03,17.552,6.136,7.368,9.725,17.325,15.187,25.431,3.451,5.139,7.67,9.447,10.585,15.115,3.712,7.123,5.062,15.663,7.394,23.636,6.642,22.672,20.985,40.281,34.315,57.889,8.544,11.336,17.411,26.848,12.18,40.885l-107.977,7.293L345.7,511.861c-.828-13.641,7.394-25.2,14.19-36.011,17.857-28.455,28.922-62.476,31.953-98.246,1.657-19.97.782-40.3,4.019-59.987,1.534-9.088,4.172-18.534,10.124-24.24,8.038-7.727,20.034-6.216,28.793.227a83.212,83.212,0,0,1,22.718,24.41Z" transform="translate(89.431 190.675)" fill="#fffdf6"/>
        <path id="Path_5331" data-name="Path 5331" d="M185.9,252.586a36.085,36.085,0,0,0-1.795,11.336V277.28L829.6,153.849V136.694a28.585,28.585,0,0,0-4.433-15.984L185.9,252.586Z" transform="translate(3.175 41.757)" fill="#fff"/>
        <path id="Path_5332" data-name="Path 5332" d="M763.43,569.645c-14.869-16.181-36.793-17.742-53.076-3.779,16.245-15.247,19.85-48.821,10.815-71.8s-27.443-35.463-46.02-38.656c-18.27-3.136-36.816,1.681-54.733,6.783-9.311,2.645-18.684,5.4-27.857,4.421a28.805,28.805,0,0,1-23.286-16.645c-4.035-8.351-5.461-19.668-10.968-25.865-5.768-6.5-14.235-5.177-21.476-1.7s-14.143,8.8-21.476,9.749c-16.138,2.116-29.882-22.049-26.231-45.8,2.592-17,6.658-26.451,7.026-43.625.476-22.011-11.306-24.807-16.352-44.4-2.976-11.544-3.5-40.508-6.443-72.645l-4.6-88.8-24.544,5.668-4.495,89.687c-2.868,32.723-6.136,46.8-8.989,59.08-4.817,20.783-18.408,37.976-18.009,59.061.353,16.456,9.388,28.34,11.842,44.173,3.467,22.313-9.511,48.707-24.39,49.879-6.627.529-12.855-3.174-19.206-5.007s-13.668-1.4-18.607,5.668c-4.679,6.745-5.875,17.4-9.281,25.752-3.842,9.447-10.848,16.35-19.175,18.893-7.394,2.248-14.834,1.209-22.12.246-13.806-1.889-27.612-3.231-40.957,2.078-14.776,6.07-26.532,20.042-31.984,38.014A81.9,81.9,0,0,0,236.965,568c1.319,6.821-2.163,13.736-7.67,14.416-7.225,1.093-13.808,5.656-18.316,12.7-6.734,10.032-10.416,25.242-10.339,40.149L781.04,624.4c.138-18.893-7.026-43.02-17.625-54.791Z" transform="translate(12.001 56.147)" fill="#f9e7ae"/>
        <path id="Path_5333" data-name="Path 5333" d="M445.943,313.576c2.439-7.557,8.284-12.961,9.725-20.783,1.856-10.127-4.157-19.517-8.452-28.472-12-25-11.781-55.792-11.2-84.851l-8.943.623c13.023,44.532-19.282,93.919-8.713,139.434,2.623,11.336,7.762,21.463,11.106,32.478s4.709,23.938-.092,34.1c-6.243,13.225-21.384,18.7-24.544,33.442-2.93,13.4,5.66,25.978,9.2,39.147,3.16,11.676,2.04,25.374-4.065,35.1s-17.457,14.51-26.737,9.957c-10.416-5.139-18.745-20.783-29.545-17-8.774,3.061-11.29,16.891-10.861,28.113s1.856,23.9-4.065,32.44c-4.786,6.915-12.993,8.634-20.31,7.557s-14.281-4.459-21.553-5.951c-26.369-5.4-54.441,18.553-59.611,50.861q192.623,5.064,385.215-4.912c4.2-11.506,8.5-23.522,8.161-36.143s-6.826-25.922-16.874-28.038c-10.845-2.286-22.335,8.54-32.4,3.061-9.695-5.271-10.922-21.425-17.043-32.119-6.78-11.752-19.512-16.1-31.2-15.644s-23.01,4.856-34.622,6.9-24.252,1.417-33.748-6.991-13.806-26.64-6.351-37.787c2.685-3.968,6.474-6.594,9.2-10.448s4.372-10.013,1.81-14.094c-4.847-7.708-19.037-1.19-20.479-10.769-.8-5.271,3.942-9.012,5.89-13.811s.982-10.316,0-15.455L446.434,338.4c-1.534-8.219-3.068-17-.475-24.9Z" transform="translate(31.572 94.015)" fill="#fffdf6"/>
        <path id="Path_5334" data-name="Path 5334" d="M184.11,409.589v14.567c0,12.073,5.967,21.8,13.376,21.709l610.373-6.5c11.965-.132,21.737-12.791,21.737-28.34v-18.7L184.11,409.551Z" transform="translate(3.175 283.312)" fill="#00a1b5"/>
        <path id="Path_5335" data-name="Path 5335" d="M572.581,223.1l-84.538,12.073a2.386,2.386,0,0,1-2.147-.873,3.735,3.735,0,0,1-.844-2.584v-57.19a4.321,4.321,0,0,1,2.991-4.383l84.553-14.4a2.4,2.4,0,0,1,2.277.8,3.79,3.79,0,0,1,.929,2.681v59.4c-.021,2.264-1.385,4.169-3.206,4.478Z" transform="translate(163.871 72.87)" fill="#fff"/>
        <path id="Path_5336" data-name="Path 5336" d="M505.981,246.808l-84.553,12.073A2.39,2.39,0,0,1,419.29,258a3.736,3.736,0,0,1-.839-2.576v-57.19a4.327,4.327,0,0,1,2.976-4.383l84.553-14.4a2.417,2.417,0,0,1,2.282.8,3.8,3.8,0,0,1,.94,2.681v59.4C509.174,244.6,507.8,246.5,505.981,246.808Z" transform="translate(128.308 93.957)" fill="#d0dfe3"/>
        <path id="Path_5337" data-name="Path 5337" d="M560.415,172.145,492.26,182.952v-1.1l68.155-10.826v1.115Z" transform="translate(167.723 86.509)" fill="#a4b1b6"/>
        <path id="Path_5338" data-name="Path 5338" d="M560.415,178.954,492.26,189.383v-1.077l68.155-10.486v1.134Z" transform="translate(167.723 92.548)" fill="#a4b1b6"/>
        <path id="Path_5339" data-name="Path 5339" d="M560.415,185.735,492.26,195.824v-1.1l68.155-10.108v1.115Z" transform="translate(167.723 98.595)" fill="#a4b1b6"/>
        <path id="Path_5340" data-name="Path 5340" d="M551.062,261.8l-82.406,9.447a2.425,2.425,0,0,1-2.1-.932,3.772,3.772,0,0,1-.812-2.563V211.217a4.131,4.131,0,0,1,2.914-4.251l82.406-11.657a2.471,2.471,0,0,1,2.19.9,3.854,3.854,0,0,1,.878,2.63v58.57c-.006,2.182-1.314,4.026-3.068,4.327Z" transform="translate(153.56 108.084)" fill="#fff"/>
        <path id="Path_5341" data-name="Path 5341" d="M538.821,212.586l-66.391,8.559v-1.077l66.391-8.578v1.1Z" transform="translate(157.134 122.492)" fill="#a4b1b6"/>
        <path id="Path_5342" data-name="Path 5342" d="M538.821,219.3l-66.391,8.2v-1.077l66.391-8.238V219.3Z" transform="translate(157.134 128.451)" fill="#a4b1b6"/>
        <path id="Path_5343" data-name="Path 5343" d="M538.821,226l-66.391,7.86v-1.077l66.391-7.879V226Z" transform="translate(157.134 134.418)" fill="#a4b1b6"/>
        <path id="Path_5344" data-name="Path 5344" d="M599.818,298.372l-87.3,7.312a2.616,2.616,0,0,1-2.194-1.008,4.04,4.04,0,0,1-.874-2.676V243.883c0-2.173,1.317-4,3.068-4.27l87.3-9.711a2.638,2.638,0,0,1,2.372.944,4.123,4.123,0,0,1,.957,2.835V294.14c-.026,2.3-1.469,4.189-3.328,4.364Z" transform="translate(176.901 138.844)" fill="#fff"/>
        <path id="Path_5345" data-name="Path 5345" d="M586.588,247.664,516.27,254.6v-1.115l70.318-6.953v1.134Z" transform="translate(180.543 153.654)" fill="#a4b1b6"/>
        <path id="Path_5346" data-name="Path 5346" d="M586.588,254.564,516.27,261.12v-1.1l70.318-6.594v1.134Z" transform="translate(180.543 159.791)" fill="#a4b1b6"/>
        <path id="Path_5347" data-name="Path 5347" d="M586.588,261.474l-70.318,6.178v-1.1l70.318-6.216v1.134Z" transform="translate(180.543 165.936)" fill="#a4b1b6"/>
        <path id="Path_5348" data-name="Path 5348" d="M575.785,172.539v-13.32a3.788,3.788,0,0,0-.929-2.681,2.4,2.4,0,0,0-2.277-.8l-84.538,14.4a4.321,4.321,0,0,0-2.991,4.383v12.829L575.8,172.539Z" transform="translate(163.872 72.87)" fill="#d0dfe3"/>
        <path id="Path_5349" data-name="Path 5349" d="M543.317,166.378l-6.826,1.115v-8.54l6.826-1.153v8.578Z" transform="translate(191.341 74.743)" fill="#a4b1b6"/>
        <path id="Path_5350" data-name="Path 5350" d="M554.168,213.315V198.842a3.853,3.853,0,0,0-.878-2.63,2.471,2.471,0,0,0-2.19-.9l-82.406,11.657a4.131,4.131,0,0,0-2.915,4.251v13.943l88.45-11.846Z" transform="translate(153.582 108.084)" fill="#d0dfe3"/>
        <path id="Path_5351" data-name="Path 5351" d="M523.258,206.144l-6.658.907v-8.445l6.658-.926v8.464Z" transform="translate(180.72 110.21)" fill="#a4b1b6"/>
        <path id="Path_5352" data-name="Path 5352" d="M603.146,248.161v-14.51a4.123,4.123,0,0,0-.957-2.835,2.638,2.638,0,0,0-2.372-.944l-87.3,9.711c-1.75.267-3.066,2.1-3.068,4.27v13.962l93.711-9.711Z" transform="translate(176.902 138.817)" fill="#d0dfe3"/>
        <path id="Path_5353" data-name="Path 5353" d="M570.106,241.65l-7.056.756V233.7l7.056-.756v8.71Z" transform="translate(205.523 141.568)" fill="#a4b1b6"/>
        <path id="Path_5354" data-name="Path 5354" d="M856.926,436.046H78.458c-5.93,0-10.738-5.921-10.738-13.225v-5.8h799.9v5.8c0,7.3-4.807,13.225-10.738,13.225Z" transform="translate(-58.976 305.279)" fill="#12212c"/>
        <path id="Path_5355" data-name="Path 5355" d="M867.586,423.361v-6.31H67.75v6.31Z" transform="translate(-58.96 305.306)" fill="#f9e7ae"/>
        <path id="Path_5356" data-name="Path 5356" d="M747.185,252.811c.02-74.121-48.412-134.446-108.588-135.256s-109.666,58.2-110.962,132.3,46.085,135.681,106.234,138.062l-11.689,37.9q18.408-19.951,36.632-40.394c51.366-12.589,88.363-68.107,88.373-132.613Z" transform="translate(186.599 38.944)" fill="#327357"/>
        <path id="Path_5357" data-name="Path 5357" d="M589.57,303.091c-9.894-54.791-32.75-112.152-25.955-166.961-27.654,30.907-40.655,77.009-34.509,122.375S559.7,342.277,594,360.452a303.389,303.389,0,0,0-4.433-57.361Z" transform="translate(186.597 55.471)" fill="#327357"/>
        <path id="Path_5358" data-name="Path 5358" d="M701.453,236.035C701.484,198.15,688.58,162,665.9,136.41c5.507,48.556-21,92.143-40.758,134.314-13.269,30.23-12.272,63.69-11.474,97.774,51.089-12.876,87.778-68.234,87.79-132.462Z" transform="translate(232.331 55.72)" fill="#327357"/>
        <path id="Path_5359" data-name="Path 5359" d="M698.912,186.967c0-50.242-29.812-92.952-70.149-100.489s-79.1,22.365-91.2,70.355,6.091,99.666,42.8,121.6c9.031,5.414,14.756,16.707,14.742,29.077v20.178h42.568V307.507c-.058-12.288,5.582-23.54,14.527-28.983,28.531-16.959,46.658-52.54,46.648-91.558Z" transform="translate(189.927 10.283)" fill="#f9e7ae"/>
        <path id="Path_5360" data-name="Path 5360" d="M653.569,100c15.769,33.517,16.72,79.353.276,111.094-18.22,36.23-49.254,59.746-83.725,63.444a37.457,37.457,0,0,1,5.615,19.989v20.1H618.3V294.451c-.058-12.288,5.582-23.54,14.527-28.983,24.456-14.538,41.539-42.966,45.682-76.02s-5.184-66.5-24.942-89.449Z" transform="translate(209.298 23.339)" fill="#f8a180"/>
        <path id="Path_5361" data-name="Path 5361" d="M600.705,279.016H585.534c-5.083,0-9.2-5.075-9.2-11.336V212.7h33.548v55.018c0,6.261-4.121,11.336-9.2,11.336Z" transform="translate(212.615 123.568)" fill="#12212c"/>
        <path id="Path_5362" data-name="Path 5362" d="M619.773,277.3H571.56V201.71h48.213V277.3Z" transform="translate(210.068 113.794)" fill="#006a89"/>
        <path id="Path_5363" data-name="Path 5363" d="M587.6,201.71H575.33V277.3H587.6V201.71Z" transform="translate(212.081 113.794)" fill="#00a1b5"/>
        <path id="Path_5364" data-name="Path 5364" d="M632.188,92.308c-31.948-9.765-65.386,6.742-83.014,40.982s-15.492,78.53,5.3,109.958c-7.946-21.9-6.289-48.084,2.286-69.622a110.744,110.744,0,0,1,40.574-50.2c17.027-11.619,36.156-18.157,55.315-22.105Z" transform="translate(191.763 14.026)" fill="#fff"/>
        <path id="Path_5365" data-name="Path 5365" d="M571.41,216.342a.6.6,0,0,1-.568-.6.693.693,0,0,1,.476-.794l49.21-9.05a.6.6,0,0,1,.652.6.7.7,0,0,1-.483.8l-49.21,9.05Z" transform="translate(209.681 117.508)" fill="#12212c"/>
        <path id="Path_5366" data-name="Path 5366" d="M571.41,221.783a.621.621,0,0,1-.568-.6.716.716,0,0,1,.476-.813l49.21-9.031a.487.487,0,0,1,.43.121.738.738,0,0,1,.229.464.71.71,0,0,1-.491.812l-49.21,9.031Z" transform="translate(209.681 122.345)" fill="#12212c"/>
        <path id="Path_5367" data-name="Path 5367" d="M571.409,227.213a.6.6,0,0,1-.568-.6.736.736,0,0,1,.476-.812l49.21-9.031a.487.487,0,0,1,.43.121.738.738,0,0,1,.229.464.71.71,0,0,1-.491.812l-49.21,9.05Z" transform="translate(209.682 127.174)" fill="#12212c"/>
        <path id="Path_5368" data-name="Path 5368" d="M571.41,232.642a.6.6,0,0,1-.568-.6.692.692,0,0,1,.476-.793l49.21-9.05a.6.6,0,0,1,.652.6.7.7,0,0,1-.483.8l-49.21,9.05Z" transform="translate(209.681 132.004)" fill="#12212c"/>
        <path id="Path_5369" data-name="Path 5369" d="M571.41,238.1a.621.621,0,0,1-.568-.6.715.715,0,0,1,.476-.812l49.21-9.05a.525.525,0,0,1,.574.242.853.853,0,0,1,.088.74.606.606,0,0,1-.494.435l-49.21,9.031Z" transform="translate(209.681 136.829)" fill="#12212c"/>
        <path id="Path_5370" data-name="Path 5370" d="M179.775,157.46l3.068,1.247a30.327,30.327,0,0,0,1.687-3.5l-2.378-2.607a30.941,30.941,0,0,0,1.442-5.177l3.191-.378a37.581,37.581,0,0,0,.384-3.968l-3.068-1.171v-.453a33.234,33.234,0,0,0-.414-5.158l2.792-1.889a36.136,36.136,0,0,0-.936-3.779l-3.16.435a27.8,27.8,0,0,0-2.3-5.026l1.9-3.174a27.647,27.647,0,0,0-2.055-2.91l-2.746,2a23.027,23.027,0,0,0-3.8-3.571l.69-3.779a21.626,21.626,0,0,0-2.823-1.587l-1.856,3.212a18.376,18.376,0,0,0-4.709-1.266l-.644-3.779h-3.068l-.629,3.779a18.321,18.321,0,0,0-4.725,1.266l-1.856-3.212a21.46,21.46,0,0,0-2.807,1.587l.69,3.779a22.858,22.858,0,0,0-3.835,3.514l-2.746-2a30.241,30.241,0,0,0-2.071,2.91l1.9,3.174a27.76,27.76,0,0,0-2.286,5.026l-3.16-.435a32.611,32.611,0,0,0-.936,3.779l2.792,1.889a31.448,31.448,0,0,0-.414,5.158,4.477,4.477,0,0,0,0,.453l-3.068,1.171a37.6,37.6,0,0,0,.4,3.968l3.191.378a29.571,29.571,0,0,0,1.442,5.177l-2.393,2.607a36.414,36.414,0,0,0,1.687,3.5l3.068-1.247a25.222,25.222,0,0,0,2.945,3.93l-1.335,3.571a27.543,27.543,0,0,0,2.73,2.4l2.347-2.626a18.994,18.994,0,0,0,3.912,2.116v3.93a19.926,19.926,0,0,0,3.3.85l1.273-3.609c.706,0,1.411.132,2.132.132a11.219,11.219,0,0,0,2.117-.132l1.273,3.609a19.163,19.163,0,0,0,3.3-.85v-3.93a19.4,19.4,0,0,0,3.912-2.116l2.362,2.683a27.38,27.38,0,0,0,2.715-2.4l-1.319-3.571a26.171,26.171,0,0,0,2.945-3.93Z" transform="translate(-21.544 33.291)" fill="#327357"/>
        <path id="Path_5371" data-name="Path 5371" d="M128.95,180.878c-7.974,0-14.438-7.964-14.435-17.785s6.471-17.779,14.445-17.772,14.433,7.976,14.425,17.8a20.035,20.035,0,0,1-4.229,12.565A13.2,13.2,0,0,1,128.95,180.878Zm32.076-10.184c.255-1.73.424-3.478.506-5.233l-4-1.568v-.586a42.9,42.9,0,0,0-.537-6.8l3.682-2.57a41.858,41.858,0,0,0-1.242-4.931l-4.157.567a39.094,39.094,0,0,0-3.068-6.632l2.5-4.194a41.3,41.3,0,0,0-2.715-3.779l-3.62,2.626a30.073,30.073,0,0,0-5.062-4.61l.905-5.082a29.847,29.847,0,0,0-3.712-2.078l-2.439,4.213a24.415,24.415,0,0,0-6.228-1.644l-.844-5.082h-4.065l-.782,5.082a24.361,24.361,0,0,0-6.243,1.644l-2.439-4.213a29.853,29.853,0,0,0-3.712,2.078l.92,5.082a29.5,29.5,0,0,0-5.062,4.61l-3.636-2.626a41.3,41.3,0,0,0-2.715,3.779l2.516,4.194a38.008,38.008,0,0,0-3.068,6.632l-4.157-.567a48.9,48.9,0,0,0-1.243,4.931l3.682,2.57a42.9,42.9,0,0,0-.537,6.8v.586l-4.019,1.568a48.871,48.871,0,0,0,.522,5.233l4.2.491a41.011,41.011,0,0,0,1.9,6.839l-3.068,3.42a42.891,42.891,0,0,0,2.224,4.61l4.019-1.644a33.8,33.8,0,0,0,3.881,5.177l-1.749,4.723a32.153,32.153,0,0,0,3.59,3.155l3.068-3.514a26.251,26.251,0,0,0,5.154,2.777v5.2a26.5,26.5,0,0,0,4.341,1.115l1.687-4.761a22.954,22.954,0,0,0,2.807.17,15.318,15.318,0,0,0,2.792-.17l1.687,4.761a26.682,26.682,0,0,0,4.357-1.115v-5.2a26.813,26.813,0,0,0,5.17-2.777l3.068,3.514a32.149,32.149,0,0,0,3.59-3.155l-1.749-4.723a32.918,32.918,0,0,0,3.9-5.177l4,1.644a40.152,40.152,0,0,0,2.224-4.61l-3.068-3.42a41.016,41.016,0,0,0,1.9-6.839l4.218-.491Z" transform="translate(-43.645 44.069)" fill="#327357"/>
        <path id="Path_5372" data-name="Path 5372" d="M180.4,258.137c-20.87.01-37.795-20.823-37.8-46.528s16.922-46.548,37.792-46.541,37.778,20.842,37.772,46.547c-.006,25.688-16.91,46.512-37.767,46.522Zm47.186-46.516v-2.267l7.839-2.04c-.107-1.889-.261-3.779-.475-5.668h-8.007c-.215-1.511-.46-2.985-.752-4.44l7.3-4.005q-.6-2.721-1.381-5.328l-7.854,2.059c-.46-1.4-.951-2.8-1.534-4.138l6.473-5.8c-.706-1.644-1.457-3.269-2.27-4.837l-7.3,4.024c-.69-1.266-1.427-2.475-2.178-3.665l5.369-7.331c-.966-1.436-1.994-2.815-3.068-4.157l-6.473,5.819c-.874-1.058-1.779-2.078-2.73-3.042l4.019-8.54c-1.2-1.153-2.408-2.267-3.682-3.287l-5.354,7.331c-1.028-.794-2.1-1.568-3.191-2.267l2.485-9.447q-2.025-1.228-4.142-2.267l-3.988,8.54c-1.151-.529-2.332-.982-3.513-1.4l.844-9.825c-1.534-.453-2.945-.831-4.449-1.134l-2.47,9.447c-1.2-.208-2.424-.359-3.651-.453l-.828-9.825h-4.556l-.828,9.825a21.521,21.521,0,0,0-3.651.453l-2.47-9.447a42.5,42.5,0,0,0-4.449,1.134l.844,9.825c-1.181.416-2.362.869-3.5,1.4l-3.927-8.37q-2.117,1.058-4.142,2.267l2.485,9.447c-1.089.7-2.148,1.474-3.191,2.267l-5.354-7.331c-1.273,1.02-2.485,2.135-3.666,3.287l4,8.54c-.951.964-1.856,1.984-2.731,3.042l-6.473-5.819c-1.058,1.341-2.086,2.721-3.068,4.157l5.369,7.331a41.93,41.93,0,0,0-2.163,3.665l-7.317-4.024c-.813,1.568-1.534,3.193-2.27,4.856l6.473,5.781c-.537,1.341-1.028,2.74-1.534,4.138l-7.839-2.059c-.537,1.738-.982,3.514-1.4,5.328l7.317,4.005c-.307,1.455-.552,2.928-.767,4.44H125.82q-.322,2.834-.46,5.668l7.823,2.04v4.516l-7.823,2.04q.138,2.834.46,5.668h8.007c.215,1.493.46,2.985.767,4.44l-7.317,3.986c.414,1.889.859,3.59,1.4,5.328l7.839-2.059c.46,1.4.951,2.8,1.534,4.138l-6.473,5.8c.706,1.644,1.457,3.269,2.27,4.837l7.317-4.024c.675,1.266,1.411,2.475,2.163,3.665l-5.369,7.331c.966,1.436,1.994,2.815,3.068,4.156l6.473-5.8c.874,1.039,1.779,2.059,2.731,3.023l-4,8.54c1.181,1.153,2.393,2.267,3.666,3.306l5.354-7.35c1.043.812,2.1,1.568,3.191,2.267l-2.485,9.447a45.894,45.894,0,0,0,4.142,2.267l4-8.54c1.135.529,2.316.982,3.5,1.4l-.844,9.825c1.534.453,2.945.831,4.449,1.134l2.47-9.447c1.2.208,2.424.359,3.651.453l.828,9.825H182.7l.828-9.825c1.227-.095,2.454-.246,3.651-.453l2.47,9.447a42.5,42.5,0,0,0,4.449-1.134l-.844-9.825c1.181-.416,2.362-.869,3.513-1.4l3.988,8.54a45.894,45.894,0,0,0,4.142-2.267l-2.485-9.447c1.089-.7,2.163-1.455,3.191-2.267l5.354,7.35c1.273-1.039,2.485-2.154,3.682-3.306l-4.019-8.54a32.4,32.4,0,0,0,2.73-3.023l6.473,5.8c1.058-1.341,2.086-2.721,3.068-4.156l-5.369-7.331c.752-1.19,1.534-2.4,2.178-3.665l7.3,4.024c.813-1.568,1.534-3.193,2.27-4.837l-6.473-5.8c.537-1.341,1.028-2.74,1.534-4.138l7.854,2.059q.782-2.607,1.381-5.328l-7.3-3.986c.292-1.455.537-2.947.752-4.44h8.007c.215-1.889.368-3.779.476-5.668l-7.915-2.211Z" transform="translate(-28.197 62.185)" fill="#327357"/>
        <path id="Path_5373" data-name="Path 5373" d="M120.23,207.62c-10.838,0-19.623,10.823-19.62,24.171s8.792,24.165,19.63,24.158,19.618-10.835,19.609-24.184S131.059,207.62,120.23,207.62Z" transform="translate(-41.413 119.05)" fill="#327357"/>
        <path id="Path_5374" data-name="Path 5374" d="M127.166,271.419c-12.64,0-22.887-12.621-22.887-28.189s10.247-28.189,22.887-28.189,22.887,12.621,22.887,28.189c-.017,15.56-10.254,28.168-22.887,28.189Zm38.917-18.894a57.731,57.731,0,0,0,.629-6.367l-4.878-1.889v-.718a52.269,52.269,0,0,0-.66-8.275l4.479-3.117a57.725,57.725,0,0,0-1.534-6.008l-5.062.718a47.634,47.634,0,0,0-3.682-8.086l3.068-5.082a48.609,48.609,0,0,0-3.313-4.648l-4.372,3.193a36.217,36.217,0,0,0-6.136-5.668l1.1-6.178a36.62,36.62,0,0,0-4.51-2.513l-2.976,5.12a29.55,29.55,0,0,0-7.563-2.022l-1.028-6.159c-.813,0-1.641-.095-2.47-.095a21.443,21.443,0,0,0-2.47.095l-1.012,6.159a29.829,29.829,0,0,0-7.578,2.022l-2.961-5.12a35.6,35.6,0,0,0-4.6,2.513l1.12,6.178a36.331,36.331,0,0,0-6.136,5.668l-4.4-3.193a48.579,48.579,0,0,0-3.267,4.572l3.068,5.082a45.361,45.361,0,0,0-3.682,8.086l-5.062-.718a57.878,57.878,0,0,0-1.534,6.008l4.479,3.117a52.271,52.271,0,0,0-.66,8.275v.718l-4.863,1.889a61.758,61.758,0,0,0,.614,6.367l5.124.6a50.263,50.263,0,0,0,2.3,8.313l-3.82,4.156a52.957,52.957,0,0,0,2.715,5.668l4.878-2a40.636,40.636,0,0,0,4.725,6.292l-2.132,5.668a41.378,41.378,0,0,0,4.372,3.779l3.789-4.289a30.9,30.9,0,0,0,6.274,3.382v6.31a31.6,31.6,0,0,0,5.292,1.36l2.04-5.781a29.005,29.005,0,0,0,3.405.208,18.577,18.577,0,0,0,3.405-.208l2.04,5.781a31.594,31.594,0,0,0,5.292-1.36v-6.31a30.429,30.429,0,0,0,6.274-3.382l3.8,4.289a42.832,42.832,0,0,0,4.356-3.779l-2.117-5.668a41.62,41.62,0,0,0,4.725-6.292l4.878,2a52.865,52.865,0,0,0,2.7-5.668l-3.82-4.157a50.259,50.259,0,0,0,2.3-8.313l5.124-.6Z" transform="translate(-48.35 107.586)" fill="#327357"/>
        <path id="Path_5375" data-name="Path 5375" d="M364.775,142.316a58.493,58.493,0,0,1-9.419,6.329,9.549,9.549,0,0,0-4.418,8.256c-.384,11.336-6.013,22.294-13.392,29.549a70.332,70.332,0,0,1-21.476,13.66c-4.777,2.154-7.436,8.434-6.136,14.491q1.35,6.235,2.684,12.507a126.439,126.439,0,0,1,52.156-14.964v-69.83Z" transform="translate(70.188 60.905)" fill="#00a1b5"/>
        <path id="Path_5376" data-name="Path 5376" d="M339.751,148.645a6.18,6.18,0,0,0-.921.586v64.011c3.436-.491,6.888-.888,10.339-1.1V142.24a58.488,58.488,0,0,1-9.419,6.329Z" transform="translate(85.793 60.905)" fill="#12212c"/>
        <path id="Path_5377" data-name="Path 5377" d="M412.686,316.121V187.475c.151-48.264-9.533-95.8-28.164-138.262l-5.538-12.451a2.624,2.624,0,0,0-5.108,0L368.016,50.4c-17.635,41.6-26.78,87.872-26.645,134.8V316.064Z" transform="translate(87.149 -34.7)" fill="#006a89"/>
        <path id="Path_5378" data-name="Path 5378" d="M412.543,186.673c-7.409-7.255-13.008-18.213-13.407-29.549a9.488,9.488,0,0,0-4.372-8.237,58.7,58.7,0,0,1-10.124-6.9v70.34a126.337,126.337,0,0,1,52.861,15c.905-4.175,1.795-8.351,2.7-12.507,1.292-6.084-1.405-12.375-6.213-14.491-7.67-3.4-15.125-7.444-21.476-13.66Z" transform="translate(110.255 60.682)" fill="#00a1b5"/>
        <path id="Path_5379" data-name="Path 5379" d="M392,147.3a58.65,58.65,0,0,1-7.363-5.309v70.34c2.47.132,4.909.359,7.363.642Z" transform="translate(110.255 60.682)" fill="#12212c"/>
        <path id="Path_5380" data-name="Path 5380" d="M375.885,316.058V34.81a3.143,3.143,0,0,0-2.01,1.889l-5.86,13.641c-17.635,41.6-26.78,87.872-26.645,134.8V316Z" transform="translate(87.149 -34.638)" fill="#fff"/>
        <path id="Path_5381" data-name="Path 5381" d="M393.9,316.139l-.629-126.586c0-51.012-1.7-99.1-14.864-140.378l-3.958-12.451c-.859-2.683-2.823-2.664-3.651,0l-4.188,13.641c-12.456,40.526-19.052,87.193-19.052,134.8l-.43,130.856Z" transform="translate(90.225 -34.719)" fill="#00a1b5"/>
        <path id="Path_5382" data-name="Path 5382" d="M353.619,305.6c0-.642-.8-66.373.813-146.991S367.839,38.487,367.946,38.09l1.089.51c-.123.378-11.843,39.676-13.453,120.049s-.828,146.273-.813,146.934Z" transform="translate(93.585 -31.721)" fill="#fff"/>
        <path id="Path_5383" data-name="Path 5383" d="M413.287,182.424c0-2.588-16.138-4.7-36.033-4.7s-36.033,2.116-36.033,4.7v6.537c0,2.607,16.138,4.7,36.033,4.7s36.033-2.1,36.033-4.7Z" transform="translate(87.069 92.459)" fill="#fff"/>
        <path id="Path_5384" data-name="Path 5384" d="M361.547,182.51c-10.508.435-17.687,1.323-17.687,2.362s7.179,1.889,17.687,2.381Z" transform="translate(88.479 96.719)" fill="#12212c"/>
        <path id="Path_5385" data-name="Path 5385" d="M380.69,182.78v3.779c5.63-.491,9.1-1.134,9.1-1.889S386.32,183.309,380.69,182.78Z" transform="translate(108.146 96.959)" fill="#12212c"/>
        <path id="Path_5386" data-name="Path 5386" d="M395.412,122.58c0,21.274-1.825,47.574-15.938,47.574s-35.144-26.3-35.144-47.574S355.758,84,369.9,84s25.541,17.25,25.541,38.5Z" transform="translate(88.73 9.109)" fill="#12212c"/>
        <path id="Path_5387" data-name="Path 5387" d="M390.153,120.634c0,19.2-10.738,34.764-23.976,34.764S342.2,139.83,342.2,120.634,352.938,85.87,366.176,85.87,390.153,101.438,390.153,120.634Z" transform="translate(87.592 10.772)" fill="#fff"/>
        <path id="Path_5388" data-name="Path 5388" d="M311.7,194.464l-1.058-.567a13.617,13.617,0,0,1,4.479-6.046,32.372,32.372,0,0,1,5.6-3.306l.261-.132A79.95,79.95,0,0,0,336.2,175.1a38.994,38.994,0,0,0,11.474-14.888l1.012.661a40.318,40.318,0,0,1-11.858,15.417,81.716,81.716,0,0,1-15.34,9.447l-.245.132a30.394,30.394,0,0,0-5.43,3.193,12.164,12.164,0,0,0-4.034,5.4Z" transform="translate(70.74 76.886)" fill="#fff"/>
        <path id="Path_5389" data-name="Path 5389" d="M433.034,214.3l-1.1-.4c.936-3.968,1.626-7.557.6-10.732a10.911,10.911,0,0,0-3.942-5.328,27.635,27.635,0,0,0-4.817-2.74l-.859-.416a59.4,59.4,0,0,1-21.476-17c-6.117-7.727-9.649-18.006-9.894-28.794h1.151a46.8,46.8,0,0,0,9.572,27.811A58.234,58.234,0,0,0,423.37,193.46l.859.416a28.938,28.938,0,0,1,5,2.853,12.153,12.153,0,0,1,4.4,6.008c1.243,3.93.2,8.389-.567,11.657Z" transform="translate(113.939 66.819)" fill="#fff"/>
        <path id="Path_5390" data-name="Path 5390" d="M395.725,214.225C397.919,145.132,390.755,96.651,370,44.6c19.727,56.114,24.851,118.481,22.135,179.374,1.657-.151,2.439-1.776,3.068-3.684a22.107,22.107,0,0,0,.614-6.065Z" transform="translate(102.437 -25.931)" fill="#12212c"/>
        <path id="Path_5391" data-name="Path 5391" d="M400.528,585.643h-3.191L372.41,263.68h3.206l24.912,321.963Z" transform="translate(103.724 168.907)" fill="#12212c"/>
        <path id="Path_5392" data-name="Path 5392" d="M449.118,585.643h-3.191L421,263.68h3.191l24.927,321.963Z" transform="translate(129.671 168.907)" fill="#12212c"/>
        <path id="Path_5393" data-name="Path 5393" d="M405.13,585.643h3.191L433.248,263.68h-3.191L405.13,585.643Z" transform="translate(121.196 168.907)" fill="#12212c"/>
        <path id="Path_5394" data-name="Path 5394" d="M356.54,585.643h3.191L384.658,263.68h-3.191L356.54,585.643Z" transform="translate(95.25 168.907)" fill="#12212c"/>
        <path id="Path_5395" data-name="Path 5395" d="M476.356,458.965H379.27L364.39,266.63h97.086l14.88,192.335Z" transform="translate(99.442 171.53)" fill="#12212c"/>
        <path id="Path_5396" data-name="Path 5396" d="M478.511,458.965H381.425L366.53,266.63h97.086l14.9,192.335Z" transform="translate(100.584 171.53)" fill="#b3c7ce"/>
        <path id="Path_5397" data-name="Path 5397" d="M470.35,279l-.966-12.564H366.53L367.512,279Z" transform="translate(100.584 171.361)" fill="#fff"/>
        <path id="Path_5398" data-name="Path 5398" d="M469.66,270.03l-.276-3.59H366.53l.276,3.59Z" transform="translate(100.584 171.361)" fill="#00a1b5"/>
        <path id="Path_5399" data-name="Path 5399" d="M389.1,320.884l-.721-1.115,37.935-37.409.706,1.115L389.1,320.884Z" transform="translate(112.252 185.52)" fill="#fff"/>
        <path id="Path_5400" data-name="Path 5400" d="M401.048,307.087l-.8-1.02,8.713-10.3.8,1.02-8.713,10.3Z" transform="translate(118.59 197.446)" fill="#fff"/>
        <path id="Path_5401" data-name="Path 5401" d="M458.785,440.1c-1.641-1.077-6.765,5.517-8.406,4.44-1.933-13.018-4.694-21.52-8.038-35.142,4.725-1.474,8.606,1.228,13.5-.472a233.1,233.1,0,0,0,2.945,31.174Z" transform="translate(141.066 298.084)" fill="#fcc8a5"/>
        <path id="Path_5402" data-name="Path 5402" d="M454.547,414.89q.739,9.866,2.332,19.592c-1.641-1.077-6.765,5.517-8.406,4.44a195.437,195.437,0,0,0-4.6-21.557c3.942,0,7.67-.246,10.63-2.475Z" transform="translate(141.883 303.385)" fill="#fff"/>
        <path id="Path_5403" data-name="Path 5403" d="M440.139,451.336c2.316,8.615,13.9,54.47,16.214,63.066,7.563,6.216,13.024-1.19,17.733-4.516-1.964-9.182-13.115-66.127-17.932-73.684h0a54.68,54.68,0,0,1-3.912-12.677c-3.068-17.93,1.534-36.011,6.55-53.015,2.976-9.995,6.136-20.046,7.087-30.645a54.441,54.441,0,0,0-3.16-25.015H422.636c-3.068,20.292,1.181,71.984,9.8,107.013,2.424,9.881,5.062,19.706,7.67,29.531Z" transform="translate(130.014 214.415)" fill="#006a89"/>
        <path id="Path_5404" data-name="Path 5404" d="M464.086,328.754a6.813,6.813,0,0,1,.107-1.474c-11.72,3.968-25.694,3.609-28.455,15.53-3.666,13.131-7.164,26.243-10.738,39.28q2.208,14.5,5.615,28.661c2.424,9.881,5.062,19.706,7.67,29.53,2.316,8.615,13.9,54.47,16.214,63.066a11.856,11.856,0,0,0,2.255,1.474c1.181-22.37.8-45.137,1.871-67.185a60.506,60.506,0,0,0-4.326-12.564h0a54.688,54.688,0,0,1-3.912-12.677c-3.068-17.93,1.534-36.011,6.55-53.015,2.976-9.995,6.136-20.046,7.087-30.645Z" transform="translate(131.806 225.469)" fill="#12212c"/>
        <path id="Path_5405" data-name="Path 5405" d="M460.588,424.154a4.861,4.861,0,0,0,2.071-2.759c.475-2.192-1.273-4.308-1.151-6.575-4.693,5.846-11.386,8.547-17.978,7.255l.921,5.46a19.446,19.446,0,0,0,16.076-3.382Z" transform="translate(141.701 303.322)" fill="#12212c"/>
        <path id="Path_5406" data-name="Path 5406" d="M440.884,451.061c-.982-1.681.107-6.367,1.181-7.935,3.651-5.252,6.136-8.767,5.921-15.341-.077-2.021-.813-3.325.951-4.043.966-.4,2.7-1.322,3.62-.756a8.219,8.219,0,0,0,2.838,1.455,2.8,2.8,0,0,0,2.516-2.381c1.411,1.171,1.4,4.1,2.93,9.692.675,2.456-1.81,4.553-2.838,6.839-1.534,3.457-.905,6.121-3.206,9.088a13.535,13.535,0,0,1-10.584,4.893C442.678,452.573,441.7,452.46,440.884,451.061Z" transform="translate(140.083 309.761)" fill="#12212c"/>
        <path id="Path_5407" data-name="Path 5407" d="M444.254,423.13c-2.577,9.976-6.136,19.933-5.967,30.343l-11.137-.68a298.545,298.545,0,0,0,3.958-29.625,66.464,66.464,0,0,0,13.146,0Z" transform="translate(132.955 310.713)" fill="#fcc8a5"/>
        <path id="Path_5408" data-name="Path 5408" d="M441.549,427.328a70.547,70.547,0,0,0-2.792,18.648l-11.137-.7c1.166-6.291,2.1-12.64,2.869-19.007a15.328,15.328,0,0,0,11.06,1.058Z" transform="translate(133.206 313.505)" fill="#fff"/>
        <path id="Path_5409" data-name="Path 5409" d="M429.844,472.068c.138,10.316-1.7,52.467-2.654,62.348l20.878,4.742c0-3.042,6.443-68.7,5.4-80.618-1.258-9.088,0-16,.828-25.015,1.058-10.694,3.3-19.082,5.384-29.587,4.6-22.974,8.3-39.279,11.045-51.56,4.065-18.194,5.078-19.309,1.534-37.787l-1.442-.831h-40.85c-.644,27.093.767,53.846,0,80.392-.261,8.521-2.163,20.046-2.071,28.586s-1.012,13.736.4,22.389c1.3,8.011,1.012,18.78,1.672,26.867Z" transform="translate(132.976 213.445)" fill="#006a89"/>
        <path id="Path_5410" data-name="Path 5410" d="M429.337,412.319h-.767a552.839,552.839,0,0,1,10.845-88.629l.736.227a552.2,552.2,0,0,0-10.814,88.44Z" transform="translate(133.713 222.276)" fill="#fff"/>
        <path id="Path_5411" data-name="Path 5411" d="M426.7,434.673a101.342,101.342,0,0,1,21.921,4.534c.169-3,.337-5.989.522-8.993a145.485,145.485,0,0,1-20.924-3l-1.534,7.557Z" transform="translate(132.704 314.342)" fill="#12212c"/>
        <path id="Path_5412" data-name="Path 5412" d="M430.808,320c-2.393,0-4.955-.113-6.918,1.511s-2.792,5.574-.966,7.557c17.641-.775,35.711-1.511,52.646,5.1.123-4.157.23-8.294.353-12.432Z" transform="translate(130.156 218.994)" fill="#12212c"/>
        <path id="Path_5413" data-name="Path 5413" d="M435.07,432.347a4.6,4.6,0,0,0-4.4,2.74c-2.7,3.779-2.209,7.86-4.817,12.64s-5.875,7.425-4.955,12.375c6.147,2.464,12.883,1.1,18.071-3.646,2.331-2,1.887-4.856,3.835-7.293,2.316-2.891,1.4-7.557,1.871-11.96a2.524,2.524,0,0,0-1.4-2.853c-1.166-.491,1.212,6.121-2.93,2.154-1.534-1.417-3.958-4.1-5.277-4.156Z" transform="translate(129.53 318.897)" fill="#12212c"/>
        <path id="Path_5414" data-name="Path 5414" d="M420.022,276.174a41.564,41.564,0,0,0-2.592-9.655,222.571,222.571,0,0,1-8.9-24.769,12.588,12.588,0,0,0,1.365-1.625c1.641-2.362.92-6.235,2.347-8.8a3.071,3.071,0,0,0,.614-1.625,1.307,1.307,0,0,0-.736-1.1,1.429,1.429,0,0,0-1.181,0,3.164,3.164,0,0,0-1.856,2.324,12.077,12.077,0,0,1-.261,1.3,1.047,1.047,0,0,1-.8.775,1.033,1.033,0,0,1-.721-.416,16.313,16.313,0,0,1-2.3-5.007c-1.718-5.933-4.97-12.848-7.01-18.421-.552-.265-1.151.359-1.335,1.1a5.671,5.671,0,0,0,0,2.324c.292,1.738,1.918,4.931,2.209,6.669a7.133,7.133,0,0,1,.123,1.889,1.625,1.625,0,0,1-.874,1.379c-.568.17-1.1-.434-1.534-1l-7.394-9.749c-.552-.718-1.534-1.436-1.994-.642s.123,2.872.66,3.533a39.372,39.372,0,0,1,6.427,11.185c-2.869-1.285-5.768-3.42-8.636-4.7-.414.661-.706,1.889-.23,2.456a14.6,14.6,0,0,0,2.669,2.229c2.04,1.058,4.679,3.174,5.108,6.084a5.659,5.659,0,0,0-.568.982c-1.427-.623-3.068-1.889-4.449-2.248a2.631,2.631,0,0,0-1.534-.132,1.52,1.52,0,0,0-.92,1.511c0,.85,1.534,1.53,2.178,1.889,4.4,1.889,4.387,5.781,7.026,9.352a8.215,8.215,0,0,0,3.191,3.155c2.286,10.58,5,22.483,6.9,32.818.8,4.327,2.286,9.314,6.044,10.807,2.934.974,6.047-.443,7.762-3.533a15.614,15.614,0,0,0,1.151-10.24Z" transform="translate(110.538 120.364)" fill="#fcc8a5"/>
        <path id="Path_5415" data-name="Path 5415" d="M396.578,232.158c.414.831.736,1.889,1.534,2.21a2.094,2.094,0,0,0,2.5-1.247,9.681,9.681,0,0,0,.874-6.669,26.438,26.438,0,0,0-2.3-6.367c-.383-.831-.982-1.776-1.733-1.549s-.89,1.285-1.089,2.116a7.647,7.647,0,0,1-3.329,4.893c-.644.378-1.534.812-1.534,1.7a1.608,1.608,0,0,0,.721,1.4,6.271,6.271,0,0,0,1.365.567,5.816,5.816,0,0,1,3.068,2.947Z" transform="translate(113.918 128.728)" fill="#ecab82"/>
        <path id="Path_5416" data-name="Path 5416" d="M406.428,233.81a103.841,103.841,0,0,0-10.738,2.475c.337,2.078.69,4.157,1.028,6.254a102.847,102.847,0,0,1,11.275-3.968l-1.611-4.761Z" transform="translate(116.155 142.342)" fill="#ecab82"/>
        <path id="Path_5417" data-name="Path 5417" d="M448.385,286.087c-20.448-5.29-29.9-28.982-39.224-51.447-3.313,1.625-10.278,2.891-13.591,4.516,1.841,16.74,6.136,33.611,13.806,47.744s19.942,25.26,33.533,26.923Z" transform="translate(116.091 143.08)" fill="#f58553"/>
        <path id="Path_5418" data-name="Path 5418" d="M398.638,236.42a25.147,25.147,0,0,0-3.068,1.153c1.841,16.74,6.136,33.611,13.806,47.744s19.942,25.261,33.533,26.923c.552-2.777,1.089-5.574,1.641-8.37-24.038-8.124-48.489-35.028-46.02-67.45Z" transform="translate(116.091 144.663)" fill="#db6334"/>
        <path id="Path_5419" data-name="Path 5419" d="M484.138,277.988c2.562,6.216,1.534,13.528-.752,19.8s-5.568,12-7.67,18.345c-6.243,19.29,2.132,40.3,3.6,62.745-19.052-1.606-39.546-3.1-58.614-2.607,1.381-12.262-.537-12.489.123-24.826,1.058-20.084,1.7-58.929,6.259-84.907,8.882-5.951,16.981-5.668,27.4-5.668a39.4,39.4,0,0,1,16.521,4.591c5.614,2.91,10.492,6.159,13.085,12.47Z" transform="translate(129.503 166.407)" fill="#f58553"/>
        <path id="Path_5420" data-name="Path 5420" d="M467.465,291.42c2.24-6.273,3.314-13.584.752-19.8a19.675,19.675,0,0,0-1.948-3.59c-19.727,29.738-15.754,67.2-14.788,103.517,4.034.3,8.038.623,11.965.964-1.534-22.445-9.848-43.455-3.6-62.745,2.056-6.348,5.385-12.073,7.67-18.346Z" transform="translate(145.424 172.775)" fill="#db6334"/>
        <path id="Path_5421" data-name="Path 5421" d="M477.86,322.792a284.729,284.729,0,0,0-56.88-.718v-.926a283.152,283.152,0,0,1,57,.718l-.077.926Z" transform="translate(129.66 219.036)" fill="#12212c"/>
        <path id="Path_5422" data-name="Path 5422" d="M444.087,261.77a28.067,28.067,0,0,0-4.157.208,13.243,13.243,0,0,0-5.43,1.379,7.466,7.466,0,0,0-3.666,4.667,9.689,9.689,0,0,0,1.979,8.124c2.9,3.533,7.286,4.232,11.2,4.459,1.028,0,1.964.094,2.869.094,6.136,0,10.738-1.379,14.3-4.308.828-.68,3.513-3.155,3.068-6.291-.276-1.795-1.534-3.269-3.9-4.516a33.913,33.913,0,0,0-16.214-3.779Zm2.838,19.876h0c-.9,0-1.856,0-2.9-.094-4.065-.227-8.621-.982-11.7-4.723a10.653,10.653,0,0,1-2.178-9.088,8.475,8.475,0,0,1,4.1-5.252,13.971,13.971,0,0,1,5.676-1.455,36.361,36.361,0,0,1,20.74,3.684c2.593,1.4,4,3.1,4.341,5.215.583,3.779-2.424,6.48-3.344,7.255-3.728,3.042-8.406,4.459-14.726,4.459Z" transform="translate(134.426 166.321)" fill="#12212c"/>
        <path id="Path_5423" data-name="Path 5423" d="M461.255,275.759a4.313,4.313,0,0,0-2.378-2.74,18.593,18.593,0,0,0-5.384-1.738c-.23-1.493-.4-3-.522-4.516q-.671-7.69-.675-15.436H440.025a110.335,110.335,0,0,1-2.562,19.914l-1.227.189a5.1,5.1,0,0,0-4.05,2.532,6.486,6.486,0,0,0,0,4.44,12.291,12.291,0,0,0,4.479,6.367,13.687,13.687,0,0,0,6.611,2.475c6.076.63,12.075-2.017,16.444-7.255a5.236,5.236,0,0,0,1.534-4.232Z" transform="translate(135.435 157.923)" fill="#fcc8a5"/>
        <path id="Path_5424" data-name="Path 5424" d="M458.467,275.759a4.313,4.313,0,0,0-2.378-2.74,18.591,18.591,0,0,0-5.384-1.738c-.23-1.493-.4-3-.521-4.516q-.671-7.69-.675-15.436H437.544c-1.967,13.018,1.644,26.366,9.557,35.331a20.075,20.075,0,0,0,9.833-6.669A5.235,5.235,0,0,0,458.467,275.759Z" transform="translate(138.223 157.923)" fill="#ecab82"/>
        <path id="Path_5425" data-name="Path 5425" d="M450.7,269.468c-.108-.907-.2-1.795-.276-2.7q-.671-7.69-.675-15.436H437.473a110.253,110.253,0,0,1-1.043,11.487c3.8,4.605,9,7.02,14.328,6.651Z" transform="translate(137.91 157.923)" fill="#12212c"/>
        <path id="Path_5426" data-name="Path 5426" d="M479.319,332.164q-3.831-14.036-6.381-28.529c-.583-5.215-1-10.467-1.212-15.72-.169-4.4-.245-8.937-1.764-13.018s-4.878-7.557-8.606-7.312a8.812,8.812,0,0,0-6.013,3.873c-4.357,5.838-4.6,14.567-3.237,22.276q2.083,9.141,4.909,17.987c.368,1.36,2.761,20.273,5.967,29.266a15.035,15.035,0,0,0,7.67,8.974c3.666,1.889,8.038-3.382,9.5-7.671,1.089-3.193,0-6.821-.89-10.127Z" transform="translate(145.888 172.369)" fill="#f58553"/>
        <path id="Path_5427" data-name="Path 5427" d="M509.339,290.059H438.1V287.3h71.238v2.758Z" transform="translate(138.802 189.913)" fill="#12212c"/>
        <path id="Path_5428" data-name="Path 5428" d="M506.789,308.074H445.246a1.57,1.57,0,0,1-1.253-.694,2.407,2.407,0,0,1-.419-1.611l3.728-41.15a1.857,1.857,0,0,1,1.672-1.889h61.543a1.57,1.57,0,0,1,1.253.694,2.407,2.407,0,0,1,.419,1.611l-3.7,41.131a1.857,1.857,0,0,1-1.672,1.889Z" transform="translate(141.719 168.062)" fill="#fff"/>
        <path id="Path_5429" data-name="Path 5429" d="M506.789,309.174H445.246a1.569,1.569,0,0,1-1.253-.694,2.407,2.407,0,0,1-.419-1.611l3.728-41.15a1.857,1.857,0,0,1,1.672-1.889h61.543a1.569,1.569,0,0,1,1.253.694,2.407,2.407,0,0,1,.419,1.611l-3.7,41.15a1.874,1.874,0,0,1-1.672,1.889Z" transform="translate(141.719 169.04)" fill="#00a1b5"/>
        <path id="Path_5430" data-name="Path 5430" d="M463.786,277.527a59.363,59.363,0,0,0-10.876,20.1h30.971c-.123-8.956-2.5-23.371-11.858-13.906-2.776,2.8-3.9-10.014-8.238-6.2Z" transform="translate(146.71 180.585)" fill="#12212c"/>
        <path id="Path_5431" data-name="Path 5431" d="M456.678,282.555a1.161,1.161,0,0,1,1.534,1.058c.138.794-.123,1.889,0,2.664a16.208,16.208,0,0,0,1.948,5.668,74.163,74.163,0,0,1-.537-8.067,39.659,39.659,0,0,1,.92-4.893,1.873,1.873,0,0,1,1.534,1.511,9.024,9.024,0,0,1,.169,2.494,20.383,20.383,0,0,0,1.841,8.748,52.658,52.658,0,0,0-.583-5.668q-.245-4.244-.092-8.5c1.028-.642,2.01.3,2.316,1.663s.384,2.475.736,4.5a26.945,26.945,0,0,0,1.319,5.441c.353.964.752,1.889,1.626,2.192a1.964,1.964,0,0,0,1.917-.113,7.587,7.587,0,0,0,1.135-1.984,37.12,37.12,0,0,0,3.436-7.406,9.057,9.057,0,0,1,.782-2.21,1.13,1.13,0,0,1,1.38-.416c.644.359.752,1.379.721,2.192-.261,5.139-2.7,8.88-3.589,11.431,1.411-1.153,1.243-2.154,2.117-3.779a4.583,4.583,0,0,1,1.411-1.285,1.65,1.65,0,0,1,1.657.4c-1.534,2.267-1.043,5.668-2.454,8.067a9.253,9.253,0,0,1-2.148,2.229c-.752.623-.491.567-1.258,1.209a2.153,2.153,0,0,0-.782.982c1.4,8.9,4.985,17.609,4.786,26.035a23.05,23.05,0,0,1-1.626,8.918,7.527,7.527,0,0,1-6.136,4.893c-3.712,0-6.734-4.062-7.578-8.332s-.107-8.691.353-13.036a88.9,88.9,0,0,0,.307-14.85c-.43-2.286-.721-4.516-1.795-5.215-.6-.4-.874-1.1-1.534-1.511a9.048,9.048,0,0,1-1.856-2.286,22.74,22.74,0,0,1-2.623-5.914c-.905-2.418,0-3.155.6-6.82Z" transform="translate(148.173 181.074)" fill="#fcc8a5"/>
        <path id="Path_5432" data-name="Path 5432" d="M471.516,290.548a36.371,36.371,0,0,1-11.766-1.738l.092.095c1.074.7,1.365,2.928,1.795,5.215.138,2.211.184,4.421.154,6.632,3.513-1.738,7.179-3.193,10.845-4.667C472.206,294.195,471.823,292.305,471.516,290.548Z" transform="translate(150.363 191.256)" fill="#ecab82"/>
        <path id="Path_5433" data-name="Path 5433" d="M440.035,260.515c6.259-4.629,11.5-11.752,18.224-12.167l-.736-5.082c-2.209-7.784-14.435-7.916-19.942-1.889a15.3,15.3,0,0,0-3.39,9.447c2.715,2.721,5.231,5.422,5.921,9.636Z" transform="translate(136.714 145.281)" fill="#ecab82"/>
        <path id="Path_5434" data-name="Path 5434" d="M458.844,246.879l-.552-3.779c-6.719.416-11.965,7.557-18.224,12.167-.69-4.213-3.206-6.915-5.921-9.636a52.165,52.165,0,0,0,2.424,17.325c2.485,8.294,17.165,11.808,19.1,9.636s3.544-17,3.544-17l-1.35-5.668.982-3.061Z" transform="translate(136.68 150.604)" fill="#fcc8a5"/>
        <path id="Path_5435" data-name="Path 5435" d="M436.572,252.647c.123.529.782.812.69,1.36s-.353.472-.583.623-.476.529-.307.794a6.26,6.26,0,0,1,.153-6.424,9.112,9.112,0,0,1,1.243,2.475,1.576,1.576,0,0,0-.859.246A.933.933,0,0,0,436.572,252.647Z" transform="translate(137.446 155.851)" fill="#ecab82"/>
        <path id="Path_5436" data-name="Path 5436" d="M463.581,237.645A8.385,8.385,0,0,0,466.986,235c-7.363,3.609-15.754.321-23.577,1.889a9.664,9.664,0,0,0-7.087,4.761,13.807,13.807,0,0,0-1.212,5.989l-.383.359a11.843,11.843,0,0,0-2.1,8.238,27.011,27.011,0,0,0,5.139,14.831c0-.548.077-1.077.123-1.625a4.947,4.947,0,0,1-1.058-1.889,9.335,9.335,0,0,1-.353-3.646,6.068,6.068,0,0,1,.629-2.532,1.869,1.869,0,0,1,1.856-1.115A2.2,2.2,0,0,1,440.3,261.6c2.04-2.532,5.216-3.458,7.286-6.046a15.837,15.837,0,0,0,2.7-6.707,35.1,35.1,0,0,0,4.418.491,10.652,10.652,0,0,0,6.9-1.984c3.206-2.494,4.709-7.217,6-11.619a5.875,5.875,0,0,1-4.08,1.889Z" transform="translate(135.84 143.4)" fill="#12212c"/>
        <path id="Path_5437" data-name="Path 5437" d="M445.585,239.709a7.864,7.864,0,0,0-3.881-.661,3.423,3.423,0,0,1-2.439-.416,2.982,2.982,0,0,0-.691-.586c-.705-.283-1.334.567-1.733,1.3a7.474,7.474,0,0,0-1.3,5.2,7.326,7.326,0,0,1,3.452-3.571c-.43.4-.092,1.341.429,1.493a1.734,1.734,0,0,0,1.457-.68,2.954,2.954,0,0,1,1.381-.926,3.058,3.058,0,0,1,1.334.34,7.538,7.538,0,0,0,2.025.378l2.9.264a21.617,21.617,0,0,0,5.845,0,8.225,8.225,0,0,0,5.185-3.023,9.487,9.487,0,0,1-4.97,1.757,17.127,17.127,0,0,1-2.73-.548,3.1,3.1,0,0,0-2.669.6.726.726,0,0,0-.782-.7,9.618,9.618,0,0,0-1.043.283,3.5,3.5,0,0,1-1.764-.567Z" transform="translate(137.407 146.06)" fill="#006a89"/>
        <path id="Path_5438" data-name="Path 5438" d="M592.144,435.8c3.073.01,5.559,3.086,5.553,6.871s-2.5,6.849-5.574,6.846-5.563-3.073-5.563-6.858A7.736,7.736,0,0,1,588.2,437.8,5.094,5.094,0,0,1,592.144,435.8Z" transform="translate(218.078 321.981)" fill="#12212c"/>
        <path id="Path_5439" data-name="Path 5439" d="M525.789,435.8c3.075,0,5.568,3.071,5.568,6.858s-2.493,6.858-5.568,6.858-5.568-3.071-5.568-6.858S522.713,435.8,525.789,435.8Z" transform="translate(182.653 321.981)" fill="#12212c"/>
        <path id="Path_5440" data-name="Path 5440" d="M583.763,487.669a17.662,17.662,0,0,1-9.787-5.555l-51.3,5.1v-1.606a2.8,2.8,0,0,1,2.209-2.966c6.565-.661,25.894-2.626,33.334-3.779,9.02-1.3,12.732-7.179,12.732-7.179h1.166V433.822H573.3V379.39h4.433v54.432h1.181V471.76H580.1s3.712,5.876,12.732,7.179c7.424,1.077,26.753,3.042,33.318,3.779a2.808,2.808,0,0,1,2.224,2.966v1.606l-46.342-4.723a31.809,31.809,0,0,0,2.669,2.475,9.28,9.28,0,0,1,2.1,2.154,6.888,6.888,0,0,1,.614,1.455h2.731v12.81h-9.2V488.726h2.884a3.824,3.824,0,0,0-.092-1.02Z" transform="translate(183.967 271.813)" fill="#12212c"/>
        <path id="Path_5441" data-name="Path 5441" d="M595.474,427.448h-53.69A21.834,21.834,0,0,1,530.141,409.8c-.675-8.219,2.547-16.645,6.274-24.316s8.084-15.209,10.047-23.466c2.163-9.107,1.534-19.2,6.658-27,4.995-7.118,12.945-9.9,20.233-7.085l5.829.34,12.272-.34a14.7,14.7,0,0,1,18.945,7.085c3.728,7.8,2.347,14.151,1.7,27-.43,8.389-1.35,15.115-.69,23.466.782,9.749,2.025,16.437-.153,24.562-2.086,7.86-8.989,14.076-15.846,17.306Z" transform="translate(187.903 225.021)" fill="#f58553"/>
        <path id="Path_5442" data-name="Path 5442" d="M591.412,420.594h-48c-5.632-2.753-9.616-9.04-10.416-16.437-.6-7.671,2.286-15.512,5.614-22.672s7.225-14.151,8.989-21.86c1.948-8.483,1.35-17.892,5.952-25.166,4.126-6.5,12.164-9.447,18.1-6.594l5.215.321,11-.321a12.751,12.751,0,0,1,16.874,6.594c3.329,7.274,2.1,13.225,1.534,25.166-.384,7.822-1.2,14.094-.614,21.86.706,9.088,1.81,15.323-.138,22.993-1.856,7.331-8.038,13.112-14.174,16.116Z" transform="translate(189.434 225.016)" fill="#12212c"/>
        <path id="Path_5443" data-name="Path 5443" d="M543.51,319.416q6.3-7.916,12.272-16.229a6.127,6.127,0,0,1,1.917-2.022,4.288,4.288,0,0,1,4.985,1.889c3.985,4.882,4.844,12.435,2.1,18.478-1.733,3.646-4.6,6.2-7.348,8.823l-1.964,1.889a25.431,25.431,0,0,0-11.919-12.867Z" transform="translate(195.089 202.045)" fill="#e9ce70"/>
        <path id="Path_5444" data-name="Path 5444" d="M533.088,331.756a29.252,29.252,0,0,1,5.047-6.991c3.973-4.5,8.682-9.447,12.456-14.246,5.169,2.343,8.314,7.406,11.06,13.225a118.852,118.852,0,0,0-9.7,11.147,55.105,55.105,0,0,1-5.66,6.839,11.093,11.093,0,0,1-7.256,3.5c-2.7.131-5.238-1.613-6.565-4.516a11.711,11.711,0,0,1,.614-8.974Z" transform="translate(188.868 210.564)" fill="#fcc8a5"/>
        <path id="Path_5445" data-name="Path 5445" d="M544.034,311.729l.982-1.209c5.17,2.343,8.314,7.406,11.06,13.225a118.832,118.832,0,0,0-9.695,11.147c-1.335,1.757-2.638,3.571-4.08,5.2a35.746,35.746,0,0,0,1.733-28.34Z" transform="translate(194.443 210.564)" fill="#12212c"/>
        <path id="Path_5446" data-name="Path 5446" d="M551.306,290.284a1.271,1.271,0,0,0-1.335-.567,4.144,4.144,0,0,0-3.313,3.231c-.169.623-.23,1.323-.445,1.889-2.47-2.1-1.626-3.155-1.887-4.7,1.258-1.115,2.746-2.456,4.034-3.514,2.178-1.757,1.534-3.136,1.35-4.969a46.727,46.727,0,0,1-10.293,6.329,4.271,4.271,0,0,0-1.243.718,1.968,1.968,0,0,0-.6,1.134,3.4,3.4,0,0,1-1.534,1.889,1.962,1.962,0,0,0-.874,1.7,6.084,6.084,0,0,1-1.626,4.194,2.959,2.959,0,0,0-.737,2.494q1.013,6.953,2.041,13.906c.4,7.765-1.059,15.549-2.317,23.2-1.35,8.219-2.439,16.815-.736,24.9.69,3.231,1.964,6.518,4.3,7.973a5.811,5.811,0,0,0,7.348-1.663,16.7,16.7,0,0,0,3.513-8.9,56.437,56.437,0,0,0,0-10.184c-.583-10.656-2.117-21.35-2.7-32.006l.23-3.684a7.781,7.781,0,0,0,2.347-4.213,23.13,23.13,0,0,0-.414-5.668,12.775,12.775,0,0,1,.982-3.911,17.208,17.208,0,0,0,2.148-3.533,29.029,29.029,0,0,1,.828-3.1c.245-.491.583-.907.828-1.417a1.928,1.928,0,0,0,.077-1.644Z" transform="translate(188.367 184.888)" fill="#fcc8a5"/>
        <path id="Path_5447" data-name="Path 5447" d="M542.786,303.844l.23-3.684a8.915,8.915,0,0,0,2.1-3.25c-1.626,1.757-3.543,4.194-6.136,4.194,3.068,18.893,2.884,36.6-4.786,53.6a12.6,12.6,0,0,1-.476,1.171,5.985,5.985,0,0,0,.89.718,5.811,5.811,0,0,0,7.348-1.662,16.7,16.7,0,0,0,3.513-8.9,56.437,56.437,0,0,0,0-10.184c-.583-10.656-2.117-21.35-2.7-32.005Z" transform="translate(189.862 198.46)" fill="#ecab82"/>
        <path id="Path_5448" data-name="Path 5448" d="M536.076,299.192a7.982,7.982,0,0,0-2.056-5.007,5.786,5.786,0,0,0,3.068.737,3.9,3.9,0,0,0-.153,2.1,1.683,1.683,0,0,0,1.227,1.323.927.927,0,0,0,.778-.356,1.431,1.431,0,0,0,.311-.948,1.412,1.412,0,0,0,1.749.113,2.174,2.174,0,0,0,.813-1.889,4.8,4.8,0,0,0,1.534-4.742,13.822,13.822,0,0,1,.322,7.047A7.707,7.707,0,0,1,540,302.8a3,3,0,0,1-1.964.359,2.312,2.312,0,0,1-1.611-1.36,7.637,7.637,0,0,1-.307-2.607Z" transform="translate(190.022 192.777)" fill="#ecab82"/>
        <path id="Path_5449" data-name="Path 5449" d="M516.06,372.026c17.073-11.034,37.015-14.661,53.689-26.715h16.015a16.625,16.625,0,0,1,7.486,10.335c1.9,7.2,3.329,8.993,1.657,16.267a28.557,28.557,0,0,1-7.348,12.772c-3.068,2.758-12.655,5.1-16.429,5.063-8.115,0-29.3,6.594-42.154,11.109-5.1,1.858-10.61.182-14.42-4.383-6.765-8.294-6.289-15.606,1.534-24.448Z" transform="translate(177.103 241.504)" fill="#12212c"/>
        <path id="Path_5450" data-name="Path 5450" d="M526.847,429.037a42.05,42.05,0,0,0,15-.907,174.234,174.234,0,0,0-3.774,30.418l-14.005.907A167.967,167.967,0,0,0,526.847,429.037Z" transform="translate(184.709 315.16)" fill="#fcc8a5"/>
        <path id="Path_5451" data-name="Path 5451" d="M517.226,447.394c4.372-1.889,9.2-2.758,13.161-5.517a17.417,17.417,0,0,0,3.559-3.287c4.6,2.418,7.44,4.78,11.305,6.537a29.993,29.993,0,0,0,3.36,2c-.292,3.628-.859,7.954-1.366,11.563H512.777l-4.817-.378c.537-5.271,4.893-9.012,9.2-10.958Z" transform="translate(176.106 324.462)" fill="#fff"/>
        <path id="Path_5452" data-name="Path 5452" d="M507.67,451.535h40.344V448.55H507.67v2.985Z" transform="translate(175.951 333.32)" fill="#12212c"/>
        <path id="Path_5453" data-name="Path 5453" d="M523.654,421.526a51.1,51.1,0,0,1,7.01-14.4c6.78-10.429,14.527-19.857,21.092-30.494,5.783-9.352,10.738-19.895,12.609-31.325H599.8c2.657,15.821-.235,32.289-7.961,45.344-11.474,19.1-29.146,25.015-44.93,38.6,6.75,28.982,1.687,51.145-2.654,73.779a49.331,49.331,0,0,1-17.625,1.058c.184-19.8-1.81-39.827-3.6-59.552-.69-7.671-1.319-15.625.629-22.955Z" transform="translate(183.79 241.504)" fill="#006a89"/>
        <path id="Path_5454" data-name="Path 5454" d="M534.107,499.294l-.767-.094,6.351-68.017a28.1,28.1,0,0,1,1.089-6.367c1.411-4.157,4.6-6.9,7.915-9.541l2.454-1.889c9.112-7.142,18.531-14.529,26.078-24.278,9.2-11.884,13.929-26.149,13.162-39.147h.767c.782,13.225-4.1,27.792-13.361,39.846-7.563,9.844-17.027,17.25-26.17,24.429l-2.454,1.889c-3.252,2.569-6.289,5.2-7.67,9.125a26.742,26.742,0,0,0-1.013,6.027l-6.351,68.016Z" transform="translate(189.659 245.639)" fill="#fff"/>
        <path id="Path_5455" data-name="Path 5455" d="M523.371,399.435a51.1,51.1,0,0,1,7.01-14.4c3.329-5.1,6.888-9.995,10.416-14.888,5.538,6.159,13.806,7.557,18.163,17.118a26.891,26.891,0,0,1,2.577,8.861,152.859,152.859,0,0,0-14.911,10.977,123.76,123.76,0,0,1,2.715,16.532l-.767.378.767-.378c.276,2.872.445,5.668.521,8.464-5.584-14.85-14.235-28.34-26.983-30.4.138-.756.307-1.511.491-2.267Z" transform="translate(184.073 263.595)" fill="#12212c"/>
        <path id="Path_5456" data-name="Path 5456" d="M549.537,387A54.566,54.566,0,0,0,563.8,406.442c-2.608,4.062-6.412,10.713-9.035,14.775-5.891-8.408-11.628-15.852-17.487-22.8a36.568,36.568,0,0,1,12.272-11.336Z" transform="translate(191.762 278.581)" fill="#fcc8a5"/>
        <path id="Path_5457" data-name="Path 5457" d="M543.63,373.8a106.776,106.776,0,0,1,7.9,12.148c1.212,2.135,13.3,25.7,13.1,25.789a36.575,36.575,0,0,0-12.272,11.336,303.529,303.529,0,0,0-36.647-36.2,13.782,13.782,0,0,1-4.479-5.422c-1.166-3.061-3.068-7.085-1.795-12.942a13.639,13.639,0,0,1,5.507-7.841l1.534-.982c2.1-1.36,7.148,0,9.4.454a22.565,22.565,0,0,1,8.1,3.779,48.719,48.719,0,0,1,9.633,9.862Z" transform="translate(176.669 253.767)" fill="#006a89"/>
        <path id="Path_5458" data-name="Path 5458" d="M568.757,406.576a76.044,76.044,0,0,1-18.04,30.229,3.647,3.647,0,0,1-1.779,1.171c-1.3.227-2.409-1.152-3.267-2.4a119.009,119.009,0,0,0,21.169-35.728,2.455,2.455,0,0,1,2.577,2.418,9.332,9.332,0,0,1-.66,4.327Z" transform="translate(196.243 289.99)" fill="#12212c"/>
        <path id="Path_5459" data-name="Path 5459" d="M555.728,395.782a16.33,16.33,0,0,0-6.335,3.5c-2.623,1.984-5.568,4.686-5.492,8.483,0,2.229,1.181,4.194,1.734,6.329a21.668,21.668,0,0,1-.169,9.2,39.7,39.7,0,0,0-1.058,9.2,9.131,9.131,0,0,0,3.743,7.557A89.407,89.407,0,0,0,569.38,403.7c-3.865-4.308-8.513-8.918-13.652-7.935Z" transform="translate(195.297 286.255)" fill="#fff"/>
        <path id="Path_5460" data-name="Path 5460" d="M567.795,298.373c-6.265,1.775-11.507,7.03-14.189,14.227-2.332,7.463-5.891,13.074-6.949,25.487a35.956,35.956,0,0,0,2.209,15.115c3.237,9.05-1.534,30.626-5.875,40.243,14.189.264,33.625,1.549,47.814,1.889,2.93-25.96,16.4-57.172,15.064-84.019a9.01,9.01,0,0,0-4.464-7.765c-10.738-5.082-23.01-7.369-33.61-5.082Z" transform="translate(194.812 199.056)" fill="#f9e7ae"/>
        <path id="Path_5461" data-name="Path 5461" d="M603.96,302.757c-12.533-4.4-25.265,7.557-29.376,21.123-3.068,13.225,1.534,30.229-6.136,39.676-7.01,11-15.616,18.723-24.268,26.167,13.99.34,32.4,1.511,46.02,1.776,2.93-25.96,15.984-57.153,15.064-84.019a10.191,10.191,0,0,0-1.273-4.723Z" transform="translate(195.447 202.834)" fill="#e9ce70"/>
        <path id="Path_5462" data-name="Path 5462" d="M576.414,332.206a28.021,28.021,0,0,0,2.3,12.98,14.915,14.915,0,0,1,1.043,11.657c-1.534,5.233-6.366,7.557-10.6,9.447a150.352,150.352,0,0,0-19.528,10.467,6.629,6.629,0,0,0-2.24,1.984,3.3,3.3,0,0,0-.261,3.174c.767,1.4,2.485,1.1,3.82.623l27.382-9.56c5.48-.66,9.933-5.734,10.891-12.413,3.651-13.225,7.3-26.64,9.051-40.47a23.554,23.554,0,0,0-.2-9.447c-.792-3.127-3.17-5.231-5.829-5.158,0,0-15.509,18.516-15.831,26.772Z" transform="translate(196.869 206.089)" fill="#12212c"/>
        <path id="Path_5463" data-name="Path 5463" d="M507.09,338.13h0Z" transform="translate(175.412 235.119)" fill="#a4b1b6"/>
        <path id="Path_5464" data-name="Path 5464" d="M571,323.167c.537-3.117,1.12-6.254,1.856-9.447,1.028-4.459,3.8-10.637,7.67-12.545a8.152,8.152,0,0,1,9.449,2.116,19.661,19.661,0,0,1,3.881,11.544,36.909,36.909,0,0,1-1.917,10.883c-.552,1.889-1.181,3.779-1.825,5.668C584.77,325.865,577.972,322.942,571,323.167Z" transform="translate(209.769 201.62)" fill="#f9e7ae"/>
        <path id="Path_5465" data-name="Path 5465" d="M539.493,362.263a5.707,5.707,0,0,1,3.145-1.8,6.55,6.55,0,0,1,3.313,1.02,27.98,27.98,0,0,0,4.3,1.625c10.554-5.933,19.834-12.356,30.45-18.289a17.609,17.609,0,0,0,5.384-3.968c1.933-2.362,2.04-6.4,2.745-9.447,1.534-6.5,2.378-12.659,3.482-18.893,6.944-.243,13.723,2.639,19.067,8.105a248.791,248.791,0,0,1-10.416,24.561,38.681,38.681,0,0,1-7.117,11.45,31.881,31.881,0,0,1-9.557,5.951,163.834,163.834,0,0,1-30.68,10.373,8.444,8.444,0,0,1-1.795,1.115,19.086,19.086,0,0,1-5.2,1.266c-1.4.189-3.145.189-3.835-1.285l-6.642.132-5.124.094a35.91,35.91,0,0,1,8.437-11.941Z" transform="translate(188.414 212.327)" fill="#fcc8a5"/>
        <path id="Path_5466" data-name="Path 5466" d="M608.767,315.79c-9.833,38.184-43.12,47.064-73.8,54.243a9.834,9.834,0,0,0-2.776,1.209h3.359l6.642-.132c.69,1.474,2.439,1.474,3.835,1.285a19.1,19.1,0,0,0,5.2-1.266,8.449,8.449,0,0,0,1.795-1.115,163.842,163.842,0,0,0,30.68-10.373,31.882,31.882,0,0,0,9.556-5.951,38.668,38.668,0,0,0,7.118-11.449,248.769,248.769,0,0,0,10.415-24.562c-.629-.642-1.3-1.266-1.979-1.889Z" transform="translate(189.045 215.251)" fill="#ecab82"/>
        <path id="Path_5467" data-name="Path 5467" d="M557.06,273.87h0Z" transform="translate(202.325 177.969)" fill="#fcc8a5"/>
        <path id="Path_5468" data-name="Path 5468" d="M554.68,313.544a10.913,10.913,0,0,1,4.6-3c1.058-.4,1.733-1.3,2.822-1.625a70.86,70.86,0,0,0,3.682-21.765l9.1-.51,1.749,1.7a88.054,88.054,0,0,0,1.534,19.895,24.807,24.807,0,0,1,6.55,2.607c-.261,2.173-1.979,3.552-3.559,4.591-7.225,4.7-15.463,8.049-23.516,6.291a5.547,5.547,0,0,1-4.249-2.966c-.8-1.889,0-3.779,1.227-5.215Z" transform="translate(200.195 189.326)" fill="#fcc8a5"/>
        <path id="Path_5469" data-name="Path 5469" d="M556.007,304.972c-1.1,0,.169-2.91,1.534-5.252a8.465,8.465,0,0,0-2.884,2.192c-1.2,1.511-2.025,3.344-1.227,5.215a5.547,5.547,0,0,0,4.249,2.966,26.007,26.007,0,0,0,15.969-2.173,21.2,21.2,0,0,1-17.641-2.948Z" transform="translate(200.218 200.959)" fill="#ecab82"/>
        <path id="Path_5470" data-name="Path 5470" d="M559.529,314.716c5.942-.02,11.628-2.989,15.77-8.238a88.438,88.438,0,0,1-1.228-18.138l-1.749-1.7-9.1.51a70.859,70.859,0,0,1-3.682,21.765,5.476,5.476,0,0,0-1.534.869c0,1.984.184,4.931,1.534,4.931Z" transform="translate(202.832 189.326)" fill="#ecab82"/>
        <path id="Path_5471" data-name="Path 5471" d="M571.97,286.64l1.749,1.7q-.184,3.927,0,7.86a31.259,31.259,0,0,1-15.048,14,70.8,70.8,0,0,0,4.142-23.05l9.1-.51Z" transform="translate(203.185 189.326)" fill="#12212c"/>
        <path id="Path_5472" data-name="Path 5472" d="M570.473,268.658a9.532,9.532,0,0,0-.644.775c-.506.529-1.258.529-1.841.926a3.29,3.29,0,0,0-1.258,2.3,11.853,11.853,0,0,0,0,2.853,33.893,33.893,0,0,1,6.412,7.406c2.071,2.872,4.218,6.008,4.6,9.825a19.524,19.524,0,0,0,4.05-13.433c-.4-5.018-2.953-9.386-6.688-11.45a2.341,2.341,0,0,0-1.642-.34,1.407,1.407,0,0,0-.982,1.455c-.629-.4-1.427-.812-2.025-.321Z" transform="translate(207.443 172.298)" fill="#12212c"/>
        <path id="Path_5473" data-name="Path 5473" d="M555.005,278.794c2.209-4.988,7.578-7.8,12.118-8.8,5.82-1.154,11.691,1.666,15.34,7.368a25.408,25.408,0,0,1,2.439,20.178c-2.134,6.737-6.731,11.832-12.395,13.736-3.543,1.171-7.808.775-10.17-2.683-2.807-4.081-1.933-10.92-5.139-14.529-1.166-1.3-2.853-2.154-3.344-3.986a10.464,10.464,0,0,1-.736-4.629,48.843,48.843,0,0,1,1.887-6.65Z" transform="translate(200.207 174.292)" fill="#12212c"/>
        <path id="Path_5474" data-name="Path 5474" d="M554.925,293.436c0,2.551-.138,1.285-.491,3.779a14.01,14.01,0,0,0,.736,5.668,59.8,59.8,0,0,0,4.51,10.07,6.243,6.243,0,0,0,2.915,2.985,6.912,6.912,0,0,0,4.448-.812c7.376-4.245,12.413-12.929,13.285-22.9a20.091,20.091,0,0,0-1.733-11A14.869,14.869,0,0,0,570.2,274.6a15.847,15.847,0,0,0-7.379-1.152,9.414,9.414,0,0,0-6.6,3.779c-1.657,2.3-3.359,9.144-2.439,12.016a17.231,17.231,0,0,1,1.151,4.175Z" transform="translate(200.441 177.543)" fill="#fcc8a5"/>
        <path id="Path_5475" data-name="Path 5475" d="M578.035,281.231a14.869,14.869,0,0,0-8.391-6.632,15.845,15.845,0,0,0-7.378-1.152,9.414,9.414,0,0,0-6.6,3.779,10.483,10.483,0,0,0-1.12,2.229c3.451,7.557,10.14,9.655,12.962,14.85,3.068,7.557,2.025,16.7-2.577,21.463a7.478,7.478,0,0,0,1.534-.624c7.392-4.239,12.443-12.933,13.315-22.918a20.088,20.088,0,0,0-1.733-11Z" transform="translate(200.984 177.543)" fill="#ecab82"/>
        <path id="Path_5476" data-name="Path 5476" d="M568.56,271c4.939,3.329,8.37,9.26,9.312,16.1a19.258,19.258,0,0,0-.614-8.011c-.874-2.683-2.654-3.08-3.8-4.837C571.674,271.548,569.757,272.02,568.56,271Z" transform="translate(208.466 175.417)" fill="#00a1b5"/>
        <path id="Path_5477" data-name="Path 5477" d="M568.414,291.468c.583.246,1.181.453,1.764.661.66,1.285,1.3,2.569,1.856,3.892a35.151,35.151,0,0,1-3.62-4.553Zm13.637-3.779a11.074,11.074,0,0,0-1.795-2.607,18.827,18.827,0,0,0-1.611-5.668c-2.348-4.647-6.316-7.688-10.739-8.228s-8.8,1.481-11.842,5.469a3.9,3.9,0,0,0-1.135,2.513,4.2,4.2,0,0,0,.813,2.116,25.1,25.1,0,0,0,3.068,3.779,8.386,8.386,0,0,0,1.795,2.985,70.32,70.32,0,0,0,6.4,5.668,15.14,15.14,0,0,1,4.955,7.331,5.385,5.385,0,0,1-.736,5.026c-.445.453-1.028.68-1.442,1.171a3.728,3.728,0,0,0-.307,3.514,9.135,9.135,0,0,0,2.01,2.815c-.905-1.115-1.871-2.532-1.534-4.081s1.534-2.286,2.378-3.325a7.535,7.535,0,0,0,1.641-4.327,27.517,27.517,0,0,1,1.442,8.105c2.915-1.625,3.421-4.969,5.17-8.256a20.765,20.765,0,0,0,2.7-7.35,12.207,12.207,0,0,0-1.181-6.632Z" transform="translate(201.187 175.505)" fill="#12212c"/>
        <path id="Path_5478" data-name="Path 5478" d="M560.49,278.965c1.56,4.256,4.711,7.3,8.437,8.162l-2.562-2.891a4.91,4.91,0,0,0,3.85.888l-.69-1.039a4.966,4.966,0,0,1,5.553,2.229,6.121,6.121,0,0,0-1.534-5.082,2.241,2.241,0,0,1,1.81.359V280.4l1.672.548-1.289-2.721a5.1,5.1,0,0,1,2.7.831,12.263,12.263,0,0,0-4.326-6.159,3.234,3.234,0,0,1,.153,2.872,7.746,7.746,0,0,1-1.534,2.305c-.475.548-1.12,1.115-1.7.794-.261-.151-.46-.453-.736-.51s-.844.51-1.043,1.058-.491,1.19-.967,1.19-.706-.435-1.012-.737-.874-.453-1.058,0a3.125,3.125,0,0,0-.077.529.982.982,0,0,1-1.212.7c-.475-.132-.89-.491-1.365-.68a1.036,1.036,0,0,0-1.334.378l-1.734-1.889Z" transform="translate(204.156 177.107)" fill="#006a89"/>
        <path id="Path_5479" data-name="Path 5479" d="M617.775,551.922h3.559L603.739,348.08H600.18l17.595,203.842Z" transform="translate(225.35 243.967)" fill="#12212c"/>
        <path id="Path_5480" data-name="Path 5480" d="M610.442,544.8h3.436L596.9,348.08H593.46L610.442,544.8Z" transform="translate(221.762 243.967)" fill="#12212c"/>
        <path id="Path_5481" data-name="Path 5481" d="M478.689,551.922H475.13L492.725,348.08h3.559L478.689,551.922Z" transform="translate(158.575 243.967)" fill="#12212c"/>
        <path id="Path_5482" data-name="Path 5482" d="M485.761,544.8H482.34L499.306,348.08h3.436L485.761,544.8Z" transform="translate(162.425 243.967)" fill="#12212c"/>
        <path id="Path_5483" data-name="Path 5483" d="M620.55,394.027l.874-1.436L573.38,348.21l-.89,1.436,48.06,44.381Z" transform="translate(210.564 244.083)" fill="#12212c"/>
        <path id="Path_5484" data-name="Path 5484" d="M485.495,394.027l48.045-44.381-.875-1.436L484.62,392.591l.874,1.436Z" transform="translate(163.643 244.083)" fill="#12212c"/>
        <path id="Path_5485" data-name="Path 5485" d="M459.88,354.282H718.587v-8.5H459.88v8.5Z" transform="translate(150.432 241.922)" fill="#fffdf6"/>
        <path id="Path_5486" data-name="Path 5486" d="M503.112,365.573h59.38a1.692,1.692,0,0,0,1.385-.782,2.6,2.6,0,0,0,.41-1.807l-5.369-41.566a1.99,1.99,0,0,0-1.795-1.889H497.743a1.691,1.691,0,0,0-1.385.781,2.606,2.606,0,0,0-.41,1.807l5.369,41.566a1.956,1.956,0,0,0,1.795,1.889Z" transform="translate(169.679 218.577)" fill="#fff"/>
        <path id="Path_5487" data-name="Path 5487" d="M503.112,366.673h59.38a1.691,1.691,0,0,0,1.385-.781,2.605,2.605,0,0,0,.41-1.807l-5.369-41.566a1.974,1.974,0,0,0-1.795-1.889H497.743a1.691,1.691,0,0,0-1.385.782,2.606,2.606,0,0,0-.41,1.807l5.369,41.566a1.973,1.973,0,0,0,1.795,1.889Z" transform="translate(169.679 219.555)" fill="#00a1b5"/>
        <path id="Path_5488" data-name="Path 5488" d="M500.53,347h78.678v-2H500.53v2Z" transform="translate(172.138 241.228)" fill="#00a1b5"/>
        <path id="Path_5489" data-name="Path 5489" d="M590.574,319.584A31.631,31.631,0,0,0,571,312.235v-.945a32.333,32.333,0,0,1,19.942,7.557l-.414.794Z" transform="translate(209.769 211.249)" fill="#fff"/>
        <path id="Path_5490" data-name="Path 5490" d="M560.915,314.176a9.111,9.111,0,0,1-6.136-2.078,8.2,8.2,0,0,1-2.485-5.347,6.234,6.234,0,0,1,1.058-4.27.323.323,0,0,1,.537,0,.554.554,0,0,1,0,.661,5.181,5.181,0,0,0-.874,3.533,7.141,7.141,0,0,0,2.178,4.667c1.779,1.587,4.234,2.154,7.747,1.8,7.547-.812,14.573-4.459,20.463-7.9a8.044,8.044,0,0,0,2.823-2.324,3.733,3.733,0,0,0,.414-3.533.54.54,0,0,1,.126-.631.34.34,0,0,1,.518.121,4.811,4.811,0,0,1-.475,4.648,8.605,8.605,0,0,1-3.068,2.57c-5.937,3.476-13.054,7.161-20.724,7.973-.614,0-1.3.132-2.04.132Z" transform="translate(199.759 200.031)" fill="#fff"/>
        <path id="Path_5491" data-name="Path 5491" d="M558,411.786c-10.139-21.418-24.575-39.269-41.924-51.844l.383-.812c17.466,12.657,32,30.625,42.215,52.184Z" transform="translate(180.442 253.795)" fill="#fff"/>
        <path id="Path_5492" data-name="Path 5492" d="M247.561,161.852l25,18.062a76.619,76.619,0,0,1,6.458-9.768L258.238,145.32A113.859,113.859,0,0,0,247.5,161.852Z" transform="translate(37.024 63.644)" fill="#fff"/>
        <path id="Path_5493" data-name="Path 5493" d="M317.515,126.75c-21.911.506-42.959,10.614-59.365,28.51l18.837,27.074c11.162-12.352,25.528-19.411,40.528-19.914Z" transform="translate(42.711 47.129)" fill="#fff"/>
        <path id="Path_5494" data-name="Path 5494" d="M278.634,370.9c-47.485-45.908-55.774-130.529-18.515-189.029,37.26-58.57,105.339-67.7,153.4-22.823,46.8,43.644,55.714,130.365,18.53,188.935-17.878,28.123-44.1,46.334-72.895,50.615s-57.782-5.717-80.581-27.792ZM423.212,143.929C368.941,91.5,290.437,103.177,247.863,170.016s-33.1,163.53,21.165,215.972,132.769,40.78,175.353-26.05C486.966,293.089,477.488,196.378,423.212,143.929Z" transform="translate(22.994 33.237)" fill="#a4b1b6"/>
        <path id="Path_5495" data-name="Path 5495" d="M274.955,373.043c-48.446-46.832-56.906-133.161-18.9-192.845,38.028-59.684,107.471-69.056,156.574-23.277,47.738,44.513,56.834,132.915,18.9,192.845-18.24,28.689-45,47.265-74.368,51.631S298.214,395.563,274.955,373.043ZM420.9,143.941c-54.272-52.455-132.793-40.791-175.382,26.053S212.4,333.55,266.67,386.005s132.794,40.79,175.382-26.055S475.17,196.4,420.9,143.941Z" transform="translate(21.734 33.225)" fill="#12212c"/>
        <path id="Path_5496" data-name="Path 5496" d="M234.568,314.254l-6.427-6.216,37.675-59.118,6.427,6.216-37.675,59.118Z" transform="translate(26.686 155.78)" fill="#12212c"/>
        <path id="Path_5497" data-name="Path 5497" d="M181.466,427.782,169.9,416.616l88.787-139.4L270.253,288.4,181.466,427.782Z" transform="translate(-4.413 180.949)" fill="#f58553"/>
        <path id="Path_5498" data-name="Path 5498" d="M174.805,411.745l-.905-.869L257.472,279.51l.905.888L174.805,411.745Z" transform="translate(-2.277 182.985)" fill="#fff"/>
        <path id="Path_5499" data-name="Path 5499" d="M222.132,296.22c-1.994,4.78-.8,10.694-2.178,15.795-1.212,4.44-4.2,7.746-6.136,11.808-1.243,2.683-2.071,5.8-3.988,7.765a10.231,10.231,0,0,1-6.5,2.607,17.584,17.584,0,0,0-6.8,1.53l25.556-39.506Z" transform="translate(9.807 197.846)" fill="#12212c"/>
        <path id="Path_5500" data-name="Path 5500" d="M219.065,299.3a2.618,2.618,0,0,0-1.411.794,19.208,19.208,0,0,0-1.856,1.889,17.544,17.544,0,0,1,.92-2.7,7.394,7.394,0,0,0-6.136,3.59c-1.626,2.135-2.853,4.7-4.6,6.783a6.67,6.67,0,0,1-6.366,3.042c-.123,2.758-.261,5.536-.383,8.294a4.96,4.96,0,0,1,4.3-.378,17.316,17.316,0,0,0,4.311,1,3.762,3.762,0,0,0,3.636-2.475,14.015,14.015,0,0,0,.414-2.437,14.333,14.333,0,0,0,1.273-.869,9.518,9.518,0,0,0,2.991-3.779,24.687,24.687,0,0,0,1.15-5.29,9.308,9.308,0,0,1,1.964-4.818c.414-.416.936-.85.92-1.511a1.07,1.07,0,0,0-1.12-1.039Z" transform="translate(11.248 200.567)" fill="#f8a180"/>
        <path id="Path_5501" data-name="Path 5501" d="M159.994,266.736a9.227,9.227,0,0,0-5.277,5.933,29.833,29.833,0,0,0-1.427,8.861,90.049,90.049,0,0,0,5.906,37.145c4.569,11.551,12,21.018,21.215,27.037,13.806,8.71,31.646,8.275,47.109,9.447,1.074-4.553,0-11.544,1.012-16.1-12.855-.623-26.185-3.231-36.57-12.583s-15.094-23.711-17.564-39.261a67.576,67.576,0,0,0-3.482-14.6c-2.3-4.557-6.635-6.917-10.922-5.951Z" transform="translate(-13.345 171.367)" fill="#006a89"/>
        <path id="Path_5502" data-name="Path 5502" d="M191.963,326.518c-10.385-9.447-15.094-23.711-17.564-39.261a67.573,67.573,0,0,0-3.482-14.6c-2.3-4.557-6.635-6.917-10.922-5.951a9.227,9.227,0,0,0-5.277,5.933,29.837,29.837,0,0,0-1.427,8.861,90.049,90.049,0,0,0,5.906,37.145c4.569,11.551,12,21.018,21.215,27.037a45.481,45.481,0,0,0,9.664,4.534,84.565,84.565,0,0,0,3.252-22.54C192.868,327.292,192.407,326.914,191.963,326.518Z" transform="translate(-13.345 171.403)" fill="#12212c"/>
        <path id="Path_5503" data-name="Path 5503" d="M177.392,281.036c-4.863-6.518-6.826-17.117-7.578-25.922L157.68,253.47a195.2,195.2,0,0,1,.583,37.258C165.013,286.8,170.627,285.06,177.392,281.036Z" transform="translate(-10.939 159.827)" fill="#f8a180"/>
        <path id="Path_5504" data-name="Path 5504" d="M171.839,267.961a86.106,86.106,0,0,1-2.025-12.847L157.68,253.47c.2,1.738.353,3.458.506,5.177,3.192,5.461,8.2,8.878,13.652,9.314Z" transform="translate(-10.939 159.827)" fill="#12212c"/>
        <path id="Path_5505" data-name="Path 5505" d="M150.459,255.444A22.225,22.225,0,0,1,151,246.2a13.118,13.118,0,0,1,4.74-6.48,16.9,16.9,0,0,1,6.8-2.8c3.068-.6,6.565-1.379,9,.888,3.068,2.966,4.6,3.779,5.139,7.935a10.526,10.526,0,0,0,.8,2.588,3.936,3.936,0,0,0,1.243,1.606c1.35,1.02,1.856,2.683,2.485,5.8a43.2,43.2,0,0,1,.736,4.893,12.642,12.642,0,0,0,.69,3.117,5.5,5.5,0,0,1,.2,3.4,4.851,4.851,0,0,1-2.04,2.381,20.443,20.443,0,0,1-18.883,2.1,16.448,16.448,0,0,1-9.449-8.011,24.626,24.626,0,0,1-1.994-8.105Z" transform="translate(-14.931 144.552)" fill="#f8a180"/>
        <path id="Path_5506" data-name="Path 5506" d="M175.417,241.84a24.384,24.384,0,0,0-3.881-4.024c-2.439-2.267-6-1.493-9-.888a16.9,16.9,0,0,0-6.8,2.8A13.118,13.118,0,0,0,151,246.2a22.225,22.225,0,0,0-.537,9.239,24.625,24.625,0,0,0,1.994,8.105,16.448,16.448,0,0,0,9.449,8.011,21.485,21.485,0,0,0,12.978.68c-2.945-9.825-3.666-20.1.537-30.4Z" transform="translate(-14.931 144.552)" fill="#f58553"/>
        <path id="Path_5507" data-name="Path 5507" d="M176.728,320.689c-2.148-8.445-5.461-17.363-3.237-25.771,1.335-5.045,4.6-9.3,4.939-14.567s-2.025-9.825-4.525-13.887l-1.043-1.663a24.175,24.175,0,0,0,1.411-2,34.6,34.6,0,0,0,4.6-24.221c-.552-2.834.107-1.776-2.869-6.858-7.409,3.779-12.379,5.989-19.773,9.787a20.819,20.819,0,0,0-4.847,3.08s-1.089.812-1.289,1.4a16.217,16.217,0,0,0-2.638,10.373,62.6,62.6,0,0,0-.706,12.7c.43,8.691,2.669,17.25,2.209,25.941-.476,9.239-3.912,17.76-6.013,26.64a91.782,91.782,0,0,0-.966,36.861c1.273,7.123,3.666,14.453,8.483,18.686,4.111,3.609,9.342,4.478,14.358,5.233,2.7.4,5.783.661,7.777-1.625a11.481,11.481,0,0,0,1.871-3.779,99.866,99.866,0,0,0,2.286-56.34Z" transform="translate(-20.078 140.483)" fill="#12212c"/>
        <path id="Path_5508" data-name="Path 5508" d="M164.285,239.969a15.527,15.527,0,0,0,6.734-5.479,18.794,18.794,0,0,1,.184,11.619,20.709,20.709,0,0,0-1.365-5.932,13.943,13.943,0,0,1-.859,4.44l-.782-2.91a5.5,5.5,0,0,0-1.795,2.57,1.64,1.64,0,0,0-2.316-.624,5.867,5.867,0,0,0-1.871,2.154,1.214,1.214,0,0,0-1.181-1.568,3.015,3.015,0,0,0-1.7,1.492,3.2,3.2,0,0,1-1.672,1.512,6.994,6.994,0,0,1-1.258,0c-1.3,0-2.255,1.474-3.068,2.758a.61.61,0,0,0-.614-.737,1.621,1.621,0,0,0-.874.623l-3.574,4.062,1.1-6.518a4.487,4.487,0,0,0,4.479-3.325,3.858,3.858,0,0,0,3.62-.567l6.765-3.552Z" transform="translate(-15.963 142.947)" fill="#006a89"/>
        <path id="Path_5509" data-name="Path 5509" d="M210.584,455.362a29.34,29.34,0,0,1-11.275-4.648c-4.985-3.779-7.363-11.336-8.59-18.364-3.866.416-8.283,1.436-12.149,1.889,2.01,6.348,4.6,13.225,4.51,19.914,9.2,3.949,19.5,6.48,27.5,1.247Z" transform="translate(0.216 318.913)" fill="#fcc8a5"/>
        <path id="Path_5510" data-name="Path 5510" d="M218.037,447.573a5.407,5.407,0,0,0-2.439-1.02c-2.056-.472-4.264-.907-6.473-1.436-8.007,5.233-18.408,2.7-27.5-1.247a22.087,22.087,0,0,1-.23,3.174,7.532,7.532,0,0,0,1.718,6.1c1.427,1.436,3.482,1.1,5.323.888,9.71-1.134,20.126,3.155,28.946-2a3.145,3.145,0,0,0,1.534-1.7,2.818,2.818,0,0,0-.905-2.758Z" transform="translate(1.677 329.158)" fill="#f58553"/>
        <path id="Path_5511" data-name="Path 5511" d="M189.836,324.027H150.688A58.017,58.017,0,0,0,148.019,335a99.8,99.8,0,0,0,2.24,37.107c3.068,12.734,14.159,25.714,24.176,64.729,2.362,9.182,3.068,19.8,5.476,32.119,4.878,25.941,14.005,48.424,15.156,75.423a44.292,44.292,0,0,1,18.914-4.119c-7.67-37.447-10.063-71.663-13.806-107.693-2.378-22.974-7.363-47.234-7.977-71.8-.307-12.243-.491-24.807-2.332-36.8Z" transform="translate(-16.526 222.525)" fill="#00a1b5"/>
        <path id="Path_5512" data-name="Path 5512" d="M192.213,360.824c-.307-12.243-.491-24.807-2.332-36.8H150.688A58.019,58.019,0,0,0,148.019,335a99.8,99.8,0,0,0,2.24,37.107c3.068,12.734,14.159,25.714,24.176,64.729,2.209,8.6,3.068,18.478,5.062,29.889,1.534-30.551,7.885-54.545,11.152-82.224a123.065,123.065,0,0,0,1.534-23.673Z" transform="translate(-16.526 222.57)" fill="#12212c"/>
        <path id="Path_5513" data-name="Path 5513" d="M188.193,486.691q-6.59-51.336-17.963-101.477l.736-.265q11.37,50.113,17.994,101.59l-.767.151Z" transform="translate(-4.237 276.758)" fill="#fff"/>
        <path id="Path_5514" data-name="Path 5514" d="M201.1,540.332c-7.67-37.447-10.063-71.663-13.806-107.693-2.378-22.974-7.363-47.234-7.977-71.8-.307-12.243-.491-24.807-2.332-36.8H171.34c4.786,72.815,20.678,143.949,24.39,216.292,3.068-.623,2.669-.113,5.354,0Z" transform="translate(-3.644 222.588)" fill="#006a89"/>
        <path id="Path_5515" data-name="Path 5515" d="M153.619,471.868a32.316,32.316,0,0,1-5-15.606c-.537-7.727,3.068-14.907,5.047-22.238-3.666-1.077-8.59-3.306-12.272-4.364a76.057,76.057,0,0,1-7.823,27.093c1.534,5.139,3.16,7.18,6.136,10.939a16.716,16.716,0,0,0,13.806,4.119Z" transform="translate(-23.813 316.52)" fill="#fcc8a5"/>
        <path id="Path_5516" data-name="Path 5516" d="M158.3,463.168a18.918,18.918,0,0,1-3.712-4.1,16.717,16.717,0,0,1-13.806-4.119c-3.068-3.779-4.6-5.8-6.136-10.939-.307.623-.614,1.285-.936,1.889-1.058,2-2.27,4.232-1.887,6.556.445,2.664,2.731,4.1,4.28,6.046,1.871,2.324,2.777,5.668,4.6,7.992a11.262,11.262,0,0,0,8.207,4.27,30.183,30.183,0,0,0,9.035-1.134c1.212-.284,2.654-.812,2.961-2.286.368-1.795-1.227-3.174-2.485-4.175Z" transform="translate(-24.783 329.282)" fill="#f58553"/>
        <path id="Path_5517" data-name="Path 5517" d="M161.419,320.69c.752,8.086-7.332,26.13-7.087,34.216,2.01,67.487-3.267,122.411-17.932,187.952,5.216,5.951,11.781,5.933,17.5,7.331,14.818-54.791,33.978-113.361,41.571-170.457,2.516-18.893,1.074-32.232-.414-54.7Z" transform="translate(-22.302 219.608)" fill="#00a1b5"/>
        <path id="Path_5518" data-name="Path 5518" d="M139.541,533.72l-.721-.321A668.939,668.939,0,0,0,164.269,376.47l.138-3.287c.522-13.471,1.058-27.4,4.341-40.432l.736.283c-3.252,12.923-3.789,26.791-4.31,40.186l-.138,3.306A671.355,671.355,0,0,1,139.541,533.72Z" transform="translate(-21.01 230.334)" fill="#fff"/>
        <path id="Path_5519" data-name="Path 5519" d="M191.381,323.169l-2.761-.359c-3.068,76.1-19.942,153.132-45.329,224.076,2.362.548,4.709.888,6.934,1.436,14.818-54.791,33.978-113.361,41.571-170.457C194.31,358.972,192.868,345.634,191.381,323.169Z" transform="translate(-18.623 221.494)" fill="#006a89"/>
        <path id="Path_5520" data-name="Path 5520" d="M147.405,383.126c12.364,8.049,29.974,16.607,46.526,8.351-.8-30.23-4.341-40.923,2.393-59.533,2.378-6.575,5.507-13.131,5.354-20.273-.276-12.847-10.968-22.408-13.008-35.028-.721-4.4-.8-9.862-4.2-11.941a8.46,8.46,0,0,0-5.461-.6l-12.456,1.341c-4.034.435-8.529,1.153-11.029,4.856s-1.994,9.258-1.289,14.057c2.485,16.683,4.924,33.5,4.6,50.445s-3.482,34.159-11.444,48.348Z" transform="translate(-16.433 169.094)" fill="#006a89"/>
        <path id="Path_5521" data-name="Path 5521" d="M154.24,368.857l-.69-.4c9.91-25.9,13.622-56.68,9.925-82.3l.752-.17C167.954,311.817,164.227,342.784,154.24,368.857Z" transform="translate(-13.144 188.748)" fill="#12212c"/>
        <path id="Path_5522" data-name="Path 5522" d="M189.391,311.64c-.276-12.848-10.968-22.408-13.008-35.029-.721-4.4-.8-9.862-4.2-11.941a5.32,5.32,0,0,0-1.779-.661c2.439,13.924,17.656,33.082,14.726,44.078-9.971,37.466-5.829,54.6-6.872,84.794a32.475,32.475,0,0,0,3.39-1.436c-.8-30.229-4.341-40.923,2.393-59.533,2.378-6.575,5.507-13.131,5.354-20.273Z" transform="translate(-4.146 169.2)" fill="#00a1b5"/>
        <path id="Path_5523" data-name="Path 5523" d="M154.6,291.478c-.982-7.217,2.9-14.435,8.038-18.119s11.275-4.534,17.211-4.8c1.872,0,4.034,0,5.2,1.889s.69,4.893-.138,7.2c-3.336,9.2-9.242,16.612-16.644,20.9-2.654,1.511-5.706,2.607-8.452,1.4a10.63,10.63,0,0,1-5.216-8.408Z" transform="translate(-12.663 173.247)" fill="#12212c"/>
        <path id="Path_5524" data-name="Path 5524" d="M225.908,238.78l2.715-2.04c.414-.3.966-.6,1.35-.227a1.174,1.174,0,0,1,.184,1.1,3.741,3.741,0,0,1-.552,1,23.382,23.382,0,0,0-3.881,9.447c-.706-2.645-.092-6.556.184-9.314Z" transform="translate(25.221 144.589)" fill="#f58553"/>
        <path id="Path_5525" data-name="Path 5525" d="M224.158,250.632a1.787,1.787,0,0,1-.276-.529,11.447,11.447,0,0,1,.384-7.557,25.943,25.943,0,0,1,3.758-6.291,34.039,34.039,0,0,0,3.958-6.084c1.058.964.2,2.834-.276,4.138a20.968,20.968,0,0,1-1.856,3.59,30.5,30.5,0,0,0-4.188,11.015,3.974,3.974,0,0,1-.4,1.436.738.738,0,0,1-1.1.3Z" transform="translate(24.164 139.105)" fill="#f58553"/>
        <path id="Path_5526" data-name="Path 5526" d="M241.119,228.21c2.025.907-1.12,7.406-1.626,11.771-.721,6.31.445,8.521-.752,16.041-.524,2.809-2.43,4.906-4.755,5.234-5.246.982-10.078,5.082-14.343,9.258-5.231,5.139-10.738,10.845-17.3,11.827.292-6.783,1.411-13.717,6.136-17.325s11.643-6.707,16.4-10.146c8.621-6.273,12.272-19.252,16.291-26.659Z" transform="translate(12.909 137.362)" fill="#f8a180"/>
        <path id="Path_5527" data-name="Path 5527" d="M243.994,244c1.335,3.061,3.421,8.6,5.568,10.845-23.884,25.053-51.726,43.946-80.534,59.288a12.754,12.754,0,0,1-8.053,2.192c-3.28-.872-5.944-3.809-7.01-7.727a26.715,26.715,0,0,1-.261-11.978,21.972,21.972,0,0,1,3.543-9.447c2.669-3.533,6.658-4.95,10.431-6.254A375.211,375.211,0,0,0,243.994,244Z" transform="translate(-13.359 151.404)" fill="#006a89"/>
        <path id="Path_5528" data-name="Path 5528" d="M243.483,244.7c-.092-.246-.2-.491-.292-.7a375.3,375.3,0,0,1-76.316,36.974c-3.774,1.3-7.762,2.721-10.431,6.254a15.206,15.206,0,0,0-1.795,3.269q7.056-3.1,14.343-5.876c26.078-8.937,52.263-19.593,74.49-39.922Z" transform="translate(-12.557 151.404)" fill="#00a1b5"/>
        <path id="Path_5529" data-name="Path 5529" d="M330.488,442.669l-.215-.529a71.507,71.507,0,0,1-4.142-17.193c-.476-2.91-.721-6.556-1.089-9.787H313.89c.92,3.949,2.056,7.86,2.715,11.846a27.309,27.309,0,0,1-.153,10.958c4.986,2.569,9.511,6.972,14.036,4.7Z" transform="translate(72.475 303.625)" fill="#fffdf6"/>
        <path id="Path_5530" data-name="Path 5530" d="M321.43,426.91a14.334,14.334,0,0,1-1.841,4.081,9.845,9.845,0,0,1-5.844,4.383,18.2,18.2,0,0,0-7.3,3.136c-2.132,1.889-3.9,3.779-3.175,7.557,3.528,1.889,10.278.831,15.34.51a10.816,10.816,0,0,0,5.108-1.209,9.567,9.567,0,0,1,2.562-1.549c1.534-.359,3.191.775,4.8,1.3a12.152,12.152,0,0,0,8.146-.982,34.519,34.519,0,0,0-2.715-12.9c-4.51,2.267-10.048-1.7-15.018-4.251Z" transform="translate(66.715 314.075)" fill="#12212c"/>
        <path id="Path_5531" data-name="Path 5531" d="M328.242,308.509H286.18c1.151,32.459,4.218,73.344,8.084,97.849,4.387,27.811,9.434,55.7,17.61,82.187l12.072,39.11H344.2C313.086,359.6,331.54,352.436,328.2,308.49Z" transform="translate(57.679 208.758)" fill="#12212c"/>
        <path id="Path_5532" data-name="Path 5532" d="M333.9,429.883a35.043,35.043,0,0,1-1.687-11.733,40.619,40.619,0,0,1-23.669,4.081,84.916,84.916,0,0,0,2.776,11.185A36.513,36.513,0,0,0,333.9,429.883Z" transform="translate(69.618 306.284)" fill="#006a89"/>
        <path id="Path_5533" data-name="Path 5533" d="M298.315,449.76a2.349,2.349,0,0,0-.169-.529c-1.948-6.065-2.117-10.675-2.454-17.174-.153-2.91,0-6.556,0-9.787h-12.5c.522,3.949,1.3,7.86,1.534,11.846a25.389,25.389,0,0,1-1.534,10.958C288.436,447.625,292.962,452.027,298.315,449.76Z" transform="translate(56.082 309.948)" fill="#fffdf6"/>
        <path id="Path_5534" data-name="Path 5534" d="M290.607,434a15.545,15.545,0,0,1-2.577,4.1,12.858,12.858,0,0,1-7.1,4.364,24.629,24.629,0,0,0-8.606,3.136c-2.608,1.889-4.848,3.779-4.51,7.557,3.727,1.889,11.413.831,17.058.51a14.042,14.042,0,0,0,5.875-1.209,13.026,13.026,0,0,1,3.068-1.53c1.764-.378,3.482.775,5.216,1.3,3.068.926,6.136,0,9.2-.982a29.453,29.453,0,0,0-1.4-12.923c-5.354,2.267-11.029-1.681-16.291-4.251Z" transform="translate(47.852 320.38)" fill="#12212c"/>
        <path id="Path_5535" data-name="Path 5535" d="M276.563,308.5c-6.811,75.668-1.7,159.839,4.817,232.484h21.338c-1.381-46.062-2.178-86.551,4.341-131.612,5.752-39.79,9.6-55.868,14.711-80.864,1.457-7.179,2.93-13.528,3.82-20.008Z" transform="translate(50.82 208.767)" fill="#12212c"/>
        <path id="Path_5536" data-name="Path 5536" d="M294.917,411.61h-.767a254.034,254.034,0,0,1,10.385-57.833q1.127-3.713,2.332-7.425A147.7,147.7,0,0,0,313.4,320.77l.752.151c-1.166,8.937-3.912,17.5-6.581,25.789-.782,2.456-1.534,4.912-2.316,7.387a252.805,252.805,0,0,0-10.339,57.587Z" transform="translate(61.934 219.68)" fill="#fff"/>
        <path id="Path_5537" data-name="Path 5537" d="M301.843,437.625a74.822,74.822,0,0,1-.537-12.715,64.989,64.989,0,0,1-23.976,1.663,41.974,41.974,0,0,1,.614,12.621A51.293,51.293,0,0,0,301.843,437.625Z" transform="translate(52.953 312.296)" fill="#006a89"/>
        <path id="Path_5538" data-name="Path 5538" d="M291.636,387.581a54.46,54.46,0,0,1-6.826-18.346l29.437-36.88a22.389,22.389,0,0,0,4.878-8.5c1.166-4.686-.337-9.692-1.81-14.246q-3.375-10.373-6.734-20.783c-2.47-7.557-4.986-15.568-4.188-23.692s6.136-16.173,12.747-15.776c4.28.246,8.023,3.93,10.278,8.408a56.978,56.978,0,0,1,4.265,14.831l8.053,41.887a44.846,44.846,0,0,1,1.2,13.773c-.721,6.027-3.82,11.185-7.01,15.852-12.273,17.971-27.334,32.744-44.3,43.455Z" transform="translate(56.947 156.156)" fill="#006a89"/>
        <path id="Path_5539" data-name="Path 5539" d="M287.636,388.062a54.8,54.8,0,0,1-6.826-18.346l29.437-36.861a22.389,22.389,0,0,0,4.878-8.5c1.166-4.686-.338-9.692-1.81-14.246q-3.375-10.373-6.734-20.783c-2.47-7.557-4.985-15.568-4.188-23.692s6.136-16.173,12.747-15.776c4.28.246,8.023,3.93,10.278,8.408a56.979,56.979,0,0,1,4.264,14.831l8.053,41.887a44.839,44.839,0,0,1,1.2,13.773c-.721,6.027-3.82,11.185-7.01,15.852-12.273,17.971-27.334,32.744-44.3,43.455Z" transform="translate(54.811 156.6)" fill="#12212c"/>
        <path id="Path_5540" data-name="Path 5540" d="M316.746,223.784c-3.421-5.158-9.434-6.254-16.076-4.988l-5.507,1.757a57.844,57.844,0,0,0-2.869,8.427c-.184.945.721,4.005.307,4.912-3.666,8.049-3.743,17.609-4.847,23.466a6.7,6.7,0,0,0-.138,2.343,4.335,4.335,0,0,0,3.068,3.042,19.24,19.24,0,0,0,17.827-2.523c5.42-3.778,9.366-10.1,10.935-17.523a25.8,25.8,0,0,0-2.731-18.893Z" transform="translate(58.421 128.563)" fill="#fcc8a5"/>
        <path id="Path_5541" data-name="Path 5541" d="M288.08,245.451a5.838,5.838,0,0,0,2.362,1.511c9.428,3.485,19.608-.872,25.249-10.807C306.488,235.267,295.075,238.044,288.08,245.451Z" transform="translate(58.693 144.286)" fill="#ecab82"/>
        <path id="Path_5542" data-name="Path 5542" d="M295.707,246.635a106.473,106.473,0,0,1-6.857,20.613l26.875,3.93a160.821,160.821,0,0,1-1.534-30.74c-4.28-13.074-8.375-6.462-14.926-.151a12.736,12.736,0,0,0-3.513,6.348Z" transform="translate(59.104 141.534)" fill="#fcc8a5"/>
        <path id="Path_5543" data-name="Path 5543" d="M295.436,230.368a17.777,17.777,0,0,1,2.086,9.107,28.261,28.261,0,0,0,1.243,9.447,20.009,20.009,0,0,0,3.773,5.555l7.148,8.294a54.725,54.725,0,0,0,4.6-19.744,29.09,29.09,0,0,0-1.028-10.07,21.861,21.861,0,0,0-6.136-9.333,15.767,15.767,0,0,0-9.127-4.61,6.088,6.088,0,0,0-4.264,1.077,5.2,5.2,0,0,0-1.887,4.572c.322,2.437,2.362,3.779,3.635,5.668Z" transform="translate(60.695 129.139)" fill="#ecab82"/>
        <path id="Path_5544" data-name="Path 5544" d="M319.589,239.324c1.795-7.083-.723-14.74-6.013-18.289-5.814-3.911-13.269-1.776-19.282-5.177l.092,1.889a4.024,4.024,0,0,1-2.562-3.628,17.827,17.827,0,0,0-1.166,6.5l-.414-2.626a11.263,11.263,0,0,0,1.687,8.842,15.1,15.1,0,0,0,6.351,5.12c.736.359,1.534.642,2.24.945a34.527,34.527,0,0,0-1.427,5.781,17.454,17.454,0,0,1-1.457,4.043,2.7,2.7,0,0,0-.338.982,3.111,3.111,0,0,0,.153.907,26.593,26.593,0,0,1,.874,4.005,36.085,36.085,0,0,1,1.15-3.911,15.807,15.807,0,0,1,1.534-2.872,19.663,19.663,0,0,0,.8,2.286,46.437,46.437,0,0,0,5.768,9.277,33.714,33.714,0,0,1,5.292,9.655,39.758,39.758,0,0,1,4.31-8.767,21.779,21.779,0,0,0,3.313-9.3,14.224,14.224,0,0,0-.859-5.668Z" transform="translate(59.705 124.831)" fill="#12212c"/>
        <path id="Path_5545" data-name="Path 5545" d="M296.328,233.087a11.094,11.094,0,0,1,1.074-3.4,2.507,2.507,0,0,1,2.562-1.474,3.8,3.8,0,0,1,2.1,3.155c.685,3.9-.69,7.9-3.436,10.013a2.568,2.568,0,0,1-2.01.642,1.711,1.711,0,0,1-1.227-1.889l.936-7.1Z" transform="translate(62.595 137.341)" fill="#fcc8a5"/>
        <path id="Path_5546" data-name="Path 5546" d="M295.158,223.207a.715.715,0,0,0,.4,0,.368.368,0,0,0,.2-.378.458.458,0,0,0-.291-.321,8.489,8.489,0,0,1-3.835-5.5,9.684,9.684,0,0,0,.905,3.892,4.315,4.315,0,0,0,2.623,2.324Z" transform="translate(60.589 127.401)" fill="#006a89"/>
        <path id="Path_5547" data-name="Path 5547" d="M301.83,222.83c.874-.321,1.672-1.247,2.577-1.077s1.258.982,1.994,1.171a6.327,6.327,0,0,0,1.672-.113,2.868,2.868,0,0,1,2.148,1.228,10.035,10.035,0,0,1,1.319,2.513,1.335,1.335,0,0,1,.958-.641,1.222,1.222,0,0,1,1.037.414,5.311,5.311,0,0,1,1.135,2.38,4.8,4.8,0,0,0,1.2,2.324,23.425,23.425,0,0,0-1.427-5.668,5.739,5.739,0,0,0-3.712-3.571c-.644-.113-1.3,0-1.964-.151a10.924,10.924,0,0,1-2.24-.756c-4.172-1.587-8.82-.85-12.824-3a9.378,9.378,0,0,0,4.034,5.366v-1.889a4.483,4.483,0,0,0,4.126,1.53Z" transform="translate(61.694 128.175)" fill="#006a89"/>
        <path id="Path_5548" data-name="Path 5548" d="M291.1,251.613c8.882-.964,17.917-1.889,26.615.51a24.4,24.4,0,0,1-1.2-9.144,42.646,42.646,0,0,0-13.591.831,20.968,20.968,0,0,0-11.827,7.8Z" transform="translate(60.306 150.309)" fill="#00a1b5"/>
        <path id="Path_5549" data-name="Path 5549" d="M335.26,327.925l-61.82,4.157c.092-4.78.2-9.579.292-14.359a491.852,491.852,0,0,1,63.538,1.322l-2.01,8.88Z" transform="translate(50.876 216.549)" fill="#00a1b5"/>
        <path id="Path_5550" data-name="Path 5550" d="M338.229,384.213c6.274-25.846-4.372-52.335-1.35-111.056.291-5.668-4.126-22.823-8.452-24.845-9.94-4.591-20.479-2.985-30.68.472h-.169c-10.063,4.875-17.917,17-18.684,30.229-1.1,18.893-3.866,72.154-6.274,98.813-.307,3.533,1.994,7.444,1.641,9.9l64.013-3.684Z" transform="translate(50.423 152.722)" fill="#006a89"/>
        <path id="Path_5551" data-name="Path 5551" d="M292.158,369.351l-.614-.548a5.531,5.531,0,0,0-.123-5.536l-.154-.246.107-.265c1.012-2.456,0-5.29-.936-8.03-.261-.718-.506-1.436-.721-2.135-2.086-6.839-.675-14.246.69-21.425l.292-1.587a214.489,214.489,0,0,0,3.068-55.906l.767-.095a216.1,216.1,0,0,1-3.068,56.208l-.307,1.606c-1.335,7.028-2.715,14.284-.706,20.783.2.7.445,1.4.69,2.1,1.012,2.853,2.04,5.8,1.043,8.559a6.771,6.771,0,0,1,0,6.443Z" transform="translate(59.003 177.711)" fill="#12212c"/>
        <path id="Path_5552" data-name="Path 5552" d="M296.6,301.915a7.885,7.885,0,0,0,4.1-3.514,69.975,69.975,0,0,0,11.444-27.207c.966-4.988,1.166-11.034-1.964-14.4-2.163-2.324-5.261-2.607-8.13-2.777a70.835,70.835,0,0,0-12.011,0c-5.062.548-10.569,2.683-13.085,8.124a18.793,18.793,0,0,0-.782,11.846,39.026,39.026,0,0,0,4.6,10.694,103.162,103.162,0,0,0,9.357,13.471c1.764,2.135,3.988,4.327,6.427,3.779Z" transform="translate(52.01 160.089)" fill="#12212c"/>
        <path id="Path_5553" data-name="Path 5553" d="M249.091,253.341a12.53,12.53,0,0,1-2.01-5.668q.194-1.824.23-3.665c0-1.738-.368-3.439-.445-5.177a16.423,16.423,0,0,1,.644-5.347,2.106,2.106,0,0,0,0-1.493.757.757,0,0,0-.8-.378,1.551,1.551,0,0,0-.8.491,5.819,5.819,0,0,0-1.534,3.155,12.874,12.874,0,0,1-.46,2.588,4.5,4.5,0,0,1-.521.907,15.334,15.334,0,0,0-2.685-5.366c-.92-1.1-2.347-3.779-3.175-5.007a13.58,13.58,0,0,0-2.1-2.418c-.506-.321-1,.472-1.1,1.152-2.485-2.116-2.776-.68-2.27.68-.859-.208-1.856-.926-2.27,0s3.467,5.989,4.065,6.783c-.307-.17-4.05-4.157-4.4-4.157s-.537.812-.69,1.209c-.261.7.706,1.889,1.166,2.475A18.005,18.005,0,0,1,233,239.379c1.657,6.481,1.81,7.293,1.917,7.8a18.767,18.767,0,0,0,2.362,6.915c2.439,4.27,5.093,4.742,8.023,8.54,2.47-1.682,5-3.25,7.563-4.723a29.821,29.821,0,0,1-3.85-4.516Z" transform="translate(26.996 135.299)" fill="#fcc8a5"/>
        <path id="Path_5554" data-name="Path 5554" d="M249.21,246.661a29.815,29.815,0,0,1-3.85-4.516,13.008,13.008,0,0,1-1.626-3.665c-3.589.245-6.735,3.042-8.053,7.161,1.856,1.889,3.835,3,5.967,5.668,2.47-1.682,5-3.25,7.563-4.723Z" transform="translate(30.712 146.495)" fill="#ecab82"/>
        <path id="Path_5555" data-name="Path 5555" d="M247.455,249.712a10.723,10.723,0,0,1-.384-2.078q.194-1.824.23-3.665c0-1.738-.368-3.439-.445-5.177a16.428,16.428,0,0,1,.644-5.347,2.105,2.105,0,0,0,0-1.493.757.757,0,0,0-.8-.378,1.551,1.551,0,0,0-.8.491,5.82,5.82,0,0,0-1.534,3.155,12.874,12.874,0,0,1-.46,2.588,4.5,4.5,0,0,1-.522.907,15.336,15.336,0,0,0-2.685-5.366c-.92-1.1-2.347-3.779-3.175-5.007a13.583,13.583,0,0,0-2.1-2.418c-.506-.321-1,.472-1.1,1.152-2.485-2.116-2.777-.68-2.27.68-.859-.208-1.856-.926-2.27,0s3.467,5.989,4.065,6.783c-.307-.17-4.05-4.157-4.4-4.157s-.537.812-.69,1.209c-.261.7.706,1.889,1.166,2.475a18.006,18.006,0,0,1,3.068,5.271c1.657,6.48,1.81,7.293,1.917,7.8a18.768,18.768,0,0,0,2.362,6.915,14.18,14.18,0,0,0,2.056,2.8c1.319-4.119,4.464-6.916,8.053-7.161Z" transform="translate(26.991 135.264)" fill="#fcc8a5"/>
        <path id="Path_5556" data-name="Path 5556" d="M244.112,239.05a1.961,1.961,0,0,0-1.273,0,8.842,8.842,0,0,0-4.863,3.779,12.436,12.436,0,0,0-1.856,6.707,30.816,30.816,0,0,1,5.476,5.2,10.243,10.243,0,0,1,1.227-7.1c1.1-2.1,2.592-3.779,3.8-5.838-1.12-.3-1.427-2.324-2.516-2.8Z" transform="translate(30.947 146.908)" fill="#00a1b5"/>
        <path id="Path_5557" data-name="Path 5557" d="M331.914,283.508c-2.056,5.781-4.448,11.978-9.02,14.869-4.019,2.551-8.851,1.889-13.315.869-27.274-6.14-52.815-21.69-71.883-46.478-.276-4.534,2.669-13,6.136-13.225s9.2,5.252,12.533,6.707a151.376,151.376,0,0,0,62.755,14.208c5.124,0,11.168.265,14.005,5.517s.813,11.922-1.2,17.552Z" transform="translate(31.779 147.435)" fill="#006a89"/>
        <path id="Path_5558" data-name="Path 5558" d="M319.989,288.866c-11.827,0-22.35-4.988-34.162-10.58l-3.283-1.549c-17.487-8.219-33.042-21.009-44.654-31.231l.445-.756c11.566,10.184,27.075,22.918,44.486,31.1L286.1,277.4c14.68,6.953,27.351,12.961,42.952,9.447l.138.926a42.559,42.559,0,0,1-9.2,1.02Z" transform="translate(31.892 152.071)" fill="#12212c"/>
      </g>
    </g>
  </g>
</svg>
