<svg xmlns="http://www.w3.org/2000/svg" xmlns:xlink="http://www.w3.org/1999/xlink" width="100" height="100" viewBox="0 0 100 100">
  <defs>
    <clipPath id="clip-path">
      <rect id="Rectangle_194" data-name="Rectangle 194" width="100" height="100" fill="#fff"/>
    </clipPath>
  </defs>
  <g id="Mask_Group_55" data-name="Mask Group 55" clip-path="url(#clip-path)">
    <g id="HTML5_logo_and_wordmark" transform="translate(14.57)">
      <path id="Path_819" data-name="Path 819" d="M63.516,0h4.492V4.453h4.141V0h4.492V13.477H72.148V8.984h-4.1v4.492H63.516M82.578,4.492H78.613V0H91.055V4.492H87.07v8.984H82.578M93.027,0h4.707l2.891,4.746L103.516,0h4.707V13.477H103.73V6.8l-3.145,4.844L97.441,6.8v6.68H93.027M110.449,0h4.492V9.023h6.367v4.453H110.449" transform="translate(-56.914)"/>
      <path id="Path_820" data-name="Path 820" d="M50.156,131.289,43.711,58.945H114.57l-6.445,72.3L79.082,139.3" transform="translate(-43.711 -39.297)" fill="#e44d26"/>
      <path id="Path_821" data-name="Path 821" d="M150,145.02V76.758h28.965l-5.527,61.719" transform="translate(-114.57 -51.172)" fill="#f16529"/>
      <path id="Path_822" data-name="Path 822" d="M83.2,103.3h22.266v8.867H92.93l.82,9.082h11.719V130.1H85.625m.391,4.453h8.906l.625,7.09,9.922,2.656v9.258l-18.2-5.078" transform="translate(-70.039 -68.867)" fill="#ebebeb"/>
      <path id="Path_823" data-name="Path 823" d="M172.109,103.3H149.883v8.867h21.406m-.8,9.082H149.883v8.867H160.82l-1.035,11.523-9.9,2.656v9.219l18.164-5.039" transform="translate(-114.492 -68.867)" fill="#fff"/>
    </g>
  </g>
</svg>
