<svg xmlns="http://www.w3.org/2000/svg" xmlns:xlink="http://www.w3.org/1999/xlink" width="100" height="100" viewBox="0 0 100 100">
  <defs>
    <clipPath id="clip-path">
      <rect id="Rectangle_194" data-name="Rectangle 194" width="100" height="100" transform="translate(0 0)" fill="#fff"/>
    </clipPath>
    <radialGradient id="radial-gradient" cx="0.329" cy="0.224" r="0.781" gradientTransform="translate(-0.01 0.01) scale(0.973 0.968)" gradientUnits="objectBoundingBox">
      <stop offset="0" stop-color="#423325" stop-opacity="0.98"/>
      <stop offset="1" stop-color="#1c0a00"/>
    </radialGradient>
  </defs>
  <g id="Mask_Group_48" data-name="Mask Group 48" clip-path="url(#clip-path)">
    <g id="adobe-illustrator-cc" transform="translate(0 1.25)">
      <path id="Path_793" data-name="Path 793" d="M12.5,78.391h91.667v89.167H12.5Z" transform="translate(-8.333 -74.225)" fill="url(#radial-gradient)"/>
      <path id="Path_794" data-name="Path 794" d="M4.167,70.058H95.833v89.167H4.167ZM0,163.392H100v-97.5H0Zm65.5-62.75c0-.333.125-.5.5-.5h6.542c.333,0,.5.125.5.5v32.875c0,.333-.083.5-.5.5H66.083c-.417,0-.542-.208-.542-.542V100.641H65.5Zm-.458-9.458a4.25,4.25,0,0,1,8.5,0,3.982,3.982,0,0,1-4.333,4.25A3.916,3.916,0,0,1,65.042,91.183ZM46.292,114.35c-1.167-4.625-3.916-14.708-4.958-19.583H41.25c-.875,4.875-3.083,13.125-4.833,19.583ZM34.708,121.1l-3.292,12.5c-.083.333-.208.416-.625.416H24.667c-.417,0-.5-.125-.417-.625L36.083,91.975a13.5,13.5,0,0,0,.417-3.458c0-.292.125-.417.333-.417h8.75c.292,0,.417.083.5.417l13.25,44.958c.083.333,0,.542-.333.542H52.083c-.333,0-.542-.083-.625-.375L48.042,121.1H34.708Z" transform="translate(0 -65.891)" fill="#ff7f18"/>
    </g>
  </g>
</svg>
