<svg xmlns="http://www.w3.org/2000/svg" xmlns:xlink="http://www.w3.org/1999/xlink" width="50" height="50" viewBox="0 0 50 50">
  <defs>
    <clipPath id="clip-path">
      <rect id="Rectangle_201" data-name="Rectangle 201" width="50" height="50" transform="translate(-20582 -5760)" fill="#fff"/>
    </clipPath>
    <linearGradient id="linear-gradient" x1="0.146" y1="0.854" x2="0.854" y2="0.146" gradientUnits="objectBoundingBox">
      <stop offset="0" stop-color="#ffd521"/>
      <stop offset="0.055" stop-color="#ffd020"/>
      <stop offset="0.124" stop-color="#fec01e"/>
      <stop offset="0.2" stop-color="#fca71b"/>
      <stop offset="0.282" stop-color="#fa8316"/>
      <stop offset="0.368" stop-color="#f85510"/>
      <stop offset="0.456" stop-color="#f51e09"/>
      <stop offset="0.5" stop-color="#f30005"/>
      <stop offset="0.503" stop-color="#f20007"/>
      <stop offset="0.597" stop-color="#e1003b"/>
      <stop offset="0.688" stop-color="#d30067"/>
      <stop offset="0.776" stop-color="#c70088"/>
      <stop offset="0.859" stop-color="#bf00a0"/>
      <stop offset="0.936" stop-color="#bb00af"/>
      <stop offset="1" stop-color="#b900b4"/>
    </linearGradient>
  </defs>
  <g id="Mask_Group_63" data-name="Mask Group 63" transform="translate(20582 5760)" clip-path="url(#clip-path)">
    <g id="iconfinder_3225191_app_instagram_logo_media_popular_icon" transform="translate(-20582 -5760)">
      <path id="Path_836" data-name="Path 836" d="M25,50h0A25,25,0,0,1,0,25H0A25,25,0,0,1,25,0h0A25,25,0,0,1,50,25h0A25,25,0,0,1,25,50Z" fill="url(#linear-gradient)"/>
      <g id="Group_142" data-name="Group 142">
        <path id="Path_837" data-name="Path 837" d="M25,11.01c4.555,0,5.1.015,6.9.1a9.363,9.363,0,0,1,3.17.59A5.644,5.644,0,0,1,38.3,14.935a9.493,9.493,0,0,1,.59,3.17c.08,1.8.1,2.34.1,6.895s-.015,5.1-.1,6.9a9.363,9.363,0,0,1-.59,3.17A5.644,5.644,0,0,1,35.065,38.3a9.493,9.493,0,0,1-3.17.59c-1.8.08-2.34.1-6.9.1s-5.095-.015-6.9-.1a9.363,9.363,0,0,1-3.17-.59A5.644,5.644,0,0,1,11.7,35.065a9.493,9.493,0,0,1-.59-3.17c-.08-1.8-.1-2.34-.1-6.9s.015-5.095.1-6.9a9.363,9.363,0,0,1,.59-3.17A5.644,5.644,0,0,1,14.935,11.7a9.493,9.493,0,0,1,3.17-.59c1.8-.085,2.34-.1,6.895-.1m0-3.075c-4.635,0-5.215.02-7.035.105a12.544,12.544,0,0,0-4.145.8A8.238,8.238,0,0,0,10.8,10.8a8.4,8.4,0,0,0-1.97,3.025,12.618,12.618,0,0,0-.8,4.145C7.95,19.79,7.93,20.37,7.93,25s.02,5.215.105,7.035a12.544,12.544,0,0,0,.8,4.145,8.756,8.756,0,0,0,4.995,4.985,12.618,12.618,0,0,0,4.145.8c1.82.085,2.4.1,7.035.1s5.215-.02,7.035-.1a12.544,12.544,0,0,0,4.145-.8,8.756,8.756,0,0,0,4.985-5,12.618,12.618,0,0,0,.8-4.145c.085-1.82.1-2.4.1-7.035s-.02-5.215-.1-7.035a12.544,12.544,0,0,0-.8-4.145,8.756,8.756,0,0,0-5-4.985,12.618,12.618,0,0,0-4.145-.8c-1.815-.08-2.395-.1-7.03-.1Z" fill="#fff"/>
        <path id="Path_838" data-name="Path 838" d="M25,16.235A8.765,8.765,0,1,0,33.765,25,8.766,8.766,0,0,0,25,16.235ZM25,30.69A5.69,5.69,0,1,1,30.69,25,5.69,5.69,0,0,1,25,30.69Z" fill="#fff"/>
        <circle id="Ellipse_102" data-name="Ellipse 102" cx="2.05" cy="2.05" r="2.05" transform="translate(32.06 13.84)" fill="#fff"/>
      </g>
    </g>
  </g>
</svg>
