<svg xmlns="http://www.w3.org/2000/svg" width="267.789" height="63.476" viewBox="0 0 267.789 63.476"><g transform="translate(-190.95 -204.62)"><path d="M217.222,270.213l-7.833-12.18h-8.161a.618.618,0,0,1,.482.283l7.124,11.374a3.11,3.11,0,0,0,2.636,1.444H216.7A.6.6,0,0,0,217.222,270.213Zm-.994-32.763h-5.543a3.121,3.121,0,0,0-2.488,1.221l-7.469,9.859-1.488,2.087h7.945l9.537-12.2A.6.6,0,0,0,216.228,237.45Zm-24.76,20.583a.515.515,0,0,1-.518-.505v10.6a3.049,3.049,0,0,0,3.087,3.008h3.086a.611.611,0,0,0,.617-.6v-8.794a.583.583,0,0,1,.154-.4l2.821-3.11a.6.6,0,0,1,.4-.2Zm5.655-20.583h-3.086a3.049,3.049,0,0,0-3.087,3.007v10.665a.515.515,0,0,1,.518-.505h6.272V238.052A.611.611,0,0,0,197.123,237.45Z" transform="translate(0 -13.083)" fill="#327357"/><path d="M337.364,243.6a13.407,13.407,0,0,0-5.124-5.828,15.142,15.142,0,0,0-15.136,0,13.405,13.405,0,0,0-5.123,5.828,16.587,16.587,0,0,0-.963,2.508,3.026,3.026,0,0,0,2.975,3.832h2.525a.614.614,0,0,0,.611-.536,11.445,11.445,0,0,1,1.772-5.2,6.828,6.828,0,0,1,10.951.036A11.381,11.381,0,0,1,331.6,249.4a.614.614,0,0,0,.611.536h3.142a3.026,3.026,0,0,0,2.975-3.832A18.024,18.024,0,0,0,337.364,243.6Zm-5.321,13.756a.611.611,0,0,0-.6.505,10.678,10.678,0,0,1-1.587,4.156,6.766,6.766,0,0,1-10.975-.108,11.007,11.007,0,0,1-1.574-4.054.616.616,0,0,0-.605-.5h-5.562a.6.6,0,0,0-.611.7,17.538,17.538,0,0,0,1.488,4.619,13.415,13.415,0,0,0,5.148,5.762,14.261,14.261,0,0,0,7.562,2.021,14.11,14.11,0,0,0,7.587-2.045,13.275,13.275,0,0,0,5.093-5.8,17.814,17.814,0,0,0,1.426-4.559.609.609,0,0,0-.611-.7Z" transform="translate(-45.757 -12.402)" fill="rgba(243,126,8,0.71)"/><path d="M497.648,258.033l6.92,11.6a3.1,3.1,0,0,0,2.667,1.5h4.759a.611.611,0,0,0,.617-.6v-12.5Zm14.346-20.583h-3.086a3.049,3.049,0,0,0-3.086,3.007v10.159h6.79V238.052A.611.611,0,0,0,511.994,237.45Zm-19.278.3a.623.623,0,0,0-.537-.3h-3.642a3.049,3.049,0,0,0-3.086,3.007v10.159h7.272a.593.593,0,0,1,.29,0h7.4Zm-7.266,20.282v10.093a3.049,3.049,0,0,0,3.086,3.008h3.086a.611.611,0,0,0,.617-.6v-12.5Z" transform="translate(-112.705 -13.083)" fill="#327357"/><path d="M548.2,258.7v9.792a3.351,3.351,0,0,0,3.4,3.308h.309a3.049,3.049,0,0,0,3.086-3.008V258.7Zm6.173-19.579h-3.086a3.045,3.045,0,0,0-3.087,3.007v9.155h6.79V239.721A.607.607,0,0,0,554.373,239.12Z" transform="translate(-136.72 -13.748)" fill="#327357"/><path d="M606.272,259.49h-4.087a3.141,3.141,0,0,0-2.963,2.165,5.167,5.167,0,0,1-1.494,2.3,7.56,7.56,0,0,1-5.056,1.438,6.254,6.254,0,0,1-5.494-2.472,10.756,10.756,0,0,1-1.605-5.065H578.2a15.335,15.335,0,0,0,3.747,8.824q3.907,4.277,10.729,4.277,6.241,0,10.055-3.068a11.255,11.255,0,0,0,4.161-7.735A.61.61,0,0,0,606.272,259.49Zm-3.6-19.428q-3.76-3.068-9.9-3.062a15.254,15.254,0,0,0-7.784,1.937,12.887,12.887,0,0,0-5.154,5.576,17.31,17.31,0,0,0-1.673,5.925h7.389a10.771,10.771,0,0,1,1.753-5.413,6.368,6.368,0,0,1,5.469-2.442,7.415,7.415,0,0,1,5.006,1.443,5.223,5.223,0,0,1,1.506,2.448,3.112,3.112,0,0,0,2.969,2.19H606.3a.609.609,0,0,0,.617-.674A12.066,12.066,0,0,0,602.667,240.062Z" transform="translate(-148.186 -12.904)" fill="#327357"/><path d="M387.531,233.052v15.573H373.95V235.457a3.049,3.049,0,0,1,3.086-3.007h9.877A.611.611,0,0,1,387.531,233.052Z" transform="translate(-70.034 -11.09)" fill="rgba(243,126,8,0.71)"/><path d="M387.531,271.67v21.762c0,.764-.358,1.384-.8,1.384H386.3c-6.821,0-12.346-9.522-12.346-21.251v-1.889h13.58Z" transform="translate(-70.034 -26.72)" fill="rgba(243,126,8,0.71)"/><path d="M318.95,217.293h0a12.841,12.841,0,0,1,13.006-12.673h22.105a4.7,4.7,0,0,1,4.759,4.638v8.036a.64.64,0,0,1-.648.632H319.6A.644.644,0,0,1,318.95,217.293Z" transform="translate(-48.986)" fill="rgba(243,126,8,0.71)"/><path d="M430.224,205.077h0a13.015,13.015,0,0,1-13.179,12.842h-28.47a.47.47,0,0,1-.475-.463v-8.1a4.8,4.8,0,0,1,4.864-4.74h36.778A.466.466,0,0,1,430.224,205.077Z" transform="translate(-75.449)" fill="rgba(243,126,8,0.71)"/><path d="M255.93,271.67v12.5a.611.611,0,0,1-.617.6h-3.087a3.049,3.049,0,0,1-3.086-3.007V271.67Z" transform="translate(-22.269 -26.72)" fill="#327357"/><path d="M264.1,250.617h-7.4a.617.617,0,0,0-.3,0H249.14V240.457a3.049,3.049,0,0,1,3.086-3.007h3.648a.62.62,0,0,1,.531.3Z" transform="translate(-22.269 -13.083)" fill="#327357"/><path d="M288.93,238.052v12.565h-6.79V240.457a3.049,3.049,0,0,1,3.086-3.007h3.086A.612.612,0,0,1,288.93,238.052Z" transform="translate(-34.898 -13.083)" fill="#327357"/><path d="M283.863,271.67v12.5a.611.611,0,0,1-.617.6h-4.759a3.1,3.1,0,0,1-2.667-1.5l-6.92-11.6Z" transform="translate(-29.832 -26.72)" fill="#327357"/><path d="M191.468,271.335h-.518v-.505A.515.515,0,0,0,191.468,271.335Z" transform="translate(0 -26.385)" fill="#fff"/><path d="M191.468,259.34a.515.515,0,0,0-.518.505v-.505Z" transform="translate(0 -21.806)" fill="#fff"/><path d="M203.611,259.34l-.376.523a.617.617,0,0,1-.864.144.454.454,0,0,0,.16-.144l.389-.523Z" transform="translate(-4.37 -21.806)" fill="#fff"/><path d="M203.45,259.34l-.377.523a.617.617,0,0,1-.864.144.57.57,0,0,1-.259-.487v-.18Z" transform="translate(-4.21 -21.806)" fill="#fff"/><path d="M443.564,243.6a13.407,13.407,0,0,0-5.124-5.828,15.142,15.142,0,0,0-15.136,0,13.405,13.405,0,0,0-5.123,5.828,16.535,16.535,0,0,0-.963,2.508,3.026,3.026,0,0,0,2.975,3.832h2.525a.614.614,0,0,0,.611-.536,11.442,11.442,0,0,1,1.772-5.2,6.828,6.828,0,0,1,10.951.036A11.382,11.382,0,0,1,437.8,249.4a.614.614,0,0,0,.611.536h3.142a3.026,3.026,0,0,0,2.975-3.832A16.573,16.573,0,0,0,443.564,243.6Zm-5.321,13.756a.611.611,0,0,0-.6.505,10.68,10.68,0,0,1-1.586,4.156,6.766,6.766,0,0,1-10.975-.108,11.01,11.01,0,0,1-1.574-4.054.616.616,0,0,0-.6-.5h-5.562a.6.6,0,0,0-.611.7,17.525,17.525,0,0,0,1.488,4.619,13.415,13.415,0,0,0,5.148,5.762,14.261,14.261,0,0,0,7.562,2.021,14.109,14.109,0,0,0,7.587-2.045,13.274,13.274,0,0,0,5.093-5.8,17.8,17.8,0,0,0,1.426-4.559.609.609,0,0,0-.611-.7Z" transform="translate(-86.4 -12.402)" fill="rgba(243,126,8,0.71)"/></g></svg>