<svg xmlns="http://www.w3.org/2000/svg" viewBox="0 0 1087.95 246"><defs><style>.cls-1{fill:none;}.cls-2{fill:#fff;}.cls-3{fill:#eb2f25;}</style></defs><g id="Layer_2" data-name="Layer 2"><g id="Layer_1-2" data-name="Layer 1"><path class="cls-1" d="M756.88,142.13l-.63-25.33a23.57,23.57,0,0,0-14.6,5.09c-8.16,6.73-8.18,17-8.18,20.35,0,17.06,10.34,25.43,22.45,25.43a23.9,23.9,0,0,0,15.87-6c8.25-7.5,7.66-18.08,7.56-19.43Z"/><path class="cls-1" d="M581.49,122.33a23.9,23.9,0,0,0-15.25-5.53q.32,13.17.64,26.33l-23.42-.89c-.09,1.13-.84,13.45,8.53,20.79a22.77,22.77,0,0,0,13.93,4.64c12,0,23.43-8.37,23.43-25.43C589.35,139.14,589.39,129.15,581.49,122.33Z"/><path class="cls-2" d="M379,77c-6.35-1.83-16.67-3.77-27.3,0-27.46,9.72-36.08,50.07-41,48.54-1.48-.46-2.6-4.62.24-23.36L288,77V185.2l22.86-26.07c-3-16.79-2.05-21.49-.24-22.17,5.22-2,15,30.58,43.24,43.17a61.32,61.32,0,0,0,26.4,5.07l-47.83-54.59Z"/><path class="cls-2" d="M456.86,98c-11.47,0-21.17,4.65-27,11.94V90.13l-22.62,9.15V185.2c17.33-18.06,22.52-34,22.62-47.07v-.39c0-13.8,7.91-21.25,20.19-21.25,12,0,19.88,7.45,19.88,21.25V185.2h22.62V134.79C492.57,111.06,477.7,98,456.86,98Z"/><path class="cls-2" d="M566.57,97.88c-25.86,0-46.05,17.22-46.05,44.36,0,27,19.55,44.35,45.4,44.35,26,0,46.7-17.37,46.7-44.35C612.62,115.1,592.42,97.88,566.57,97.88Zm-.65,69.79A22.77,22.77,0,0,1,552,163c-9.37-7.34-8.62-19.66-8.53-20.79l23.42.89q-.33-13.15-.64-26.33a23.9,23.9,0,0,1,15.25,5.53c7.9,6.82,7.86,16.81,7.86,19.91C589.35,159.3,577.88,167.67,565.92,167.67Z"/><path class="cls-2" d="M677.24,166.9c-1.09,0-5.41.33-7.82-2.35a8.21,8.21,0,0,1-1.71-5.87V117.11h20V99.28h-20V78H644.93V99.28l-34-1.15a9.42,9.42,0,0,0,0,4c1.82,8.36,15.67,13.92,34,15v41.41c0,19.7,11.47,26.68,28.59,26.68l35.36.93C691,170.26,682.09,166.77,677.24,166.9Z"/><path class="cls-2" d="M756.57,97.88c-25.85,0-46.05,17.22-46.05,44.36,0,27,19.55,44.35,45.4,44.35,26,0,46.7-17.37,46.7-44.35C802.62,115.1,782.42,97.88,756.57,97.88Zm15.22,63.79a23.9,23.9,0,0,1-15.87,6c-12.11,0-22.45-8.37-22.45-25.43,0-3.3,0-13.62,8.18-20.35a23.57,23.57,0,0,1,14.6-5.09l.63,25.33,22.47.11C779.45,143.59,780,154.17,771.79,161.67Z"/><path class="cls-2" d="M881,98c-11.47,0-21.17,4.65-27,11.94l-.12-20.85-22.5,10.15V185.2c16.14-17.61,21.29-33.72,22.5-46.07l.12-1.39c0-13.8,7.91-21.25,20.19-21.25,12,0,19.88,7.45,19.88,21.25V185.2h22.62V134.79C916.69,111.06,901.82,98,881,98Z"/><path class="cls-2" d="M961.76,63.61l.12,12.52-14,.19A14.33,14.33,0,0,0,961.76,89c6.9,0,13.94-5.29,13.9-12.72C975.62,69.39,969.41,63.33,961.76,63.61Z"/><path class="cls-2" d="M969.88,98.13c-3.27-.3-9.15,21.48-19.59,87.07h22.62C974.81,120.46,973.1,98.44,969.88,98.13Z"/><path class="cls-2" d="M1045.62,168c-12.6,0-21-9-21-25.74s8.4-25.9,21-25.9c9.37,0,15.35,4.65,17.94,11.94H1088c-4.84-19.23-19.87-30.4-42.17-30.4-25.85,0-44.27,17.37-44.27,44.36s18.42,44.35,44.27,44.35c22.3,0,37.33-12.09,42.17-30.39h-24.39C1060.81,164,1055,168,1045.62,168Z"/><path class="cls-3" d="M123,0A123,123,0,1,0,246,123,123,123,0,0,0,123,0ZM104.48,48.27A25,25,0,0,1,141.39,82L122.94,65.13,106.07,83.59A25.13,25.13,0,0,1,104.48,48.27Zm66,119A65,65,0,1,1,75.35,78.72L122.76,123l44.46-47.6A65.32,65.32,0,0,1,170.52,167.28Z"/><path class="cls-2" d="M167.22,75.41,122.76,123,75.35,78.72a65,65,0,1,0,91.87-3.31Z"/><path class="cls-2" d="M106.07,83.59l16.87-18.46L141.39,82a25,25,0,1,0-35.32,1.59Z"/></g></g></svg>