<svg xmlns="http://www.w3.org/2000/svg" xmlns:xlink="http://www.w3.org/1999/xlink" width="400" height="300" viewBox="0 0 400 300">
  <defs>
    <clipPath id="clip-path">
      <rect id="Rectangle_161" data-name="Rectangle 161" width="400" height="300" transform="translate(0 0.001)" fill="#fff"/>
    </clipPath>
  </defs>
  <g id="Mask_Group_12" data-name="Mask Group 12" transform="translate(0 -0.001)" clip-path="url(#clip-path)">
    <g id="g10" transform="translate(0.78 0.585)">
      <g id="g12" transform="translate(0 0)">
        <path id="path16" d="M276.842-452.119v-.323a17.825,17.825,0,0,1-13.693-6.926,26.409,26.409,0,0,1-5.663-16.713,26.4,26.4,0,0,1,5.663-16.7,17.78,17.78,0,0,1,13.693-6.926,17.782,17.782,0,0,1,13.7,6.926,26.4,26.4,0,0,1,5.67,16.7,26.412,26.412,0,0,1-5.67,16.713,17.827,17.827,0,0,1-13.7,6.926v.646c11,0,19.9-10.873,19.9-24.285s-8.9-24.27-19.9-24.27-19.9,10.873-19.9,24.27,8.9,24.285,19.9,24.285Zm28.309-19.707h.26v-8.5a1.691,1.691,0,0,0-1.5-1.834h-1.795a.916.916,0,0,1-.845-.807,34.621,34.621,0,0,0-3.134-9.288,1.215,1.215,0,0,1-.143-.587,1.227,1.227,0,0,1,.254-.748l1.261-1.526a2.1,2.1,0,0,0,.436-1.306,2.026,2.026,0,0,0-.436-1.291l-4.928-6a1.338,1.338,0,0,0-1.053-.543,1.383,1.383,0,0,0-1.073.543l-1.261,1.526a.771.771,0,0,1-.6.308.8.8,0,0,1-.488-.176,22.806,22.806,0,0,0-7.614-3.83,1.037,1.037,0,0,1-.663-1.027V-509.1a1.686,1.686,0,0,0-1.5-1.819h-6.964a1.686,1.686,0,0,0-1.5,1.819v2.186a1.037,1.037,0,0,1-.663,1.027,22.867,22.867,0,0,0-7.614,3.83.783.783,0,0,1-.481.176.785.785,0,0,1-.618-.308l-1.255-1.526a1.347,1.347,0,0,0-1.053-.543,1.383,1.383,0,0,0-1.073.543l-4.928,6a2.105,2.105,0,0,0-.436,1.306,2.093,2.093,0,0,0,.436,1.291l1.268,1.526a1.231,1.231,0,0,1,.247.748,1.257,1.257,0,0,1-.143.587,34.448,34.448,0,0,0-3.134,9.288.916.916,0,0,1-.845.807h-1.788a1.692,1.692,0,0,0-1.5,1.834v8.5a1.692,1.692,0,0,0,1.5,1.834h1.788a.9.9,0,0,1,.845.807,34.347,34.347,0,0,0,3.134,9.274,1.316,1.316,0,0,1,.143.6,1.262,1.262,0,0,1-.247.748l-1.268,1.526a2.136,2.136,0,0,0-.436,1.306,2.063,2.063,0,0,0,.436,1.291l4.928,6a1.383,1.383,0,0,0,1.073.543,1.373,1.373,0,0,0,1.053-.543l1.261-1.541a.782.782,0,0,1,.611-.308.815.815,0,0,1,.488.176,22.466,22.466,0,0,0,7.607,3.815,1.057,1.057,0,0,1,.663,1.042v2.186a1.692,1.692,0,0,0,1.5,1.834h6.964a1.692,1.692,0,0,0,1.5-1.834v-2.186a1.057,1.057,0,0,1,.663-1.042,22.524,22.524,0,0,0,7.607-3.815.815.815,0,0,1,.488-.176.773.773,0,0,1,.611.308l1.261,1.541a1.407,1.407,0,0,0,1.066.543,1.4,1.4,0,0,0,1.06-.543l4.928-6a2.085,2.085,0,0,0,.436-1.291,2.067,2.067,0,0,0-.436-1.306l-1.261-1.526a1.2,1.2,0,0,1-.254-.763,1.382,1.382,0,0,1,.137-.587,34.357,34.357,0,0,0,3.14-9.274.9.9,0,0,1,.845-.807h1.795a1.691,1.691,0,0,0,1.5-1.834h-.533a1.075,1.075,0,0,1-.962,1.174h-1.795a1.491,1.491,0,0,0-1.365,1.321,33.534,33.534,0,0,1-3.082,9.068,2.139,2.139,0,0,0-.208.939,1.936,1.936,0,0,0,.4,1.218l1.268,1.541a1.292,1.292,0,0,1,.28.836,1.38,1.38,0,0,1-.28.836l-4.935,6a.894.894,0,0,1-.676.337.929.929,0,0,1-.689-.337l-1.261-1.541a1.246,1.246,0,0,0-.988-.5,1.286,1.286,0,0,0-.767.264,22.221,22.221,0,0,1-7.451,3.742,1.677,1.677,0,0,0-1.079,1.673v2.186a1.085,1.085,0,0,1-.962,1.174h-6.964a1.084,1.084,0,0,1-.962-1.174v-2.186a1.677,1.677,0,0,0-1.079-1.673,22.221,22.221,0,0,1-7.451-3.742,1.286,1.286,0,0,0-.767-.264,1.255,1.255,0,0,0-.988.5l-1.268,1.541a.881.881,0,0,1-.67.337.919.919,0,0,1-.689-.337l-4.922-6a1.318,1.318,0,0,1-.286-.836,1.289,1.289,0,0,1,.286-.836l1.255-1.541a1.931,1.931,0,0,0,.41-1.2,2.168,2.168,0,0,0-.221-.954,33.519,33.519,0,0,1-3.075-9.068,1.485,1.485,0,0,0-1.365-1.321h-1.788a1.071,1.071,0,0,1-.962-1.174v-8.5a1.1,1.1,0,0,1,.962-1.189h1.788a1.47,1.47,0,0,0,1.365-1.306,33.62,33.62,0,0,1,3.075-9.083,2.153,2.153,0,0,0,.221-.939,1.91,1.91,0,0,0-.41-1.2l-1.255-1.541a1.278,1.278,0,0,1-.286-.822,1.289,1.289,0,0,1,.286-.836l4.922-6.016a.864.864,0,0,1,.689-.337.837.837,0,0,1,.67.337l1.261,1.541a1.3,1.3,0,0,0,.995.5,1.272,1.272,0,0,0,.761-.279,22.189,22.189,0,0,1,7.458-3.742,1.691,1.691,0,0,0,1.079-1.673V-509.1a1.094,1.094,0,0,1,.962-1.174h6.964a1.094,1.094,0,0,1,.962,1.174v2.186a1.69,1.69,0,0,0,1.079,1.673,22.309,22.309,0,0,1,7.458,3.742,1.29,1.29,0,0,0,.767.279,1.311,1.311,0,0,0,.988-.5l1.255-1.541a.885.885,0,0,1,.7-.337.846.846,0,0,1,.67.337l4.935,6.016a1.309,1.309,0,0,1,.28.822,1.32,1.32,0,0,1-.28.836l-1.268,1.541a1.867,1.867,0,0,0-.4,1.2,2.147,2.147,0,0,0,.215.939,33.4,33.4,0,0,1,3.075,9.083,1.476,1.476,0,0,0,1.365,1.306h1.795a1.1,1.1,0,0,1,.962,1.189v8.5h.273" transform="translate(-173.878 543.427)" fill="#d7dcf2"/>
        <path id="path18" d="M366.311-405.353c-6.983,0-12.64-6.9-12.64-15.407,0-8.481,5.657-15.393,12.64-15.393s12.614,6.911,12.614,15.393C378.925-412.249,373.281-405.353,366.311-405.353Zm19.285-12.5v-5.781a.946.946,0,0,0-.845-1.027h-1.222a.835.835,0,0,1-.754-.734,23.427,23.427,0,0,0-2.12-6.266,1.1,1.1,0,0,1,.1-1.174l.858-1.042a1.226,1.226,0,0,0,0-1.467l-3.355-4.094a.738.738,0,0,0-1.183,0l-.858,1.057a.679.679,0,0,1-.975.117,15.753,15.753,0,0,0-5.137-2.583.919.919,0,0,1-.585-.91v-1.5a.941.941,0,0,0-.858-1.012h-4.733a.94.94,0,0,0-.845,1.012v1.5a.913.913,0,0,1-.6.91,15.69,15.69,0,0,0-5.123,2.583.68.68,0,0,1-.975-.117l-.858-1.057a.738.738,0,0,0-1.183,0l-3.355,4.094a1.188,1.188,0,0,0,0,1.467l.858,1.042a1.121,1.121,0,0,1,.091,1.174,23.405,23.405,0,0,0-2.107,6.266.835.835,0,0,1-.754.734h-1.222a.945.945,0,0,0-.832,1.027v5.781a.945.945,0,0,0,.832,1.027h1.222a.82.82,0,0,1,.754.719,23.4,23.4,0,0,0,2.107,6.266,1.121,1.121,0,0,1-.091,1.174l-.858,1.057a1.167,1.167,0,0,0,0,1.453l3.355,4.094a.755.755,0,0,0,1.183,0l.858-1.056a.679.679,0,0,1,.975-.117,15.5,15.5,0,0,0,5.123,2.568.932.932,0,0,1,.6.924v1.5a.955.955,0,0,0,.845,1.027h4.733a.955.955,0,0,0,.858-1.027v-1.5a.94.94,0,0,1,.585-.924,15.435,15.435,0,0,0,5.137-2.568.681.681,0,0,1,.975.117l.858,1.056a.755.755,0,0,0,1.183,0l3.355-4.094a1.2,1.2,0,0,0,0-1.453l-.858-1.057a1.1,1.1,0,0,1-.1-1.174,23.425,23.425,0,0,0,2.12-6.266.819.819,0,0,1,.754-.719h1.222a.945.945,0,0,0,.845-1.027" transform="translate(-222.288 518.212)" fill="#d7dcf2"/>
        <path id="path20" d="M247.408-161.4a2.6,2.6,0,0,1-2.308,2.806,2.591,2.591,0,0,1-2.3-2.806,2.59,2.59,0,0,1,2.3-2.81,2.594,2.594,0,0,1,2.308,2.81" transform="translate(-171.194 412.272)" fill="#98a1d9"/>
        <path id="path22" d="M852.223-284.753a2.582,2.582,0,0,1-2.289,2.8,2.582,2.582,0,0,1-2.289-2.8,2.583,2.583,0,0,1,2.289-2.817,2.583,2.583,0,0,1,2.289,2.817" transform="translate(-467.7 458.938)" fill="#dd397a"/>
        <path id="path24" d="M843.22-445.964a2.577,2.577,0,0,1-2.315,2.788,2.559,2.559,0,0,1-2.289-2.788,2.588,2.588,0,0,1,2.289-2.817,2.607,2.607,0,0,1,2.315,2.817" transform="translate(-463.279 519.921)" fill="#98a1d9"/>
        <path id="path26" d="M680.887-500.133a1.65,1.65,0,0,1-1.457,1.761,1.632,1.632,0,0,1-1.456-1.761,1.632,1.632,0,0,1,1.456-1.761,1.65,1.65,0,0,1,1.457,1.761" transform="translate(-384.536 540.017)" fill="#98a1d9"/>
        <path id="path28" d="M262.217-537.871a1.627,1.627,0,0,1-1.45,1.761,1.627,1.627,0,0,1-1.437-1.761,1.6,1.6,0,0,1,1.437-1.746,1.6,1.6,0,0,1,1.45,1.746" transform="translate(-179.296 554.291)" fill="#98a1d9"/>
        <path id="path30" d="M324.9-363.462a1.631,1.631,0,0,1-1.443,1.761,1.622,1.622,0,0,1-1.443-1.761,1.613,1.613,0,0,1,1.443-1.761,1.622,1.622,0,0,1,1.443,1.761" transform="translate(-210.024 488.315)" fill="#98a1d9"/>
        <path id="path32" d="M221-156.25a1.633,1.633,0,0,1-1.443,1.764,1.628,1.628,0,0,1-1.443-1.764,1.624,1.624,0,0,1,1.443-1.761A1.629,1.629,0,0,1,221-156.25" transform="translate(-159.093 409.927)" fill="#98a1d9"/>
        <path id="path34" d="M786.021-158.731a2.579,2.579,0,0,1-2.289,2.806,2.58,2.58,0,0,1-2.315-2.806,2.582,2.582,0,0,1,2.315-2.81,2.58,2.58,0,0,1,2.289,2.81" transform="translate(-435.242 411.261)" fill="#dd397a"/>
        <path id="path36" d="M882.046-158.731a2.6,2.6,0,0,1-2.289,2.806,2.617,2.617,0,0,1-2.341-2.806,2.618,2.618,0,0,1,2.341-2.81,2.6,2.6,0,0,1,2.289,2.81" transform="translate(-482.306 411.261)" fill="#1a0f91"/>
        <path id="path38" d="M342.907-550.808a2.583,2.583,0,0,1-2.3,2.8,2.591,2.591,0,0,1-2.289-2.8,2.592,2.592,0,0,1,2.289-2.8,2.583,2.583,0,0,1,2.3,2.8" transform="translate(-218.015 559.571)" fill="#98a1d9"/>
        <path id="path40" d="M648.415-345.977c0,2.084-1.4,3.764-3.095,3.764s-3.069-1.68-3.069-3.764c0-2.062,1.378-3.749,3.069-3.749s3.095,1.687,3.095,3.749" transform="translate(-367.002 482.447)" fill="#98a1d9"/>
        <path id="path42" d="M202.853-420.669c0,2.069-1.378,3.742-3.082,3.742s-3.075-1.673-3.075-3.742,1.378-3.756,3.075-3.756,3.082,1.673,3.082,3.756" transform="translate(-148.59 510.706)" fill="#98a1d9"/>
        <path id="path44" d="M187.622-512.085h-3.875a.522.522,0,0,1-.449-.557v-4.725a.522.522,0,0,1,.449-.558h3.875a.522.522,0,0,1,.449.558v4.725a.522.522,0,0,1-.449.557" transform="translate(-142.025 546.08)" fill="#fff"/>
        <path id="path46" d="M200.153-512.085h-3.875a.522.522,0,0,1-.449-.557v-4.725a.522.522,0,0,1,.449-.558h3.875a.517.517,0,0,1,.449.558v4.725a.517.517,0,0,1-.449.557" transform="translate(-148.168 546.08)" fill="#fff"/>
        <path id="path48" d="M212.683-512.085h-3.875a.527.527,0,0,1-.449-.557v-4.725a.527.527,0,0,1,.449-.558h3.875a.522.522,0,0,1,.449.558v4.725a.522.522,0,0,1-.449.557" transform="translate(-154.311 546.08)" fill="#fff"/>
        <path id="path50" d="M825.719-183.125h-3.849a.5.5,0,0,1-.468-.55V-188.4a.5.5,0,0,1,.468-.55h3.849a.515.515,0,0,1,.468.55v4.725a.513.513,0,0,1-.468.55" transform="translate(-454.842 421.63)" fill="#dd397a"/>
        <path id="path52" d="M838.224-183.125h-3.849a.512.512,0,0,1-.442-.55V-188.4a.515.515,0,0,1,.442-.55h3.849a.5.5,0,0,1,.468.55v4.725a.5.5,0,0,1-.468.55" transform="translate(-460.985 421.63)" fill="#dd397a"/>
        <path id="path54" d="M850.806-183.125h-3.875a.513.513,0,0,1-.468-.55V-188.4a.515.515,0,0,1,.468-.55h3.875a.515.515,0,0,1,.442.55v4.725a.512.512,0,0,1-.442.55" transform="translate(-467.127 421.63)" fill="#dd397a"/>
        <path id="path56" d="M246.439-188.258h-3.882a.505.505,0,0,1-.442-.55v-4.725a.505.505,0,0,1,.442-.55h3.882a.514.514,0,0,1,.449.55v4.725a.514.514,0,0,1-.449.55" transform="translate(-170.859 423.573)" fill="#d7dcf2"/>
        <path id="path58" d="M258.976-188.258h-3.882a.51.51,0,0,1-.449-.55v-4.725a.51.51,0,0,1,.449-.55h3.882a.514.514,0,0,1,.449.55v4.725a.514.514,0,0,1-.449.55" transform="translate(-177.001 423.573)" fill="#d7dcf2"/>
        <path id="path60" d="M271.506-188.258h-3.882a.514.514,0,0,1-.449-.55v-4.725a.514.514,0,0,1,.449-.55h3.882a.514.514,0,0,1,.449.55v4.725a.514.514,0,0,1-.449.55" transform="translate(-183.144 423.573)" fill="#d7dcf2"/>
        <path id="path62" d="M487.807-277.633H395.844c-8.01,0-14.512-7.924-14.512-17.7V-544.984c0-9.772,6.5-17.7,14.512-17.7h91.963c8.01,0,14.512,7.924,14.512,17.7v249.655c0,9.772-6.5,17.7-14.512,17.7" transform="translate(-239.099 563.01)" fill="#dd397a"/>
        <path id="path64" d="M489.52-280.177H398.494c-7.022,0-12.718-6.941-12.718-15.51V-543.17c0-8.569,5.7-15.5,12.718-15.5H489.52c7.022,0,12.718,6.926,12.718,15.5v247.483c0,8.569-5.7,15.51-12.718,15.51" transform="translate(-241.288 561.49)" fill="#fff"/>
        <path id="path66" d="M502.03-540.892V-293.7c0,5.825-3.862,10.521-8.609,10.521H404.385c-4.772,0-8.608-4.7-8.608-10.521v-247.19c0-5.8,3.836-10.506,8.608-10.506h14.837a2.191,2.191,0,0,1,1.951,1.482l1.586,3.83a4.259,4.259,0,0,0,3.8,2.891h44.681a4.3,4.3,0,0,0,3.823-2.891l1.573-3.83a2.191,2.191,0,0,1,1.951-1.482h14.837c4.746,0,8.609,4.71,8.609,10.506" transform="translate(-246.18 558.735)" fill="#d7dcf2"/>
        <path id="path68" d="M500.727-547.7H464.733a1.711,1.711,0,0,1-1.508-1.849h0a1.73,1.73,0,0,1,1.508-1.849h35.994a1.73,1.73,0,0,1,1.508,1.849h0a1.711,1.711,0,0,1-1.508,1.849" transform="translate(-279.249 558.735)" fill="#d7dcf2"/>
        <path id="path70" d="M489.835-163.913H487.91a.381.381,0,0,0-.338.418.377.377,0,0,0,.338.418h1.925a.385.385,0,0,0,.338-.418A.39.39,0,0,0,489.835-163.913Zm-3.849,0h-1.938a.391.391,0,0,0-.351.418.386.386,0,0,0,.351.418h1.938a.385.385,0,0,0,.338-.418A.39.39,0,0,0,485.986-163.913Zm-3.875,0h-1.925a.381.381,0,0,0-.338.418.377.377,0,0,0,.338.418h1.925a.386.386,0,0,0,.351-.418A.391.391,0,0,0,482.111-163.913Zm-3.849,0h-1.925a.39.39,0,0,0-.338.418.385.385,0,0,0,.338.418h1.925a.385.385,0,0,0,.338-.418A.39.39,0,0,0,478.262-163.913Zm-3.862,0h-1.925a.381.381,0,0,0-.325.418.376.376,0,0,0,.325.418H474.4a.377.377,0,0,0,.338-.418A.381.381,0,0,0,474.4-163.913Zm-3.849,0h-1.925a.4.4,0,0,0-.351.418.4.4,0,0,0,.351.418h1.925a.377.377,0,0,0,.338-.418A.381.381,0,0,0,470.55-163.913Zm-3.862,0h-1.925a.381.381,0,0,0-.338.418.377.377,0,0,0,.338.418h1.925a.386.386,0,0,0,.351-.418A.391.391,0,0,0,466.688-163.913Zm-3.862,0H460.9a.381.381,0,0,0-.325.418.376.376,0,0,0,.325.418h1.925a.386.386,0,0,0,.351-.418A.39.39,0,0,0,462.826-163.913Zm-3.849,0h-1.925a.39.39,0,0,0-.338.418.385.385,0,0,0,.338.418h1.925a.377.377,0,0,0,.338-.418A.381.381,0,0,0,458.977-163.913Zm-3.849,0H453.19a.39.39,0,0,0-.338.418.385.385,0,0,0,.338.418h1.938a.385.385,0,0,0,.338-.418A.39.39,0,0,0,455.128-163.913Zm-3.862,0h-1.925a.391.391,0,0,0-.351.418.386.386,0,0,0,.351.418h1.925a.386.386,0,0,0,.351-.418A.391.391,0,0,0,451.266-163.913Zm-3.862,0h-1.925a.381.381,0,0,0-.338.418.377.377,0,0,0,.338.418H447.4a.386.386,0,0,0,.351-.418A.391.391,0,0,0,447.4-163.913Zm-3.849,0H441.63a.381.381,0,0,0-.338.418.377.377,0,0,0,.338.418h1.925a.385.385,0,0,0,.338-.418A.39.39,0,0,0,443.555-163.913Zm-3.862,0h-1.925a.39.39,0,0,0-.338.418.385.385,0,0,0,.338.418h1.925a.377.377,0,0,0,.338-.418A.381.381,0,0,0,439.692-163.913Zm-3.849,0h-1.925a.391.391,0,0,0-.351.418.386.386,0,0,0,.351.418h1.925a.385.385,0,0,0,.338-.418A.39.39,0,0,0,435.843-163.913Zm-3.862,0h-1.938a.381.381,0,0,0-.325.418.376.376,0,0,0,.325.418h1.938a.377.377,0,0,0,.338-.418A.381.381,0,0,0,431.981-163.913Zm-3.862,0h-1.925a.39.39,0,0,0-.338.418.385.385,0,0,0,.338.418h1.925a.385.385,0,0,0,.338-.418A.39.39,0,0,0,428.119-163.913Zm-3.849,0h-1.925a.381.381,0,0,0-.338.418.377.377,0,0,0,.338.418h1.925a.377.377,0,0,0,.338-.418A.381.381,0,0,0,424.27-163.913Zm-3.849,0h-1.938a.4.4,0,0,0-.351.418.4.4,0,0,0,.351.418h1.938a.385.385,0,0,0,.338-.418A.39.39,0,0,0,420.421-163.913Zm-3.862,0h-1.938a.39.39,0,0,0-.338.418.385.385,0,0,0,.338.418h1.938a.377.377,0,0,0,.338-.418A.381.381,0,0,0,416.559-163.913Zm-3.8-.081a4.683,4.683,0,0,1-1.7-.712.313.313,0,0,0-.468.161.484.484,0,0,0,.13.558,5.227,5.227,0,0,0,1.938.807c.182.044.351-.11.39-.337A.441.441,0,0,0,412.762-163.994Zm-3.121-2.076a6.888,6.888,0,0,1-.962-1.864.322.322,0,0,0-.442-.227.45.45,0,0,0-.182.543,7.5,7.5,0,0,0,1.079,2.091.3.3,0,0,0,.481.037A.5.5,0,0,0,409.641-166.07Zm-1.365-4.013v-2.326a.378.378,0,0,0-.338-.411.37.37,0,0,0-.338.411v2.377a.39.39,0,0,0,.364.389A.4.4,0,0,0,408.275-170.083Zm0-4.681v-2.355a.383.383,0,0,0-.338-.411.374.374,0,0,0-.338.411v2.355a.381.381,0,0,0,.338.418A.39.39,0,0,0,408.275-174.764Zm0-4.7v-2.355a.388.388,0,0,0-.338-.411.378.378,0,0,0-.338.411v2.355a.381.381,0,0,0,.338.418A.39.39,0,0,0,408.275-179.467Zm0-4.7v-2.348a.385.385,0,0,0-.338-.418.377.377,0,0,0-.338.418v2.348a.381.381,0,0,0,.338.418A.39.39,0,0,0,408.275-184.17Zm0-4.7v-2.355a.39.39,0,0,0-.338-.418.381.381,0,0,0-.338.418v2.355a.374.374,0,0,0,.338.411A.383.383,0,0,0,408.275-188.873Zm0-4.7v-2.355a.383.383,0,0,0-.338-.411.374.374,0,0,0-.338.411v2.355a.374.374,0,0,0,.338.411A.383.383,0,0,0,408.275-193.576Zm0-4.7v-2.355a.383.383,0,0,0-.338-.411.374.374,0,0,0-.338.411v2.355a.374.374,0,0,0,.338.411A.383.383,0,0,0,408.275-198.278Zm0-4.71v-2.326a.377.377,0,0,0-.312-.433.378.378,0,0,0-.364.381v2.377a.377.377,0,0,0,.338.418A.385.385,0,0,0,408.275-202.989Zm.416-4.461a6.764,6.764,0,0,1,.975-1.856.511.511,0,0,0-.026-.587.3.3,0,0,0-.481.029,7.787,7.787,0,0,0-1.092,2.091.448.448,0,0,0,.169.543A.338.338,0,0,0,408.691-207.449Zm2.393-3.221a4.656,4.656,0,0,1,1.7-.7.411.411,0,0,0,.286-.477.36.36,0,0,0-.39-.345,5.493,5.493,0,0,0-1.925.792.462.462,0,0,0-.143.565A.32.32,0,0,0,411.084-210.67Zm3.576-.778h1.925a.4.4,0,0,0,.351-.418.392.392,0,0,0-.351-.411H414.66a.383.383,0,0,0-.338.411A.385.385,0,0,0,414.66-211.448Zm3.862,0h1.925a.377.377,0,0,0,.338-.418.374.374,0,0,0-.338-.411h-1.925a.374.374,0,0,0-.338.411A.377.377,0,0,0,418.522-211.448Zm3.862,0h1.925a.385.385,0,0,0,.338-.418.383.383,0,0,0-.338-.411h-1.925a.383.383,0,0,0-.351.411A.386.386,0,0,0,422.384-211.448Zm3.849,0h1.924a.377.377,0,0,0,.338-.418.374.374,0,0,0-.338-.411h-1.924a.374.374,0,0,0-.338.411A.377.377,0,0,0,426.234-211.448Zm3.849,0h1.925a.386.386,0,0,0,.351-.418.383.383,0,0,0-.351-.411h-1.925a.383.383,0,0,0-.338.411A.385.385,0,0,0,430.083-211.448Zm3.862,0h1.925a.386.386,0,0,0,.351-.418.383.383,0,0,0-.351-.411h-1.925a.374.374,0,0,0-.338.411A.377.377,0,0,0,433.945-211.448Zm3.862,0h1.925a.377.377,0,0,0,.338-.418.374.374,0,0,0-.338-.411h-1.925a.383.383,0,0,0-.351.411A.386.386,0,0,0,437.807-211.448Zm3.849,0h1.938a.376.376,0,0,0,.325-.418.373.373,0,0,0-.325-.411h-1.938a.383.383,0,0,0-.338.411A.385.385,0,0,0,441.656-211.448Zm3.849,0h1.938a.385.385,0,0,0,.338-.418.383.383,0,0,0-.338-.411h-1.938a.374.374,0,0,0-.325.411A.376.376,0,0,0,445.505-211.448Zm3.862,0h1.925a.4.4,0,0,0,.351-.418.392.392,0,0,0-.351-.411h-1.925a.383.383,0,0,0-.338.411A.385.385,0,0,0,449.367-211.448Zm3.862,0h1.938a.376.376,0,0,0,.325-.418.374.374,0,0,0-.325-.411h-1.937a.374.374,0,0,0-.338.411A.377.377,0,0,0,453.229-211.448Zm3.862,0h1.925a.385.385,0,0,0,.338-.418.383.383,0,0,0-.338-.411h-1.925a.374.374,0,0,0-.338.411A.377.377,0,0,0,457.091-211.448Zm3.849,0h1.925a.377.377,0,0,0,.338-.418.374.374,0,0,0-.338-.411h-1.925a.383.383,0,0,0-.338.411A.385.385,0,0,0,460.941-211.448Zm3.862,0h1.912a.4.4,0,0,0,.364-.418.393.393,0,0,0-.364-.411H464.8a.374.374,0,0,0-.338.411A.377.377,0,0,0,464.8-211.448Zm3.849,0h1.938a.385.385,0,0,0,.338-.418.383.383,0,0,0-.338-.411h-1.937a.374.374,0,0,0-.338.411A.377.377,0,0,0,468.652-211.448Zm3.862,0h1.925a.377.377,0,0,0,.338-.418.374.374,0,0,0-.338-.411h-1.925a.392.392,0,0,0-.351.411A.4.4,0,0,0,472.514-211.448Zm3.849,0H478.3a.376.376,0,0,0,.325-.418.373.373,0,0,0-.325-.411h-1.938a.374.374,0,0,0-.325.411A.376.376,0,0,0,476.363-211.448Zm3.862,0h1.924a.4.4,0,0,0,.351-.418.392.392,0,0,0-.351-.411h-1.924a.374.374,0,0,0-.338.411A.377.377,0,0,0,480.225-211.448Zm3.849,0h1.938a.385.385,0,0,0,.338-.418.383.383,0,0,0-.338-.411h-1.938a.383.383,0,0,0-.338.411A.385.385,0,0,0,484.074-211.448Zm3.875,0h1.925a.385.385,0,0,0,.338-.418.383.383,0,0,0-.338-.411h-1.925a.383.383,0,0,0-.351.411A.386.386,0,0,0,487.949-211.448Zm3.849,0h1.925a.383.383,0,0,0,.338-.411.377.377,0,0,0-.338-.418H491.8a.383.383,0,0,0-.338.411A.385.385,0,0,0,491.8-211.448Zm3.706.382a5.532,5.532,0,0,1,1.573,1.078.286.286,0,0,0,.468-.059.5.5,0,0,0-.039-.58,6.023,6.023,0,0,0-1.782-1.218.32.32,0,0,0-.429.242A.444.444,0,0,0,495.5-211.066Zm2.757,2.737a7.488,7.488,0,0,1,.663,2.047.349.349,0,0,0,.4.315.429.429,0,0,0,.273-.5,8.294,8.294,0,0,0-.767-2.3.3.3,0,0,0-.468-.132A.459.459,0,0,0,498.261-208.33Zm.793,4.3v2.348a.377.377,0,0,0,.338.418.376.376,0,0,0,.325-.418v-2.348a.369.369,0,0,0-.325-.411A.37.37,0,0,0,499.055-204.03Zm0,4.7v2.355a.374.374,0,0,0,.338.411.374.374,0,0,0,.325-.411v-2.355a.374.374,0,0,0-.325-.411A.374.374,0,0,0,499.055-199.327Zm0,4.7v2.348a.377.377,0,0,0,.338.418.376.376,0,0,0,.325-.418v-2.348a.381.381,0,0,0-.325-.418A.381.381,0,0,0,499.055-194.625Zm0,4.7v2.355a.374.374,0,0,0,.338.411.374.374,0,0,0,.325-.411v-2.355a.374.374,0,0,0-.325-.411A.374.374,0,0,0,499.055-189.922Zm0,4.7v2.355a.374.374,0,0,0,.338.411.374.374,0,0,0,.325-.411v-2.355a.374.374,0,0,0-.325-.411A.374.374,0,0,0,499.055-185.219Zm0,4.7v2.355a.374.374,0,0,0,.338.411.374.374,0,0,0,.325-.411v-2.355a.374.374,0,0,0-.325-.411A.374.374,0,0,0,499.055-180.516Zm0,4.71v2.348a.381.381,0,0,0,.338.418.381.381,0,0,0,.325-.418v-2.348a.376.376,0,0,0-.325-.418A.377.377,0,0,0,499.055-175.806Zm0,4.7v.668a7.7,7.7,0,0,1-.169,1.57.428.428,0,0,0,.247.5c.182.059.364-.073.416-.3a8.686,8.686,0,0,0,.169-1.768v-.668a.374.374,0,0,0-.325-.411A.374.374,0,0,0,499.055-171.11Zm-.9,4.255a5.925,5.925,0,0,1-1.222,1.614.435.435,0,0,0-.052.572.285.285,0,0,0,.455.088,6.878,6.878,0,0,0,1.391-1.82.481.481,0,0,0-.091-.58A.326.326,0,0,0,498.157-166.855Zm-2.809,2.634a4.556,4.556,0,0,1-1.664.308h-1.925a.39.39,0,0,0-.338.418.385.385,0,0,0,.338.418h1.925a5.036,5.036,0,0,0,1.873-.359.447.447,0,0,0,.208-.521.318.318,0,0,0-.416-.264" transform="translate(-251.981 430.453)" fill="#5b87cd"/>
        <path id="path72" d="M522.2-346.053h-1.925a.383.383,0,0,0-.338.411.39.39,0,0,0,.338.418H522.2a.4.4,0,0,0,.351-.418A.392.392,0,0,0,522.2-346.053Zm-3.849,0h-1.938a.383.383,0,0,0-.338.411.39.39,0,0,0,.338.418h1.938a.381.381,0,0,0,.325-.418A.374.374,0,0,0,518.347-346.053Zm-3.862,0H512.56a.383.383,0,0,0-.338.411.39.39,0,0,0,.338.418h1.925a.381.381,0,0,0,.338-.418A.374.374,0,0,0,514.485-346.053Zm-3.849,0h-1.925a.383.383,0,0,0-.351.411.39.39,0,0,0,.351.418h1.925a.39.39,0,0,0,.338-.418A.383.383,0,0,0,510.636-346.053Zm-3.875,0h-1.925a.374.374,0,0,0-.325.411.381.381,0,0,0,.325.418h1.925a.391.391,0,0,0,.364-.418A.385.385,0,0,0,506.761-346.053Zm-3.849,0h-1.925a.374.374,0,0,0-.338.411.381.381,0,0,0,.338.418h1.925a.381.381,0,0,0,.338-.418A.374.374,0,0,0,502.912-346.053Zm-3.849,0h-1.938a.383.383,0,0,0-.325.411.391.391,0,0,0,.325.418h1.938a.39.39,0,0,0,.338-.418A.383.383,0,0,0,499.062-346.053Zm-3.862,0h-1.912a.383.383,0,0,0-.351.411.39.39,0,0,0,.351.418H495.2a.391.391,0,0,0,.351-.418A.383.383,0,0,0,495.2-346.053Zm-3.849,0h-1.937a.383.383,0,0,0-.338.411.39.39,0,0,0,.338.418h1.938a.39.39,0,0,0,.338-.418A.383.383,0,0,0,491.351-346.053Zm-3.862,0h-1.144a3.718,3.718,0,0,1-.715-.073c-.182-.059-.351.1-.39.316a.405.405,0,0,0,.273.492,3.426,3.426,0,0,0,.832.1h1.144a.4.4,0,0,0,.351-.418A.392.392,0,0,0,487.489-346.053Zm-3.459-.961a4.211,4.211,0,0,1-1.079-1.665.325.325,0,0,0-.468-.191.437.437,0,0,0-.156.543,5.165,5.165,0,0,0,1.3,1.974.316.316,0,0,0,.481-.073A.516.516,0,0,0,484.03-347.014Zm-1.456-3.764v-2.355a.372.372,0,0,0-.351-.4.362.362,0,0,0-.325.4v2.355a.373.373,0,0,0,.325.411A.383.383,0,0,0,482.574-350.778Zm0-4.7v-2.362a.37.37,0,0,0-.351-.4.359.359,0,0,0-.325.4v2.362a.373.373,0,0,0,.325.411A.383.383,0,0,0,482.574-355.481Zm0-4.71v-2.355a.381.381,0,0,0-.351-.4.371.371,0,0,0-.325.4v2.355a.376.376,0,0,0,.325.418A.386.386,0,0,0,482.574-360.191Zm0-4.7v-2.355a.383.383,0,0,0-.351-.411.373.373,0,0,0-.325.411v2.355a.378.378,0,0,0,.325.411A.388.388,0,0,0,482.574-364.887Zm0-4.7v-2.355a.383.383,0,0,0-.351-.411.373.373,0,0,0-.325.411v2.355a.366.366,0,0,0,.325.4A.377.377,0,0,0,482.574-369.59Zm0-4.7v-.3a5.606,5.606,0,0,1,.312-1.834.448.448,0,0,0-.169-.543.321.321,0,0,0-.455.213,6.491,6.491,0,0,0-.364,2.164v.3a.366.366,0,0,0,.325.4A.376.376,0,0,0,482.574-374.293Zm1.378-3.844a3.456,3.456,0,0,1,1.56-.939.426.426,0,0,0,.26-.492c-.052-.22-.221-.367-.4-.315a4.1,4.1,0,0,0-1.86,1.115.463.463,0,0,0-.052.58A.309.309,0,0,0,483.952-378.137Zm3.407-1.042h1.925a.384.384,0,0,0,.338-.426.374.374,0,0,0-.338-.411h-1.925a.374.374,0,0,0-.338.411A.384.384,0,0,0,487.359-379.179Zm3.849,0h1.925a.4.4,0,0,0,.364-.426.393.393,0,0,0-.364-.411h-1.925a.374.374,0,0,0-.325.411A.384.384,0,0,0,491.208-379.179Zm3.862,0h1.938a.393.393,0,0,0,.338-.426.383.383,0,0,0-.338-.411H495.07a.374.374,0,0,0-.338.411A.384.384,0,0,0,495.07-379.179Zm3.862,0h1.924a.393.393,0,0,0,.351-.426.383.383,0,0,0-.351-.411h-1.924a.392.392,0,0,0-.351.411A.4.4,0,0,0,498.932-379.179Zm3.849,0h1.938a.384.384,0,0,0,.325-.426.374.374,0,0,0-.325-.411h-1.938a.383.383,0,0,0-.338.411A.393.393,0,0,0,502.782-379.179Zm3.862,0h1.925a.4.4,0,0,0,.351-.426.392.392,0,0,0-.351-.411h-1.925a.383.383,0,0,0-.338.411A.393.393,0,0,0,506.644-379.179Zm3.849,0h1.938a.393.393,0,0,0,.338-.426.383.383,0,0,0-.338-.411h-1.938a.383.383,0,0,0-.338.411A.393.393,0,0,0,510.493-379.179Zm3.875,0h1.925a.384.384,0,0,0,.325-.426.374.374,0,0,0-.325-.411h-1.925a.383.383,0,0,0-.351.411A.393.393,0,0,0,514.368-379.179Zm3.836,0h1.938a.393.393,0,0,0,.338-.426.383.383,0,0,0-.338-.411H518.2a.383.383,0,0,0-.325.411A.394.394,0,0,0,518.2-379.179Zm3.862,0h1.925a.384.384,0,0,0,.338-.426.374.374,0,0,0-.338-.411h-1.925a.374.374,0,0,0-.338.411A.384.384,0,0,0,522.066-379.179Zm3.849,0h.156a3.182,3.182,0,0,1,1.573.418.3.3,0,0,0,.455-.191.448.448,0,0,0-.156-.558,3.8,3.8,0,0,0-1.873-.506h-.156a.374.374,0,0,0-.325.411A.384.384,0,0,0,525.915-379.179Zm3.095,1.761a4.992,4.992,0,0,1,.754,1.937.325.325,0,0,0,.39.323.413.413,0,0,0,.26-.484,5.9,5.9,0,0,0-.845-2.289.318.318,0,0,0-.494-.073A.535.535,0,0,0,529.01-377.418Zm.819,4.211v2.348a.383.383,0,0,0,.338.411.374.374,0,0,0,.338-.411v-2.348c0-.242-.143-.426-.338-.426A.388.388,0,0,0,529.829-373.207Zm0,4.7v2.348a.383.383,0,0,0,.338.411.374.374,0,0,0,.338-.411V-368.5c0-.242-.143-.426-.338-.426A.388.388,0,0,0,529.829-368.5Zm0,4.7v2.34a.39.39,0,0,0,.338.418.381.381,0,0,0,.338-.418v-2.34a.391.391,0,0,0-.338-.433A.4.4,0,0,0,529.829-363.8Zm0,4.7v2.348a.383.383,0,0,0,.338.411.374.374,0,0,0,.338-.411v-2.348a.388.388,0,0,0-.338-.425A.4.4,0,0,0,529.829-359.105Zm0,4.7v2.348a.39.39,0,0,0,.338.418.381.381,0,0,0,.338-.418V-354.4a.381.381,0,0,0-.338-.418A.39.39,0,0,0,529.829-354.4Zm-.065,4.622a5.258,5.258,0,0,1-.728,1.944.481.481,0,0,0,.065.58.306.306,0,0,0,.481-.073,5.985,5.985,0,0,0,.845-2.3.418.418,0,0,0-.26-.492A.348.348,0,0,0,529.764-349.78Zm-2.094,3.287a3.149,3.149,0,0,1-1.6.44h-1.938a.383.383,0,0,0-.351.411.39.39,0,0,0,.351.418h1.938a3.789,3.789,0,0,0,1.885-.521.431.431,0,0,0,.169-.55.327.327,0,0,0-.455-.2" transform="translate(-288.402 493.909)" fill="#5b87cd"/>
        <path id="path74" d="M501.7-257.484H419.686c-2.692,0-4.889-2.678-4.889-5.972V-305.65c0-3.3,2.2-5.972,4.889-5.972H501.7c2.718,0,4.9,2.671,4.9,5.972v42.194c0,3.294-2.185,5.972-4.9,5.972" transform="translate(-255.509 468.032)" fill="#425aaa"/>
        <path id="path76" d="M499.721-312.709v42.216c0,3.294-2.185,5.957-4.889,5.957H413.168c-2.7,0-4.9-2.663-4.9-5.957v-42.216c0-3.287,2.2-5.957,4.9-5.957h81.664c2.7,0,4.889,2.671,4.889,5.957" transform="translate(-252.306 470.702)" fill="#7288cd"/>
        <path id="path78" d="M443.9-261.431H419.858c-1.834,0-3.3-1.812-3.3-4.035v-29.347c0-2.223,1.469-4.028,3.3-4.028H443.9c1.833,0,3.3,1.8,3.3,4.028v29.347c0,2.223-1.469,4.035-3.3,4.035" transform="translate(-256.365 463.202)" fill="#ff928e"/>
        <path id="path80" d="M504.8-292.769H483.618a1.188,1.188,0,0,1-1.053-1.277,1.193,1.193,0,0,1,1.053-1.277H504.8a1.193,1.193,0,0,1,1.053,1.277,1.188,1.188,0,0,1-1.053,1.277" transform="translate(-288.727 461.866)" fill="#fff"/>
        <path id="path82" d="M495.152-284.611H483.618a1.178,1.178,0,0,1-1.053-1.262,1.188,1.188,0,0,1,1.053-1.277h11.534a1.179,1.179,0,0,1,1.04,1.277,1.169,1.169,0,0,1-1.04,1.262" transform="translate(-288.727 458.775)" fill="#fff"/>
        <path id="path84" d="M545.782-284.611H514.573a1.17,1.17,0,0,1-1.053-1.262,1.179,1.179,0,0,1,1.053-1.277h31.209a1.17,1.17,0,0,1,1.04,1.277,1.16,1.16,0,0,1-1.04,1.262" transform="translate(-303.908 458.775)" fill="#fff"/>
        <path id="path86" d="M501.459-276.424H483.618a1.193,1.193,0,0,1-1.053-1.277,1.188,1.188,0,0,1,1.053-1.277h17.841a1.188,1.188,0,0,1,1.053,1.277,1.193,1.193,0,0,1-1.053,1.277" transform="translate(-288.727 455.682)" fill="#fff"/>
        <path id="path88" d="M537.545-276.424H526.336a1.184,1.184,0,0,1-1.053-1.277,1.179,1.179,0,0,1,1.053-1.277h11.209A1.2,1.2,0,0,1,538.6-277.7a1.2,1.2,0,0,1-1.053,1.277" transform="translate(-309.672 455.682)" fill="#fff"/>
        <path id="path90" d="M565.871-276.424H555.546a1.184,1.184,0,0,1-1.066-1.277,1.18,1.18,0,0,1,1.066-1.277h10.325a1.161,1.161,0,0,1,1.04,1.277,1.166,1.166,0,0,1-1.04,1.277" transform="translate(-323.972 455.682)" fill="#fff"/>
        <path id="path92" d="M530.613-268.266h-47a1.184,1.184,0,0,1-1.053-1.277,1.183,1.183,0,0,1,1.053-1.262h47a1.164,1.164,0,0,1,1.027,1.262,1.165,1.165,0,0,1-1.027,1.277" transform="translate(-288.727 452.591)" fill="#fff"/>
        <path id="path94" d="M509.469-260.08H483.618a1.188,1.188,0,0,1-1.053-1.277,1.188,1.188,0,0,1,1.053-1.277h25.851a1.179,1.179,0,0,1,1.053,1.277,1.179,1.179,0,0,1-1.053,1.277" transform="translate(-288.727 449.5)" fill="#fff"/>
        <path id="path96" d="M559.5-260.08h-16.97a1.179,1.179,0,0,1-1.053-1.277,1.179,1.179,0,0,1,1.053-1.277H559.5a1.17,1.17,0,0,1,1.014,1.277,1.17,1.17,0,0,1-1.014,1.277" transform="translate(-317.602 449.5)" fill="#fff"/>
        <path id="path98" d="M498.806-251.908H483.618a1.193,1.193,0,0,1-1.053-1.277,1.188,1.188,0,0,1,1.053-1.277h15.188a1.17,1.17,0,0,1,1.04,1.277,1.175,1.175,0,0,1-1.04,1.277" transform="translate(-288.727 446.413)" fill="#fff"/>
        <path id="path100" d="M536.683-251.908H521.495a1.184,1.184,0,0,1-1.053-1.277,1.179,1.179,0,0,1,1.053-1.277h15.188a1.17,1.17,0,0,1,1.04,1.277,1.175,1.175,0,0,1-1.04,1.277" transform="translate(-307.294 446.413)" fill="#fff"/>
        <path id="path102" d="M567.309-251.908h-8.791a1.185,1.185,0,0,1-1.066-1.277,1.18,1.18,0,0,1,1.066-1.277h8.791a1.18,1.18,0,0,1,1.066,1.277,1.185,1.185,0,0,1-1.066,1.277" transform="translate(-325.433 446.413)" fill="#fff"/>
        <path id="path104" d="M504.8-243.743H483.618a1.188,1.188,0,0,1-1.053-1.277,1.186,1.186,0,0,1,1.053-1.269H504.8a1.186,1.186,0,0,1,1.053,1.269,1.188,1.188,0,0,1-1.053,1.277" transform="translate(-288.727 443.322)" fill="#fff"/>
        <path id="path106" d="M555.413-292.769H534.23a1.188,1.188,0,0,1-1.053-1.277,1.193,1.193,0,0,1,1.053-1.277h21.183a1.184,1.184,0,0,1,1.053,1.277,1.179,1.179,0,0,1-1.053,1.277" transform="translate(-313.543 461.866)" fill="#fff"/>
        <path id="path108" d="M499.721-312.709v1.783H408.266v-1.783c0-3.287,2.2-5.957,4.9-5.957h81.664c2.7,0,4.889,2.671,4.889,5.957" transform="translate(-252.306 470.702)" fill="#3558b0"/>
        <path id="path110" d="M551.668-313.056a1.28,1.28,0,0,1-1.144,1.372,1.262,1.262,0,0,1-1.118-1.372,1.272,1.272,0,0,1,1.118-1.387,1.29,1.29,0,0,1,1.144,1.387" transform="translate(-321.506 469.102)" fill="#d7dcf2"/>
        <path id="path112" d="M563.039-313.056a1.28,1.28,0,0,1-1.144,1.372,1.261,1.261,0,0,1-1.118-1.372,1.272,1.272,0,0,1,1.118-1.387,1.29,1.29,0,0,1,1.144,1.387" transform="translate(-327.075 469.102)" fill="#d7dcf2"/>
        <path id="path114" d="M574.409-313.056a1.262,1.262,0,0,1-1.118,1.372,1.28,1.28,0,0,1-1.144-1.372,1.29,1.29,0,0,1,1.144-1.387,1.272,1.272,0,0,1,1.118,1.387" transform="translate(-332.642 469.102)" fill="#d7dcf2"/>
        <path id="path116" d="M441.447-345.6v-.374h-18.1a4.173,4.173,0,0,1-3.225-1.629,6.234,6.234,0,0,1-1.339-3.932v-22.062a6.271,6.271,0,0,1,1.339-3.94,4.173,4.173,0,0,1,3.225-1.629h18.1a4.193,4.193,0,0,1,3.225,1.629,6.262,6.262,0,0,1,1.326,3.94v22.062a6.226,6.226,0,0,1-1.326,3.932,4.193,4.193,0,0,1-3.225,1.629v.741c2.861,0,5.175-2.825,5.175-6.3v-22.062c0-3.485-2.315-6.3-5.175-6.3h-18.1c-2.848,0-5.175,2.817-5.175,6.3v22.062c0,3.478,2.328,6.3,5.175,6.3h18.1v-.367" transform="translate(-257.164 493.862)" fill="#4259b1"/>
        <path id="path118" d="M432.736-360.81l-4.005,4.886a.811.811,0,0,0,0,.983l4.044,4.916a.5.5,0,0,0,.806,0,.8.8,0,0,0,0-.976l-3.641-4.439,3.6-4.4a.756.756,0,0,0,0-.968.493.493,0,0,0-.806,0" transform="translate(-262.255 486.716)" fill="#4259b1"/>
        <path id="path120" d="M453.6-359.835l3.6,4.395L453.558-351a.8.8,0,0,0,0,.976.5.5,0,0,0,.806,0l4.044-4.916a.816.816,0,0,0,.156-.5.773.773,0,0,0-.156-.484l-4.005-4.886a.493.493,0,0,0-.806,0,.8.8,0,0,0,0,.976" transform="translate(-274.428 486.717)" fill="#4259b1"/>
        <path id="path122" d="M445.048-360.621l-3.732,9.817a.763.763,0,0,0,.26.924.522.522,0,0,0,.754-.337l3.758-9.817a.773.773,0,0,0-.273-.924.554.554,0,0,0-.767.337" transform="translate(-268.486 486.717)" fill="#4259b1"/>
        <path id="path124" d="M499.721-516.647v69.039c0,3.742-2.484,6.779-5.553,6.779H413.831c-3.069,0-5.566-3.037-5.566-6.779v-69.039c0-3.742,2.5-6.764,5.566-6.764h80.337c3.069,0,5.553,3.023,5.553,6.764" transform="translate(-252.306 548.155)" fill="#dd397a"/>
        <path id="path126" d="M551.834-498.177c0,8.936-5.93,16.185-13.238,16.185-7.334,0-13.264-7.249-13.264-16.185,0-8.907,5.93-16.155,13.264-16.155,7.308,0,13.238,7.249,13.238,16.155" transform="translate(-309.697 544.724)" fill="#fff"/>
        <path id="path128" d="M462.023-429.47H413.831c-3.069,0-5.566-3.038-5.566-6.794v-10.873l21.105-44.549a2.619,2.619,0,0,1,4.941,0l15.943,33.646,11.82,24.974a4.054,4.054,0,0,1-.052,3.6" transform="translate(-252.306 536.814)" fill="#fff"/>
        <path id="path130" d="M510.177-418.288h-46.1L477.6-446.843l7.282-15.393a2.367,2.367,0,0,1,4.46,0l20.832,43.947" transform="translate(-279.665 525.603)" fill="#fff"/>
        <path id="path132" d="M699.646-119.145H664.12v-65.121h35.526v65.121" transform="translate(-377.729 419.858)" fill="#dd397a"/>
        <path id="path134" d="M733.823-119.145h13.6v-65.121h-13.6v65.121" transform="translate(-411.907 419.858)" fill="#4259b1"/>
        <path id="path136" d="M747.63-178.16h-9.987v-2.084h9.987v2.084" transform="translate(-413.777 418.335)" fill="#a5b8e4"/>
        <path id="path138" d="M747.63-170.977h-9.987v-2.084h9.987v2.084" transform="translate(-413.777 415.618)" fill="#a5b8e4"/>
        <path id="path140" d="M747.63-163.8h-9.987v-2.076h9.987v2.076" transform="translate(-413.777 412.903)" fill="#a5b8e4"/>
        <path id="path142" d="M747.63-156.622h-9.987V-158.7h9.987v2.076" transform="translate(-413.777 410.188)" fill="#a5b8e4"/>
        <path id="path144" d="M747.63-149.433h-9.987v-2.084h9.987v2.084" transform="translate(-413.777 407.473)" fill="#a5b8e4"/>
        <path id="path146" d="M747.63-142.258h-9.987v-2.076h9.987v2.076" transform="translate(-413.777 404.752)" fill="#a5b8e4"/>
        <path id="path148" d="M747.63-135.077h-9.987v-2.076h9.987v2.076" transform="translate(-413.777 402.037)" fill="#a5b8e4"/>
        <path id="path150" d="M747.63-127.9h-9.987v-2.076h9.987v2.076" transform="translate(-413.777 399.322)" fill="#a5b8e4"/>
        <path id="path152" d="M747.63-120.714h-9.987v-2.076h9.987v2.076" transform="translate(-413.777 396.602)" fill="#a5b8e4"/>
        <path id="path154" d="M747.63-113.531h-9.987v-2.076h9.987v2.076" transform="translate(-413.777 393.886)" fill="#a5b8e4"/>
        <path id="path156" d="M747.63-106.346h-9.987v-2.08h9.987v2.08" transform="translate(-413.777 391.171)" fill="#a5b8e4"/>
        <path id="path158" d="M747.63-99.165h-9.987v-2.08h9.987v2.08" transform="translate(-413.777 388.453)" fill="#a5b8e4"/>
        <path id="path160" d="M747.63-91.984h-9.987v-2.08h9.987v2.08" transform="translate(-413.777 385.736)" fill="#a5b8e4"/>
        <path id="path162" d="M747.63-84.8h-9.987v-2.076h9.987V-84.8" transform="translate(-413.777 383.019)" fill="#a5b8e4"/>
        <path id="path164" d="M652.776-84.86h18.049a14.6,14.6,0,0,0-1.17-8.778s-1.456,1.421-5.826.459a21.014,21.014,0,0,1-3.043,2.619c-1.274.745-8.5,2.476-8.01,5.7" transform="translate(-372.164 385.576)" fill="#1f0d10"/>
        <path id="path166" d="M654.878-182.12c1.144,8.492,6.554,37.208,8.868,54.174a17.662,17.662,0,0,0,7.334-.459c-.234-5.917-.624-20.066-.6-26.269.078-10.488.494-24.318-3.277-31.907l-12.744,1.225c.078.822.156,1.486.208,1.959.078.455.156.88.208,1.277" transform="translate(-372.996 420.733)" fill="#192c4a"/>
        <path id="path168" d="M588.7-84.86h18.049a14.139,14.139,0,0,0-1.17-8.778s-1.456,1.421-5.826.459a18.946,18.946,0,0,1-3.069,2.619c-1.248.745-8.478,2.476-7.984,5.7" transform="translate(-340.763 385.576)" fill="#1f0d10"/>
        <path id="path170" d="M609.419-131.548a17.041,17.041,0,0,0,7.126.774c.988-6.82,2.5-21.823,3.849-28.855,2.133-10.928,4.213-25.961,2.757-31.324l-12.536-3.837c0,.484-1.04,46.493-1.2,63.243" transform="translate(-350.921 423.839)" fill="#0d1f2b"/>
        <path id="path172" d="M660.391-223.149h0c-.26-3.008-.52-5.216-.52-5.216l-13.992,4.175-11.885,3.3c-4.421,1.2-9.727,2.641-14.434,3.933-5.28,1.46-8.765,6.339-7.62,12.759l1.326,7.806c7.386-.125,42-4.175,44.967-5.994,3.329-2.062,4.343-9.347,2.159-20.763" transform="translate(-352.053 436.541)" fill="#0d1f2b"/>
        <path id="path174" d="M701.334-223.769h0a28.183,28.183,0,0,0-1.457-6.258L686.8-224.811l-11.859,3.3c-4.421,1.2-9.753,2.634-14.434,3.925-5.253,1.46-8.764,6.332-7.594,12.766l1.326,7.8c7.36-.125,38.127-1.431,44.915-5.994,3.3-2.2,4.343-9.347,2.185-20.756" transform="translate(-372.119 437.171)" fill="#192c4a"/>
        <path id="path176" d="M651.535-260.219s6.216-3.419,7.932.015a5.989,5.989,0,0,1-1.82,6.83c-2.133,1.467-14.1,7.652-25.409,11.086a36.048,36.048,0,0,0-1.248-3.932A56.263,56.263,0,0,0,641.08-253.1a62.286,62.286,0,0,1,10.455-7.117" transform="translate(-361.495 449.161)" fill="#f57787"/>
        <path id="path178" d="M669.234-297.353l-5.305,25.935s.546,6.559,5.982,3.338,9.025-23.881,9.025-23.881l-9.7-5.393" transform="translate(-377.635 462.64)" fill="#f57787"/>
        <path id="path180" d="M681.034-291.938c-.676-.176-1.3-.389-1.9-.609-.624-.227-1.2-.462-1.794-.7a28.491,28.491,0,0,1-7.776-4.659,77.153,77.153,0,0,1,5.228-17.828,1.349,1.349,0,0,1,.1-.279,1.239,1.239,0,0,0,.13-.286,15.921,15.921,0,0,1,3.693-4.7,2.524,2.524,0,0,0,.442-.382l.65,13.544.1,1.394,1.118,14.5" transform="translate(-380.394 471.721)" fill="#fff"/>
        <path id="path182" d="M688.5-283.859c-.65-.191-1.274-.4-1.9-.624s-1.2-.448-1.742-.7c1.04-9.12,2-14.857,2-14.857l.52,1.68,1.118,14.5" transform="translate(-387.906 463.655)" fill="#b1e5ed"/>
        <path id="path184" d="M720.061-318.459c-.156,4.021-.7,10.455-1.222,16.926-.156,2.04-.286,4.109-.442,6.1-.078,1.225-1.612,7.843-1.69,9.024-.26,5.649-2.523,9.875-.39,18.489a16.079,16.079,0,0,1,.65,3.969,2.171,2.171,0,0,1-.858,1.387,12.908,12.908,0,0,1-4.837,1.4h-.026a103,103,0,0,1-13.368.741c-4.629,0-11.573-.888-12.458-2.318-.78-1.3-.052-3.191.312-5.8,1.717-11.8,1.118-17.946.988-26.471v-.646c-.156-13.133-.884-24.38-.39-28.437a5.016,5.016,0,0,0,.442-.374c.754-.609,1.456-1.152,2.159-1.636a2.381,2.381,0,0,1,.208-.147c.234-.147.442-.286.624-.426l.26-.147a46.133,46.133,0,0,1,5.176-2.487,2.984,2.984,0,0,1,.442-.169,32.443,32.443,0,0,1,4.005-.066,46.5,46.5,0,0,1,5.306.58h0a44.728,44.728,0,0,1,7,1.592l.052.022a14.594,14.594,0,0,1,5.488,4.7,23.733,23.733,0,0,1,2.575,4.2" transform="translate(-388.001 474.834)" fill="#fff"/>
        <path id="path186" d="M740.588-255.884a15.609,15.609,0,0,1,.624,3.969,2,2,0,0,1-.858,1.372,12.618,12.618,0,0,1-4.811,1.409,4,4,0,0,0,2.419-3.39c0-1.079-1.17-8.4-.858-13.118s.936-12.223-.234-18.217c-1.2-5.994-2.341-13.9-2.341-13.9l6.736,4.974s.884,1.482,1.847,3.279c-.182,2.054-.338,4.116-.442,6.1-.1,1.247-4.239,18.914-2.081,27.527" transform="translate(-412.247 462.793)" fill="#b1e5ed"/>
        <path id="path188" d="M688.171-367.527s.6,8.613,2.939,9.186,1.743-3.081,1.743-3.081l-.312-4.087-4.369-2.018" transform="translate(-389.515 489.189)" fill="#192c4a"/>
        <path id="path190" d="M706.382-330.472c-4.577-.66-2.887-6.1-2.237-7.344.13-.066.936-.359,1.014-.4v-.015a1.786,1.786,0,0,0,.364-.646,15.932,15.932,0,0,0,.234-4.468v-.536a9.838,9.838,0,0,1,.208-.968l2.419-2.311,5.1-4.879s-1.378,8.173-.286,13.323a2.021,2.021,0,0,0,.676,1.24h.026a.909.909,0,0,0,.494.227c1.248.719-.494,7.872-8.01,6.779" transform="translate(-396.938 483.324)" fill="#f57787"/>
        <path id="path192" d="M712.519-343.684s0,5.444-4.863,7.96a15.63,15.63,0,0,0,.208-4.468l2.029-1.944,2.627-1.548" transform="translate(-399.076 480.166)" fill="#ec4e5e"/>
        <path id="path194" d="M690.366-370.764s1.066,17.872,5.019,19.384c0,0,5.045.587,8.634-5.349,1.066-1.717,2.367-2.1,2.783-4.16.728-3.353,1.716-9.538.442-13.265-1.795-5.312-16.723-9.53-16.879,3.39" transform="translate(-390.589 493.633)" fill="#f57787"/>
        <path id="path196" d="M703.188-379.012a5.114,5.114,0,0,0-2.757-4.461c-2.679-1.526-8.244-.858-13.992.7a4.5,4.5,0,0,1-1.847-.051,2.644,2.644,0,0,0-2.133.2c-1.144.961,0,5.356,0,5.356,2.237,8.173,10.377,5.517,12.822,4.5.572,2.113.494,5.04,1.951,6.552.832.858,2.289.88,3.745.587.156.418.858.785.962,1.357a33.789,33.789,0,0,1,.39,7.2l.7-.411c.078-.616,7.23-21.277.156-21.541" transform="translate(-386.466 495.541)" fill="#192c4a"/>
        <path id="path198" d="M694.826-357.44l-.156.037a3.835,3.835,0,0,1,.052.543,3.051,3.051,0,0,1-.39,1.519,1.286,1.286,0,0,1-.858.734c-.078.007-.156.022-.208.022-.754.007-1.534-.9-1.69-2.186a3.778,3.778,0,0,1-.026-.543,3.047,3.047,0,0,1,.338-1.519,1.365,1.365,0,0,1,.858-.734c.078-.007.156-.022.234-.022.754-.007,1.508.9,1.691,2.186l.156-.037.182-.037c-.208-1.438-1.066-2.524-2.029-2.524a1.259,1.259,0,0,0-.26.015,1.722,1.722,0,0,0-1.118.924,3.638,3.638,0,0,0-.416,1.746,4.944,4.944,0,0,0,.026.616c.234,1.438,1.092,2.524,2.055,2.524a.783.783,0,0,0,.26-.022,1.838,1.838,0,0,0,1.118-.917,3.658,3.658,0,0,0,.39-1.746,4.887,4.887,0,0,0-.026-.616l-.182.037" transform="translate(-390.993 486.339)" fill="#fff"/>
        <path id="path200" d="M704.2-359.191l-.182.044a3.922,3.922,0,0,1,.052.543,3.3,3.3,0,0,1-.364,1.511,1.342,1.342,0,0,1-.884.734.677.677,0,0,1-.208.029c-.728.007-1.508-.888-1.691-2.186a3.9,3.9,0,0,1-.026-.55,3.312,3.312,0,0,1,.338-1.5,1.375,1.375,0,0,1,.884-.741,1.124,1.124,0,0,1,.208-.015c.754-.015,1.534.888,1.69,2.179l.182-.044.156-.037c-.208-1.431-1.04-2.516-2.029-2.524a1.047,1.047,0,0,0-.26.029,1.631,1.631,0,0,0-1.092.917,3.693,3.693,0,0,0-.416,1.739,5.015,5.015,0,0,0,.026.624c.182,1.445,1.04,2.517,2.029,2.524a.922.922,0,0,0,.26-.029,1.747,1.747,0,0,0,1.118-.9,3.727,3.727,0,0,0,.39-1.754,5.014,5.014,0,0,0-.026-.624l-.156.037" transform="translate(-395.587 486.999)" fill="#fff"/>
        <path id="path202" d="M698.326-356.1l-.052-.044.052.051v-.007l-.052-.044.052.051s.13-.22.806-.227a2.764,2.764,0,0,1,.364.029l.026-.426c-.156-.015-.286-.015-.39-.015-.832-.015-1.066.337-1.092.418l.286.213" transform="translate(-394.362 485.094)" fill="#fff"/>
        <path id="path204" d="M707.777-357.459l4.083-.8-.052-.411-4.083.807" transform="translate(-399.097 485.834)" fill="#fff"/>
        <path id="path206" d="M715.26-352.737c2.809,1.306,3.693-7.139,1.014-7.513-2.029-.286-2.107,3.162-2.107,3.162s-.52,3.588,1.092,4.351" transform="translate(-402.217 486.44)" fill="#f57787"/>
        <path id="path208" d="M716.435-353.828s-.026-.066-.078-.176a4.679,4.679,0,0,1-.234-.492c-.078-.213-.13-.47-.208-.763a5.6,5.6,0,0,1-.052-.946,4.706,4.706,0,0,1,.208-.924,2.557,2.557,0,0,1,.416-.682,1.24,1.24,0,0,1,.572-.381,1.88,1.88,0,0,0-.338.6,3.6,3.6,0,0,0-.364,1.409,2.873,2.873,0,0,0-.312.4c-.078.176-.156.323-.156.323l.468.205a5.307,5.307,0,0,0,.026.668c.026.22.052.418.052.543v.22" transform="translate(-403.091 485.65)" fill="#f36272"/>
        <path id="path210" d="M716.419-354.282h0l-.494-.205s.078-.147.182-.338a1.618,1.618,0,0,1,.312-.4,1.473,1.473,0,0,1,.208-.176,1.373,1.373,0,0,1,.624-.227.949.949,0,0,1,.13-.007,1.262,1.262,0,0,1,.156.007.9.9,0,0,0-.26.1.915.915,0,0,0-.494.382,1.211,1.211,0,0,0-.286.58c-.052.169-.078.286-.078.286" transform="translate(-403.128 484.686)" fill="#f36272"/>
        <path id="path212" d="M755.61-270.425v.015c-1.248,1.739-5.93,3.015-8.167.6-.728-.77-1.534-2.8-2.315-5.326-2-6.442-3.9-16.082-3.9-16.082l10.507-6.544s1.352,7.4,2.523,14.409a1.008,1.008,0,0,1,.052.191c.364,2.245.7,4.461.988,6.354l.026.161a33.418,33.418,0,0,1,.286,6.222" transform="translate(-415.532 462.793)" fill="#f57787"/>
        <path id="path214" d="M733.45-310c.988,5.143,4.187,14.886,4.187,14.886a13.957,13.957,0,0,0,7.7-1.13,14.434,14.434,0,0,0,4.889-3.888s-2.081-7.249-3.979-12.458c-1.717-4.666-2.731-6.42-3.459-7.344a18.09,18.09,0,0,0-4.187-3.778L733.45-310" transform="translate(-411.729 472.605)" fill="#fff"/>
        <path id="path216" d="M748.911-307.515l-6.164-3.243-4.863-15.253s.91.337,2.081.91h0a1.328,1.328,0,0,0,.182.073l.078.051c1.04.594,5.1,3.514,7.906,14.123l.078.264c.286,1.225.52,2.2.624,2.707l.026.154.052.213" transform="translate(-413.895 473.48)" fill="#fff"/>
        <path id="path218" d="M738.37-261.773v.007c-.1.932-.286,1.607-.7,1.856l-.962.712a51.271,51.271,0,0,1-6.5,4.1,207.411,207.411,0,0,1-22.73,9.963A39.3,39.3,0,0,0,706.095-249a58.249,58.249,0,0,0,9.831-7.388c4.915-4.563,11.964-10.1,11.964-10.1l1.768-2.553s6.32-7.1,7.334-5.671a.576.576,0,0,0,.052.2c.13.741.624,3.463,1.014,6.354V-268a33.775,33.775,0,0,1,.312,6.229" transform="translate(-398.296 454.143)" fill="#f57787"/>
        <path id="path220" d="M699.989-234.591a3.387,3.387,0,0,1-2.5.587c-.7-.176-.962-.528-1.508-.638a10.065,10.065,0,0,1-2.549-.726c-.676-.4-.962-.448-.936.382s1.378,1.548,1.743,1.783a4.022,4.022,0,0,1,.884,1.064c.026.088-2.263,1.548-2.861,1.255a2.185,2.185,0,0,0-.078,1.042c.1.374.572.506.624.7a2.332,2.332,0,0,0-.026.866c.078.3.52.3.7.785.156.484-.026.492.1,1.005.1.506.65.594.754.858.078.257.026.558.26.748.208.176,2.289-.631,3.017-1.02.754-.389,2.757-3.911,4.967-5.114l-2.6-3.573" transform="translate(-391.464 439.299)" fill="#f57787"/>
        <path id="path222" d="M712.747-209.862H696.778v-1.9h15.969a.887.887,0,0,1,.78.946.89.89,0,0,1-.78.954" transform="translate(-393.734 430.26)" fill="#29608b"/>
        <path id="path224" d="M663.812-232.1h-40a1.153,1.153,0,0,1-1.014-.968l-8.192-35.928a1.213,1.213,0,0,1,.988-1.577h38.673a2.091,2.091,0,0,1,1.925,1.79l8.166,35.8a.669.669,0,0,1-.546.88" transform="translate(-353.436 452.503)" fill="#29608b"/>
        <path id="path226" d="M660.958-232.1h-40a1.129,1.129,0,0,1-1.014-.968l-8.166-35.928a1.186,1.186,0,0,1,.962-1.577h38.673a2.14,2.14,0,0,1,1.95,1.79l8.14,35.8a.669.669,0,0,1-.546.88" transform="translate(-352.061 452.503)" fill="#dd397a"/>
        <path id="path228" d="M397.418-255.284l4.616-5.8a17.84,17.84,0,0,1,.429-3.125,15.281,15.281,0,0,1,1.209-2.781c.338-.22.975,0,.975,0a3.859,3.859,0,0,1,.949-.264,2.379,2.379,0,0,1,.806.323s.7-.059.988-.059.377.1.377.1a25.605,25.605,0,0,1,1.664-2.1c.546-.528,1.378-1.5,1.625-1.5.221,0,.325.5.156,1.027a5.844,5.844,0,0,1-.91,1.387l-2.107,3.9a3.7,3.7,0,0,0,.546-.323c.2-.147,1.5-1.614,1.56-1.673.091-.059.663-.528,1-.059s-2.211,4.189-2.614,4.688a23.019,23.019,0,0,1-2.757,1.944s-2.471,5.414-2.7,5.774-5.813-1.467-5.813-1.467" transform="translate(-246.993 452.466)" fill="#f57789"/>
        <path id="path230" d="M389.413-294.854s-2.575,18.276-5.019,18.7c0,0-9.714.477-11.885-13.911-1.872-12.472,5.657-15.136,9.181-14.182s8.478,1.577,7.724,9.391" transform="translate(-234.638 465.307)" fill="#f57789"/>
        <path id="path232" d="M379.861-269.7s-1.365,2.238-1.847,7.667a12.142,12.142,0,0,1-7.776-1.643,79.778,79.778,0,0,0,2.25-15.957" transform="translate(-233.662 455.939)" fill="#f57789"/>
        <path id="path234" d="M376.149-309.194c-5.306,1.431-4.889,5.466-4.889,5.466-2.484.756-3.03,2-3,7.6s1.678,12.326,2.614,12.876c.9.543,6.1.572,6.528.381s2.263-5.334,1.833-6.229.026-4.468,1.222-4.6.988,2.157.988,2.157l.988-.264.754-2.3c7.022.514,8.843-9.244,8.843-9.244-1.678-1.35-10.572-7.271-15.878-5.84" transform="translate(-232.691 467.201)" fill="#192c4a"/>
        <path id="path236" d="M265.158-110.066l5.377.946-1.775,7.652-5.832-1.79s-2.36-3.914,1.209-6.809a1.638,1.638,0,0,1,1.021,0" transform="translate(-180.69 391.822)" fill="#f57787"/>
        <path id="path238" d="M310.114-159.692l-7.926-29.244s-2.393-1.042-3.622,0c0,0-8.251,5.411-7.36,20.836.657,11.632,2.666,24.244,3.485,29.3l-21.131-.946a10.253,10.253,0,0,0-.91,8.694s26.541,8.705,30.279,9.508c3.036.657,6.365,1.159,7.978-.517,2.822-2.96-.793-37.626-.793-37.626" transform="translate(-185.544 421.8)" fill="#040606"/>
        <path id="path240" d="M314.222-110.066l5.371.946-1.782,7.652L312-103.257s-2.367-3.914,1.209-6.809a1.614,1.614,0,0,1,1.014,0" transform="translate(-204.741 391.822)" fill="#f57787"/>
        <path id="path242" d="M304.22-107.247c-.1,1.5.962,2.861.767,3.236s-3.81,7.766-3.81,7.766,2.731,1.445,2.289,3.536h-6.9a7.62,7.62,0,0,1-1.769-4.824,28.688,28.688,0,0,1,1.716-6.167c1.222-2.9,4.018-9.435,4.018-9.435a3.228,3.228,0,0,1,2.3.055,12.9,12.9,0,0,1,3.342,1.82s-1.665.29-1.951,4.013" transform="translate(-196.678 393.015)" fill="#4075c4"/>
        <path id="path244" d="M371.844-127.935c-1.7-7.751-17.737-40.869-23.16-49.817-11.157-5.9-23.03-10.9-23.03-10.9-4.915,1.427-7.321,13.5-4.551,21.548,1.925,5.521,14.044,19.42,21.469,27.6l-20.6-.033s-2.432,4.424-.234,8.628c0,0,34.265,9.5,37.282,10.04s9.753,0,9.753,0,4.512-.528,3.069-7.065" transform="translate(-209.009 421.518)" fill="#192c4a"/>
        <path id="path246" d="M255.147-107.247c-.124,1.5.956,2.861.761,3.236s-3.81,7.766-3.81,7.766,2.724,1.445,2.289,3.536h-6.905a7.566,7.566,0,0,1-1.756-4.824,28.018,28.018,0,0,1,1.7-6.167c1.229-2.9,4.031-9.435,4.031-9.435a3.2,3.2,0,0,1,2.3.055,12.9,12.9,0,0,1,3.342,1.82s-1.651.29-1.944,4.013" transform="translate(-172.627 393.015)" fill="#4075c4"/>
        <path id="path248" d="M447.839-255.094l-11.053,23.712L428.867-241l-6.541,11.886,1.9,1.115-.676.7s15.266,9.076,17.1,7.073,10.364-32.164,10.364-32.164l-3.173-2.7" transform="translate(-259.198 446.652)" fill="#f57789"/>
        <path id="path250" d="M380-242.145s-2.081,10.741-6.268,15.825l-10.676-4.945s-4.954,10.154-9.792,17.953c-1.873,3.008-2.484,7.241-4.681,7.8a2.533,2.533,0,0,0-.39-.147c-5.943-2.179-14.694.125-21.924-3.147-7.984-3.624-6.437-5.657-6.437-5.657a140.65,140.65,0,0,0,7.594-21.908c1.222-4.974,2.081-9.6,2.64-13.206,1.014-6.383,5.2-11.372,10.494-12.238.065-.015.117-.029.169-.037,6.06-.939,21.9,1.343,24.967,2.949S380-242.145,380-242.145" transform="translate(-208.891 449.295)" fill="#dd397a"/>
        <path id="path252" d="M390.793-213.581s-4.941,10.161-9.792,17.953c-1.86,3.008-2.484,7.249-4.668,7.806.962-.418,2.536-6.566,3.121-7.953.559-1.379,1.469-2.759,3.42-7.594s4.59-11.937,4.59-11.937l3.329,1.724" transform="translate(-236.66 431.601)" fill="#4e8ed2"/>
        <path id="path254" d="M364.346-109.758a3.423,3.423,0,0,1,.468-.092c.286-.037.715-.114,1.222-.136a16.811,16.811,0,0,1,3.745.209,16.287,16.287,0,0,1,1.964.455,12.6,12.6,0,0,1,1.678.605,11.141,11.141,0,0,1,1.157.576c.26.154.416.249.416.249s-.169-.022-.455-.084-.728-.143-1.222-.249c-.988-.2-2.315-.459-3.628-.679-.676-.125-1.339-.209-1.951-.319-.637-.092-1.209-.183-1.729-.26-.988-.165-1.664-.275-1.664-.275" transform="translate(-230.781 391.77)" fill="#040606"/>
        <path id="path256" d="M480.023-271.708a10.163,10.163,0,0,0-1.847,1.636l.624-1.475a13.649,13.649,0,0,0,1.131-1.526c.3-.528.143-1.071-.091-1.1a9.39,9.39,0,0,0-1.743,1.526l.13-.308a14.066,14.066,0,0,0,1.131-1.519c.3-.543.143-1.079-.091-1.1a15.251,15.251,0,0,0-2.159,1.93l-.936,1.526.7-1.673a6.77,6.77,0,0,0,.624-1.152c.247-.609.065-.785-.065-.99s-1.43.983-1.756,1.438a26.959,26.959,0,0,0-1.469,2.641l-1.066,2.729c-.078-.792-.182-2.142-.26-3-.1-1.24-1.04-1.533-1.066-.939a42.1,42.1,0,0,0-.416,5.172c.117,1.614.338,2.671.4,3.58a8.072,8.072,0,0,1-.676,2.7s3.082,2.34,3.589,1.636a30.216,30.216,0,0,0,2.12-3.294,20.782,20.782,0,0,0,1.2-3.309l.962-2.5a15.586,15.586,0,0,0,1.131-1.526c.3-.543.143-1.071-.1-1.1" transform="translate(-283.118 454.543)" fill="#f57789"/>
        <path id="path258" d="M795.908-390.79v-.374H759.862c-2.5,0-4.5,2.458-4.5,5.488v10.389c0,2.788,1.717,5.077,3.927,5.429.156.015.234.176.234.352v5.693a.723.723,0,0,0,.208.521.531.531,0,0,0,.39.191.639.639,0,0,0,.494-.3l3.641-6.266a.309.309,0,0,1,.26-.147h31.391c2.471,0,4.5-2.458,4.5-5.473v-10.389c0-3.03-2.029-5.488-4.5-5.488v.741a3.593,3.593,0,0,1,2.757,1.394,5.439,5.439,0,0,1,1.118,3.353v10.389a5.481,5.481,0,0,1-1.118,3.346,3.609,3.609,0,0,1-2.757,1.387H764.517a.871.871,0,0,0-.754.455l-3.667,6.266.026.029v-.037l-.026.007.026.029v-.007l.026-.022-.026-.007v.029l.026-.022-.026.022h.026v-.022l-.026.022h.026v-5.693a1.063,1.063,0,0,0-.78-1.1c-1.924-.294-3.407-2.274-3.407-4.681v-10.389a5.3,5.3,0,0,1,1.144-3.353,3.553,3.553,0,0,1,2.757-1.394h36.046v-.367" transform="translate(-422.474 498.125)" fill="#fff"/>
        <path id="path260" d="M772.114-375.27H771.8a1.2,1.2,0,0,1-1.066,1.306,1.2,1.2,0,0,1-1.066-1.306,1.2,1.2,0,0,1,1.066-1.313,1.2,1.2,0,0,1,1.066,1.313h.624a1.914,1.914,0,0,0-1.691-2.054,1.915,1.915,0,0,0-1.716,2.054,1.915,1.915,0,0,0,1.716,2.054,1.914,1.914,0,0,0,1.691-2.054h-.312" transform="translate(-429.157 492.887)" fill="#fff"/>
        <path id="path262" d="M785.674-375.27h-.312a1.2,1.2,0,0,1-1.04,1.306,1.238,1.238,0,0,1-1.118-1.306,1.24,1.24,0,0,1,1.118-1.313,1.2,1.2,0,0,1,1.04,1.313h.624a1.9,1.9,0,0,0-1.665-2.054,1.9,1.9,0,0,0-1.69,2.054,1.9,1.9,0,0,0,1.69,2.054,1.9,1.9,0,0,0,1.665-2.054h-.312" transform="translate(-435.821 492.887)" fill="#fff"/>
        <path id="path264" d="M799.314-375.27h-.338a1.2,1.2,0,0,1-1.066,1.306,1.218,1.218,0,0,1-1.066-1.306,1.221,1.221,0,0,1,1.066-1.313,1.2,1.2,0,0,1,1.066,1.313h.624a1.9,1.9,0,0,0-1.69-2.054,1.9,1.9,0,0,0-1.664,2.054,1.9,1.9,0,0,0,1.664,2.054,1.9,1.9,0,0,0,1.69-2.054h-.286" transform="translate(-442.511 492.887)" fill="#fff"/>
        <path id="path266" d="M812.951-375.27h-.338a1.182,1.182,0,0,1-1.066,1.306,1.218,1.218,0,0,1-1.066-1.306,1.221,1.221,0,0,1,1.066-1.313,1.185,1.185,0,0,1,1.066,1.313h.624a1.9,1.9,0,0,0-1.69-2.054,1.914,1.914,0,0,0-1.691,2.054,1.914,1.914,0,0,0,1.691,2.054,1.9,1.9,0,0,0,1.69-2.054h-.286" transform="translate(-449.173 492.887)" fill="#fff"/>
        <path id="path268" d="M826.513-375.27H826.2a1.2,1.2,0,0,1-1.066,1.306,1.2,1.2,0,0,1-1.066-1.306,1.2,1.2,0,0,1,1.066-1.313,1.2,1.2,0,0,1,1.066,1.313h.624a1.9,1.9,0,0,0-1.691-2.054,1.877,1.877,0,0,0-1.664,2.054,1.877,1.877,0,0,0,1.664,2.054,1.9,1.9,0,0,0,1.691-2.054h-.312" transform="translate(-455.862 492.887)" fill="#fff"/>
        <path id="path270" d="M271.533-317.522v.374h36.059a3.563,3.563,0,0,1,2.744,1.387,5.278,5.278,0,0,1,1.144,3.346v10.389c0,2.414-1.482,4.4-3.387,4.7a1.063,1.063,0,0,0-.806,1.1v5.693h.039l-.026-.029-.013.029h.039l-.026-.029.013.015v-.015H307.3l.013.015v.022l.026-.029-.026-.007v.037l.026-.029-3.667-6.266a.885.885,0,0,0-.748-.462H271.533a3.54,3.54,0,0,1-2.744-1.387,5.283,5.283,0,0,1-1.131-3.353v-10.389a5.233,5.233,0,0,1,1.131-3.346,3.563,3.563,0,0,1,2.744-1.387v-.741c-2.49,0-4.486,2.45-4.486,5.473v10.389c0,3.03,2,5.481,4.486,5.481h31.391a.325.325,0,0,1,.254.154l3.674,6.266a.545.545,0,0,0,.462.3.551.551,0,0,0,.4-.191.8.8,0,0,0,.182-.521v-5.693a.362.362,0,0,1,.267-.367c2.211-.337,3.927-2.641,3.927-5.429v-10.389c0-3.023-2.009-5.473-4.5-5.473H271.533v.367" transform="translate(-183.075 470.41)" fill="#fff"/>
        <path id="path272" d="M335.453-302h-.3a1.9,1.9,0,0,0,1.677,2.054,1.9,1.9,0,0,0,1.69-2.054,1.9,1.9,0,0,0-1.69-2.054A1.9,1.9,0,0,0,335.154-302h.6a1.221,1.221,0,0,1,1.079-1.313A1.2,1.2,0,0,1,337.9-302a1.207,1.207,0,0,1-1.066,1.313A1.225,1.225,0,0,1,335.752-302h-.3" transform="translate(-216.462 465.165)" fill="#fff"/>
        <path id="path274" d="M321.854-302h-.312a1.909,1.909,0,0,0,1.69,2.054A1.9,1.9,0,0,0,324.91-302a1.9,1.9,0,0,0-1.678-2.054,1.9,1.9,0,0,0-1.69,2.054h.611a1.212,1.212,0,0,1,1.079-1.313A1.2,1.2,0,0,1,324.3-302a1.207,1.207,0,0,1-1.066,1.313A1.216,1.216,0,0,1,322.153-302h-.3" transform="translate(-209.799 465.165)" fill="#fff"/>
        <path id="path276" d="M308.229-302h-.3a1.9,1.9,0,0,0,1.677,2.054A1.9,1.9,0,0,0,311.3-302a1.9,1.9,0,0,0-1.691-2.054A1.9,1.9,0,0,0,307.93-302h.611a1.211,1.211,0,0,1,1.066-1.313A1.212,1.212,0,0,1,310.686-302a1.216,1.216,0,0,1-1.079,1.313A1.216,1.216,0,0,1,308.541-302h-.312" transform="translate(-203.124 465.165)" fill="#fff"/>
        <path id="path278" d="M294.6-302h-.286a1.891,1.891,0,0,0,1.678,2.054A1.9,1.9,0,0,0,297.672-302a1.9,1.9,0,0,0-1.677-2.054A1.886,1.886,0,0,0,294.317-302h.6a1.212,1.212,0,0,1,1.079-1.313A1.211,1.211,0,0,1,297.061-302a1.216,1.216,0,0,1-1.066,1.313A1.216,1.216,0,0,1,294.915-302H294.6" transform="translate(-196.447 465.165)" fill="#fff"/>
        <path id="path280" d="M281-302h-.3a1.9,1.9,0,0,0,1.677,2.054A1.9,1.9,0,0,0,284.073-302a1.9,1.9,0,0,0-1.691-2.054A1.9,1.9,0,0,0,280.7-302h.611a1.211,1.211,0,0,1,1.066-1.313A1.23,1.23,0,0,1,283.474-302a1.235,1.235,0,0,1-1.092,1.313A1.216,1.216,0,0,1,281.316-302H281" transform="translate(-189.772 465.165)" fill="#fff"/>
        <path id="path282" d="M633.637-438.872H567.891c-3.641,0-6.58-3.58-6.58-8h0c0-4.431,2.939-8.012,6.58-8.012h65.747c3.589,0,6.554,3.58,6.554,8.012h0c0,4.417-2.965,8-6.554,8" transform="translate(-327.341 522.223)" fill="#f5f5f5"/>
        <path id="path284" d="M633.3-439.1v-.367H567.58a5.792,5.792,0,0,1-4.447-2.245,8.58,8.58,0,0,1-1.821-5.385h0a8.665,8.665,0,0,1,1.821-5.415,5.777,5.777,0,0,1,4.447-2.23H633.3a5.777,5.777,0,0,1,4.447,2.23,8.664,8.664,0,0,1,1.821,5.415h0a8.579,8.579,0,0,1-1.821,5.385,5.792,5.792,0,0,1-4.447,2.245v.748c3.823,0,6.892-3.756,6.892-8.379h0c0-4.637-3.069-8.379-6.892-8.379H567.58c-3.8,0-6.866,3.742-6.866,8.379h0c0,4.622,3.069,8.379,6.866,8.379H633.3v-.381" transform="translate(-327.036 522.454)" fill="#dd397a"/>
        <path id="path286" d="M694.011-445.894h-.6a3.828,3.828,0,0,1-.858,2.509,2.563,2.563,0,0,1-2.029,1.057,2.623,2.623,0,0,1-2.081-1.057,3.827,3.827,0,0,1-.858-2.509,3.9,3.9,0,0,1,.858-2.524,2.651,2.651,0,0,1,2.081-1.042,2.591,2.591,0,0,1,2.029,1.042,3.9,3.9,0,0,1,.858,2.524h1.144c0-2.744-1.821-4.96-4.031-4.96-2.263,0-4.083,2.216-4.083,4.96s1.821,4.945,4.083,4.945c2.211,0,4.031-2.216,4.031-4.945h-.546" transform="translate(-388.665 520.7)" fill="#dd397a"/>
        <path id="path288" d="M698.308-437.982l1.924,2.348a.519.519,0,0,0,.832,0,.852.852,0,0,0,0-.983l-1.951-2.348a.509.509,0,0,0-.806,0,.776.776,0,0,0,0,.983" transform="translate(-394.405 516.282)" fill="#dd397a"/>
        <path id="path290" d="M486.85-98.941H470.322c-2.9,0-5.241-2.861-5.241-6.39V-125.5c0-3.529,2.341-6.39,5.241-6.39H486.85c2.9,0,5.24,2.861,5.24,6.39v20.169c0,3.529-2.341,6.39-5.24,6.39" transform="translate(-280.156 400.044)" fill="#fff"/>
        <path id="path292" d="M477.2-98.941H460.663c-2.887,0-5.24-2.861-5.24-6.39V-125.5c0-3.529,2.354-6.39,5.24-6.39H477.2c2.9,0,5.241,2.861,5.241,6.39v20.169c0,3.529-2.341,6.39-5.241,6.39" transform="translate(-275.422 400.044)" fill="#dd397a"/>
        <path id="path294" d="M474.628-115.468l7.763,5.462a.979.979,0,0,1,0,1.519l-7.763,5.459c-.468.337-1.079-.084-1.079-.759v-10.921c0-.671.611-1.1,1.079-.759" transform="translate(-284.308 393.878)" fill="#fff"/>
        <path id="path296" d="M815.986-105.1H794.348c-3.771,0-6.814-3.742-6.814-8.353v-26.368c0-4.611,3.043-8.349,6.814-8.349h21.638c3.771,0,6.84,3.738,6.84,8.349v26.368c0,4.611-3.069,8.353-6.84,8.353" transform="translate(-438.237 406.206)" fill="#fff"/>
        <path id="path298" d="M803.386-105.1H781.748c-3.771,0-6.84-3.742-6.84-8.353v-26.368c0-4.611,3.069-8.349,6.84-8.349h21.638c3.771,0,6.84,3.738,6.84,8.349v26.368c0,4.611-3.069,8.353-6.84,8.353" transform="translate(-432.048 406.206)" fill="#dd397a"/>
        <path id="path300" d="M809.728-134.327c0,2.861-1.9,5.176-4.239,5.176s-4.265-2.315-4.265-5.176,1.925-5.172,4.265-5.172,4.239,2.315,4.239,5.172" transform="translate(-444.953 402.925)" fill="#fff"/>
        <path id="path302" d="M809.906-109.556v7.638a1.163,1.163,0,0,1-1.04,1.251H793.21a1.162,1.162,0,0,1-1.014-1.251v-7.638c0-5.961,3.953-10.789,8.843-10.789s8.868,4.828,8.868,10.789" transform="translate(-440.509 395.679)" fill="#fff"/>
        <path id="path304" d="M640.261-415.847H626.373a1.174,1.174,0,0,1-1.04-1.262h0a1.179,1.179,0,0,1,1.04-1.277h13.888a1.179,1.179,0,0,1,1.04,1.277h0a1.174,1.174,0,0,1-1.04,1.262" transform="translate(-358.715 508.425)" fill="#ebf1fa"/>
        <path id="path306" d="M671.214-415.847H661.175a1.193,1.193,0,0,1-1.066-1.262h0a1.2,1.2,0,0,1,1.066-1.277h10.039a1.161,1.161,0,0,1,1.04,1.277h0a1.156,1.156,0,0,1-1.04,1.262" transform="translate(-375.765 508.425)" fill="#ebf1fa"/>
        <path id="path308" d="M632.3-406.847h-5.9a1.17,1.17,0,0,1-1.066-1.262h0a1.18,1.18,0,0,1,1.066-1.277h5.9a1.179,1.179,0,0,1,1.04,1.277h0a1.169,1.169,0,0,1-1.04,1.262" transform="translate(-358.715 505.02)" fill="#ebf1fa"/>
        <path id="path310" d="M663.178-406.847H644.817a1.151,1.151,0,0,1-1.04-1.262h0a1.161,1.161,0,0,1,1.04-1.277h18.361a1.179,1.179,0,0,1,1.04,1.277h0a1.169,1.169,0,0,1-1.04,1.262" transform="translate(-367.772 505.02)" fill="#ebf1fa"/>
        <path id="path312" d="M644.683-397.832H626.373a1.184,1.184,0,0,1-1.04-1.277h0a1.179,1.179,0,0,1,1.04-1.277h18.309a1.18,1.18,0,0,1,1.066,1.277h0a1.184,1.184,0,0,1-1.066,1.277" transform="translate(-358.715 501.614)" fill="#ebf1fa"/>
        <path id="path314" d="M675.193-397.832h-5.93a1.184,1.184,0,0,1-1.014-1.277h0a1.179,1.179,0,0,1,1.014-1.277h5.93a1.179,1.179,0,0,1,1.04,1.277h0a1.184,1.184,0,0,1-1.04,1.277" transform="translate(-379.761 501.614)" fill="#ebf1fa"/>
        <path id="path316" d="M260.586-227.245H212.115a2.925,2.925,0,0,1-2.594-3.169V-260.26a2.93,2.93,0,0,1,2.594-3.17h48.471a2.93,2.93,0,0,1,2.6,3.17v29.846a2.925,2.925,0,0,1-2.6,3.169" transform="translate(-154.881 449.802)" fill="#dd397a"/>
        <path id="path318" d="M213.7-255.425h49.1a.334.334,0,0,0,.306-.367.337.337,0,0,0-.306-.374H213.7a.341.341,0,0,0-.306.374.339.339,0,0,0,.306.367" transform="translate(-156.777 447.059)" fill="#fff"/>
        <path id="path320" d="M307.79-260.009a.665.665,0,0,1-.6.726.655.655,0,0,1-.572-.726.66.66,0,0,1,.572-.726.669.669,0,0,1,.6.726" transform="translate(-202.484 448.785)" fill="#fff"/>
        <path id="path322" d="M301.719-260.009a.665.665,0,0,1-.6.726.664.664,0,0,1-.585-.726.669.669,0,0,1,.585-.726.669.669,0,0,1,.6.726" transform="translate(-199.496 448.785)" fill="#fff"/>
        <path id="path324" d="M295.649-260.009a.674.674,0,0,1-.6.726.674.674,0,0,1-.6-.726.679.679,0,0,1,.6-.726.679.679,0,0,1,.6.726" transform="translate(-196.51 448.785)" fill="#fff"/>
        <path id="path326" d="M223.156-248.954h-8.335a.928.928,0,0,1-.826-1.005.925.925,0,0,1,.826-1h8.335a.921.921,0,0,1,.819,1,.923.923,0,0,1-.819,1.005" transform="translate(-157.076 445.087)" fill="#ebf1fa"/>
        <path id="path328" d="M223.156-241.5h-8.335a.933.933,0,0,1-.826-1.005.933.933,0,0,1,.826-1.005h8.335a.928.928,0,0,1,.819,1.005.928.928,0,0,1-.819,1.005" transform="translate(-157.076 442.27)" fill="#ebf1fa"/>
        <path id="path330" d="M223.156-234.066h-8.335a.925.925,0,0,1-.826-1,.928.928,0,0,1,.826-1.005h8.335a.923.923,0,0,1,.819,1.005.92.92,0,0,1-.819,1" transform="translate(-157.076 439.457)" fill="#ebf1fa"/>
        <path id="path332" d="M223.156-226.62h-8.335a.928.928,0,0,1-.826-1.005.925.925,0,0,1,.826-1h8.335a.921.921,0,0,1,.819,1,.923.923,0,0,1-.819,1.005" transform="translate(-157.076 436.638)" fill="#ebf1fa"/>
        <path id="path334" d="M223.156-219.177h-8.335a.925.925,0,0,1-.826-1h0a.928.928,0,0,1,.826-1.005h8.335a.923.923,0,0,1,.819,1.005h0a.921.921,0,0,1-.819,1" transform="translate(-157.076 433.821)" fill="#ebf1fa"/>
        <path id="path336" d="M223.156-211.732h-8.335a.933.933,0,0,1-.826-1.005.925.925,0,0,1,.826-1h8.335a.921.921,0,0,1,.819,1,.928.928,0,0,1-.819,1.005" transform="translate(-157.076 431.008)" fill="#ebf1fa"/>
        <path id="path338" d="M273.391-248.954h-35.91a.923.923,0,0,1-.819-1.005.92.92,0,0,1,.819-1h35.91a.921.921,0,0,1,.819,1,.923.923,0,0,1-.819,1.005" transform="translate(-168.185 445.087)" fill="#ebf1fa"/>
        <path id="path340" d="M273.391-241.5h-35.91a.928.928,0,0,1-.819-1.005.928.928,0,0,1,.819-1.005h35.91a.928.928,0,0,1,.819,1.005.928.928,0,0,1-.819,1.005" transform="translate(-168.185 442.27)" fill="#ebf1fa"/>
        <path id="path342" d="M273.391-234.066h-35.91a.92.92,0,0,1-.819-1,.923.923,0,0,1,.819-1.005h35.91a.923.923,0,0,1,.819,1.005.921.921,0,0,1-.819,1" transform="translate(-168.185 439.457)" fill="#ebf1fa"/>
        <path id="path344" d="M273.391-226.62h-35.91a.923.923,0,0,1-.819-1.005.921.921,0,0,1,.819-1h35.91a.921.921,0,0,1,.819,1,.923.923,0,0,1-.819,1.005" transform="translate(-168.185 436.638)" fill="#ebf1fa"/>
        <path id="path346" d="M273.391-219.177h-35.91a.92.92,0,0,1-.819-1h0a.923.923,0,0,1,.819-1.005h35.91a.923.923,0,0,1,.819,1.005h0a.921.921,0,0,1-.819,1" transform="translate(-168.185 433.821)" fill="#ebf1fa"/>
        <path id="path348" d="M273.391-211.732h-35.91a.928.928,0,0,1-.819-1.005.92.92,0,0,1,.819-1h35.91a.921.921,0,0,1,.819,1,.928.928,0,0,1-.819,1.005" transform="translate(-168.185 431.008)" fill="#ebf1fa"/>
        <path id="path350" d="M761.757-535.942h-.286A29.649,29.649,0,0,1,755.1-517.13c-3.953,4.828-9.415,7.792-15.449,7.792-6.008,0-11.469-2.964-15.422-7.792a29.665,29.665,0,0,1-6.4-18.811,29.768,29.768,0,0,1,6.4-18.826c3.953-4.828,9.415-7.792,15.422-7.792,6.034,0,11.5,2.964,15.449,7.792a29.751,29.751,0,0,1,6.372,18.826h.546c0-15.07-9.987-27.263-22.367-27.263-12.354,0-22.366,12.194-22.366,27.263s10.013,27.263,22.366,27.263c12.38,0,22.367-12.208,22.367-27.263h-.26" transform="translate(-403.804 563.205)" fill="#d7dcf2"/>
        <path id="path352" d="M761.885-533.6c0,12.957-8.582,23.419-19.193,23.419s-19.22-10.462-19.22-23.419c0-12.927,8.608-23.419,19.22-23.419s19.193,10.492,19.193,23.419" transform="translate(-406.822 560.87)" fill="#dd397a"/>
        <path id="path354" d="M761.207-520.627a1.965,1.965,0,0,1-1.742,2.128,1.965,1.965,0,0,1-1.743-2.128,1.98,1.98,0,0,1,1.743-2.142,1.98,1.98,0,0,1,1.742,2.142" transform="translate(-423.615 547.916)" fill="#fff"/>
        <path id="path356" d="M754.575-528.337h0a.5.5,0,0,1-.754-.249l-5.644-12.443a.733.733,0,0,1,.208-.9.505.505,0,0,1,.754.249l5.644,12.443a.723.723,0,0,1-.208.9" transform="translate(-418.898 555.183)" fill="#fff"/>
        <path id="path358" d="M761.559-518.911h0a.458.458,0,0,1,.754,0l4.889,5.957a.716.716,0,0,1,0,.939h0a.468.468,0,0,1-.78,0l-4.863-5.972a.7.7,0,0,1,0-.924" transform="translate(-425.423 546.53)" fill="#fff"/>
        <path id="path360" d="M761.4-551.658v-2.685a.767.767,0,0,0-.7-.822.747.747,0,0,0-.65.822v2.685a.762.762,0,0,0,.65.836.781.781,0,0,0,.7-.836" transform="translate(-424.747 560.172)" fill="#fff"/>
        <path id="path362" d="M790.706-518.769h2.185a.786.786,0,0,0,.676-.851.766.766,0,0,0-.676-.822h-2.185a.787.787,0,0,0-.728.822.805.805,0,0,0,.728.851" transform="translate(-439.437 547.019)" fill="#fff"/>
        <path id="path364" d="M759.587-489.691v2.7a.767.767,0,0,0,.7.822.766.766,0,0,0,.676-.822v-2.7a.766.766,0,0,0-.676-.822.767.767,0,0,0-.7.822" transform="translate(-424.529 535.708)" fill="#fff"/>
        <path id="path366" d="M728.212-520.9h-2.185a.8.8,0,0,0-.7.851.8.8,0,0,0,.7.822h2.185a.757.757,0,0,0,.676-.822.768.768,0,0,0-.676-.851" transform="translate(-407.749 547.205)" fill="#fff"/>
        <path id="path368" d="M744.866-546.838a.357.357,0,0,1-.286-.205l-1.092-2.333a.481.481,0,0,1,.1-.558.3.3,0,0,1,.182-.059.325.325,0,0,1,.286.205l1.092,2.318a.461.461,0,0,1-.1.572.253.253,0,0,1-.182.059" transform="translate(-416.622 558.21)" fill="#8189cd"/>
        <path id="path370" d="M787.058-534.865a.3.3,0,0,1-.286-.205.44.44,0,0,1,.13-.572l1.9-1.35a.232.232,0,0,1,.156-.059.351.351,0,0,1,.312.22.459.459,0,0,1-.13.543l-1.9,1.365a.358.358,0,0,1-.182.059" transform="translate(-437.836 553.321)" fill="#8189cd"/>
        <path id="path372" d="M776.805-490.6a.325.325,0,0,1-.286-.205l-1.118-2.333a.509.509,0,0,1,.13-.572.44.44,0,0,1,.182-.059.342.342,0,0,1,.286.22l1.092,2.318a.44.44,0,0,1-.13.572c-.026.044-.078.059-.156.059" transform="translate(-432.261 536.94)" fill="#8189cd"/>
        <path id="path374" d="M730.822-502.954a.325.325,0,0,1-.286-.205.558.558,0,0,1,.1-.572l1.925-1.35a.342.342,0,0,1,.182-.044c.13,0,.208.073.286.205a.475.475,0,0,1-.1.557l-1.951,1.35a.2.2,0,0,1-.156.059" transform="translate(-410.265 541.231)" fill="#8189cd"/>
        <path id="path376" d="M732.968-535.281a.281.281,0,0,1-.182-.044l-1.9-1.365a.441.441,0,0,1-.1-.558.278.278,0,0,1,.286-.205.232.232,0,0,1,.156.059l1.924,1.335a.473.473,0,0,1,.1.572.281.281,0,0,1-.286.205" transform="translate(-410.374 553.465)" fill="#8189cd"/>
        <path id="path378" d="M776.1-546.608a.193.193,0,0,1-.156-.059.436.436,0,0,1-.13-.572l1.092-2.318a.357.357,0,0,1,.286-.205.253.253,0,0,1,.182.059.487.487,0,0,1,.13.557l-1.118,2.333a.3.3,0,0,1-.286.206" transform="translate(-432.466 558.127)" fill="#8189cd"/>
        <path id="path380" d="M788.746-502.555c-.078,0-.13-.015-.156-.059l-1.924-1.35a.455.455,0,0,1-.13-.558.328.328,0,0,1,.286-.205.342.342,0,0,1,.182.044l1.9,1.35a.466.466,0,0,1,.13.572.3.3,0,0,1-.286.205" transform="translate(-437.728 541.08)" fill="#8189cd"/>
        <path id="path382" d="M743.388-490.833a.206.206,0,0,1-.156-.059.415.415,0,0,1-.13-.572l1.092-2.333a.325.325,0,0,1,.286-.205.358.358,0,0,1,.182.059.539.539,0,0,1,.13.558l-1.118,2.333a.319.319,0,0,1-.286.22" transform="translate(-416.416 537.024)" fill="#8189cd"/>
        <path id="path384" d="M216.625-328.889H192.354c-3.589,0-6.5-3.551-6.5-7.931v-29.589c0-4.373,2.906-7.931,6.5-7.931h24.271c3.589,0,6.5,3.558,6.5,7.931v29.589c0,4.38-2.913,7.931-6.5,7.931" transform="translate(-143.281 491.765)" fill="#ebf1fa"/>
        <path id="path386" d="M212.252-335.215H185.406c-2.88,0-5.214-2.847-5.214-6.354v-32.737c0-3.514,2.334-6.368,5.214-6.368h26.846c2.88,0,5.208,2.854,5.208,6.368v32.737c0,3.507-2.328,6.354-5.208,6.354" transform="translate(-140.504 494.155)" fill="#dd397a"/>
        <path id="path388" d="M211.924-335.471v-.418H185.071a4.46,4.46,0,0,1-3.446-1.739,6.664,6.664,0,0,1-1.424-4.2v-32.744a6.679,6.679,0,0,1,1.424-4.2,4.506,4.506,0,0,1,3.446-1.739h26.853a4.483,4.483,0,0,1,3.439,1.739,6.645,6.645,0,0,1,1.43,4.2v32.744a6.63,6.63,0,0,1-1.43,4.2,4.438,4.438,0,0,1-3.439,1.739v.836c3.062,0,5.546-3.037,5.546-6.779v-32.744c0-3.742-2.484-6.764-5.546-6.764H185.071c-3.062,0-5.546,3.023-5.546,6.764v32.744c0,3.742,2.484,6.779,5.546,6.779h26.853v-.418" transform="translate(-140.172 494.409)" fill="#d7dcf2"/>
        <path id="path390" d="M203.946-361.4c0-3.192,2.133-5.781,4.746-5.781s4.746,2.59,4.746,5.781v2.6h-9.493Zm11.294,2.6h-.189v-2.6c0-4.27-2.854-7.748-6.359-7.748s-6.352,3.478-6.352,7.748v2.6H202.3a2.012,2.012,0,0,0-1.788,2.179v9.809a2.005,2.005,0,0,0,1.788,2.172h12.939a2.005,2.005,0,0,0,1.788-2.172v-9.809a2.012,2.012,0,0,0-1.788-2.179" transform="translate(-150.462 489.796)" fill="#d7dcf2"/>
        <path id="path392" d="M216.829-345.918c0-1.563-1.17-2.8-2.5-2.472a2.34,2.34,0,0,0-1.6,1.937,2.75,2.75,0,0,0,.982,2.715.527.527,0,0,1,.189.514l-.364,1.621a1.483,1.483,0,0,0,1.2,1.915,1.48,1.48,0,0,0,1.2-1.915l-.358-1.614a.488.488,0,0,1,.2-.506,2.664,2.664,0,0,0,1.053-2.194" transform="translate(-156.43 481.963)" fill="#6d7ac5"/>
        <path id="path394" d="M216.26-325.312H201.273a.851.851,0,0,1-.761-.924.856.856,0,0,1,.761-.939H216.26a.861.861,0,0,1,.767.939.856.856,0,0,1-.767.924" transform="translate(-150.462 473.919)" fill="#d7dcf2"/>
        <path id="path396" d="M216.26-320.228H201.273a.851.851,0,0,1-.761-.924.866.866,0,0,1,.761-.939H216.26a.87.87,0,0,1,.767.939.856.856,0,0,1-.767.924" transform="translate(-150.462 471.999)" fill="#d7dcf2"/>
        <path id="path398" d="M804.692-231.567h-14.3c-2.107,0-3.823-2.1-3.823-4.674v-17.425c0-2.575,1.717-4.666,3.823-4.666h14.3c2.107,0,3.823,2.091,3.823,4.666v17.425c0,2.575-1.717,4.674-3.823,4.674" transform="translate(-437.755 447.876)" fill="#fff"/>
        <path id="path400" d="M802.136-235.3H786.3c-1.69,0-3.069-1.68-3.069-3.742v-19.281c0-2.069,1.378-3.742,3.069-3.742h15.839c1.664,0,3.043,1.673,3.043,3.742v19.281c0,2.062-1.378,3.742-3.043,3.742" transform="translate(-436.126 449.285)" fill="#dd397a"/>
        <path id="path402" d="M801.781-235.552v-.411H785.942a2.559,2.559,0,0,1-1.924-.976,3.725,3.725,0,0,1-.78-2.355v-19.281a3.7,3.7,0,0,1,.78-2.348,2.543,2.543,0,0,1,1.924-.983h15.839a2.5,2.5,0,0,1,1.925.983,3.721,3.721,0,0,1,.806,2.348v19.281a3.742,3.742,0,0,1-.806,2.355,2.518,2.518,0,0,1-1.925.976v.822c1.873,0,3.407-1.864,3.407-4.153v-19.281c0-2.289-1.534-4.153-3.407-4.153H785.942c-1.846,0-3.381,1.864-3.381,4.153v19.281c0,2.289,1.534,4.153,3.381,4.153h15.839v-.411" transform="translate(-435.8 449.539)" fill="#d7dcf2"/>
        <path id="path404" d="M795.4-237.406a.81.81,0,0,1-.208-.029.856.856,0,0,1-.442-1.027l3.3-14.329a.667.667,0,0,1,.832-.572.912.912,0,0,1,.494,1.027l-3.329,14.329a.743.743,0,0,1-.65.6" transform="translate(-441.765 446.008)" fill="#fff"/>
        <path id="path406" d="M806.3-237.406a1.088,1.088,0,0,1-.182-.029.912.912,0,0,1-.494-1.027l3.329-14.329a.7.7,0,0,1,.858-.572.869.869,0,0,1,.468,1.027l-3.329,14.329a.7.7,0,0,1-.65.6" transform="translate(-447.089 446.008)" fill="#fff"/>
        <path id="path408" d="M804.327-245.436H792.572a.768.768,0,0,1-.676-.829.768.768,0,0,1,.676-.829h11.755a.768.768,0,0,1,.676.829.768.768,0,0,1-.676.829" transform="translate(-440.38 443.627)" fill="#fff"/>
        <path id="path410" d="M804.327-234.91H792.572a.773.773,0,0,1-.676-.829.773.773,0,0,1,.676-.829h11.755a.773.773,0,0,1,.676.829.773.773,0,0,1-.676.829" transform="translate(-440.38 439.645)" fill="#fff"/>
        <path id="path412" d="M293.432-353.391h-8.491a1.052,1.052,0,0,1-.936-1.137,1.048,1.048,0,0,1,.936-1.137h8.491a1.038,1.038,0,0,1,.923,1.137,1.043,1.043,0,0,1-.923,1.137" transform="translate(-191.389 484.701)" fill="#ebf1fa"/>
        <path id="path414" d="M301.989-345.281H284.941a1.052,1.052,0,0,1-.936-1.137,1.052,1.052,0,0,1,.936-1.137h17.048a1.052,1.052,0,0,1,.936,1.137,1.052,1.052,0,0,1-.936,1.137" transform="translate(-191.389 481.625)" fill="#ebf1fa"/>
        <path id="path416" d="M286.943-337.169h-2a1.047,1.047,0,0,1-.936-1.137,1.048,1.048,0,0,1,.936-1.137h2a1.048,1.048,0,0,1,.949,1.137,1.048,1.048,0,0,1-.949,1.137" transform="translate(-191.389 478.557)" fill="#ebf1fa"/>
        <path id="path418" d="M306.96-337.169H295.088a1.047,1.047,0,0,1-.923-1.137,1.047,1.047,0,0,1,.923-1.137H306.96a1.057,1.057,0,0,1,.949,1.137,1.057,1.057,0,0,1-.949,1.137" transform="translate(-196.368 478.557)" fill="#ebf1fa"/>
        <path id="path420" d="M313.441-353.391h-5.15a1.061,1.061,0,0,1-.936-1.137,1.057,1.057,0,0,1,.936-1.137h5.15a1.057,1.057,0,0,1,.936,1.137,1.061,1.061,0,0,1-.936,1.137" transform="translate(-202.841 484.701)" fill="#ebf1fa"/>
        <path id="path422" d="M204.725-106.343a5.119,5.119,0,0,0-3.023,1.012c-.358-3.87-3.049-6.875-6.313-6.875-3.5,0-6.352,3.47-6.352,7.748q0,.435.039.847a4.066,4.066,0,0,0-.9-.1c-2.685,0-4.857,2.652-4.857,5.917s2.172,5.917,4.857,5.917h16.547c3.277,0,5.936-3.239,5.936-7.234s-2.659-7.23-5.936-7.23" transform="translate(-142.036 392.599)" fill="#fff"/>
        <path id="path424" d="M127.093-179.254a9.288,9.288,0,0,1,.081-3.258,39.018,39.018,0,0,0-.3-17.52c-3.173-12.091-16.043-22.8-16.043-22.8s3.495,17.843,6.365,25.444a100.186,100.186,0,0,0,7.822,15.216,8.481,8.481,0,0,1,1.125,3.133,158.032,158.032,0,0,1,1.768,25.077l.966.044a159.167,159.167,0,0,0-1.788-25.334" transform="translate(-106.501 434.449)" fill="#d7dcf2"/>
        <path id="path426" d="M154.239-184.091a167.824,167.824,0,0,0,3.745-21.467s-11.534,11.607-12.477,20.6a36.361,36.361,0,0,0,.78,12.5,10.162,10.162,0,0,1,.273,3.4,146.27,146.27,0,0,0-.241,23.514l.871-.125a141.86,141.86,0,0,1,.137-22.069,9.843,9.843,0,0,1,1.586-4.659,39.709,39.709,0,0,0,5.325-11.7" transform="translate(-123.39 427.912)" fill="#a7b9e4"/>
        <path id="path428" d="M167.67-206.3s-12.432,5.62-15.689,18a40.038,40.038,0,0,0-.267,18.107,7.568,7.568,0,0,1,0,3.081,168.3,168.3,0,0,0-2.958,29.193h.988a166.917,166.917,0,0,1,2.861-28.555,11.906,11.906,0,0,1,1.469-3.844,101.116,101.116,0,0,0,7.822-15.282c2.939-7.777,5.774-20.7,5.774-20.7" transform="translate(-125.093 428.191)" fill="#d7dcf2"/>
        <path id="path430" d="M122.972-148.816a49.5,49.5,0,0,0-2.871-13.76,5.655,5.655,0,0,1-.289-2.491,27.448,27.448,0,0,0-.293-7.4c-1-6.067-7.617-19.2-17.188-19.963a93.155,93.155,0,0,1,5,11.889c2.149,6.856,5.218,14.028,10.309,16.779a4.4,4.4,0,0,1,1.97,2.491,48.164,48.164,0,0,1,2.49,12.535l.871-.077" transform="translate(-102.332 422.949)" fill="#a7b9e4"/>
        <path id="path432" d="M126.167-99.666H141.96l4.1-30.543a2.127,2.127,0,0,0-1.8-2.583h-20.4a2.129,2.129,0,0,0-1.8,2.583l4.1,30.543" transform="translate(-111.995 400.386)" fill="#d7dcf2"/>
      </g>
    </g>
  </g>
</svg>
