<svg xmlns="http://www.w3.org/2000/svg" xmlns:xlink="http://www.w3.org/1999/xlink" width="100" height="100" viewBox="0 0 100 100">
  <defs>
    <clipPath id="clip-path">
      <rect id="Rectangle_194" data-name="Rectangle 194" width="100" height="100" transform="translate(0 0)" fill="#fff"/>
    </clipPath>
  </defs>
  <g id="Mask_Group_45" data-name="Mask Group 45" clip-path="url(#clip-path)">
    <g id="MongoDB_Logo" transform="translate(0 36.79)">
      <path id="Path_778" data-name="Path 778" d="M13.371,11.793c-1.392-6.14-4.293-7.775-5.033-8.93a13.143,13.143,0,0,1-.809-1.584,1.612,1.612,0,0,1-.575,1.3A14.722,14.722,0,0,0,1.737,13.61c-.31,6.5,4.782,10.516,5.455,10.93a1.5,1.5,0,0,0,1.455-.228,12.667,12.667,0,0,0,4.727-12.519" transform="translate(-1.724 -1.279)" fill="#10aa50"/>
      <path id="Path_779" data-name="Path 779" d="M18.682,60.672a13.373,13.373,0,0,1-.545,3.466s.214,1.533.364,3.156h.531a29.522,29.522,0,0,1,.579-3.4C18.923,63.557,18.709,62.085,18.682,60.672Z" transform="translate(-12.666 -40.875)" fill="#b8c4c2"/>
      <path id="Path_780" data-name="Path 780" d="M20.4,24.577h0c-.695-.321-.9-1.824-.926-3.224a65.987,65.987,0,0,0,.15-6.941c-.036-1.215.017-11.249-.3-12.718a12.209,12.209,0,0,0,.746,1.445c.74,1.156,3.642,2.791,5.033,8.931A12.661,12.661,0,0,1,20.4,24.577Z" transform="translate(-13.46 -1.555)" fill="#12924f"/>
      <path id="Path_781" data-name="Path 781" d="M294.181,57.65a1.508,1.508,0,1,1,1.508-1.529,1.489,1.489,0,0,1-1.508,1.529m0-2.88a1.373,1.373,0,1,0,1.364,1.376,1.35,1.35,0,0,0-1.364-1.376m.364,2.326-.389-.839h-.314V57.1h-.228V55.187h.563c.419,0,.594.182.594.534a.464.464,0,0,1-.377.508l.4.865Zm-.694-1.036h.33c.267,0,.369-.091.369-.335s-.1-.326-.4-.326h-.3Z" transform="translate(-195.69 -36.849)" fill="#21313c"/>
      <path id="Path_782" data-name="Path 782" d="M221.366,38.2a3.463,3.463,0,0,0,1.943.461,3.782,3.782,0,0,0,2.738-.979,5.208,5.208,0,0,0,1.535-4.11,4.891,4.891,0,0,0-2.253-4.436,6.026,6.026,0,0,0-3.225-.749,2.677,2.677,0,0,0-.951.115.5.5,0,0,0-.175.273c-.038.345-.038,2.976-.038,4.532,0,1.595,0,3.818.038,4.091a1.177,1.177,0,0,0,.388.806M217.49,27.527c.33,0,1.585.057,2.168.057,1.091,0,1.845-.057,3.884-.057a6.287,6.287,0,0,1,4.176,1.344,5.592,5.592,0,0,1,1.909,4.4,5.708,5.708,0,0,1-2.37,4.936,7.841,7.841,0,0,1-4.909,1.383c-1.165,0-3.166-.038-4.836-.057h-.035c-.078-.154.143-.753.279-.768a2.47,2.47,0,0,0,.784-.155c.353-.145.435-.325.475-.958.058-1.191.039-2.612.039-4.226,0-1.152.019-3.4-.019-4.11-.059-.595-.31-.748-.818-.864a10.567,10.567,0,0,0-1.091-.173c-.038-.115.26-.636.357-.749" transform="translate(-145.322 -18.778)" fill="#21313c"/>
      <path id="Path_783" data-name="Path 783" d="M261.4,28.569c-.077.019-.175.212-.175.307-.02.692-.039,2.5-.039,3.745a.124.124,0,0,0,.1.1c.252.019.874.039,1.4.039a3.322,3.322,0,0,0,1.4-.212,1.811,1.811,0,0,0,.909-1.709c0-1.671-1.165-2.3-2.894-2.3a5.214,5.214,0,0,0-.7.038m4.409,7.682c0-1.69-1.244-2.65-3.516-2.65a8.877,8.877,0,0,0-.99.019c-.058.019-.116.057-.116.1,0,1.21-.02,3.149.039,3.917a1.3,1.3,0,0,0,.563.922,3.907,3.907,0,0,0,1.5.211,2.334,2.334,0,0,0,2.526-2.516m-7.915-8.623c.175,0,.692.057,2.013.057,1.243,0,2.253-.038,3.455-.038,1.5,0,3.554.538,3.554,2.766a2.7,2.7,0,0,1-1.786,2.4c-.058.019-.058.057,0,.076,1.437.364,2.7,1.248,2.7,2.938A3.592,3.592,0,0,1,265.3,39.17a8.015,8.015,0,0,1-3.182.537c-.874,0-3.216-.091-4.517-.076-.136-.057.125-.673.241-.768a3.58,3.58,0,0,0,.881-.138c.465-.115.521-.265.579-.956.039-.6.039-2.727.039-4.245,0-2.075.02-3.476,0-4.167-.019-.537-.214-.711-.583-.806-.291-.058-.776-.115-1.165-.173-.1-.1.2-.673.3-.749" transform="translate(-172.285 -18.845)" fill="#21313c"/>
      <path id="Path_784" data-name="Path 784" d="M49.205,47.67a.842.842,0,0,1-.059-.388.494.494,0,0,1,.059-.259,6.6,6.6,0,0,0,.745-.152c.344-.085.473-.273.493-.711.056-1.035.06-2.978.04-4.344v-.04a.553.553,0,0,0-.182-.488,3.9,3.9,0,0,0-1.03-.455c-.163-.048-.253-.134-.248-.234s.107-.218.319-.26a12.252,12.252,0,0,0,2.616-.676.384.384,0,0,1,.077.273c0,.06-.009.124-.015.189-.016.193-.035.412-.035.63a.144.144,0,0,0,.244.083,4.824,4.824,0,0,1,2.6-1.173,2.234,2.234,0,0,1,1.986,1.218.134.134,0,0,0,.113.066.129.129,0,0,0,.105-.056,5.2,5.2,0,0,1,2.691-1.228c1.589,0,2.539,1.19,2.539,3.182,0,.573-.005,1.3-.011,1.976,0,.595-.009,1.152-.009,1.537a.531.531,0,0,0,.314.4,4.019,4.019,0,0,0,.993.245h.016a1.477,1.477,0,0,1-.1.65c-.105,0-.251-.009-.433-.018-.33-.016-.783-.039-1.309-.039-1.056,0-1.608.02-2.136.055a1.6,1.6,0,0,1-.005-.646,5.6,5.6,0,0,0,.647-.141c.336-.111.434-.264.455-.71.008-.317.069-3.113-.039-3.776a1.69,1.69,0,0,0-1.752-1.494,3.084,3.084,0,0,0-1.747.666.255.255,0,0,0-.064.165v.014a7.149,7.149,0,0,1,.076,1.408c0,.364,0,.743,0,1.122,0,.771-.008,1.5,0,2.048a.516.516,0,0,0,.409.536c.1.022.177.041.256.059.152.037.31.075.545.113a1.045,1.045,0,0,1-.009.484.387.387,0,0,1-.068.165c-.587-.02-1.19-.037-2.06-.037-.264,0-.694.011-1.074.021-.308.008-.6.016-.765.017a.749.749,0,0,1-.058-.335.58.58,0,0,1,.061-.313l.234-.043c.2-.036.38-.067.545-.109.287-.091.4-.247.416-.614a28.865,28.865,0,0,0-.021-3.934A1.614,1.614,0,0,0,53.9,40.833a3.149,3.149,0,0,0-1.747.665.533.533,0,0,0-.161.4v1.017c0,1.236-.008,2.776.022,3.441a.545.545,0,0,0,.475.538c.085.025.23.048.4.076.1.016.2.034.314.054a1.378,1.378,0,0,1-.052.65c-.169,0-.377-.011-.615-.021-.364-.016-.818-.036-1.332-.036-.607,0-1.03.02-1.369.036-.228.011-.425.02-.623.021" transform="translate(-33.257 -26.869)" fill="#21313c"/>
      <path id="Path_785" data-name="Path 785" d="M100.76,40.5a1.656,1.656,0,0,0-.927.261A2.632,2.632,0,0,0,98.815,43.2c0,2.253,1.128,3.826,2.744,3.826a1.727,1.727,0,0,0,1.184-.419,3.042,3.042,0,0,0,.76-2.39c0-2.219-1.1-3.711-2.744-3.711m.311,7.356c-2.918,0-3.957-2.141-3.957-4.144a3.705,3.705,0,0,1,1.7-3.252,5.192,5.192,0,0,1,2.626-.776,3.673,3.673,0,0,1,3.782,3.895,4.029,4.029,0,0,1-1.8,3.558,5.1,5.1,0,0,1-2.355.719" transform="translate(-65.316 -26.883)" fill="#21313c"/>
      <path id="Path_786" data-name="Path 786" d="M189.893,40.5a1.652,1.652,0,0,0-.929.261,2.632,2.632,0,0,0-1.018,2.433c0,2.253,1.128,3.826,2.744,3.826a1.727,1.727,0,0,0,1.187-.419,3.042,3.042,0,0,0,.759-2.39c0-2.219-1.1-3.711-2.743-3.711m.311,7.356c-2.918,0-3.957-2.141-3.957-4.143a3.7,3.7,0,0,1,1.7-3.253,5.182,5.182,0,0,1,2.626-.776,3.674,3.674,0,0,1,3.782,3.894,4.026,4.026,0,0,1-1.8,3.558,5.085,5.085,0,0,1-2.355.72" transform="translate(-124.739 -26.883)" fill="#21313c"/>
      <path id="Path_787" data-name="Path 787" d="M161.013,40.411c-.9,0-1.481.71-1.481,1.809s.5,2.406,1.909,2.406a1.37,1.37,0,0,0,.9-.346,2.245,2.245,0,0,0,.545-1.579c0-1.434-.7-2.289-1.866-2.289M160.9,48a1.481,1.481,0,0,0-.727.182c-.712.455-1.042.909-1.042,1.437a1.535,1.535,0,0,0,.6,1.237,3.065,3.065,0,0,0,2.061.63c1.745,0,2.526-.938,2.526-1.867a1.324,1.324,0,0,0-.993-1.326A7.789,7.789,0,0,0,160.9,48m.116,4.455a3.767,3.767,0,0,1-2.446-.717,2.293,2.293,0,0,1-.909-1.7,1.328,1.328,0,0,1,.344-.864,9.035,9.035,0,0,1,1.582-1.267.084.084,0,0,0,.051-.077.081.081,0,0,0-.062-.08,1.671,1.671,0,0,1-1.121-1.091.094.094,0,0,0-.008-.043.252.252,0,0,1,.1-.314c.113-.08.293-.187.485-.3a6.535,6.535,0,0,0,.781-.508.128.128,0,0,0-.033-.2,2.511,2.511,0,0,1-1.791-2.636,2.621,2.621,0,0,1,1.1-2.157,5.018,5.018,0,0,1,2.461-.835h.045a5.074,5.074,0,0,1,1.878.418,2.986,2.986,0,0,0,1.111.176,1.5,1.5,0,0,0,1.2-.455,1.043,1.043,0,0,1,.064.344,1.293,1.293,0,0,1-.216.789.981.981,0,0,1-.746.325.621.621,0,0,1-.091,0,2.449,2.449,0,0,1-.455-.075l-.075.026c-.024.035-.008.073.011.122a.154.154,0,0,1,.011.03,5.318,5.318,0,0,1,.108.736,2.751,2.751,0,0,1-1.16,2.486,3.96,3.96,0,0,1-2,.775h0c-.015,0-.091.006-.233.019-.091.008-.209.019-.226.019h-.017c-.131.036-.473.2-.473.5,0,.251.155.563.894.619l.478.034a14.71,14.71,0,0,1,2.765.346,1.915,1.915,0,0,1,1.279,1.843,3.748,3.748,0,0,1-2.412,3.19,5.242,5.242,0,0,1-2.281.512" transform="translate(-105.684 -26.869)" fill="#21313c"/>
      <path id="Path_788" data-name="Path 788" d="M135.054,46.939a3.469,3.469,0,0,1-1.107-.288.509.509,0,0,1-.136-.273c-.039-.6-.039-2.324-.039-3.455a4.127,4.127,0,0,0-.545-2.3,2.338,2.338,0,0,0-1.981-1.037,4.6,4.6,0,0,0-2.6,1.229c-.02.019-.148.141-.145-.048s.032-.573.05-.818a.421.421,0,0,0-.127-.356,11.576,11.576,0,0,1-2.642.692c-.413.08-.517.477-.076.615h.006a3.769,3.769,0,0,1,1,.44.525.525,0,0,1,.155.48c.019,1.286.019,3.265-.039,4.34-.019.423-.136.576-.447.654l.029-.01a6.042,6.042,0,0,1-.719.135,1.047,1.047,0,0,0,0,.768c.195,0,1.182-.057,2-.057,1.125,0,1.708.057,2,.057a1.072,1.072,0,0,0,.078-.768,4.091,4.091,0,0,1-.8-.115c-.31-.076-.388-.231-.407-.575-.038-.9-.038-2.824-.038-4.13a.769.769,0,0,1,.213-.636,2.559,2.559,0,0,1,1.593-.575,1.738,1.738,0,0,1,1.182.4,1.645,1.645,0,0,1,.556,1.085c.077.727.057,2.19.057,3.455,0,.692-.057.865-.31.942a3.137,3.137,0,0,1-.8.154,1.048,1.048,0,0,0,0,.768c.5,0,1.091-.057,1.942-.057,1.068,0,1.748.057,2.02.057a1.069,1.069,0,0,0,.078-.768" transform="translate(-84.186 -26.814)" fill="#21313c"/>
    </g>
  </g>
</svg>
