<svg xmlns="http://www.w3.org/2000/svg" xmlns:xlink="http://www.w3.org/1999/xlink" width="100" height="100" viewBox="0 0 100 100">
  <defs>
    <clipPath id="clip-path">
      <rect id="Rectangle_194" data-name="Rectangle 194" width="100" height="100" transform="translate(0 0)" fill="#fff"/>
    </clipPath>
  </defs>
  <g id="Mask_Group_44" data-name="Mask Group 44" clip-path="url(#clip-path)">
    <g id="mysql-ar21" transform="translate(0 24.04)">
      <path id="Path_776" data-name="Path 776" d="M14.5,124.25h3.3V111.176l5.154,11.4A2.812,2.812,0,0,0,26,124.452a2.789,2.789,0,0,0,3.016-1.878l5.128-11.4V124.25h3.326V111.176a2,2,0,0,0-1.574-2.209c-2.513-.761-4.189-.1-4.95,1.6L25.9,121.837l-4.874-11.271c-.736-1.7-2.437-2.36-4.976-1.6a2,2,0,0,0-1.549,2.209V124.25ZM40.22,113.613h3.326V120.8c-.025.406.127,1.32,1.934,1.344.939.026,7.159,0,7.209,0v-8.58h3.326v11.754c0,2.894-3.584,3.528-5.255,3.554H40.3v-2.208H50.787c2.132-.229,1.879-1.294,1.879-1.65v-.864H45.633c-3.275-.026-5.382-1.472-5.407-3.122v-7.414Zm71.334-8.327a11.738,11.738,0,0,0-4.925.711c-.38.154-.99.154-1.04.635.2.2.228.533.406.812a5.928,5.928,0,0,0,1.32,1.548c.534.407,1.067.812,1.624,1.168.99.609,2.107.964,3.071,1.574.559.356,1.117.812,1.676,1.194.284.2.457.534.812.66v-.077c-.178-.228-.229-.558-.406-.812-.254-.253-.508-.482-.762-.736a12.013,12.013,0,0,0-2.64-2.564c-.812-.559-2.589-1.32-2.919-2.259l-.05-.051a10.374,10.374,0,0,0,1.751-.407c.864-.228,1.65-.178,2.538-.406.407-.1.812-.229,1.219-.356v-.228c-.457-.457-.787-1.066-1.269-1.5a33.843,33.843,0,0,0-4.189-3.122c-.787-.508-1.8-.838-2.64-1.269-.306-.152-.812-.229-.99-.482a10.161,10.161,0,0,1-1.041-1.955c-.736-1.4-1.447-2.944-2.081-4.417a27.242,27.242,0,0,0-1.294-2.894A25.592,25.592,0,0,0,89.9,80.563a12.2,12.2,0,0,0-3.243-1.041l-1.9-.1a10.02,10.02,0,0,1-1.168-.889c-1.447-.914-5.179-2.894-6.246-.279-.686,1.65,1.016,3.274,1.593,4.112a11.988,11.988,0,0,1,1.3,1.9c.171.431.228.889.406,1.346a30.394,30.394,0,0,0,1.32,3.4,12.843,12.843,0,0,0,.939,1.574c.2.279.559.406.634.863a7.249,7.249,0,0,0-.583,1.9,11.18,11.18,0,0,0,.736,8.529c.407.634,1.366,2.031,2.666,1.5,1.142-.457.888-1.9,1.218-3.173.077-.3.026-.508.178-.711v.051l1.041,2.107a14.514,14.514,0,0,0,3.3,3.4c.609.457,1.091,1.244,1.853,1.523v-.077h-.05A2.825,2.825,0,0,0,93.3,106a12.364,12.364,0,0,1-1.32-1.523,32.718,32.718,0,0,1-2.843-4.62c-.407-.787-.762-1.65-1.091-2.437-.154-.3-.154-.762-.407-.914a9.585,9.585,0,0,0-1.219,1.726,14.288,14.288,0,0,0-.71,3.833c-.1.026-.057,0-.1.051-.811-.2-1.091-1.041-1.4-1.751a10.984,10.984,0,0,1-.229-6.778c.178-.533.94-2.209.636-2.716-.154-.482-.66-.761-.94-1.142a10.256,10.256,0,0,1-.913-1.624c-.609-1.422-.913-3-1.574-4.417a13.557,13.557,0,0,0-1.27-1.954,12.6,12.6,0,0,1-1.4-1.98c-.127-.279-.3-.736-.1-1.041a.4.4,0,0,1,.354-.33c.33-.279,1.27.076,1.6.228a13.006,13.006,0,0,1,2.513,1.269c.356.254.737.736,1.194.864h.534c.812.178,1.726.051,2.486.279a16.254,16.254,0,0,1,3.656,1.752,22.516,22.516,0,0,1,7.92,8.682c.3.584.431,1.117.711,1.726.534,1.244,1.194,2.513,1.726,3.732a16.736,16.736,0,0,0,1.8,3.4c.381.533,1.9.812,2.589,1.091a18,18,0,0,1,1.752.711c.863.533,1.726,1.142,2.538,1.726.406.3,1.676.939,1.751,1.445ZM85.666,83.227a4.033,4.033,0,0,0-1.04.127V83.4h.05a8.194,8.194,0,0,0,.812,1.041l.584,1.219.05-.051a1.431,1.431,0,0,0,.534-1.269,5.652,5.652,0,0,1-.3-.533c-.152-.254-.482-.381-.686-.584Z" transform="translate(-14.498 -76.949)" fill="#00678c" fill-rule="evenodd"/>
      <path id="Path_777" data-name="Path 777" d="M146.65,188.288H156.2a7.243,7.243,0,0,0,3.046-.634c1.447-.66,2.132-1.548,2.132-2.716V182.5c0-.939-.787-1.828-2.36-2.437a8.311,8.311,0,0,0-2.818-.482h-4.011c-1.346,0-1.98-.407-2.158-1.294a1.251,1.251,0,0,1-.025-.3v-1.5a1.146,1.146,0,0,1,.025-.279c.178-.686.533-.864,1.707-.99h9.773v-2.209h-9.291a8.591,8.591,0,0,0-2.691.28c-1.955.609-2.818,1.574-2.818,3.274v1.93c0,1.5,1.676,2.767,4.519,3.071.3.026.634.026.964.026h3.427a1.539,1.539,0,0,1,.354.026c1.041.1,1.5.279,1.8.659a.772.772,0,0,1,.254.61v1.929a1.128,1.128,0,0,1-.457.787,2.369,2.369,0,0,1-1.422.457c-.127,0-.2.026-.33.026H146.65Zm35.387-3.833c0,2.259,1.707,3.528,5.1,3.783.33.026.634.05.964.05h8.631V186.08h-8.707c-1.931,0-2.666-.482-2.666-1.65V173.006h-3.332v11.449Zm-18.557.1v-7.869c0-2.006,1.421-3.225,4.189-3.6.3-.026.609-.051.888-.051h6.3c.33,0,.61.026.94.051,2.767.38,4.163,1.6,4.163,3.6v7.869A2.9,2.9,0,0,1,178,187.628l3.249,2.944h-3.833l-2.64-2.386-2.666.152h-3.554a7.773,7.773,0,0,1-1.929-.253C164.521,187.5,163.48,186.385,163.48,184.556Zm3.579-.176a2.857,2.857,0,0,0,.077.33c.178.913,1.04,1.421,2.36,1.421h3l-2.741-2.488h3.833l2.411,2.184a1.587,1.587,0,0,0,.838-1.067,1.43,1.43,0,0,0,.026-.33v-7.54a1.228,1.228,0,0,0-.026-.3c-.178-.863-1.04-1.344-2.335-1.344h-5c-1.472,0-2.437.634-2.437,1.649Z" transform="translate(-102.6 -140.987)" fill="#ce8b2c" fill-rule="evenodd"/>
    </g>
  </g>
</svg>
