<svg xmlns="http://www.w3.org/2000/svg" xmlns:xlink="http://www.w3.org/1999/xlink" width="100" height="100" viewBox="0 0 100 100">
  <defs>
    <clipPath id="clip-path">
      <rect id="Rectangle_194" data-name="Rectangle 194" width="100" height="100" fill="#fff"/>
    </clipPath>
    <clipPath id="clip-path-2">
      <path id="Path_803" data-name="Path 803" d="M141.9,153.368l-9.524,5.5a1.149,1.149,0,0,0-.576,1v11a1.149,1.149,0,0,0,.576,1l9.524,5.5a1.153,1.153,0,0,0,1.151,0l9.523-5.5a1.152,1.152,0,0,0,.574-1v-11a1.149,1.149,0,0,0-.576-1l-9.521-5.5a1.158,1.158,0,0,0-1.153,0" transform="translate(-131.804 -153.215)"/>
    </clipPath>
    <linearGradient id="linear-gradient" x1="-0.847" y1="-1.034" x2="-0.838" y2="-1.034" gradientUnits="objectBoundingBox">
      <stop offset="0.3" stop-color="#3e863d"/>
      <stop offset="0.5" stop-color="#55934f"/>
      <stop offset="0.8" stop-color="#5aad45"/>
    </linearGradient>
    <clipPath id="clip-path-3">
      <path id="Path_805" data-name="Path 805" d="M132.512,171.626a1.152,1.152,0,0,0,.339.3l8.17,4.719,1.361.782a1.154,1.154,0,0,0,.663.15,1.177,1.177,0,0,0,.226-.041l10.045-18.392a1.139,1.139,0,0,0-.268-.212l-6.236-3.6-3.3-1.9a1.2,1.2,0,0,0-.3-.12Zm0,0" transform="translate(-132.512 -153.312)"/>
    </clipPath>
    <linearGradient id="linear-gradient-2" x1="-0.742" y1="-0.932" x2="-0.737" y2="-0.932" gradientUnits="objectBoundingBox">
      <stop offset="0.57" stop-color="#3e863d"/>
      <stop offset="0.72" stop-color="#619857"/>
      <stop offset="1" stop-color="#76ac64"/>
    </linearGradient>
    <clipPath id="clip-path-4">
      <path id="Path_807" data-name="Path 807" d="M143.569,153.225a1.162,1.162,0,0,0-.46.147l-9.5,5.481,10.24,18.652a1.142,1.142,0,0,0,.409-.141l9.524-5.5a1.154,1.154,0,0,0,.556-.786L143.9,153.244a1.2,1.2,0,0,0-.233-.023c-.032,0-.063,0-.095,0" transform="translate(-133.613 -153.221)"/>
    </clipPath>
    <linearGradient id="linear-gradient-3" x1="-2.148" y1="-2.103" x2="-2.138" y2="-2.103" gradientUnits="objectBoundingBox">
      <stop offset="0.16" stop-color="#6bbf47"/>
      <stop offset="0.38" stop-color="#79b461"/>
      <stop offset="0.47" stop-color="#75ac64"/>
      <stop offset="0.7" stop-color="#659e5a"/>
      <stop offset="0.9" stop-color="#3e863d"/>
    </linearGradient>
  </defs>
  <g id="Mask_Group_50" data-name="Mask Group 50" clip-path="url(#clip-path)">
    <g id="Node.js_logo" transform="translate(0 19.377)">
      <path id="Path_798" data-name="Path 798" d="M126.408,134.445a1.9,1.9,0,0,1-.947-.253l-3.015-1.785c-.45-.252-.231-.341-.082-.392a6.087,6.087,0,0,0,1.363-.622.229.229,0,0,1,.224.016l2.316,1.374a.306.306,0,0,0,.28,0l9.031-5.213a.285.285,0,0,0,.138-.244V116.9a.29.29,0,0,0-.14-.249l-9.027-5.208a.278.278,0,0,0-.278,0l-9.025,5.208a.288.288,0,0,0-.143.246v10.421a.278.278,0,0,0,.14.242l2.473,1.429c1.343.671,2.163-.12,2.163-.916V117.793a.258.258,0,0,1,.262-.26h1.144a.259.259,0,0,1,.26.26v10.29a2.5,2.5,0,0,1-2.674,2.819,3.871,3.871,0,0,1-2.082-.565l-2.369-1.365a1.91,1.91,0,0,1-.947-1.648V116.9a1.9,1.9,0,0,1,.947-1.646l9.04-5.215a1.98,1.98,0,0,1,1.9,0l9.029,5.217a1.905,1.905,0,0,1,.947,1.646v10.421a1.911,1.911,0,0,1-.947,1.646l-9.029,5.215a1.9,1.9,0,0,1-.952.253" transform="translate(-76.982 -73.2)" fill="#689f63"/>
      <path id="Path_799" data-name="Path 799" d="M147.087,136.873c-3.951,0-4.78-1.814-4.78-3.335a.26.26,0,0,1,.262-.26h1.166a.261.261,0,0,1,.258.221c.176,1.189.7,1.788,3.09,1.788,1.9,0,2.713-.43,2.713-1.439,0-.581-.231-1.013-3.187-1.3-2.473-.244-4-.789-4-2.767,0-1.822,1.537-2.907,4.112-2.907,2.891,0,4.324,1,4.505,3.16a.263.263,0,0,1-.07.2.269.269,0,0,1-.192.084h-1.173a.259.259,0,0,1-.253-.2c-.283-1.25-.965-1.65-2.821-1.65-2.077,0-2.319.723-2.319,1.266,0,.658.285.85,3.088,1.221,2.776.368,4.094.888,4.094,2.839,0,1.967-1.641,3.095-4.5,3.095m11-11.052h.3a.263.263,0,0,0,.3-.276c0-.267-.183-.267-.285-.267h-.312Zm-.368-.854h.671c.231,0,.683,0,.683.515a.449.449,0,0,1-.368.479c.269.018.287.194.323.443a1.906,1.906,0,0,0,.1.515H158.7c-.011-.09-.075-.588-.075-.615-.027-.111-.066-.165-.2-.165h-.341v.782h-.378Zm-.807.972a1.459,1.459,0,1,0,1.454-1.456,1.461,1.461,0,0,0-1.454,1.456m3.2.007a1.741,1.741,0,1,1-1.741-1.741,1.746,1.746,0,0,1,1.741,1.741" transform="translate(-94.872 -82.809)" fill="#689f63"/>
      <path id="Path_800" data-name="Path 800" d="M21.461,20.469a1.156,1.156,0,0,0-.578-1l-9.575-5.509a1.118,1.118,0,0,0-.526-.151h-.1a1.138,1.138,0,0,0-.529.151L.579,19.465A1.165,1.165,0,0,0,0,20.471L.021,35.309a.57.57,0,0,0,.287.5.547.547,0,0,0,.574,0l5.692-3.26a1.167,1.167,0,0,0,.579-1V24.613a1.153,1.153,0,0,1,.578-1l2.423-1.4a1.15,1.15,0,0,1,.579-.156,1.129,1.129,0,0,1,.575.155l2.422,1.4a1.154,1.154,0,0,1,.579,1v6.932a1.171,1.171,0,0,0,.58,1L20.577,35.8a.565.565,0,0,0,.579,0,.581.581,0,0,0,.287-.5ZM66.642,28.2a.287.287,0,0,1-.145.25l-3.289,1.9a.29.29,0,0,1-.289,0l-3.289-1.9a.286.286,0,0,1-.145-.25V24.4a.291.291,0,0,1,.142-.251l3.287-1.9a.292.292,0,0,1,.292,0l3.289,1.9a.288.288,0,0,1,.145.251ZM67.53.073a.578.578,0,0,0-.86.506V15.273a.4.4,0,0,1-.607.35l-2.4-1.381a1.155,1.155,0,0,0-1.156,0l-9.578,5.528a1.154,1.154,0,0,0-.579,1V31.827a1.158,1.158,0,0,0,.579,1l9.578,5.532a1.161,1.161,0,0,0,1.157,0l9.578-5.534a1.159,1.159,0,0,0,.579-1V4.264a1.159,1.159,0,0,0-.595-1.01ZM99.425,24.3a1.157,1.157,0,0,0,.575-1v-2.68a1.157,1.157,0,0,0-.576-1l-9.517-5.525a1.156,1.156,0,0,0-1.16,0l-9.576,5.527a1.154,1.154,0,0,0-.579,1V31.676a1.16,1.16,0,0,0,.583,1.006l9.515,5.423a1.154,1.154,0,0,0,1.135.007l5.755-3.2a.577.577,0,0,0,0-1.006l-9.634-5.529a.574.574,0,0,1-.292-.5V24.411a.574.574,0,0,1,.289-.5l3-1.729a.572.572,0,0,1,.576,0l3,1.729a.576.576,0,0,1,.289.5v2.726a.577.577,0,0,0,.868.5Zm0,0" transform="translate(0 0)" fill="#333" fill-rule="evenodd"/>
      <path id="Path_801" data-name="Path 801" d="M263.663,71.283a.219.219,0,0,1,.222,0l1.838,1.06a.222.222,0,0,1,.111.192v2.123a.222.222,0,0,1-.111.192l-1.838,1.06a.219.219,0,0,1-.222,0l-1.837-1.06a.221.221,0,0,1-.113-.192V72.535a.219.219,0,0,1,.111-.192Zm0,0" transform="translate(-174.475 -47.502)" fill="#689f63" fill-rule="evenodd"/>
      <g id="Group_89" data-name="Group 89" transform="translate(26.233 13.995)" clip-path="url(#clip-path-2)">
        <path id="Path_802" data-name="Path 802" d="M143.527,141.058,116.691,127.9l-13.76,28.07,26.835,13.155Zm0,0" transform="translate(-112.555 -136.341)" fill="url(#linear-gradient)"/>
      </g>
      <g id="Group_90" data-name="Group 90" transform="translate(26.469 14.027)" clip-path="url(#clip-path-3)">
        <path id="Path_804" data-name="Path 804" d="M97.7,142.009l18.949,25.647,25.06-18.515-18.95-25.646Zm0,0" transform="translate(-109.306 -133.434)" fill="url(#linear-gradient-2)"/>
      </g>
      <g id="Group_91" data-name="Group 91" transform="translate(26.836 13.997)" clip-path="url(#clip-path-4)">
        <path id="Path_806" data-name="Path 806" d="M133.612,153.221v24.285h20.725V153.221Zm0,0" transform="translate(-133.612 -153.221)" fill="url(#linear-gradient-3)"/>
      </g>
    </g>
  </g>
</svg>
