<svg xmlns="http://www.w3.org/2000/svg" xmlns:xlink="http://www.w3.org/1999/xlink" width="100" height="100" viewBox="0 0 100 100">
  <defs>
    <clipPath id="clip-path">
      <rect id="Rectangle_194" data-name="Rectangle 194" width="100" height="100" transform="translate(0 0)" fill="#fff"/>
    </clipPath>
    <radialGradient id="radial-gradient" cx="0.329" cy="0.224" r="0.781" gradientTransform="translate(-0.01 0.01) scale(0.973 0.968)" gradientUnits="objectBoundingBox">
      <stop offset="0" stop-color="#34364e" stop-opacity="0.98"/>
      <stop offset="1" stop-color="#0c0824"/>
    </radialGradient>
  </defs>
  <g id="Mask_Group_46" data-name="Mask Group 46" clip-path="url(#clip-path)">
    <g id="photoshop-cc-4" transform="translate(0 1.25)">
      <path id="Path_789" data-name="Path 789" d="M12.5,78.391h91.667v89.167H12.5Z" transform="translate(-8.333 -74.225)" fill="url(#radial-gradient)"/>
      <path id="Path_790" data-name="Path 790" d="M4.167,70.058H95.833v89.167H4.167ZM0,163.392H100v-97.5H0Zm67.417-57.5c-3.292,0-4.417,1.667-4.417,3.042,0,1.5.75,2.542,5.167,4.833,6.542,3.167,8.583,6.208,8.583,10.667,0,6.667-5.083,10.25-11.958,10.25a18.127,18.127,0,0,1-8.542-1.792c-.292-.125-.333-.333-.333-.667V126.1c0-.417.208-.542.5-.333a15.465,15.465,0,0,0,8.375,2.458c3.292,0,4.667-1.375,4.667-3.25,0-1.5-.958-2.833-5.167-5-5.917-2.833-8.375-5.708-8.375-10.5,0-5.375,4.208-9.833,11.5-9.833a19.159,19.159,0,0,1,7.458,1.167.923.923,0,0,1,.417.833v5.708c0,.333-.208.542-.625.417A14.075,14.075,0,0,0,67.417,105.891ZM31.583,110.85c.958.083,1.708.083,3.375.083,4.875,0,9.458-1.708,9.458-8.333,0-5.292-3.292-7.958-8.833-7.958-1.667,0-3.25.083-4,.125ZM24.167,88.725c0-.292.583-.5.917-.5,2.667-.125,6.625-.208,10.75-.208,11.542,0,16.042,6.333,16.042,14.417,0,10.583-7.667,15.125-17.083,15.125-1.583,0-2.125-.083-3.25-.083v16c0,.333-.125.5-.5.5H24.667c-.333,0-.5-.125-.5-.5V88.725Z" transform="translate(0 -65.891)" fill="#31c5f0"/>
    </g>
  </g>
</svg>
