<svg xmlns="http://www.w3.org/2000/svg" xmlns:xlink="http://www.w3.org/1999/xlink" width="100" height="100" viewBox="0 0 100 100">
  <defs>
    <clipPath id="clip-path">
      <rect id="Rectangle_194" data-name="Rectangle 194" width="100" height="100" transform="translate(0 0)" fill="#fff"/>
    </clipPath>
  </defs>
  <g id="Mask_Group_43" data-name="Mask Group 43" clip-path="url(#clip-path)">
    <g id="postgresql-horizontal" transform="translate(0.674 43.144)">
      <path id="Path_765" data-name="Path 765" d="M76.12,20.9H72.252v-3.89H76.33q2.239,0,2.239,1.975,0,1.915-2.449,1.915m2.78-3.936a3.225,3.225,0,0,0-2.225-.712l-5.539.031v9.307h1.116l-.01-3.962h4.122a3.806,3.806,0,0,0,2.441-.712,2.389,2.389,0,0,0,.891-1.976,2.517,2.517,0,0,0-.795-1.976Zm7.224,6.671a1.907,1.907,0,0,1-.53.792,3.162,3.162,0,0,1-2.289.732,2.95,2.95,0,0,1-2.133-.711,2.517,2.517,0,0,1-.744-1.9,2.923,2.923,0,0,1,.195-1.1,2.158,2.158,0,0,1,.565-.812,3.028,3.028,0,0,1,2.119-.7q2.988,0,2.988,2.616a3.3,3.3,0,0,1-.167,1.092m.2-3.433a4.346,4.346,0,0,0-3.021-.933,4.152,4.152,0,0,0-2.921.95,3.009,3.009,0,0,0-.933,2.321,3.041,3.041,0,0,0,.96,2.34,3.209,3.209,0,0,0,1.235.7,5.7,5.7,0,0,0,1.655.215,4.448,4.448,0,0,0,3.031-.92,2.978,2.978,0,0,0,.933-2.331,2.979,2.979,0,0,0-.94-2.341Zm8.439,3.7q0,1.879-3.367,1.879a9.683,9.683,0,0,1-1.733-.131,2.971,2.971,0,0,1-1.144-.433,1.673,1.673,0,0,1-.54-.6,2.516,2.516,0,0,1-.26-.933l1.044-.01a1.2,1.2,0,0,0,.548,1.089,3.766,3.766,0,0,0,2.084.42q2.353,0,2.353-1.179a.976.976,0,0,0-.789-.95q-.16-.05-1.9-.265a12.071,12.071,0,0,1-2.173-.385,1.334,1.334,0,0,1-.929-1.329,1.5,1.5,0,0,1,.833-1.4,4.114,4.114,0,0,1,1.025-.3,8.525,8.525,0,0,1,1.425-.1q3.241,0,3.241,2.033H93.5c0-.953-.76-1.433-2.278-1.433a4.013,4.013,0,0,0-1.729.29.94.94,0,0,0-.569.89q0,.56.769.81a15.743,15.743,0,0,0,2.069.3,7.3,7.3,0,0,1,1.989.367,1.4,1.4,0,0,1,1.029,1.359Zm4.1,1.7-.425.06-.265.02a2.782,2.782,0,0,1-1.471-.3,1.134,1.134,0,0,1-.451-1.033V20.1H95.024v-.625h1.229l.01-2.007h.952v2.007h1.658v.635l-1.658-.01v4.132a.722.722,0,0,0,.245.633,1.613,1.613,0,0,0,.875.175.762.762,0,0,0,.2-.007q.167-.03.33-.075l.01.633Zm6.585-1.41a2.833,2.833,0,0,1-.889.49,3.546,3.546,0,0,1-1.149.167q-2.987,0-2.987-2.467a2.233,2.233,0,0,1,.764-1.8,3.227,3.227,0,0,1,2.153-.649,3.069,3.069,0,0,1,2.123.654,2.247,2.247,0,0,1,.724,1.753,2.329,2.329,0,0,1-.739,1.848m1.692-4.712H106.2l-.01,1.05a6.352,6.352,0,0,0-.9-.809,4.272,4.272,0,0,0-2.069-.439,4.213,4.213,0,0,0-2.839.849,2.78,2.78,0,0,0-.929,2.258,3.384,3.384,0,0,0,.235,1.3,2.625,2.625,0,0,0,.686.974,4.211,4.211,0,0,0,2.773.819A3.612,3.612,0,0,0,106.2,24.3v1.087A2.019,2.019,0,0,1,105.542,27a3.264,3.264,0,0,1-2.154.567,3.905,3.905,0,0,1-2.009-.388,1.609,1.609,0,0,1-.62-1.035h-.98a2.054,2.054,0,0,0,.867,1.488,5.344,5.344,0,0,0,2.767.529q3.73,0,3.733-2.773V19.48Zm5.15.618a4.965,4.965,0,0,0-.8-.067q-2.348,0-2.347,2.574v2.985h-.942l-.01-6.107.952.009v1.09h.05a1.91,1.91,0,0,1,.759-.977,3.533,3.533,0,0,1,1.7-.322h.639v.82Zm.886,2.053a2.726,2.726,0,0,1,.809-1.612,2.842,2.842,0,0,1,.929-.5,3.84,3.84,0,0,1,1.169-.165,3.062,3.062,0,0,1,2.073.7,2.04,2.04,0,0,1,.8,1.577h-5.785m5.878-1.884a3.052,3.052,0,0,0-1.24-.742,5.59,5.59,0,0,0-1.733-.241,4.329,4.329,0,0,0-2.871.86,2.9,2.9,0,0,0-1.02,2.341,2.988,2.988,0,0,0,.98,2.35,4.292,4.292,0,0,0,2.989.96,5.533,5.533,0,0,0,1.424-.174,3.929,3.929,0,0,0,1.145-.493,2.666,2.666,0,0,0,1.09-1.523H118.8a2.441,2.441,0,0,1-2.638,1.567,3.177,3.177,0,0,1-2.288-.766,2.242,2.242,0,0,1-.689-1.7h6.788a3.211,3.211,0,0,0-.91-2.433Z" transform="translate(-51.48 -13.773)" fill="#231f20"/>
      <path id="Path_766" data-name="Path 766" d="M229.391,22.661q0,2.72-4.387,2.72a6.313,6.313,0,0,1-3.838-.933,2.79,2.79,0,0,1-.989-2.349h1.177q0,2.539,3.649,2.539a4.728,4.728,0,0,0,2.533-.519,1.63,1.63,0,0,0,.66-1.438,1.375,1.375,0,0,0-.9-1.359,14.881,14.881,0,0,0-2.49-.529,12.909,12.909,0,0,1-3.229-.759,1.966,1.966,0,0,1-1.067-1.9,2.076,2.076,0,0,1,.91-1.858,6.228,6.228,0,0,1,3.359-.669q4.3,0,4.3,2.856h-1.188q0-2.14-3.193-2.139a4.8,4.8,0,0,0-2.342.433,1.512,1.512,0,0,0-.7,1.35,1.331,1.331,0,0,0,.9,1.31,16.472,16.472,0,0,0,2.82.61,9.749,9.749,0,0,1,2.967.767,1.924,1.924,0,0,1,1.05,1.867Zm9.567.925a4.6,4.6,0,0,1-1.491.793,6.109,6.109,0,0,1-1.861.264,4.979,4.979,0,0,1-3.4-1.133,3.807,3.807,0,0,1-1.3-3.019,3.811,3.811,0,0,1,1.286-3.064,5.069,5.069,0,0,1,3.408-1.1,4.767,4.767,0,0,1,3.383,1.148,3.468,3.468,0,0,1,.961,1.308,4.415,4.415,0,0,1,.31,1.707,3.9,3.9,0,0,1-1.3,3.093m.626.617a4.052,4.052,0,0,0,1.361-1.573,4.9,4.9,0,0,0,.441-2.133,4.475,4.475,0,0,0-1.44-3.476,4.853,4.853,0,0,0-1.86-1.069,8.149,8.149,0,0,0-2.49-.35,6.377,6.377,0,0,0-4.267,1.318,4.449,4.449,0,0,0-1.55,3.576,4.453,4.453,0,0,0,1.564,3.545,6.33,6.33,0,0,0,4.273,1.348,10.457,10.457,0,0,0,1.849-.143,4.528,4.528,0,0,0,1.34-.44l1.739,1.206.727-.667L239.587,24.2Zm10.617.952h-8.049v-9.32l1.106-.02v8.559h6.949l-.01.778Z" transform="translate(-150.841 -13.341)" fill="#367faf"/>
      <path id="Path_767" data-name="Path 767" d="M24.216,19.108c.112-.79.078-.906.773-.778l.177.013a4.664,4.664,0,0,0,1.643-.234c.883-.347,1.407-.927.536-.775-1.987.347-2.123-.223-2.123-.223,2.1-2.638,2.975-5.988,2.218-6.808-2.068-2.236-5.638-1.178-5.7-1.151l-.019,0a8.309,8.309,0,0,0-1.325-.117,3.7,3.7,0,0,0-2.1.532s-6.375-2.227-6.079,2.8c.063,1.069,1.808,8.091,3.889,5.97.761-.776,1.5-1.431,1.5-1.431a2.2,2.2,0,0,0,1.26.273l.035-.026a.98.98,0,0,0,.014.3c-.536.508-.379.6-1.451.784s-.447.527-.031.615a2.456,2.456,0,0,0,2.459-.677l-.031.107c.21.143.2,1.025.226,1.656a5.124,5.124,0,0,0,.231,1.566c.151.347.331,1.24,1.739.985,1.177-.214,2.078-.522,2.16-3.385" transform="translate(-12.193 -8.858)" fill="#231f20" stroke="#231f20" stroke-width="4.108"/>
      <path id="Path_768" data-name="Path 768" d="M27.342,17.333c-1.987.347-2.123-.223-2.123-.223,2.1-2.639,2.975-5.988,2.218-6.808-2.065-2.236-5.638-1.178-5.7-1.15l-.019,0a8.31,8.31,0,0,0-1.326-.117,3.7,3.7,0,0,0-2.1.532s-6.376-2.227-6.079,2.8c.063,1.069,1.808,8.091,3.889,5.97.761-.776,1.5-1.431,1.5-1.431a2.2,2.2,0,0,0,1.26.273l.036-.026a1,1,0,0,0,.014.3c-.536.508-.379.6-1.45.784s-.447.527-.031.615a2.456,2.456,0,0,0,2.459-.677l-.031.107a2.649,2.649,0,0,1,.333,1.64,3.855,3.855,0,0,0,.124,1.582c.166.382.331,1.24,1.74.985,1.177-.214,1.788-.768,1.872-1.693.06-.657.2-.56.2-1.148l.109-.278c.126-.891.02-1.178.745-1.045l.177.013A4.663,4.663,0,0,0,26.8,18.11c.883-.347,1.407-.927.536-.775Z" transform="translate(-12.192 -8.858)" fill="#417ba2"/>
      <g id="Group_87" data-name="Group 87" transform="translate(0 0)">
        <g id="Group_85" data-name="Group 85">
          <path id="Path_769" data-name="Path 769" d="M19.952,17.8a13.968,13.968,0,0,0,.205,3.733,1.6,1.6,0,0,0,2.011.939c1.177-.214,1.606-.628,1.791-1.542.133-.672.4-2.54.435-2.922M18.263,9.492s-6.383-2.21-6.083,2.819c.067,1.069,1.808,8.091,3.89,5.967.761-.776,1.448-1.384,1.448-1.384m4.195-7.8c-.221.059,3.549-1.168,5.691,1.152.757.82-.12,4.169-2.218,6.808" transform="translate(-12.169 -8.816)" fill="none" stroke="#fff" stroke-linecap="round" stroke-linejoin="round" stroke-width="1.369"/>
          <path id="Path_770" data-name="Path 770" d="M34.116,17.366s.133.57,2.123.223c.871-.152.347.428-.537.775-.725.285-2.349.358-2.376-.036-.068-1.017.855-.708.788-.962-.06-.229-.473-.454-.747-1.016-.238-.49-3.27-4.247.841-3.689a4.955,4.955,0,0,0-4.92-3.368c-3.848-.053-3.72,4.01-3.72,4.01" transform="translate(-21.102 -9.134)" fill="none" stroke="#fff" stroke-linecap="round" stroke-linejoin="bevel" stroke-width="1.369"/>
        </g>
        <g id="Group_86" data-name="Group 86" transform="translate(4.403 3.542)">
          <path id="Path_771" data-name="Path 771" d="M28.187,34.183c-.537.508-.379.6-1.451.784s-.447.527-.031.615a2.455,2.455,0,0,0,2.459-.677c.24-.285,0-.74-.331-.855a.546.546,0,0,0-.647.133Z" transform="translate(-25.884 -29.145)" fill="none" stroke="#fff" stroke-linejoin="round" stroke-width="1.369"/>
          <path id="Path_772" data-name="Path 772" d="M27.646,24.471a2.1,2.1,0,0,1,.3-1.069,3.648,3.648,0,0,0,.4-3.226c-.376-1.474-2.9-.307-2.9-.107a8.478,8.478,0,0,1-.042,1.96A1.983,1.983,0,0,0,27.632,24.2" transform="translate(-25.377 -19.442)" fill="none" stroke="#fff" stroke-linecap="round" stroke-linejoin="round" stroke-width="1.369"/>
        </g>
      </g>
      <g id="Group_88" data-name="Group 88" transform="translate(6.07 3.912)">
        <path id="Path_773" data-name="Path 773" d="M30.381,21.059c-.011.068.148.25.355.275a.394.394,0,0,0,.4-.186c.012-.068-.147-.143-.355-.168s-.384.011-.395.079Z" transform="translate(-30.38 -20.832)" fill="#fff" stroke="#fff" stroke-width="0.456"/>
        <path id="Path_774" data-name="Path 774" d="M47.772,20.64c.011.068-.147.25-.355.275a.393.393,0,0,1-.4-.187c-.011-.069.148-.143.355-.168s.383.011.4.079Z" transform="translate(-41.474 -20.553)" fill="#fff" stroke="#fff" stroke-width="0.228"/>
      </g>
      <path id="Path_775" data-name="Path 775" d="M50.61,19.4a14.132,14.132,0,0,1-.158,1.471c-.032.829.466,1.777-.284,2.727" transform="translate(-37.502 -15.871)" fill="none" stroke="#fff" stroke-linecap="round" stroke-linejoin="round" stroke-width="1.369"/>
    </g>
  </g>
</svg>
