<svg xmlns="http://www.w3.org/2000/svg" xmlns:xlink="http://www.w3.org/1999/xlink" width="100" height="100" viewBox="0 0 100 100">
  <defs>
    <clipPath id="clip-path">
      <rect id="Rectangle_194" data-name="Rectangle 194" width="100" height="100" fill="#fff"/>
    </clipPath>
  </defs>
  <g id="Mask_Group_42" data-name="Mask Group 42" clip-path="url(#clip-path)">
    <g id="iconfinder_7423887_react_react_native_icon" data-name="iconfinder_7423887_react_react native_icon" transform="translate(9.014 0.298)">
      <ellipse id="Ellipse_89" data-name="Ellipse 89" cx="7.495" cy="7.454" rx="7.495" ry="7.454" transform="translate(33.525 28.933)" fill="#61dafb"/>
      <path id="Path_764" data-name="Path 764" d="M72.67,68.871c5.883,5.69,11.686,9.057,16.36,9.057a8.133,8.133,0,0,0,4.191-1.042c4.191-2.4,5.722-8.416,4.271-16.991-.242-1.523-.564-3.046-.967-4.649,1.612-.481,3.062-.962,4.513-1.443,8.14-3.126,12.653-7.454,12.653-12.182,0-4.809-4.513-9.137-12.653-12.182A37.117,37.117,0,0,0,96.525,28c.4-1.6.725-3.126.967-4.649,1.37-8.736-.161-14.827-4.352-17.232A8.133,8.133,0,0,0,88.95,5.074c-4.594,0-10.477,3.366-16.36,9.057-5.8-5.69-11.6-9.057-16.279-9.057A8.133,8.133,0,0,0,52.12,6.116c-4.191,2.4-5.722,8.416-4.271,16.991.242,1.523.564,3.046.967,4.649-1.612.481-3.062.962-4.513,1.443-8.14,3.126-12.653,7.454-12.653,12.182,0,4.809,4.513,9.137,12.653,12.182a37.115,37.115,0,0,0,4.513,1.443c-.4,1.6-.725,3.126-.967,4.649-1.37,8.576.161,14.667,4.271,16.991a8.133,8.133,0,0,0,4.191,1.042c4.674.16,10.477-3.206,16.36-8.816Zm-4.513-10.82c1.451.08,2.982.08,4.513.08s3.062,0,4.513-.08c-1.451,1.924-2.982,3.687-4.513,5.37C71.139,61.738,69.608,59.975,68.157,58.051ZM58.164,49.8c.806,1.363,1.531,2.645,2.418,3.927-2.5-.321-4.835-.721-7.092-1.2.725-2.164,1.531-4.408,2.5-6.652.645,1.282,1.37,2.645,2.176,3.927ZM53.49,30.48c2.257-.481,4.594-.882,7.092-1.2-.806,1.282-1.612,2.565-2.418,3.927s-1.531,2.645-2.176,4.007A53.392,53.392,0,0,1,53.49,30.48Zm4.432,10.98c1.048-2.164,2.176-4.328,3.465-6.492,1.209-2.084,2.579-4.168,3.949-6.252,2.418-.16,4.835-.24,7.334-.24,2.579,0,5,.08,7.334.24,1.451,2.084,2.74,4.168,3.949,6.252,1.289,2.164,2.418,4.328,3.465,6.492-1.048,2.164-2.176,4.328-3.465,6.492C82.744,50.036,81.374,52.12,80,54.2c-2.418.16-4.835.24-7.334.24-2.579,0-5-.08-7.334-.24-1.451-2.084-2.74-4.168-3.949-6.252C60.1,45.789,58.97,43.625,57.922,41.461Zm31.511-4.328-2.176-4.007c-.806-1.363-1.531-2.645-2.418-3.927,2.5.321,4.835.721,7.092,1.2-.725,2.244-1.531,4.488-2.5,6.732Zm0,8.656c.967,2.244,1.773,4.488,2.5,6.652-2.257.481-4.594.882-7.092,1.2.806-1.282,1.612-2.565,2.418-3.927.725-1.2,1.451-2.565,2.176-3.927ZM91.287,73.6a4.392,4.392,0,0,1-2.337.561c-3.949,0-8.865-3.206-13.7-8.015a84,84,0,0,0,6.85-8.416,74.185,74.185,0,0,0,10.8-1.683,41.226,41.226,0,0,1,.886,4.328C94.913,67.188,94.027,72.077,91.287,73.6Zm4.191-42.238c9.026,2.565,14.426,6.492,14.426,10.1,0,3.126-3.707,6.252-10.235,8.736-1.289.481-2.74.962-4.191,1.363a83.957,83.957,0,0,0-3.949-10.1,72.352,72.352,0,0,0,3.949-10.1ZM89.03,8.76a4.585,4.585,0,0,1,2.337.561c2.659,1.523,3.627,6.332,2.5,13.224-.242,1.363-.564,2.805-.886,4.328a105.12,105.12,0,0,0-10.8-1.683,74.129,74.129,0,0,0-6.85-8.416C80.165,12.047,85.081,8.76,89.03,8.76ZM77.184,24.87c-1.451-.08-2.982-.08-4.513-.08s-3.062,0-4.513.08c1.451-1.924,2.982-3.687,4.513-5.37C74.2,21.183,75.733,23.027,77.184,24.87ZM54.054,9.321a4.392,4.392,0,0,1,2.337-.561c3.949,0,8.865,3.206,13.7,8.015a84,84,0,0,0-6.85,8.416,74.183,74.183,0,0,0-10.8,1.683,41.228,41.228,0,0,1-.886-4.328c-1.128-6.813-.242-11.621,2.5-13.224ZM49.863,51.559c-9.026-2.565-14.426-6.492-14.426-10.1,0-3.126,3.707-6.252,10.235-8.736,1.289-.481,2.74-.962,4.191-1.363a83.958,83.958,0,0,0,3.949,10.1A76.433,76.433,0,0,0,49.863,51.559Zm1.692,8.816c.242-1.363.564-2.805.886-4.328a105.12,105.12,0,0,0,10.8,1.683,74.129,74.129,0,0,0,6.85,8.416c-4.835,4.729-9.751,8.015-13.7,8.015a4.585,4.585,0,0,1-2.337-.561C51.314,72.077,50.428,67.188,51.556,60.376ZM48.171,93.4a6.507,6.507,0,0,0,.886-6.973,5.676,5.676,0,0,0-5.48-3.607c-2.982-.08-6.044,0-9.026,0h-.564v20.758H36.4V95.721h3.788a1.222,1.222,0,0,1,1.128.561l4.835,7.454c.081.16.322.4.484.4h3.143c-1.934-2.965-3.788-5.771-5.722-8.656A5.861,5.861,0,0,0,48.171,93.4ZM36.4,93.236V85.3h.886c1.854,0,3.788-.08,5.641.08a3.792,3.792,0,0,1,3.707,3.927,4,4,0,0,1-3.949,3.927C40.757,93.316,38.823,93.236,36.4,93.236Zm31.188,1.042a7.276,7.276,0,0,0-10.4-5.29c-3.062,1.363-4.432,4.007-4.513,7.293a7.749,7.749,0,0,0,2.579,6.412c2.176,1.924,4.835,2.164,7.575,1.683a7.4,7.4,0,0,0,3.949-2.164c-.4-.561-.806-1.122-1.209-1.6-2.257,1.924-4.755,2.565-7.495,1.282a5.948,5.948,0,0,1-2.821-4.649H67.754V96.2a4.918,4.918,0,0,0-.161-1.924ZM55.424,95.56c-.242-2.4,2.176-4.969,4.835-4.969,3.062-.08,5,1.763,5.077,4.969Zm24.741-6.973a14.439,14.439,0,0,0-3.707-.24,7.679,7.679,0,0,0-5,2.485c.4.561.725,1.122,1.209,1.763a2.134,2.134,0,0,1,.484-.4,5.861,5.861,0,0,1,4.674-1.683c1.451.08,2.821.561,3.224,2a16.894,16.894,0,0,1,.322,3.527.475.475,0,0,1-.4-.16,6.99,6.99,0,0,0-6.447-1.362,4.779,4.779,0,0,0-3.707,4.408,4.891,4.891,0,0,0,3.143,5.21,7.323,7.323,0,0,0,4.352.24c1.128-.24,1.612-.882,3.224-1.763v1.042h2.257c0-3.206.081-7.133,0-10.82a4.116,4.116,0,0,0-3.627-4.248Zm1.128,10.1a2.167,2.167,0,0,0,0,.721c0,1.683-.4,2.244-2.015,2.885a5.372,5.372,0,0,1-3.546.16A3.156,3.156,0,0,1,73.4,99.488a3.1,3.1,0,0,1,2.176-3.126,5.274,5.274,0,0,1,5.077.882A1.34,1.34,0,0,1,81.294,98.686Zm12.572-7.935a4.8,4.8,0,0,1,5.48,1.523l.242.16c.564-.481,1.048-.962,1.692-1.523a3.346,3.346,0,0,1-.484-.641c-2.337-2.485-6.931-2.805-9.751-.8-3.949,2.885-3.868,8.5-1.934,11.461a7.4,7.4,0,0,0,7.656,3.366,6.8,6.8,0,0,0,4.594-2.645c-.564-.481-1.128-.962-1.692-1.523a1.408,1.408,0,0,0-.322.4,4.954,4.954,0,0,1-7.737-.4,6.308,6.308,0,0,1-1.048-5.049,4.7,4.7,0,0,1,3.3-4.328Zm16.763,10.9a1,1,0,0,0-.242.16,2.049,2.049,0,0,1-2.015.321c-.725-.321-.806-.962-.886-1.6V91.393c0-.16,0,.16.081-.641h3.062v-2.4H107.4V84.34h-2.418v4.328h-2.1c-.161,0-.4.16-.4.321a12.741,12.741,0,0,0,0,1.763h2.579V101.01a3.172,3.172,0,0,0,1.451,3.046,4.691,4.691,0,0,0,4.594-.321c.161-.08.242-.4.242-.481C111.112,102.774,110.87,102.213,110.628,101.652Z" transform="translate(-31.65 -5.074)" fill="#61dafb"/>
    </g>
  </g>
</svg>
