<svg xmlns="http://www.w3.org/2000/svg" xmlns:xlink="http://www.w3.org/1999/xlink" width="50" height="50" viewBox="0 0 50 50">
  <defs>
    <clipPath id="clip-path">
      <rect id="Rectangle_201" data-name="Rectangle 201" width="50" height="50" transform="translate(-20512 -5760)" fill="#fff"/>
    </clipPath>
  </defs>
  <g id="Mask_Group_64" data-name="Mask Group 64" transform="translate(20512 5760)" clip-path="url(#clip-path)">
    <g id="iconfinder_3225183_app_logo_media_popular_social_icon" transform="translate(-20512 -5760)">
      <g id="Dark_Blue">
        <path id="Path_839" data-name="Path 839" d="M25,0h0A25,25,0,0,1,50,25h0A25,25,0,0,1,25,50h0A25,25,0,0,1,0,25H0A25,25,0,0,1,25,0Z" fill="#1da1f2"/>
      </g>
      <g id="Logo_FIXED">
        <path id="Path_840" data-name="Path 840" d="M19.2,37.7c11.79,0,18.245-9.77,18.245-18.245,0-.275,0-.555-.02-.83a13.034,13.034,0,0,0,3.2-3.32,12.737,12.737,0,0,1-3.68,1.01,6.427,6.427,0,0,0,2.82-3.545,12.829,12.829,0,0,1-4.07,1.555A6.416,6.416,0,0,0,24.77,20.17a18.213,18.213,0,0,1-13.215-6.7,6.418,6.418,0,0,0,1.985,8.56,6.379,6.379,0,0,1-2.91-.8v.08A6.413,6.413,0,0,0,15.775,27.6a6.437,6.437,0,0,1-2.895.11,6.426,6.426,0,0,0,5.99,4.455,12.846,12.846,0,0,1-7.96,2.75,11.95,11.95,0,0,1-1.525-.1A18.062,18.062,0,0,0,19.2,37.7" fill="#fff"/>
        <path id="Path_841" data-name="Path 841" d="M25,0h0A25,25,0,0,1,50,25h0A25,25,0,0,1,25,50h0A25,25,0,0,1,0,25H0A25,25,0,0,1,25,0Z" fill="none"/>
      </g>
    </g>
  </g>
</svg>
