<svg xmlns="http://www.w3.org/2000/svg" xmlns:xlink="http://www.w3.org/1999/xlink" width="100" height="100" viewBox="0 0 100 100">
  <defs>
    <clipPath id="clip-path">
      <rect id="Rectangle_194" data-name="Rectangle 194" width="100" height="100" transform="translate(0 0)" fill="#fff"/>
    </clipPath>
  </defs>
  <g id="Mask_Group_49" data-name="Mask Group 49" clip-path="url(#clip-path)">
    <g id="adobe-xd" transform="translate(0 1.25)">
      <path id="Path_795" data-name="Path 795" d="M12.5,12.5h91.667v89.167H12.5Z" transform="translate(-8.333 -8.333)" fill="#2e001e"/>
      <path id="Path_796" data-name="Path 796" d="M0,0V97.5H100V0ZM4.167,4.167H95.833V93.333H4.167Z" fill="#ff2bc2"/>
      <path id="Path_797" data-name="Path 797" d="M110.3,87.208a5.721,5.721,0,0,0-2.417-.417c-5.25,0-8.75,4.042-8.75,10.75,0,7.667,3.583,10.75,8.25,10.75a7.861,7.861,0,0,0,2.875-.458V87.208ZM91.63,97.875c0-9.708,6.25-17.292,16.5-17.292a18.476,18.476,0,0,1,2.167.083V69.833a.418.418,0,0,1,.417-.417h6.708c.333,0,.417.125.417.333v38.083a29.677,29.677,0,0,0,.208,4.083c0,.292,0,.333-.25.458a24.819,24.819,0,0,1-10.667,2.417c-9.042,0-15.5-5.583-15.5-16.917Zm-14.208-6.75L89.089,113.75c.208.333.083.667-.25.667h-7.25a.818.818,0,0,1-.875-.542q-4-8.25-8.167-17.125h-.083c-2.5,5.583-5.25,11.667-7.917,17.167a.8.8,0,0,1-.75.458H56.88c-.417,0-.458-.333-.25-.583L68.047,91.833,57.005,70a.369.369,0,0,1,.292-.625h7.167c.417,0,.625.083.75.458,2.625,5.542,5.292,11,7.792,16.583h.083c2.417-5.5,5.083-11.042,7.625-16.5.208-.333.333-.542.75-.542h6.708c.333,0,.458.25.25.625Z" transform="translate(-37.672 -46.25)" fill="#ff2bc2"/>
    </g>
  </g>
</svg>
